<svg width="516" height="174" viewBox="0 0 516 174" fill="none" xmlns="http://www.w3.org/2000/svg">
<path fill-rule="evenodd" clip-rule="evenodd" d="M53.4971 1V0H50C48.9002 0 47.8086 0.0354918 46.7266 0.105423L46.7913 1.10335L46.8557 2.10127C47.8948 2.03412 48.9434 2 50 2L53.4971 2V1ZM40.4358 1.93269L40.2417 0.951705C38.082 1.37898 35.9722 1.94536 33.9221 2.64113L34.2434 3.58809L34.565 4.53503C36.5322 3.86734 38.5571 3.32378 40.6299 2.91368L40.4358 1.93269ZM28.3237 6.04284L27.8806 5.1463C25.9172 6.11645 24.0266 7.21173 22.2192 8.42173L22.7754 9.2527L23.3318 10.0837C25.0669 8.92198 26.8818 7.87056 28.7666 6.93937L28.3237 6.04284ZM17.6921 13.1589L17.0325 12.4073C15.3921 13.8469 13.8469 15.3922 12.4072 17.0325L13.1589 17.6921L13.9104 18.3517C15.2927 16.7767 16.7766 15.2929 18.3516 13.9105L17.6921 13.1589ZM9.25269 22.7755L8.42164 22.2192C7.21168 24.0266 6.11622 25.9172 5.14625 27.8808L6.04273 28.3237L6.93922 28.7667C7.87061 26.882 8.92188 25.0671 10.0835 23.3319L9.25269 22.7755ZM3.58814 34.2435L2.64112 33.9221C1.94532 35.9722 1.37891 38.082 0.951667 40.2419L1.93262 40.436L2.91358 40.63C3.32374 38.5571 3.86719 36.5323 4.53492 34.5649L3.58814 34.2435ZM1 115.55H0V119C0 120.1 0.0354002 121.191 0.105468 122.273L1.10327 122.209L2.10132 122.144C2.03394 121.105 2 120.057 2 119L2 115.55H1ZM1.93262 128.564L0.951659 128.758C1.37891 130.918 1.94531 133.028 2.64111 135.078L3.58813 134.756L4.53491 134.435C3.86719 132.468 3.32373 130.443 2.91357 128.37L1.93262 128.564ZM6.04272 140.676L5.14624 141.119C6.11645 143.083 7.21167 144.973 8.42163 146.781L9.25268 146.224L10.0835 145.668C8.92187 143.933 7.8706 142.118 6.93921 140.233L6.04272 140.676ZM13.1589 151.308L12.4072 151.967C13.8469 153.608 15.3921 155.153 17.0325 156.593L17.6921 155.841L18.3518 155.089C16.7766 153.707 15.2927 152.223 13.9104 150.648L13.1589 151.308ZM22.7754 159.747L22.2192 160.578C24.0266 161.788 25.9172 162.884 27.8806 163.854L28.3237 162.957L28.7666 162.061C26.8821 161.129 25.0669 160.078 23.3318 158.916L22.7754 159.747ZM34.2434 165.412L33.9221 166.359C35.9722 167.055 38.082 167.621 40.2419 168.048L40.436 167.067L40.6299 166.086C38.5571 165.676 36.5322 165.133 34.5649 164.465L34.2434 165.412ZM515.113 168V169H508.119V168V167H515.113V168ZM501.125 168V169H494.131V168V167H501.125V168ZM487.137 168V169H480.142V168V167H487.137V168ZM473.148 168V169H466.154V168V167H473.148V168ZM459.16 168V169H452.166V168V167H459.16V168ZM445.171 168V169H438.177V168V167H445.171V168ZM431.183 168V169H424.189V168V167H431.183V168ZM417.195 168V169H410.2V168V167H417.195V168ZM403.206 168V169H396.212V168V167H403.206V168ZM389.218 168V169H382.224V168V167H389.218V168ZM375.229 168V169H368.235V168V167H375.229V168ZM361.241 168V169H354.247V168V167H361.241V168ZM347.253 168V169H340.258V168V167H347.253V168ZM333.264 168V169H326.27V168V167H333.264V168ZM319.276 168V169H312.281V168V167H319.276V168ZM305.287 168V169H298.293V168V167H305.287V168ZM291.299 168V169H284.305V168V167H291.299V168ZM277.31 168V169H270.316V168V167H277.31V168ZM263.322 168V169H256.328V168V167H263.322V168ZM249.334 168V169H242.34V168V167H249.334V168ZM235.345 168V169H228.351V168V167H235.345V168ZM221.357 168V169H214.363V168V167H221.357V168ZM207.369 168V169H200.375V168V167H207.369V168ZM193.38 168V169H186.386V168V167H193.38V168ZM179.392 168V169H172.398V168V167H179.392V168ZM165.404 168V169H158.41V168V167H165.404V168ZM151.416 168V169H144.421V168V167H151.416V168ZM137.427 168V169H130.433V168V167H137.427V168ZM123.439 168V169H116.445V168V167H123.439V168ZM109.451 168V169H102.457V168V167H109.451V168ZM95.4624 168V169H88.4683V168V167H95.4624V168ZM81.4741 168V169H74.48V168V167H81.4741V168ZM67.4858 168V169H60.4917V168V167H67.4858V168ZM53.4976 168V169H50C48.9001 169 47.8086 168.964 46.7266 168.895L46.7913 167.897L46.8557 166.899C47.8948 166.966 48.9434 167 50 167H53.4976V168ZM1 108.65H0V101.75H1H2L2 108.65H1ZM1 94.85H2.17372e-06L2.79479e-06 87.95H1H2L2 94.85H1ZM1 81.05H3.41585e-06L4.03691e-06 74.15H1H2L2 81.05H1ZM1 67.25H4.65798e-06L5.27904e-06 60.35H1.00001H2.00001L2 67.25H1ZM1.00001 53.45H5.9001e-06L6.21064e-06 50C6.30962e-06 48.9002 0.0354068 47.8088 0.105475 46.7267L1.10328 46.7912L2.10132 46.8557C2.03394 47.8949 2.00001 48.9433 2.00001 50L2.00001 53.45H1.00001ZM60.4912 1V0H67.4854V1V2L60.4912 2V1ZM74.4795 1V2.07857e-06L81.4739 2.67247e-06V1V2L74.4795 2V1ZM88.468 1V4.95286e-06H95.4622V1V2L88.468 2V1ZM102.456 1V4.95286e-06H109.45V1.00001V2.00001L102.456 2V1Z" fill="#B7BAC2"/>
<path d="M510 163L515 168L510 173" stroke="#B7BAC2" stroke-width="2" stroke-linejoin="round"/>
</svg>
