<svg width="1187" height="174" viewBox="0 0 1187 174" fill="none" xmlns="http://www.w3.org/2000/svg">
<path fill-rule="evenodd" clip-rule="evenodd" d="M1133.5 173V174H1137C1138.1 174 1139.19 173.964 1140.27 173.895L1140.21 172.897L1140.14 171.899C1139.11 171.966 1138.06 172 1137 172H1133.5V173ZM1146.56 172.067L1146.76 173.048C1148.92 172.621 1151.03 172.055 1153.08 171.359L1152.76 170.412L1152.44 169.465C1150.47 170.133 1148.44 170.676 1146.37 171.086L1146.56 172.067ZM1158.68 167.957L1159.12 168.854C1161.08 167.884 1162.97 166.788 1164.78 165.578L1164.23 164.747L1163.67 163.916C1161.93 165.078 1160.12 166.129 1158.23 167.061L1158.68 167.957ZM1169.31 160.841L1169.97 161.593C1171.61 160.153 1173.15 158.608 1174.59 156.968L1173.84 156.308L1173.09 155.648C1171.71 157.223 1170.22 158.707 1168.65 160.089L1169.31 160.841ZM1177.75 151.224L1178.58 151.781C1179.79 149.973 1180.88 148.083 1181.85 146.119L1180.96 145.676L1180.06 145.233C1179.13 147.118 1178.08 148.933 1176.92 150.668L1177.75 151.224ZM1183.41 139.756L1184.36 140.078C1185.06 138.028 1185.62 135.918 1186.05 133.758L1185.07 133.564L1184.09 133.37C1183.68 135.443 1183.13 137.468 1182.47 139.435L1183.41 139.756ZM1186 53.7H1187V50C1187 48.9002 1186.97 47.8088 1186.9 46.7267L1185.9 46.7912L1184.9 46.8557C1184.97 47.8949 1185 48.9433 1185 50V53.7H1186ZM1185.07 40.436L1186.05 40.2419C1185.62 38.082 1185.06 35.9722 1184.36 33.9221L1183.41 34.2435L1182.47 34.5649C1183.13 36.5323 1183.68 38.5571 1184.09 40.63L1185.07 40.436ZM1180.96 28.3237L1181.85 27.8808C1180.88 25.9172 1179.79 24.0266 1178.58 22.2192L1177.75 22.7755L1176.92 23.3318C1178.08 25.0671 1179.13 26.882 1180.06 28.7667L1180.96 28.3237ZM1173.84 17.6921L1174.59 17.0325C1173.15 15.3922 1171.61 13.8469 1169.97 12.4073L1169.31 13.1589L1168.65 13.9105C1170.22 15.2929 1171.71 16.7767 1173.09 18.3517L1173.84 17.6921ZM1164.23 9.2527L1164.78 8.42171C1162.97 7.21171 1161.08 6.11643 1159.12 5.14628L1158.68 6.04284L1158.23 6.93938C1160.12 7.87056 1161.93 8.92197 1163.67 10.0837L1164.23 9.2527ZM1152.76 3.58808L1153.08 2.64112C1151.03 1.94536 1148.92 1.37897 1146.76 0.951693L1146.56 1.93269L1146.37 2.91368C1148.44 3.32377 1150.47 3.86733 1152.44 4.53503L1152.76 3.58808ZM0.445312 1V0H7.4395V1V2H0.445312V1ZM14.4337 1V0H21.4279V1V2H14.4337V1ZM28.4221 1V0H35.4162V1V2H28.4221V1ZM42.4104 1V0H49.4046V1V2H42.4104V1ZM56.3988 1V0H63.393V1V2H56.3988V1ZM70.3872 1V0H77.3814V1V2H70.3872V1ZM84.3755 1V0H91.3697V1V2H84.3755V1ZM98.3639 1V0H105.358V1V2H98.3639V1ZM112.352 1V0H119.346V1V2H112.352V1ZM126.341 1V0H133.335V1V2H126.341V1ZM140.329 1V0H147.323V1V2H140.329V1ZM154.317 1V0H161.312V1V2H154.317V1ZM168.306 1V0H175.3V1V2H168.306V1ZM182.294 1V0H189.288V1V2H182.294V1ZM196.283 1V0H203.277V1V2H196.283V1ZM210.271 1V0H217.265V1V2H210.271V1ZM224.259 1V0H231.253V1V2H224.259V1ZM238.248 1V0H245.242V1V2H238.248V1ZM252.236 1V0H259.23V1V2H252.236V1ZM266.224 1V0H273.218V1V2H266.224V1ZM280.213 1V0H287.207V1V2H280.213V1ZM294.201 1V0H301.195V1V2H294.201V1ZM308.189 1V0H315.183V1V2H308.189V1ZM322.178 1V0H329.172V1V2H322.178V1ZM336.166 1V0H343.16V1V2H336.166V1ZM350.154 1V0H357.148V1V2H350.154V1ZM364.143 1V0H371.137V1V2H364.143V1ZM378.131 1V0H385.125V1V2H378.131V1ZM392.119 1V0H399.113V1V2H392.119V1ZM406.108 1V0H413.102V1V2H406.108V1ZM420.096 1V0H427.09V1V2H420.096V1ZM434.084 1V0H441.079V1V2H434.084V1ZM448.073 1V0H455.067V1V2H448.073V1ZM462.061 1V0H469.055V1V2H462.061V1ZM476.049 1V0H483.044V1V2H476.049V1ZM490.038 1V0H497.032V1V2H490.038V1ZM504.026 1V0H511.021V1V2H504.026V1ZM518.015 1V0H525.009V1V2H518.015V1ZM532.003 1V0H538.997V1V2H532.003V1ZM545.992 1V0H552.986V1V2H545.992V1ZM559.98 1V0H566.974V1V2H559.98V1ZM573.968 1V0H580.962V1V2H573.968V1ZM587.957 1V0H594.951V1V2H587.957V1ZM601.945 1V0H608.939V1V2H601.945V1ZM615.934 1V0H622.928V1V2H615.934V1ZM629.922 1V0H636.916V1V2H629.922V1ZM643.91 1V0H650.905V1V2H643.91V1ZM657.899 1V0H664.893V1V2H657.899V1ZM671.887 1V0H678.881V1V2H671.887V1ZM685.876 1V0H692.87V1V2H685.876V1ZM699.864 1V0H706.858V1V2H699.864V1ZM713.852 1V0H720.847V1V2H713.852V1ZM727.841 1V0H734.835V1V2H727.841V1ZM741.829 1V0H748.823V1V2H741.829V1ZM755.818 1V0H762.812V1V2H755.818V1ZM769.806 1V0H776.8V1V2H769.806V1ZM783.794 1V0H790.789V1V2H783.794V1ZM797.783 1V0H804.777V1V2H797.783V1ZM811.771 1V0H818.765V1V2H811.771V1ZM825.76 1V0H832.754V1V2H825.76V1ZM839.748 1V0H846.742V1V2H839.748V1ZM853.736 1V0H860.731V1V2H853.736V1ZM867.725 1V0H874.719V1V2H867.725V1ZM881.713 1V0H888.707V1V2H881.713V1ZM895.702 1V0H902.696V1V2H895.702V1ZM909.69 1V0H916.684V1V2H909.69V1ZM923.678 1V0H930.673V1V2H923.678V1ZM937.667 1V0H944.661V1V2H937.667V1ZM951.655 1V0H958.649V1V2H951.655V1ZM965.643 1V0H972.638V1V2H965.643V1ZM979.632 1V0H986.626V1V2H979.632V1ZM993.62 1V0H1000.61V1V2H993.62V1ZM1007.61 1V0H1014.6V1V2H1007.61V1ZM1021.6 1V0H1028.59V1V2H1021.6V1ZM1035.58 1V0H1042.58V1V2H1035.58V1ZM1049.57 1V0H1056.57V1V2H1049.57V1ZM1063.56 1V0H1070.56V1V2H1063.56V1ZM1077.55 1V0H1084.54V1V2H1077.55V1ZM1091.54 1V0H1098.53V1V2H1091.54V1ZM1105.53 1V0H1112.52V1V2H1105.53V1ZM1119.51 1V0H1126.51V1V2H1119.51V1ZM1133.5 1V0H1137C1138.1 0 1139.19 0.0355046 1140.27 0.10543L1140.21 1.10335L1140.14 2.10127C1139.11 2.03411 1138.06 2 1137 2H1133.5V1ZM1186 61.1H1187V68.5H1186H1185V61.1H1186ZM1186 75.9H1187V83.3H1186H1185V75.9H1186ZM1186 90.7H1187V98.1H1186H1185V90.7H1186ZM1186 105.5H1187V112.9H1186H1185V105.5H1186ZM1186 120.3H1187V124C1187 125.1 1186.97 126.191 1186.9 127.273L1185.9 127.209L1184.9 127.144C1184.97 126.105 1185 125.057 1185 124V120.3H1186ZM1126.51 173V174H1119.52V173V172H1126.51V173ZM1112.52 173V174H1105.53V173V172H1112.52V173ZM1098.53 173V174H1091.54V173V172H1098.53V173ZM1084.54 173V174H1077.55V173V172H1084.54V173ZM1070.56 173V174H1063.56V173V172H1070.56V173ZM1056.57 173V174H1049.57V173V172H1056.57V173ZM1042.58 173V174H1035.58V173V172H1042.58V173ZM1028.59 173V174H1021.6V173V172H1028.59V173ZM1014.6 173V174H1007.61V173V172H1014.6V173ZM1000.61 173V174H993.62V173V172H1000.61V173ZM986.626 173V174H979.631V173V172H986.626V173ZM972.637 173V174H965.643V173V172H972.637V173ZM958.649 173V174H951.655V173V172H958.649V173ZM944.66 173V174H937.666V173V172H944.66V173ZM930.672 173V174H923.678V173V172H930.672V173ZM916.684 173V174H909.69V173V172H916.684V173ZM902.695 173V174H895.701V173V172H902.695V173ZM888.707 173V174H881.713V173V172H888.707V173ZM874.719 173V174H867.724V173V172H874.719V173ZM860.73 173V174H853.736V173V172H860.73V173ZM846.742 173V174H839.748V173V172H846.742V173ZM832.754 173V174H825.759V173V172H832.754V173ZM818.765 173V174H811.771V173V172H818.765V173ZM804.777 173V174H797.783V173V172H804.777V173ZM790.789 173V174H783.794V173V172H790.789V173ZM776.8 173V174H769.806V173V172H776.8V173ZM762.812 173V174H755.818V173V172H762.812V173ZM748.823 173V174H741.829V173V172H748.823V173ZM734.835 173V174H727.841V173V172H734.835V173ZM720.847 173V174H713.853V173V172H720.847V173ZM706.858 173V174H699.864V173V172H706.858V173ZM692.87 173V174H685.876V173V172H692.87V173ZM678.882 173V174H671.888V173V172H678.882V173ZM664.893 173V174H657.899V173V172H664.893V173ZM650.905 173V174H643.911V173V172H650.905V173ZM636.917 173V174H629.923V173V172H636.917V173ZM622.928 173V174H615.934V173V172H622.928V173ZM608.94 173V174H601.946V173V172H608.94V173ZM594.952 173V174H587.957V173V172H594.952V173ZM580.963 173V174H573.969V173V172H580.963V173ZM566.975 173V174H559.981V173V172H566.975V173ZM552.986 173V174H545.992V173V172H552.986V173ZM538.998 173V174H532.004V173V172H538.998V173ZM525.01 173V174H518.015V173V172H525.01V173ZM511.021 173V174H504.027V173V172H511.021V173ZM497.033 173V174H490.039V173V172H497.033V173ZM483.044 173V174H476.05V173V172H483.044V173ZM469.056 173V174H462.062V173V172H469.056V173ZM455.068 173V174H448.073V173V172H455.068V173ZM441.079 173V174H434.085V173V172H441.079V173ZM427.091 173V174H420.097V173V172H427.091V173ZM413.102 173V174H406.108V173V172H413.102V173ZM399.114 173V174H392.12V173V172H399.114V173ZM385.126 173V174H378.131V173V172H385.126V173ZM371.137 173V174H364.143V173V172H371.137V173ZM357.149 173V174H350.155V173V172H357.149V173ZM343.16 173V174H336.166V173V172H343.16V173ZM329.172 173V174H322.178V173V172H329.172V173ZM315.184 173V174H308.189V173V172H315.184V173ZM301.195 173V174H294.201V173V172H301.195V173ZM287.207 173V174H280.212V173V172H287.207V173ZM273.218 173V174H266.224V173V172H273.218V173ZM259.23 173V174H252.236V173V172H259.23V173ZM245.242 173V174H238.247V173V172H245.242V173ZM231.253 173V174H224.259V173V172H231.253V173ZM217.265 173V174H210.271V173V172H217.265V173ZM203.276 173V174H196.282V173V172H203.276V173ZM189.288 173V174H182.294V173V172H189.288V173ZM175.3 173V174H168.305V173V172H175.3V173ZM161.311 173V174H154.317V173V172H161.311V173ZM147.323 173V174H140.328V173V172H147.323V173ZM133.334 173V174H126.34V173V172H133.334V173ZM119.346 173V174H112.352V173V172H119.346V173ZM105.358 173V174H98.3635V173V172H105.358V173ZM91.3693 173V174H84.3752V173V172H91.3693V173ZM77.3811 173V174H70.3869V173V172H77.3811V173ZM63.3928 173V174H56.3987V173V172H63.3928V173ZM49.4045 173V174H42.4104V173V172H49.4045V173ZM35.4162 173V174H28.422V173V172H35.4162V173ZM21.4279 173V174H14.4338V173V172H21.4279V173ZM7.43962 173V174H0.445503V173V172H7.43962V173Z" fill="#B7BAC2"/>
</svg>
