<svg width="65" height="53" viewBox="0 0 65 53" fill="none" xmlns="http://www.w3.org/2000/svg">
<path d="M39 27L18 27" stroke="white" stroke-width="2" stroke-linejoin="round"/>
<path d="M22 22L17 27L22 32" stroke="white" stroke-width="2" stroke-linejoin="round"/>
<mask id="path-3-inside-1" fill="white">
<path d="M34.1421 12.8579C31.3451 10.0608 27.7814 8.156 23.9018 7.38429C20.0222 6.61259 16.0009 7.00866 12.3463 8.52241C8.69181 10.0362 5.56823 12.5996 3.37061 15.8886C1.17298 19.1776 -5.97283e-07 23.0444 0 27C5.97283e-07 30.9556 1.17298 34.8224 3.37061 38.1114C5.56824 41.4004 8.69181 43.9638 12.3463 45.4776C16.0009 46.9913 20.0222 47.3874 23.9018 46.6157C27.7814 45.844 31.3451 43.9392 34.1421 41.1421L32.7279 39.7279C30.2106 42.2453 27.0033 43.9596 23.5116 44.6541C20.02 45.3487 16.4008 44.9922 13.1117 43.6298C9.82263 42.2675 7.01141 39.9604 5.03355 37.0003C3.05568 34.0402 2 30.5601 2 27C2 23.4399 3.05568 19.9598 5.03355 16.9997C7.01141 14.0397 9.82263 11.7325 13.1117 10.3702C16.4008 9.00779 20.02 8.65133 23.5116 9.34586C27.0033 10.0404 30.2106 11.7547 32.7279 14.2721L34.1421 12.8579Z"/>
</mask>
<path d="M34.1421 12.8579C31.3451 10.0608 27.7814 8.156 23.9018 7.38429C20.0222 6.61259 16.0009 7.00866 12.3463 8.52241C8.69181 10.0362 5.56823 12.5996 3.37061 15.8886C1.17298 19.1776 -5.97283e-07 23.0444 0 27C5.97283e-07 30.9556 1.17298 34.8224 3.37061 38.1114C5.56824 41.4004 8.69181 43.9638 12.3463 45.4776C16.0009 46.9913 20.0222 47.3874 23.9018 46.6157C27.7814 45.844 31.3451 43.9392 34.1421 41.1421L32.7279 39.7279C30.2106 42.2453 27.0033 43.9596 23.5116 44.6541C20.02 45.3487 16.4008 44.9922 13.1117 43.6298C9.82263 42.2675 7.01141 39.9604 5.03355 37.0003C3.05568 34.0402 2 30.5601 2 27C2 23.4399 3.05568 19.9598 5.03355 16.9997C7.01141 14.0397 9.82263 11.7325 13.1117 10.3702C16.4008 9.00779 20.02 8.65133 23.5116 9.34586C27.0033 10.0404 30.2106 11.7547 32.7279 14.2721L34.1421 12.8579Z" stroke="white" stroke-width="4" mask="url(#path-3-inside-1)"/>
</svg>
