<svg width="36" height="36" viewBox="0 0 36 36" fill="none" xmlns="http://www.w3.org/2000/svg">
<path d="M9.11359 26.629L7.71192 15.0989C7.58 13.9414 7.97201 12.8565 8.68902 12.0653L8.0385 11.2637C5.72992 11.2637 3.93583 13.2738 4.19721 15.5676L5.45788 26.6302C5.79511 29.5896 8.29947 31.8248 11.2781 31.8248H14.934L14.9338 31.8236C11.9553 31.8236 9.45089 29.5884 9.11359 26.629Z" fill="#A8E1FF"/>
<path d="M4.42853 11.9094C5.34529 10.8822 6.66099 10.293 8.03778 10.293C8.57438 10.293 9.00935 10.728 9.00935 11.2646C9.00935 11.8012 8.57438 12.2361 8.03778 12.2361C7.20258 12.2361 6.43433 12.5802 5.87825 13.2033C5.32212 13.8264 5.06729 14.6286 5.16184 15.4584L6.42251 26.521C6.70396 28.9912 8.79121 30.8541 11.2773 30.8541H24.7231C27.2093 30.8541 29.2965 28.9912 29.578 26.521L30.8386 15.4584C30.9332 14.6286 30.6783 13.8263 30.1222 13.2032C29.566 12.5802 28.7979 12.2361 27.9627 12.2361C27.4261 12.2361 26.9911 11.8012 26.9911 11.2646C26.9911 10.7279 27.4261 10.293 27.9627 10.293C29.3396 10.293 30.6551 10.8822 31.5719 11.9094C32.4887 12.9365 32.9252 14.3104 32.7692 15.6784L31.5086 26.7411C31.1153 30.1937 28.1983 32.7972 24.7232 32.7972H11.2774C7.80235 32.7972 4.88535 30.1937 4.49191 26.7411L3.23124 15.6784C3.07531 14.3105 3.51176 12.9366 4.42853 11.9094Z" fill="#0285CB"/>
<path fill-rule="evenodd" clip-rule="evenodd" d="M11.5859 9.62447C11.5859 6.08495 14.4658 3.20508 18.0053 3.20508C21.5449 3.20508 24.4247 6.08495 24.4247 9.62447V11.2647C24.4247 11.8013 23.9897 12.2363 23.4531 12.2363H17.2438C16.7072 12.2363 16.2722 11.8013 16.2722 11.2647C16.2722 10.7281 16.7072 10.2931 17.2438 10.2931H22.4816V9.62447C22.4816 7.1561 20.4737 5.14823 18.0053 5.14823C15.537 5.14823 13.5291 7.1561 13.5291 9.62447V19.6414C13.5291 20.178 13.0941 20.613 12.5575 20.613C12.0209 20.613 11.5859 20.178 11.5859 19.6414V9.62447Z" fill="#FF6B01"/>
<path d="M21 27.5C22 27.5 27 28.5 26.5 22" stroke="#FF6B01" stroke-width="1.8" stroke-linecap="round"/>
</svg>
