<svg width="219" height="408" viewBox="0 0 219 408" fill="none" xmlns="http://www.w3.org/2000/svg">
<path d="M174.384 401.146C174.384 429.388 166.052 450.657 149.389 464.953C133.113 479.597 111.412 486.919 84.2855 486.919H0V450.309H63.3595C86.9982 450.309 103.855 445.253 113.931 435.141C124.006 425.03 129.044 409.34 129.044 388.071V337.862C129.044 324.264 131.95 311.886 137.763 300.729C143.576 289.571 150.551 279.983 158.689 271.963C166.827 263.595 175.159 257.145 183.684 252.612C192.21 247.731 199.185 244.941 204.61 244.244V241.106C199.185 240.409 192.21 237.968 183.684 233.784C175.159 229.251 166.827 223.324 158.689 216.002C150.551 208.331 143.576 198.917 137.763 187.759C131.95 176.602 129.044 163.875 129.044 149.58V98.8482C129.044 78.2766 124.2 62.7608 114.512 52.3007C105.212 41.8405 88.3545 36.6104 63.9407 36.6104H0V0H84.2855C97.4612 0 109.474 2.26636 120.325 6.79909C131.563 10.9831 141.057 16.9105 148.808 24.5813C156.945 32.2521 163.146 41.3175 167.409 51.7776C172.059 62.2378 174.384 73.7439 174.384 86.2961V139.643C174.384 155.682 177.096 169.105 182.522 179.914C188.335 190.723 195.31 199.614 203.448 206.588C211.973 213.212 220.886 218.094 230.187 221.232C239.875 224.021 248.4 225.416 255.763 225.416V262.026C248.4 262.026 239.875 263.77 230.187 267.256C220.886 270.743 211.973 276.147 203.448 283.469C195.31 290.792 188.335 300.031 182.522 311.189C177.096 321.998 174.384 334.898 174.384 349.891V401.146Z" fill="#EBECEF"/>
</svg>
