<svg width="193" height="543" viewBox="0 0 193 543" fill="none" xmlns="http://www.w3.org/2000/svg">
<path d="M18.374 446.937C18.374 478.403 26.7056 502.1 43.369 518.027C59.6448 534.343 81.3459 542.501 108.472 542.501H192.758V501.711H129.398C105.76 501.711 88.9025 496.078 78.827 484.813C68.7515 473.547 63.7138 456.066 63.7138 432.369V376.429C63.7138 361.279 60.8074 347.488 54.9946 335.057C49.1818 322.626 42.2064 311.943 34.0685 303.008C25.9306 293.685 17.5989 286.498 9.07349 281.448C0.548065 276.009 -6.42729 272.901 -11.8526 272.124V268.628C-6.42729 267.851 0.548065 265.132 9.07349 260.47C17.5989 255.42 25.9306 248.816 34.0685 240.658C42.2064 232.112 49.1818 221.623 54.9946 209.192C60.8074 196.761 63.7138 182.582 63.7138 166.654V110.132C63.7138 87.2119 68.5578 69.9249 78.2458 58.2708C87.5462 46.6166 104.403 40.7895 128.817 40.7895H192.758V0H108.472C95.2966 0 83.2835 2.52507 72.433 7.5752C61.1949 12.2369 51.7006 18.8409 43.9502 27.3872C35.8123 35.9336 29.612 46.0339 25.3493 57.688C20.6991 69.3422 18.374 82.1618 18.374 96.1468V155.583C18.374 173.453 15.6613 188.409 10.236 200.451C4.42325 212.494 -2.55209 222.4 -10.69 230.169C-19.2154 237.55 -28.1284 242.989 -37.4289 246.485C-47.1169 249.593 -55.6423 251.147 -63.0052 251.147V291.936C-55.6423 291.936 -47.1169 293.879 -37.4289 297.764C-28.1284 301.648 -19.2154 307.67 -10.69 315.827C-2.55209 323.985 4.42325 334.28 10.236 346.711C15.6613 358.754 18.374 373.127 18.374 389.831V446.937Z" fill="#1A2738"/>
</svg>
