<svg width="38" height="114" viewBox="0 0 38 114" fill="none" xmlns="http://www.w3.org/2000/svg">
<path d="M38 114H28.546C26.0495 114 23.7372 113.572 21.609 112.716C19.5218 111.9 17.7211 110.718 16.2068 109.168C14.7334 107.619 13.567 105.805 12.7076 103.725C11.8891 101.646 11.4798 99.3423 11.4798 96.8144V70.7607C11.4798 67.4174 10.518 65.2564 8.59451 64.2779C6.67097 63.2586 3.80614 62.7489 0 62.7489V51.3734C3.80614 51.3734 6.67097 50.9045 8.59451 49.9667C10.518 48.9882 11.4798 46.7865 11.4798 43.3616V17.3079C11.4798 14.78 11.8891 12.4764 12.7076 10.397C13.567 8.3176 14.7334 6.50322 16.2068 4.95386C17.7211 3.40451 19.5218 2.20172 21.609 1.34549C23.7372 0.448498 26.0495 0 28.546 0H38V11.3755H28.546C26.377 11.3755 24.8831 11.824 24.0646 12.721C23.287 13.5773 22.8982 15.1062 22.8982 17.3079V43.3616C22.8982 47.1942 21.7114 50.3133 19.3376 52.7189C17.0048 55.0837 14.3446 56.5515 11.357 57.1223C12.8713 57.367 14.3037 57.8562 15.6543 58.5901C17.0458 59.2833 18.2531 60.2414 19.2763 61.4646C20.3403 62.647 21.1998 64.0333 21.8546 65.6234C22.5504 67.2135 22.8982 68.926 22.8982 70.7607V96.8144C22.8982 98.9753 23.287 100.484 24.0646 101.34C24.8831 102.237 26.377 102.686 28.546 102.686H38V114Z" fill="#0285CB"/>
</svg>
