<svg width="80" height="171" viewBox="0 0 80 171" fill="none" xmlns="http://www.w3.org/2000/svg">
<path opacity="0.1" d="M54.5455 30.1225C54.5455 20.2041 51.9394 12.7347 46.7273 7.71429C41.6364 2.57143 34.8485 6.0931e-06 26.3637 4.60956e-06L2.98986e-05 0L2.76506e-05 12.8571L19.8182 12.8572C27.2121 12.8572 32.4849 14.6327 35.6364 18.1837C38.7879 21.7347 40.3637 27.2449 40.3637 34.7143L40.3637 52.3469C40.3637 57.1225 41.2727 61.4694 43.0909 65.3878C44.9091 69.3061 47.0909 72.6735 49.6364 75.4898C52.1818 78.4286 54.7879 80.6939 57.4546 82.2857C60.1212 84 62.303 84.9796 64 85.2245L64 86.3265C62.303 86.5714 60.1212 87.4286 57.4546 88.898C54.7879 90.4898 52.1818 92.5714 49.6364 95.1429C47.0909 97.8367 44.9091 101.143 43.0909 105.061C41.2727 108.98 40.3636 113.449 40.3636 118.469L40.3636 136.286C40.3636 143.51 38.8485 148.959 35.8182 152.633C32.9091 156.306 27.6364 158.143 20 158.143L2.24801e-06 158.143L0 171L26.3636 171C30.4848 171 34.2424 170.204 37.6364 168.612C41.1515 167.143 44.1212 165.061 46.5455 162.367C49.0909 159.673 51.0303 156.49 52.3636 152.816C53.8182 149.143 54.5455 145.102 54.5455 140.694L54.5455 121.959C54.5455 116.327 55.394 111.612 57.0909 107.816C58.9091 104.02 61.0909 100.898 63.6364 98.449C66.303 96.1225 69.0909 94.4082 72 93.3061C75.0303 92.3265 77.697 91.8368 80 91.8368L80 78.9796C77.697 78.9796 75.0303 78.3674 72 77.1429C69.0909 75.9184 66.303 74.0204 63.6364 71.449C61.0909 68.8776 58.9091 65.6327 57.0909 61.7143C55.394 57.9184 54.5455 53.3878 54.5455 48.1225L54.5455 30.1225Z" fill="white"/>
</svg>
