<svg width="144" height="214" viewBox="0 0 144 214" fill="none" xmlns="http://www.w3.org/2000/svg">
<path d="M104.318 271.045C104.318 290.128 99.3341 304.499 89.3659 314.158C79.6295 324.053 66.6477 329 50.4205 329H0V304.263H37.9023C52.0432 304.263 62.1273 300.847 68.1545 294.015C74.1818 287.183 77.1955 276.581 77.1955 262.211V228.286C77.1955 219.098 78.9341 210.734 82.4114 203.195C85.8886 195.657 90.0614 189.178 94.9296 183.759C99.7977 178.105 104.782 173.747 109.882 170.684C114.982 167.386 119.155 165.501 122.4 165.03V162.91C119.155 162.439 114.982 160.789 109.882 157.962C104.782 154.9 99.7977 150.895 94.9296 145.947C90.0614 140.764 85.8886 134.404 82.4114 126.865C78.9341 119.326 77.1955 110.727 77.1955 101.068V66.7895C77.1955 52.8897 74.2977 42.406 68.5023 35.3383C62.9386 28.2707 52.8545 24.7368 38.25 24.7368H0V0H50.4205C58.3023 0 65.4886 1.53133 71.9795 4.59399C78.7023 7.42105 84.3818 11.4261 89.0182 16.609C93.8864 21.792 97.5955 27.9173 100.145 34.985C102.927 42.0526 104.318 49.8271 104.318 58.3083V94.3534C104.318 105.19 105.941 114.261 109.186 121.564C112.664 128.867 116.836 134.875 121.705 139.586C126.805 144.063 132.136 147.361 137.7 149.481C143.495 151.366 148.595 152.308 153 152.308V177.045C148.595 177.045 143.495 178.223 137.7 180.579C132.136 182.935 126.805 186.586 121.705 191.534C116.836 196.481 112.664 202.724 109.186 210.263C105.941 217.566 104.318 226.283 104.318 236.414V271.045Z" fill="#EBECEF"/>
</svg>
