<svg width="36" height="36" viewBox="0 0 36 36" fill="none" xmlns="http://www.w3.org/2000/svg">
<path fill-rule="evenodd" clip-rule="evenodd" d="M1.09961 6.00156C1.09961 5.5045 1.50255 5.10156 1.99961 5.10156H5.16934C7.03899 5.10156 8.6456 6.4284 8.99902 8.26434L11.6433 22.001C11.707 22.3088 11.8801 22.5898 12.1385 22.7927C12.3985 22.9969 12.7273 23.1077 13.0674 23.1013L13.0842 23.1012H26.817L26.8338 23.1013C27.174 23.1077 27.5028 22.9969 27.7628 22.7927C28.0223 22.5889 28.1958 22.3063 28.2588 21.997C28.2613 21.9845 28.2641 21.972 28.2672 21.9596L30.5095 12.9333C30.6819 12.2395 30.1569 11.5681 29.442 11.5681H15.4996C15.0025 11.5681 14.5996 11.1652 14.5996 10.6681C14.5996 10.1711 15.0025 9.76809 15.4996 9.76809H29.442C31.3268 9.76809 32.7109 11.538 32.2564 13.3673L30.0184 22.3765C29.8655 23.1025 29.4591 23.7494 28.8745 24.2084C28.2872 24.6696 27.5565 24.9131 26.8092 24.9012H13.092C12.3448 24.9131 11.614 24.6696 11.0268 24.2084C10.4367 23.7451 10.0282 23.0904 9.8787 22.3561L9.87678 22.3467L7.23147 8.60459C7.04117 7.61601 6.17607 6.90156 5.16934 6.90156H1.99961C1.50255 6.90156 1.09961 6.49861 1.09961 6.00156Z" fill="#0285CB"/>
<path fill-rule="evenodd" clip-rule="evenodd" d="M13.5 32.2C14.4389 32.2 15.2 31.4389 15.2 30.5C15.2 29.5611 14.4389 28.8 13.5 28.8C12.5611 28.8 11.8 29.5611 11.8 30.5C11.8 31.4389 12.5611 32.2 13.5 32.2ZM13.5 34C15.433 34 17 32.433 17 30.5C17 28.567 15.433 27 13.5 27C11.567 27 10 28.567 10 30.5C10 32.433 11.567 34 13.5 34Z" fill="#FF6B01"/>
<path fill-rule="evenodd" clip-rule="evenodd" d="M25.5 32.2C26.4389 32.2 27.2 31.4389 27.2 30.5C27.2 29.5611 26.4389 28.8 25.5 28.8C24.5611 28.8 23.8 29.5611 23.8 30.5C23.8 31.4389 24.5611 32.2 25.5 32.2ZM25.5 34C27.433 34 29 32.433 29 30.5C29 28.567 27.433 27 25.5 27C23.567 27 22 28.567 22 30.5C22 32.433 23.567 34 25.5 34Z" fill="#FF6B01"/>
<path fill-rule="evenodd" clip-rule="evenodd" d="M19.0996 20.0016C19.0996 19.5045 19.5025 19.1016 19.9996 19.1016H25.9996C26.4967 19.1016 26.8996 19.5045 26.8996 20.0016C26.8996 20.4987 26.4967 20.9016 25.9996 20.9016H19.9996C19.5025 20.9016 19.0996 20.4987 19.0996 20.0016Z" fill="#FF6B01"/>
</svg>
