<svg width="21" height="21" viewBox="0 0 21 21" fill="none" xmlns="http://www.w3.org/2000/svg">
<mask id="path-1-inside-1" fill="white">
<path d="M13.2176 0.357779C11.0984 -0.210046 8.85466 -0.0998157 6.80137 0.672988C4.74808 1.44579 2.98844 2.84235 1.76957 4.66651C0.5507 6.49068 -0.0661608 8.65082 0.00562184 10.8436C0.0774045 13.0363 0.834225 15.1515 2.16979 16.892C3.50536 18.6325 5.35257 19.911 7.45201 20.5479C9.55145 21.1847 11.7976 21.148 13.8751 20.4428C15.9526 19.7376 17.757 18.3993 19.0349 16.616C20.3128 14.8327 21 12.6939 21 10.5H18.9C18.9 12.2551 18.3502 13.9662 17.3279 15.3928C16.3056 16.8195 14.8621 17.89 13.2001 18.4542C11.5381 19.0184 9.74116 19.0478 8.06161 18.5383C6.38206 18.0288 4.90428 17.006 3.83583 15.6136C2.76738 14.2212 2.16192 12.529 2.1045 10.7748C2.04707 9.02066 2.54056 7.29254 3.51565 5.83321C4.49075 4.37388 5.89847 3.25663 7.5411 2.63839C9.18373 2.02015 10.9788 1.93196 12.6741 2.38622L13.2176 0.357779Z"/>
</mask>
<path d="M13.2176 0.357779C11.0984 -0.210046 8.85466 -0.0998157 6.80137 0.672988C4.74808 1.44579 2.98844 2.84235 1.76957 4.66651C0.5507 6.49068 -0.0661608 8.65082 0.00562184 10.8436C0.0774045 13.0363 0.834225 15.1515 2.16979 16.892C3.50536 18.6325 5.35257 19.911 7.45201 20.5479C9.55145 21.1847 11.7976 21.148 13.8751 20.4428C15.9526 19.7376 17.757 18.3993 19.0349 16.616C20.3128 14.8327 21 12.6939 21 10.5H18.9C18.9 12.2551 18.3502 13.9662 17.3279 15.3928C16.3056 16.8195 14.8621 17.89 13.2001 18.4542C11.5381 19.0184 9.74116 19.0478 8.06161 18.5383C6.38206 18.0288 4.90428 17.006 3.83583 15.6136C2.76738 14.2212 2.16192 12.529 2.1045 10.7748C2.04707 9.02066 2.54056 7.29254 3.51565 5.83321C4.49075 4.37388 5.89847 3.25663 7.5411 2.63839C9.18373 2.02015 10.9788 1.93196 12.6741 2.38622L13.2176 0.357779Z" stroke="#0285CB" stroke-width="4" mask="url(#path-1-inside-1)"/>
<path d="M7 9L10.5 12.5L20 3" stroke="#0285CB" stroke-width="2"/>
</svg>
