<svg width="35" height="22" viewBox="0 0 35 22" fill="none" xmlns="http://www.w3.org/2000/svg">
<path d="M20.6585 0C25.9222 0 29.6042 4.56619 29.1301 9.07757C32.2301 9.66566 34.5714 12.3135 34.5714 15.4815C34.5714 19.0816 31.5513 22 27.8258 22H7.16725C2.8801 22 0 19.2825 0 15.8889C0 13.0511 2.0683 10.2627 5.05923 9.77778C5.05923 4.88889 9.69687 2.85185 13.0697 4.48148C14.3345 2.03704 17.0549 0 20.6585 0Z" fill="#E5004C"/>
<path d="M11 17.2856H17.6025V16.0792H13.2509C13.8511 14.0994 17.5275 13.6664 17.5275 11.4701C17.5275 10.2946 16.5521 9.42847 14.4888 9.42847C13.2133 9.42847 12.0879 9.7378 11.3376 10.0471L11.7878 11.1608C12.4631 10.8823 13.2509 10.6349 14.2262 10.6349C14.9765 10.6349 15.6893 10.9133 15.6893 11.6248C15.6893 13.2333 11.3751 13.357 11 17.2856ZM17.7901 15.3677H22.0292V17.2856H23.7173V15.3677H25.1429V14.1922H23.7173V9.42847H22.4793L17.7901 14.4397V15.3677ZM19.7033 14.2541L22.1042 11.5938C22.1042 11.8104 22.0292 12.4909 22.0292 13.1096V14.2232H20.9038C20.5661 14.2232 19.9284 14.2541 19.7033 14.2541Z" fill="white"/>
</svg>
