<svg width="35" height="22" viewBox="0 0 35 22" fill="none" xmlns="http://www.w3.org/2000/svg">
<path d="M20.6022 0C25.7789 0 29.4001 4.49071 28.9338 8.92753C31.9826 9.5059 34.2852 12.11 34.2852 15.2256C34.2852 18.7662 31.3149 21.6364 27.651 21.6364H7.33394C3.11765 21.6364 0.285156 18.9638 0.285156 15.6263C0.285156 12.8353 2.31927 10.0931 5.26077 9.61616C5.26077 4.80808 9.82174 2.80471 13.1388 4.40741C14.3827 2.00337 17.0581 0 20.6022 0Z" fill="#6713EA"/>
<path d="M11.1016 17H17.5949V15.8135H13.3152C13.9055 13.8665 17.5211 13.4406 17.5211 11.2806C17.5211 10.1245 16.5619 9.27271 14.5327 9.27271C13.2783 9.27271 12.1715 9.57693 11.4336 9.88115L11.8763 10.9764C12.5404 10.7026 13.3152 10.4592 14.2745 10.4592C15.0123 10.4592 15.7133 10.733 15.7133 11.4327C15.7133 13.0147 11.4705 13.1363 11.1016 17ZM17.7794 15.1138H21.9484V17H23.6087V15.1138H25.0107V13.9577H23.6087V9.27271H22.3912L17.7794 14.2011V15.1138ZM19.661 14.0186L22.0222 11.4023C22.0222 11.6152 21.9484 12.2845 21.9484 12.893V13.9882H20.8416C20.5096 13.9882 19.8824 14.0186 19.661 14.0186Z" fill="white"/>
</svg>
