<svg width="25" height="24" viewBox="0 0 25 24" fill="none" xmlns="http://www.w3.org/2000/svg">
<path d="M9.96903 23.8617C7.86982 23.4276 5.91102 22.4594 4.37326 21.0957C0.425473 17.5948 -0.794608 12.0951 1.29092 7.20164C1.80307 5.99992 2.63569 4.78036 3.66734 3.72083L4.57685 2.78674L4.641 8.25396C4.7024 13.4871 4.71624 13.7507 4.96415 14.4101C5.46013 15.7294 5.99186 16.5694 6.90722 17.4796C9.27175 19.8308 12.7401 20.4177 15.6884 18.9653C18.4597 17.6002 20.2068 14.6318 20.0038 11.6336C19.8674 9.61958 19.1891 8.14275 17.7246 6.67131C16.6172 5.55867 15.3143 4.8319 13.8958 4.53556C12.4526 4.23405 12.5218 4.18999 12.5218 5.40971V6.46273L13.313 6.60829C16.3772 7.17202 18.4037 10.1763 17.765 13.2083C17.561 14.1767 17.106 15.0318 16.3756 15.8195C15.2657 17.0166 13.7041 17.5887 12.3405 17.5861C10.0859 17.5818 8.20319 16.3025 7.29071 14.4107C7.29071 14.4107 7.05167 13.87 6.97486 13.5358C6.52311 11.5708 6.81186 7.43419 6.81186 7.43419L6.77688 1.38578L7.13448 1.20114C7.33117 1.09959 7.5198 1.0165 7.55366 1.0165C7.58753 1.0165 7.63052 3.79453 7.6492 7.1899C7.6492 7.1899 7.21495 11.6408 7.75159 13.3464C7.82901 13.5925 7.976 14.0134 7.976 14.0134C8.44643 14.9704 9.20039 15.8121 10.18 16.2755C10.9237 16.6272 11.2981 16.7863 12.3983 16.7863C13.1171 16.7863 13.7539 16.5598 14.4866 16.2233C15.3503 15.8266 16.3412 14.775 16.7074 13.8148C17.7162 11.1692 16.3115 8.32298 13.6053 7.52933C12.4993 7.20497 12.5218 7.1871 12.5218 8.38791V9.4368L13.0527 9.57858C14.9664 10.0896 15.5503 12.6507 14.048 13.9667C13.5173 14.4316 13.039 14.6371 12.2024 14.6371C11.3084 14.6371 10.4503 14.0969 10.0091 13.2682C9.74413 12.7704 9.72176 12.2983 9.72176 12.082C9.72176 10.0845 9.67842 6.49199 9.67842 6.49199L9.64263 0.329575L9.91737 0.261441C10.0685 0.223966 10.6792 0.13124 11.2746 0.0553819C13.2936 -0.201886 16.2808 0.457877 18.2875 1.60434C21.0235 3.16736 23.0937 5.8524 23.9556 8.95588C24.2521 10.0234 24.2852 10.3338 24.2852 12.0511C24.2852 13.7607 24.2514 14.0814 23.9611 15.1255C22.7888 19.3436 19.8067 22.3589 15.5426 23.6377C14.6452 23.9068 14.2248 23.9581 12.6413 23.9919C11.3634 24.0191 10.5352 23.9787 9.96903 23.8617Z" fill="#ED1515"/>
</svg>
