<svg width="721" height="462" viewBox="0 0 721 462" fill="none" xmlns="http://www.w3.org/2000/svg">
<path d="M720.701 447.191C720.67 447.316 720.67 447.441 720.638 447.598C719.669 455.201 713.161 461.083 705.308 461.083H167.333C159.48 461.083 152.972 455.201 152.002 447.598C151.971 447.473 151.971 447.348 151.94 447.222C151.908 446.503 152.221 445.815 152.91 445.126L186.543 413.276H686.035L719.669 445.126C720.419 445.752 720.732 446.472 720.701 447.191Z" fill="url(#paint0_linear)"/>
<path d="M649.994 379.204H222.68V119.18C222.68 108.042 231.722 99 242.86 99H629.814C640.952 99 649.994 108.042 649.994 119.18V379.204Z" fill="url(#paint1_linear)"/>
<mask id="mask0" mask-type="alpha" maskUnits="userSpaceOnUse" x="238" y="118" width="260" height="242">
<path d="M497.907 118.303L357.304 359.868H238.07V118.303H497.907Z" fill="url(#paint2_linear)"/>
</mask>
<g mask="url(#mask0)">
<path d="M446.128 117.968L355.804 359.533H236.57V117.968H446.128Z" fill="url(#paint3_linear)"/>
</g>
<g clip-path="url(#clip0)">
<path d="M720.701 444.816C720.67 444.941 720.67 445.066 720.639 445.222C720.576 445.504 720.451 445.817 720.294 446.098C719.262 447.85 716.29 449.29 712.629 449.29H160.043C156.351 449.29 153.41 447.85 152.378 446.13C152.221 445.848 152.096 445.567 152.033 445.254C152.002 445.128 152.002 445.003 151.971 444.878C151.94 444.159 152.252 443.47 152.941 442.782L186.574 410.932L204.251 394.194L219.55 379.708L222.585 376.861H650.056L653.09 379.708L668.39 394.194L686.067 410.932L719.7 442.782C720.42 443.408 720.732 444.096 720.701 444.816Z" fill="white"/>
<path d="M242.919 385.869H262.098C263.099 385.869 264.038 385.713 264.194 385.525L265.383 384.055C265.54 383.867 264.851 383.71 263.85 383.71H244.89C243.889 383.71 242.951 383.867 242.794 384.055L241.418 385.525C241.261 385.713 241.918 385.869 242.919 385.869Z" fill="#0285CB"/>
<path d="M238.948 390.218H258.502C259.534 390.218 260.473 390.061 260.629 389.874L262.851 387.152C263.007 386.964 262.319 386.808 261.318 386.808H242.076C241.075 386.808 240.105 386.964 239.949 387.152L237.446 389.874C237.227 390.061 237.915 390.218 238.948 390.218Z" fill="#0285CB"/>
<path d="M266.044 390.218H285.598C286.63 390.218 287.569 390.061 287.694 389.874L289.571 387.152C289.696 386.964 288.977 386.808 287.976 386.808H268.734C267.733 386.808 266.794 386.964 266.638 387.152L264.479 389.874C264.323 390.061 265.011 390.218 266.044 390.218Z" fill="#0285CB"/>
<path d="M293.135 390.218H312.689C313.721 390.218 314.629 390.061 314.754 389.874L316.287 387.152C316.381 386.964 315.661 386.808 314.66 386.808H295.419C294.418 386.808 293.479 386.964 293.354 387.152L291.539 389.874C291.383 390.061 292.134 390.218 293.135 390.218Z" fill="#0285CB"/>
<path d="M320.232 390.218H339.786C340.818 390.218 341.694 390.061 341.788 389.874L342.977 387.152C343.071 386.964 342.32 386.808 341.288 386.808H322.046C321.045 386.808 320.138 386.964 320.044 387.152L318.573 389.874C318.479 390.061 319.23 390.218 320.232 390.218Z" fill="#0285CB"/>
<path d="M346.759 387.122L345.633 389.844C345.539 390.032 346.321 390.188 347.353 390.188H366.908C367.94 390.188 368.816 390.032 368.879 389.844L369.723 387.122C369.786 386.934 369.004 386.778 368.003 386.778H348.761C347.698 386.778 346.822 386.934 346.759 387.122Z" fill="#0285CB"/>
<path d="M394.631 386.778H375.39C374.388 386.778 373.512 386.934 373.45 387.122L372.668 389.844C372.605 390.032 373.387 390.188 374.42 390.188H393.974C395.006 390.188 395.851 390.032 395.882 389.844L396.383 387.122C396.414 386.903 395.632 386.778 394.631 386.778Z" fill="#0285CB"/>
<path d="M421.284 386.746H402.043C401.041 386.746 400.197 386.903 400.165 387.09L399.727 389.812C399.696 390 400.51 390.156 401.511 390.156H421.065C422.097 390.156 422.942 390 422.942 389.812L423.099 387.09C423.099 386.903 422.285 386.746 421.284 386.746Z" fill="#0285CB"/>
<path d="M447.943 386.747H428.702C427.7 386.747 426.856 386.903 426.856 387.091L426.762 389.813C426.762 390 427.575 390.157 428.608 390.157H448.162C449.194 390.157 450.008 390 449.976 389.813L449.789 387.091C449.789 386.903 448.944 386.747 447.943 386.747Z" fill="#0285CB"/>
<path d="M474.6 386.747H455.358C454.357 386.747 453.544 386.903 453.575 387.091L453.825 389.813C453.857 390 454.701 390.157 455.703 390.157H475.257C476.289 390.157 477.071 390 477.04 389.813L476.508 387.091C476.446 386.903 475.601 386.747 474.6 386.747Z" fill="#0285CB"/>
<path d="M502.32 390.156C503.352 390.156 504.135 390 504.072 389.812L503.196 387.09C503.133 386.903 502.257 386.746 501.256 386.746H482.015C481.014 386.746 480.231 386.903 480.263 387.09L480.857 389.812C480.888 390 481.764 390.156 482.797 390.156H502.32Z" fill="#0285CB"/>
<path d="M529.409 390.156C530.441 390.156 531.192 390 531.098 389.812L529.878 387.09C529.784 386.903 528.908 386.746 527.907 386.746H508.666C507.665 386.746 506.882 386.903 506.945 387.09L507.884 389.812C507.946 390 508.822 390.156 509.855 390.156H529.409Z" fill="#0285CB"/>
<path d="M556.476 390.156C557.509 390.156 558.228 390 558.134 389.812L556.57 387.09C556.476 386.903 555.569 386.746 554.536 386.746H535.295C534.294 386.746 533.543 386.903 533.637 387.09L534.92 389.812C535.013 390 535.921 390.156 536.953 390.156H556.476Z" fill="#0285CB"/>
<path d="M583.536 390.156C584.568 390.156 585.288 390 585.131 389.812L583.223 387.09C583.098 386.903 582.159 386.746 581.158 386.746H561.916C560.915 386.746 560.196 386.903 560.289 387.09L561.916 389.812C562.042 390 562.949 390.156 563.981 390.156H583.536Z" fill="#0285CB"/>
<path d="M296.639 394.41L298.422 391.563C298.548 391.376 297.828 391.219 296.795 391.219H277.147C276.115 391.219 275.176 391.376 275.02 391.563L272.924 394.41C272.767 394.629 273.487 394.786 274.551 394.786H294.543C295.575 394.786 296.514 394.598 296.639 394.41Z" fill="#0285CB"/>
<path d="M322.168 394.786C323.201 394.786 324.139 394.629 324.233 394.41L325.672 391.563C325.766 391.376 325.015 391.219 323.983 391.219H304.335C303.302 391.219 302.363 391.376 302.238 391.563L300.486 394.41C300.361 394.629 301.112 394.786 302.144 394.786H322.168Z" fill="#0285CB"/>
<path d="M349.857 394.755C350.889 394.755 351.828 394.598 351.89 394.379L352.954 391.532C353.017 391.344 352.266 391.188 351.233 391.188H331.585C330.553 391.188 329.645 391.344 329.552 391.532L328.175 394.379C328.081 394.598 328.832 394.755 329.896 394.755H349.857Z" fill="#0285CB"/>
<path d="M356.805 391.532L355.773 394.379C355.71 394.598 356.493 394.755 357.525 394.755H377.486C378.518 394.755 379.426 394.598 379.488 394.379L380.208 391.532C380.271 391.344 379.457 391.188 378.425 391.188H358.777C357.775 391.188 356.868 391.344 356.805 391.532Z" fill="#0285CB"/>
<path d="M384.059 391.532L383.402 394.379C383.339 394.598 384.153 394.755 385.216 394.755H405.177C406.21 394.755 407.086 394.598 407.117 394.379L407.461 391.532C407.493 391.344 406.679 391.188 405.647 391.188H385.999C384.997 391.188 384.121 391.344 384.059 391.532Z" fill="#0285CB"/>
<path d="M411.306 391.532L410.993 394.379C410.962 394.598 411.806 394.755 412.839 394.755H432.8C433.832 394.755 434.708 394.598 434.708 394.379V391.532C434.708 391.344 433.864 391.188 432.831 391.188H413.183C412.182 391.188 411.337 391.344 411.306 391.532Z" fill="#0285CB"/>
<path d="M438.587 391.533L438.649 394.38C438.649 394.599 439.494 394.755 440.558 394.755H460.519C461.551 394.755 462.396 394.599 462.365 394.38L462.021 391.533C461.989 391.345 461.145 391.189 460.112 391.189H440.464C439.4 391.157 438.555 391.314 438.587 391.533Z" fill="#0285CB"/>
<path d="M465.841 391.533L466.247 394.38C466.279 394.599 467.155 394.756 468.187 394.756H488.148C489.181 394.756 489.994 394.599 489.963 394.38L489.243 391.533C489.181 391.345 488.305 391.189 487.303 391.189H467.655C466.623 391.158 465.809 391.314 465.841 391.533Z" fill="#0285CB"/>
<path d="M515.803 394.724C516.835 394.724 517.649 394.568 517.555 394.349L516.491 391.502C516.428 391.314 515.521 391.158 514.489 391.158H494.841C493.808 391.158 493.026 391.314 493.088 391.502L493.839 394.349C493.902 394.568 494.778 394.724 495.842 394.724H515.803Z" fill="#0285CB"/>
<path d="M543.462 394.724C544.494 394.724 545.276 394.568 545.182 394.349L543.743 391.502C543.649 391.314 542.742 391.158 541.71 391.158H522.061C521.029 391.158 520.247 391.314 520.341 391.502L521.467 394.349C521.561 394.568 522.468 394.724 523.501 394.724H543.462Z" fill="#0285CB"/>
<path d="M571.118 394.693C572.15 394.693 572.901 394.537 572.776 394.318L570.993 391.471C570.867 391.283 569.929 391.126 568.896 391.126H549.248C548.216 391.126 547.465 391.283 547.559 391.471L549.029 394.318C549.123 394.537 550.062 394.693 551.125 394.693H571.118Z" fill="#0285CB"/>
<path d="M598.746 394.693C599.779 394.693 600.53 394.537 600.373 394.318L598.214 391.471C598.058 391.283 597.119 391.126 596.087 391.126H576.439C575.406 391.126 574.687 391.283 574.812 391.471L576.658 394.318C576.783 394.537 577.753 394.693 578.785 394.693H598.746Z" fill="#0285CB"/>
<path d="M639.45 394.881L637.667 392.941L636.29 391.471C636.103 391.283 635.133 391.126 634.1 391.126H608.883C607.851 391.126 607.163 391.283 607.319 391.471L610.01 394.881C610.166 395.1 611.167 395.256 612.2 395.256H620.24L623.463 399.073C623.651 399.292 624.652 399.449 625.716 399.449H641.766C642.829 399.449 643.549 399.261 643.33 399.073L639.45 394.881Z" fill="#0285CB"/>
<path d="M276.869 399.542H297.268C298.332 399.542 299.302 399.355 299.427 399.167L301.21 396.195C301.335 395.976 300.585 395.819 299.521 395.819H279.466C278.402 395.819 277.432 395.976 277.307 396.195L275.211 399.167C275.055 399.386 275.806 399.542 276.869 399.542Z" fill="#0285CB"/>
<path d="M305.152 399.543H325.551C326.615 399.543 327.553 399.355 327.678 399.168L329.086 396.195C329.18 395.976 328.398 395.82 327.365 395.82H307.311C306.247 395.82 305.308 395.976 305.183 396.195L303.431 399.168C303.306 399.355 304.088 399.543 305.152 399.543Z" fill="#0285CB"/>
<path d="M333.404 399.543H353.803C354.867 399.543 355.805 399.355 355.868 399.168L356.9 396.195C356.963 395.976 356.181 395.82 355.117 395.82H335.062C333.998 395.82 333.091 395.976 332.997 396.195L331.621 399.168C331.558 399.355 332.34 399.543 333.404 399.543Z" fill="#0285CB"/>
<path d="M384.087 399.136L384.744 396.164C384.775 395.945 383.961 395.788 382.929 395.788H362.874C361.81 395.788 360.903 395.945 360.84 396.164L359.839 399.136C359.777 399.355 360.59 399.511 361.654 399.511H382.053C383.148 399.511 384.055 399.355 384.087 399.136Z" fill="#0285CB"/>
<path d="M412.308 399.136L412.589 396.164C412.621 395.945 411.776 395.789 410.712 395.789H390.657C389.594 395.789 388.717 395.945 388.686 396.164L388.06 399.136C388.029 399.355 388.843 399.512 389.906 399.512H410.305C411.4 399.512 412.276 399.324 412.308 399.136Z" fill="#0285CB"/>
<path d="M440.528 399.105L440.466 396.132C440.466 395.913 439.59 395.757 438.557 395.757H418.502C417.439 395.757 416.594 395.913 416.563 396.132L416.312 399.105C416.281 399.324 417.157 399.48 418.221 399.48H438.62C439.652 399.511 440.528 399.324 440.528 399.105Z" fill="#0285CB"/>
<path d="M468.717 399.104L468.279 396.132C468.248 395.913 467.372 395.756 466.308 395.756H446.253C445.189 395.756 444.345 395.913 444.376 396.132L444.501 399.104C444.501 399.323 445.377 399.479 446.441 399.479H466.84C467.904 399.479 468.748 399.323 468.717 399.104Z" fill="#0285CB"/>
<path d="M496.936 399.104L496.123 396.132C496.06 395.913 495.153 395.756 494.12 395.756H474.066C473.002 395.756 472.188 395.913 472.22 396.132L472.72 399.104C472.751 399.323 473.659 399.479 474.723 399.479H495.122C496.154 399.479 496.999 399.323 496.936 399.104Z" fill="#0285CB"/>
<path d="M502.944 399.479H523.343C524.407 399.479 525.221 399.292 525.127 399.104L523.938 396.132C523.844 395.913 522.937 395.756 521.873 395.756H501.818C500.754 395.756 499.972 395.913 500.035 396.132L500.911 399.104C500.973 399.323 501.881 399.479 502.944 399.479Z" fill="#0285CB"/>
<path d="M531.199 399.479H551.598C552.662 399.479 553.444 399.292 553.319 399.104L551.754 396.132C551.661 395.913 550.691 395.756 549.658 395.756H529.603C528.54 395.756 527.758 395.913 527.851 396.132L529.103 399.104C529.197 399.292 530.135 399.479 531.199 399.479Z" fill="#0285CB"/>
<path d="M559.451 399.48H579.85C580.913 399.48 581.664 399.292 581.539 399.105L579.599 396.132C579.474 395.913 578.504 395.757 577.441 395.757H557.386C556.322 395.757 555.571 395.913 555.696 396.132L557.323 399.105C557.417 399.292 558.387 399.48 559.451 399.48Z" fill="#0285CB"/>
<path d="M587.703 399.448H608.102C609.165 399.448 609.916 399.26 609.728 399.073L607.413 396.101C607.257 395.882 606.256 395.725 605.223 395.725H585.168C584.105 395.725 583.385 395.882 583.51 396.101L585.513 399.073C585.638 399.292 586.639 399.448 587.703 399.448Z" fill="#0285CB"/>
<path d="M283.907 404.11L285.94 401.012C286.097 400.793 285.315 400.637 284.251 400.637H263.758C262.694 400.637 261.693 400.824 261.506 401.012L259.128 404.11C258.971 404.329 259.691 404.516 260.786 404.516H281.654C282.749 404.516 283.75 404.329 283.907 404.11Z" fill="#0285CB"/>
<path d="M312.721 404.11L314.379 401.012C314.504 400.793 313.722 400.637 312.627 400.637L292.134 400.605C291.07 400.605 290.069 400.793 289.944 400.981L287.973 404.078C287.817 404.297 288.599 404.485 289.694 404.485H310.562C311.626 404.516 312.627 404.329 312.721 404.11Z" fill="#0285CB"/>
<path d="M341.037 400.605H320.544C319.481 400.605 318.511 400.793 318.386 400.98L316.79 404.078C316.665 404.297 317.478 404.485 318.573 404.485H339.442C340.537 404.485 341.507 404.297 341.569 404.078L342.821 400.98C342.915 400.761 342.132 400.605 341.037 400.605Z" fill="#0285CB"/>
<path d="M347.452 404.485H368.321C369.416 404.485 370.354 404.297 370.417 404.078L371.293 400.981C371.355 400.762 370.542 400.605 369.447 400.605H348.954C347.89 400.605 346.952 400.793 346.858 400.981L345.669 404.078C345.544 404.297 346.357 404.485 347.452 404.485Z" fill="#0285CB"/>
<path d="M376.358 404.485H397.226C398.321 404.485 399.229 404.297 399.26 404.078L399.729 400.98C399.76 400.761 398.916 400.605 397.852 400.605H377.359C376.295 400.605 375.357 400.793 375.325 400.98L374.512 404.078C374.418 404.297 375.263 404.485 376.358 404.485Z" fill="#0285CB"/>
<path d="M405.235 404.485H426.103C427.198 404.485 428.074 404.297 428.105 404.078L428.199 400.981C428.199 400.762 427.355 400.605 426.26 400.605H405.767C404.703 400.605 403.796 400.793 403.764 400.981L403.326 404.078C403.264 404.297 404.14 404.485 405.235 404.485Z" fill="#0285CB"/>
<path d="M434.116 404.454H454.953C456.048 404.454 456.924 404.266 456.892 404.047L456.579 400.95C456.548 400.731 455.672 400.574 454.608 400.574H434.116C433.052 400.574 432.176 400.762 432.176 400.95L432.145 404.047C432.145 404.297 433.021 404.454 434.116 404.454Z" fill="#0285CB"/>
<path d="M462.991 404.453H483.828C484.923 404.453 485.768 404.265 485.705 404.046L485.017 400.949C484.954 400.73 484.047 400.573 482.983 400.573H462.49C461.427 400.573 460.551 400.761 460.582 400.949L460.926 404.046C460.989 404.265 461.896 404.453 462.991 404.453Z" fill="#0285CB"/>
<path d="M511.393 400.544H490.9C489.836 400.544 488.991 400.732 489.054 400.919L489.805 404.017C489.868 404.236 490.775 404.423 491.87 404.423H512.707C513.802 404.423 514.615 404.236 514.553 404.017L513.489 400.919C513.395 400.732 512.488 400.544 511.393 400.544Z" fill="#0285CB"/>
<path d="M539.803 400.543H519.31C518.246 400.543 517.433 400.731 517.496 400.919L518.622 404.016C518.716 404.235 519.654 404.423 520.749 404.423H541.586C542.681 404.423 543.464 404.235 543.37 404.016L541.899 400.919C541.805 400.731 540.867 400.543 539.803 400.543Z" fill="#0285CB"/>
<path d="M568.174 400.543H547.682C546.618 400.543 545.836 400.731 545.93 400.919L547.463 404.016C547.556 404.235 548.558 404.423 549.653 404.423H570.49C571.585 404.423 572.367 404.235 572.242 404.016L570.396 400.919C570.208 400.7 569.238 400.543 568.174 400.543Z" fill="#0285CB"/>
<path d="M596.557 400.543H576.064C575 400.543 574.218 400.731 574.374 400.919L576.283 404.016C576.408 404.235 577.409 404.423 578.504 404.423H599.341C600.436 404.423 601.187 404.235 601.031 404.016L598.778 400.919C598.622 400.7 597.62 400.543 596.557 400.543Z" fill="#0285CB"/>
<path d="M607.007 404.423H646.365C647.46 404.423 648.18 404.236 647.961 404.017L645.051 400.919C644.864 400.7 643.831 400.544 642.736 400.544H604.066C603.002 400.544 602.251 400.732 602.407 400.919L604.691 404.017C604.879 404.236 605.911 404.423 607.007 404.423Z" fill="#0285CB"/>
<path d="M275.68 405.643H254.718C253.623 405.643 252.591 405.831 252.403 406.05L249.837 409.304C249.65 409.523 250.401 409.71 251.527 409.71H272.864C273.991 409.71 275.023 409.523 275.18 409.304L277.37 406.05C277.557 405.831 276.807 405.643 275.68 405.643Z" fill="#0285CB"/>
<path d="M304.714 405.643H283.752C282.657 405.643 281.655 405.831 281.499 406.05L279.34 409.304C279.184 409.523 279.966 409.71 281.092 409.71H302.43C303.556 409.71 304.557 409.523 304.683 409.304L306.466 406.05C306.622 405.8 305.809 405.643 304.714 405.643Z" fill="#0285CB"/>
<path d="M337.093 405.611H312.783C311.688 405.611 310.687 405.799 310.562 406.018L308.81 409.272C308.684 409.491 309.498 409.679 310.593 409.679H335.341C336.467 409.679 337.437 409.491 337.531 409.272L338.876 406.018C339.001 405.799 338.188 405.611 337.093 405.611Z" fill="#0285CB"/>
<path d="M513.112 405.58L346.666 405.642C345.571 405.642 344.601 405.83 344.508 406.049L343.256 409.303C343.162 409.522 344.007 409.709 345.102 409.709L514.457 409.647C515.583 409.647 516.428 409.459 516.334 409.24L515.208 405.986C515.145 405.736 514.207 405.58 513.112 405.58Z" fill="#0285CB"/>
<path d="M542.112 405.55H521.15C520.055 405.55 519.242 405.738 519.304 405.957L520.493 409.21C520.587 409.429 521.557 409.617 522.683 409.617H543.989C545.116 409.617 545.929 409.429 545.804 409.21L544.271 405.957C544.177 405.738 543.207 405.55 542.112 405.55Z" fill="#0285CB"/>
<path d="M571.118 405.55H550.156C549.061 405.55 548.248 405.738 548.373 405.957L549.969 409.21C550.094 409.429 551.095 409.617 552.19 409.617H573.496C574.623 409.617 575.405 409.429 575.28 409.21L573.34 405.957C573.215 405.738 572.214 405.55 571.118 405.55Z" fill="#0285CB"/>
<path d="M632.192 387.059C632.004 386.871 631.065 386.714 630.033 386.714H588.578C587.577 386.714 586.857 386.871 587.014 387.059L588.985 389.78C589.11 389.968 590.08 390.125 591.081 390.125H633.193C634.225 390.125 634.914 389.968 634.726 389.78L632.192 387.059Z" fill="#0285CB"/>
<path d="M234.814 394.786H265.068C266.101 394.786 267.102 394.629 267.258 394.41L269.417 391.563C269.573 391.376 268.854 391.219 267.821 391.219H238.036C237.004 391.219 236.034 391.376 235.846 391.563L233.25 394.41C233.062 394.629 233.75 394.786 234.814 394.786Z" fill="#0285CB"/>
<path d="M230.469 399.542H269.014C270.078 399.542 271.079 399.355 271.236 399.167L273.395 396.195C273.551 395.976 272.8 395.819 271.768 395.819H233.879C232.816 395.819 231.815 395.976 231.627 396.195L228.905 399.167C228.717 399.386 229.405 399.542 230.469 399.542Z" fill="#0285CB"/>
<path d="M255.062 404.11L257.503 401.012C257.659 400.793 256.94 400.637 255.876 400.637H229.532C228.469 400.637 227.436 400.824 227.217 401.012L224.37 404.11C224.151 404.329 224.902 404.516 225.966 404.516H252.747C253.842 404.516 254.875 404.329 255.062 404.11Z" fill="#0285CB"/>
<path d="M245.924 405.643H224.962C223.867 405.643 222.804 405.831 222.585 406.05L219.612 409.304C219.393 409.523 220.144 409.71 221.239 409.71H242.577C243.703 409.71 244.767 409.523 244.955 409.304L247.583 406.05C247.739 405.831 247.019 405.643 245.924 405.643Z" fill="#0285CB"/>
<path d="M271.172 385.838H290.351C291.352 385.838 292.26 385.682 292.385 385.494L293.386 384.023C293.511 383.836 292.792 383.679 291.822 383.679H272.862C271.861 383.679 270.953 383.836 270.797 384.023L269.639 385.494C269.483 385.682 270.171 385.838 271.172 385.838Z" fill="#0285CB"/>
<path d="M299.425 385.838H318.603C319.605 385.838 320.512 385.682 320.606 385.494L321.419 384.023C321.513 383.836 320.793 383.679 319.792 383.679H300.833C299.831 383.679 298.924 383.836 298.83 384.023L297.86 385.494C297.704 385.682 298.423 385.838 299.425 385.838Z" fill="#0285CB"/>
<path d="M327.675 385.838H346.854C347.855 385.838 348.731 385.682 348.825 385.494L349.419 384.023C349.482 383.836 348.762 383.679 347.761 383.679H328.801C327.8 383.679 326.924 383.836 326.83 384.023L326.079 385.494C325.923 385.682 326.674 385.838 327.675 385.838Z" fill="#0285CB"/>
<path d="M355.897 385.838H375.045C376.046 385.838 376.891 385.682 376.953 385.494L377.36 384.023C377.423 383.836 376.641 383.679 375.639 383.679H356.68C355.678 383.679 354.834 383.836 354.74 384.023L354.177 385.494C354.145 385.682 354.896 385.838 355.897 385.838Z" fill="#0285CB"/>
<path d="M384.149 385.808H403.297C404.298 385.808 405.142 385.652 405.174 385.464L405.393 383.994C405.424 383.806 404.642 383.649 403.641 383.649H384.681C383.68 383.649 382.835 383.806 382.804 383.994L382.428 385.464C382.366 385.652 383.148 385.808 384.149 385.808Z" fill="#0285CB"/>
<path d="M412.402 385.808H431.55C432.551 385.808 433.364 385.652 433.364 385.464V383.994C433.364 383.806 432.551 383.649 431.581 383.649H412.621C411.62 383.649 410.807 383.806 410.775 383.994L410.619 385.464C410.588 385.652 411.401 385.808 412.402 385.808Z" fill="#0285CB"/>
<path d="M440.622 385.808H459.77C460.771 385.808 461.553 385.652 461.553 385.464L461.365 383.994C461.334 383.806 460.521 383.649 459.519 383.649H440.56C439.559 383.649 438.776 383.806 438.776 383.994L438.808 385.464C438.808 385.652 439.621 385.808 440.622 385.808Z" fill="#0285CB"/>
<path d="M468.875 385.808H488.023C489.024 385.808 489.806 385.652 489.744 385.464L489.368 383.994C489.306 383.806 488.461 383.649 487.491 383.649H468.531C467.53 383.649 466.748 383.806 466.779 383.994L466.998 385.464C467.03 385.652 467.874 385.808 468.875 385.808Z" fill="#0285CB"/>
<path d="M497.092 385.776H516.24C517.241 385.776 517.992 385.62 517.929 385.432L517.335 383.961C517.272 383.774 516.396 383.617 515.395 383.617H496.435C495.434 383.617 494.683 383.774 494.746 383.961L495.184 385.432C495.246 385.651 496.091 385.776 497.092 385.776Z" fill="#0285CB"/>
<path d="M525.314 385.776H544.462C545.463 385.776 546.214 385.62 546.089 385.432L545.307 383.961C545.213 383.774 544.337 383.617 543.336 383.617H524.376C523.375 383.617 522.655 383.774 522.718 383.961L523.343 385.432C523.437 385.62 524.313 385.776 525.314 385.776Z" fill="#0285CB"/>
<path d="M553.566 385.776H572.714C573.715 385.776 574.434 385.62 574.309 385.432L573.339 383.961C573.214 383.774 572.307 383.617 571.306 383.617H552.346C551.345 383.617 550.625 383.774 550.719 383.961L551.533 385.432C551.658 385.62 552.565 385.776 553.566 385.776Z" fill="#0285CB"/>
<path d="M581.789 385.776H600.936C601.937 385.776 602.626 385.62 602.469 385.432L601.28 383.961C601.124 383.774 600.217 383.617 599.215 383.617H580.256C579.255 383.617 578.566 383.774 578.691 383.961L579.724 385.432C579.88 385.62 580.788 385.776 581.789 385.776Z" fill="#0285CB"/>
<path d="M626.18 407.833H608.034C606.939 407.833 606.157 408.02 606.344 408.239L607.033 409.178C607.189 409.397 608.253 409.585 609.348 409.585H627.619C628.746 409.585 629.497 409.397 629.278 409.178L628.495 408.239C628.339 407.989 627.306 407.833 626.18 407.833Z" fill="#0285CB"/>
<path d="M624.087 405.267H606.128C605.033 405.267 604.282 405.455 604.439 405.674L605.127 406.612C605.283 406.831 606.316 407.019 607.442 407.019H625.526C626.621 407.019 627.372 406.831 627.184 406.612L626.402 405.674C626.245 405.455 625.213 405.267 624.087 405.267Z" fill="#0285CB"/>
<path d="M649.837 407.801H631.691C630.596 407.801 629.845 407.989 630.033 408.208L630.815 409.146C631.003 409.365 632.066 409.553 633.193 409.553H651.464C652.591 409.553 653.31 409.365 653.091 409.146L652.215 408.208C652.027 407.989 650.964 407.801 649.837 407.801Z" fill="#0285CB"/>
<path d="M601.779 407.833H583.632C582.537 407.833 581.755 408.021 581.88 408.24L582.475 409.178C582.631 409.397 583.632 409.585 584.759 409.585H603.03C604.156 409.585 604.907 409.397 604.751 409.178L604.063 408.24C603.906 408.021 602.874 407.833 601.779 407.833Z" fill="#0285CB"/>
<path d="M610.007 385.745H629.154C630.155 385.745 630.844 385.588 630.656 385.401L629.279 383.93C629.123 383.742 628.153 383.586 627.183 383.586H608.223C607.222 383.586 606.534 383.742 606.69 383.93L607.91 385.401C608.067 385.62 609.005 385.745 610.007 385.745Z" fill="#0285CB"/>
<path d="M547.78 443.468H309.907C304.588 443.468 300.803 442.342 301.522 440.965L315.101 414.121C315.664 413.026 319.919 412.15 324.643 412.15H534.796C539.52 412.15 543.713 413.026 544.213 414.121L556.29 440.965C556.947 442.373 553.13 443.468 547.78 443.468Z" fill="#0285CB"/>
</g>
<g clip-path="url(#clip1)">
<g opacity="0.88">
<path d="M436.427 322.825C390.248 322.825 352.829 285.406 352.829 239.227C352.829 193.047 390.248 155.628 436.427 155.628C482.606 155.628 520.025 193.047 520.025 239.227C520.025 285.406 482.606 322.825 436.427 322.825Z" fill="#0285CB"/>
<path opacity="0.82" d="M469.999 230.716L425.227 199.21C418.313 194.361 408.802 199.304 408.802 207.72V270.732C408.802 279.179 418.313 284.122 425.227 279.242L469.999 247.736C475.912 243.606 475.912 234.846 469.999 230.716Z" fill="white"/>
</g>
</g>
<g clip-path="url(#clip2)">
<path opacity="0.65" d="M0 21.5415V244.798C0 248.795 3.23503 252.031 7.23123 252.031H360.769C364.765 252.031 368 248.795 368 244.798V21.5415H0Z" fill="white"/>
<path d="M360.769 0H7.23123C3.23503 0 0 3.23606 0 7.23354V21.542H368V7.23354C368 3.23606 364.765 0 360.769 0Z" fill="url(#paint4_linear)"/>
<path d="M27.3058 14.0234C29.11 14.0234 30.5725 12.5603 30.5725 10.7556C30.5725 8.95083 29.11 7.48779 27.3058 7.48779C25.5016 7.48779 24.0391 8.95083 24.0391 10.7556C24.0391 12.5603 25.5016 14.0234 27.3058 14.0234Z" fill="#FF6B01"/>
<path d="M39.2667 14.0234C41.0709 14.0234 42.5335 12.5603 42.5335 10.7556C42.5335 8.95083 41.0709 7.48779 39.2667 7.48779C37.4626 7.48779 36 8.95083 36 10.7556C36 12.5603 37.4626 14.0234 39.2667 14.0234Z" fill="#0E0E0E"/>
<path d="M15.3497 14.0234C17.1539 14.0234 18.6165 12.5603 18.6165 10.7556C18.6165 8.95083 17.1539 7.48779 15.3497 7.48779C13.5456 7.48779 12.083 8.95083 12.083 10.7556C12.083 12.5603 13.5456 14.0234 15.3497 14.0234Z" fill="#0285CB"/>
<path d="M124.642 111.994C124.325 112.248 123.976 112.502 123.627 112.724C120.424 114.945 116.523 120.465 112.337 120.465C108.15 120.465 104.249 114.945 101.046 112.724C100.697 112.47 100.348 112.216 99.999 111.931V101.081C102.029 101.207 104.059 102.223 105.803 103.333C108.087 104.793 110.307 106.537 112.971 107.077C115.667 107.616 118.775 106.918 120.963 108.536C121.629 109.044 122.168 109.71 122.739 110.345C123.31 110.979 123.976 111.518 124.642 111.994Z" fill="#FFAE70"/>
<path d="M124.706 99.7793V112.026L124.674 111.994C123.976 111.518 123.342 110.979 122.771 110.376C122.2 109.773 121.693 109.075 120.995 108.567C118.807 106.918 115.698 107.616 113.003 107.108C110.338 106.569 107.484 105.268 105.169 103.809C103.424 102.698 101.268 102.413 99.999 101.112V99.7793H124.706Z" fill="#FC9570"/>
<path d="M94.9585 86.6442V74.3979C93.4361 74.3979 92.1992 75.6353 92.1992 77.1581V83.8523C92.1992 85.4069 93.4361 86.6442 94.9585 86.6442Z" fill="#FF956B"/>
<path d="M130.07 86.6442V74.3979C131.593 74.3979 132.83 75.6353 132.83 77.1581V83.8523C132.83 85.4069 131.593 86.6442 130.07 86.6442Z" fill="#FF956B"/>
<path d="M93.9453 56.79V64.6264V85.978C93.9453 92.4501 97.0852 98.1608 101.906 101.587C104.919 103.745 108.566 104.982 112.499 104.982C116.432 104.982 120.079 103.713 123.092 101.587C125.503 99.8423 127.532 97.558 128.896 94.8613C130.26 92.1963 131.053 89.1823 131.053 85.978V56.79H93.9453Z" fill="#FFB87F"/>
<path d="M162.639 145.812C150.206 152.507 132.286 156.694 112.337 156.694C92.3878 156.694 74.4366 152.507 62.0039 145.812L63.7483 130.838C64.4777 124.493 68.4422 119.099 74.0242 116.878L96.4157 107.995L96.606 108.027C96.9549 106.187 97.9698 104.473 99.2067 103.141C99.397 102.919 99.7459 102.728 99.9996 102.602C99.9996 102.919 100.031 103.236 100.031 103.553C100.19 105.552 100.697 107.424 101.617 109.105C103.742 113.008 107.675 115.895 112.369 116.847C116.65 115.99 120.298 113.484 122.518 110.089C122.74 109.772 122.93 109.423 123.121 109.105C124.199 107.138 124.706 104.949 124.738 102.602C124.992 102.728 125.309 102.951 125.499 103.141C126.736 104.505 127.751 106.187 128.1 108.027L128.29 107.995L150.682 116.878C156.232 119.099 160.196 124.461 160.958 130.838L162.639 145.812Z" fill="white"/>
<path d="M90.3882 58.1532C90.9908 57.0428 91.5617 56.0276 92.1643 55.1075C94.2576 51.7128 97.2389 49.1113 100.664 47.6202C99.903 47.2712 98.0952 47.4933 98.0952 47.4933C98.0952 47.4933 99.9981 46.4146 102.028 46.0973C104.121 45.7801 106.31 46.1925 106.563 46.1608C109.894 45.8118 113.826 45.6849 117.664 46.2559H117.6C119.852 45.8435 123.182 45.4311 125.307 46.1608C124.515 46.3511 123.658 46.5732 123.056 47.2077C122.992 47.3029 122.897 47.3981 122.834 47.4933C124.166 47.9691 125.466 48.5402 126.671 49.2382C128.416 49.4603 130.223 49.8093 131.619 51.2687C131.302 51.5225 130.889 51.5859 130.509 51.7128C130.414 51.7445 130.287 51.7763 130.192 51.8397C133.902 55.1075 134.505 57.3283 134.981 60.4058C135.488 63.8956 135.488 71.1926 135.488 71.1926C134.949 70.7802 134.442 70.3677 133.902 69.9553C133.966 70.1456 133.998 70.3677 133.998 70.5898C134.061 73.9845 133.712 74.3969 133.046 77.6964C132.666 79.5365 132.602 81.1229 131.746 82.6774C131.46 83.2168 130.667 83.0581 130.541 82.4871C130.192 80.3932 129.304 78.1089 129.431 75.9832C129.653 71.4147 130.604 70.0822 128.923 65.704C128.574 64.7839 128.098 64.1177 127.21 63.7687C127.75 65.4819 127.654 67.4489 126.862 69.0352C126.83 67.8931 126.83 66.6875 126.449 65.6088C126.164 64.7839 125.529 63.7053 124.673 63.4832C124.388 63.4197 124.102 63.4515 123.817 63.4832C122.516 63.6101 121.248 63.8639 119.947 63.9273C119.503 63.9273 113.921 63.5466 113.953 63.4832C113.89 64.5301 115.063 65.7357 115.063 65.7357C114.968 65.6405 114.524 65.6406 114.397 65.6088C114.017 65.5136 113.604 65.4185 113.255 65.2598C112.558 64.9743 111.955 64.435 111.574 63.737C111.479 63.5784 111.384 63.3245 111.226 63.2611C111.13 63.1976 110.655 63.1342 110.655 63.3246C110.686 64.0542 110.94 64.7522 111.289 65.3867C111.257 65.3233 110.845 65.2281 110.782 65.1964C110.56 65.1012 110.338 64.9743 110.147 64.7839C109.767 64.435 109.481 63.9591 109.354 63.4197C109.259 63.0707 108.942 63.1659 108.688 63.1659C108.339 63.1659 107.991 63.1659 107.642 63.1976C106.944 63.2294 106.278 63.2928 105.612 63.388C105.961 64.3398 106.69 65.3233 106.69 65.3233C106.69 65.3233 106.024 65.2598 105.58 64.7205C105.326 64.4032 105.041 63.9908 104.787 63.5149C101.711 64.1494 99.3321 65.7675 98.8246 69.3208C98.5075 71.6685 96.446 72.652 95.8751 74.27C93.1475 81.6622 95.0187 83.6292 93.5281 83.7561C92.1009 83.8513 91.4031 71.2243 91.4031 71.2243L90.8005 74.3335C90.6737 74.3018 87.1215 64.2129 90.3882 58.1532Z" fill="#373C47"/>
<path d="M251.888 130.044L256.455 142.829H257.628L262.195 130.044L263.337 125.666L269.966 113.673L267.301 101.903H246.781L244.117 113.673L250.714 125.666L251.888 130.044Z" fill="#FFA966"/>
<path d="M275.485 132.901L279.45 135.122L268.571 156.219C264.924 156.537 261.182 156.695 257.376 156.695H256.868C253.062 156.695 249.32 156.537 245.672 156.219L234.794 135.122L238.41 133.123L240.788 131.79L235.143 127.349L234.001 126.46L234.35 125.223L237.934 112.533C238.695 111.993 239.488 111.327 240.281 110.502C241.454 109.296 243.072 108.63 244.975 108.376L245.165 108.345H245.197L245.387 108.313H245.482C245.514 108.757 245.609 109.328 245.768 109.994C245.768 110.058 245.799 110.121 245.831 110.185C245.926 110.502 246.021 110.851 246.18 111.2C246.212 111.264 246.243 111.359 246.275 111.422C246.307 111.486 246.338 111.581 246.37 111.644C246.402 111.739 246.434 111.803 246.465 111.898C246.497 111.961 246.529 112.025 246.561 112.12C246.592 112.184 246.624 112.279 246.687 112.342C246.719 112.406 246.751 112.469 246.814 112.564C246.846 112.596 246.878 112.659 246.878 112.691C246.909 112.755 246.941 112.818 246.973 112.85C247.005 112.913 247.036 112.945 247.068 113.008C247.1 113.072 247.163 113.167 247.227 113.231C247.258 113.294 247.322 113.357 247.353 113.421C247.48 113.611 247.607 113.77 247.766 113.96C247.829 114.055 247.893 114.119 247.988 114.214C248.051 114.277 248.115 114.341 248.178 114.436C248.241 114.5 248.273 114.563 248.337 114.595C248.4 114.658 248.463 114.753 248.559 114.817C248.654 114.912 248.717 114.975 248.812 115.071C248.876 115.134 248.907 115.166 248.971 115.229C249.129 115.356 249.256 115.483 249.415 115.61C250.62 116.593 251.35 117.101 251.92 117.514C251.984 117.545 252.016 117.577 252.079 117.609C252.523 117.926 252.872 118.212 253.316 118.687C253.379 118.751 253.411 118.783 253.475 118.846C253.57 118.973 253.665 119.068 253.792 119.227C253.887 119.322 253.95 119.449 254.045 119.544C254.141 119.671 254.236 119.798 254.331 119.925C254.426 120.052 254.521 120.21 254.648 120.337C254.711 120.432 254.807 120.559 254.87 120.654C254.965 120.75 255.029 120.877 255.092 121.003C255.187 121.13 255.251 121.257 255.346 121.384C255.378 121.448 255.409 121.479 255.441 121.543C255.473 121.606 255.504 121.638 255.536 121.701C255.663 121.892 255.758 122.05 255.885 122.272C255.917 122.336 255.98 122.431 256.012 122.526C256.107 122.685 256.17 122.844 256.266 123.034C256.297 123.129 256.361 123.224 256.392 123.288V123.319C256.456 123.478 256.519 123.637 256.583 123.827C256.71 124.144 256.805 124.462 256.9 124.811C256.932 124.906 256.963 125.033 256.995 125.16C257.027 125.286 257.058 125.382 257.09 125.509C257.122 125.635 257.154 125.762 257.154 125.858C257.185 125.731 257.217 125.604 257.217 125.509C257.249 125.382 257.28 125.286 257.312 125.16C257.344 125.033 257.376 124.937 257.407 124.811C257.439 124.684 257.471 124.588 257.503 124.462C257.534 124.398 257.566 124.303 257.566 124.239C257.598 124.144 257.629 124.049 257.661 123.986C257.693 123.922 257.725 123.827 257.756 123.764C257.82 123.637 257.851 123.478 257.915 123.351C257.947 123.288 257.978 123.224 257.978 123.193C258.042 123.066 258.073 122.97 258.137 122.844C258.2 122.717 258.232 122.621 258.295 122.526C258.517 122.114 258.739 121.765 258.961 121.416C259.469 120.623 259.913 120.052 260.262 119.576C260.293 119.512 260.357 119.449 260.389 119.417C260.484 119.29 260.579 119.163 260.674 119.068C260.738 119.005 260.769 118.941 260.833 118.878C260.928 118.751 261.023 118.656 261.118 118.561C261.15 118.529 261.15 118.529 261.182 118.497C261.467 118.212 261.721 118.021 262.006 117.799C262.038 117.767 262.038 117.767 262.07 117.736C262.387 117.514 262.704 117.291 263.148 116.974C263.211 116.942 263.275 116.879 263.338 116.816C263.338 116.816 263.338 116.816 263.37 116.816C263.402 116.784 263.465 116.752 263.497 116.72C263.56 116.689 263.592 116.625 263.655 116.593C263.719 116.53 263.814 116.467 263.909 116.403C264.195 116.181 264.512 115.927 264.892 115.642C265.336 115.293 265.717 114.912 266.066 114.531C266.129 114.468 266.161 114.404 266.224 114.373C266.351 114.246 266.446 114.119 266.573 113.96C266.605 113.929 266.605 113.897 266.637 113.897C266.732 113.77 266.859 113.611 266.954 113.484C266.986 113.453 267.017 113.389 267.049 113.357C267.081 113.294 267.144 113.231 267.176 113.167C267.208 113.104 267.271 113.04 267.303 112.945C267.398 112.786 267.493 112.596 267.588 112.437C267.652 112.31 267.715 112.184 267.778 112.057C267.842 111.93 267.905 111.803 267.937 111.708C267.969 111.644 267.969 111.613 268 111.549C268 111.517 268.032 111.486 268.032 111.454C268.064 111.422 268.064 111.39 268.064 111.359C268.064 111.327 268.096 111.295 268.096 111.264C268.127 111.2 268.159 111.137 268.159 111.073C268.191 110.946 268.254 110.819 268.286 110.724C268.318 110.661 268.318 110.597 268.349 110.566C268.381 110.502 268.381 110.407 268.413 110.343C268.444 110.248 268.476 110.153 268.508 110.058C268.54 109.931 268.571 109.836 268.603 109.709C268.603 109.645 268.635 109.582 268.635 109.519C268.635 109.455 268.666 109.423 268.666 109.392C268.698 109.296 268.698 109.17 268.73 109.074C268.73 109.043 268.73 109.011 268.73 108.979C268.73 108.948 268.73 108.916 268.73 108.884C268.762 108.757 268.762 108.662 268.762 108.567C268.762 108.535 268.762 108.503 268.762 108.472C268.762 108.44 268.762 108.44 268.762 108.408L268.92 108.44H269.015L269.237 108.472C271.14 108.725 272.79 109.392 273.931 110.597C274.724 111.422 275.517 112.088 276.278 112.628L279.989 125.762L280.211 126.555L279.069 127.444L273.392 131.917L275.485 132.901Z" fill="#0285CB"/>
<path d="M242.088 127.284C242.944 127.633 246.021 121.986 246.021 121.986C246.021 121.986 246.877 127.919 249.573 135.66C251.856 142.195 253.569 143.338 255.218 149.524C255.884 151.999 256.36 154.473 256.709 156.314C256.741 156.44 256.772 156.567 256.804 156.694H257.343C257.375 156.567 257.407 156.44 257.438 156.314C257.787 154.442 258.263 151.999 258.929 149.524C260.61 143.338 262.323 142.164 264.574 135.66C267.27 127.919 268.127 121.986 268.127 121.986C268.127 121.986 271.203 127.633 272.059 127.284C272.567 127.062 272.662 120.749 271.647 115.863C270.918 112.468 269.839 109.74 269.237 108.312L268.729 108.249C268.602 109.803 267.936 112.944 264.828 115.514C261.498 118.274 261.688 117.132 258.897 121.288C258.168 122.367 257.438 123.763 257.058 125.73C256.677 123.763 255.916 122.335 255.218 121.288C252.427 117.132 252.617 118.274 249.287 115.514C246.179 112.944 245.513 109.803 245.386 108.249L244.879 108.312C244.244 109.708 243.166 112.468 242.468 115.863C241.453 120.78 241.58 127.094 242.088 127.284Z" fill="white"/>
<path d="M268.535 156.218L279.414 135.12L275.449 132.899L273.419 131.789L279.097 127.316L280.238 126.427L280.016 125.634L276.306 112.5C276.464 112.595 276.623 112.722 276.781 112.817C276.94 112.912 277.098 113.007 277.257 113.102C277.416 113.197 277.574 113.261 277.701 113.356C277.86 113.451 277.987 113.515 278.145 113.578C280.27 114.562 282.268 114.625 284.171 114.657C286.835 114.689 289.373 114.625 291.942 116.624C298.475 121.637 302.63 134.962 304.533 146.764C295.145 151.586 282.617 155.012 268.535 156.218Z" fill="#2D9CDB"/>
<path d="M278.146 113.547C277.988 113.484 277.861 113.42 277.702 113.325C277.861 113.389 278.019 113.484 278.146 113.547Z" fill="white"/>
<path d="M245.639 156.219C231.557 155.013 219.029 151.587 209.609 146.701C211.512 134.899 215.667 121.574 222.201 116.561C225.499 114.023 228.671 114.816 232.128 114.499C233.365 114.372 234.665 114.118 235.997 113.516C236.156 113.452 236.314 113.389 236.441 113.294C236.6 113.23 236.758 113.135 236.885 113.04C237.044 112.945 237.202 112.849 237.361 112.754C237.519 112.659 237.678 112.564 237.837 112.437L234.253 125.127L233.904 126.365L235.046 127.253L240.691 131.695L238.312 133.027L234.697 135.026L245.639 156.219Z" fill="#2D9CDB"/>
<path d="M236.471 113.324C236.313 113.419 236.154 113.483 236.027 113.546C236.154 113.483 236.313 113.388 236.471 113.324Z" fill="white"/>
<path d="M237.965 132.582C238.885 133.882 239.963 134.898 241.042 136.04C241.327 136.325 241.613 136.738 242.025 136.833C242.342 136.928 242.31 136.611 242.31 136.357C242.31 136.04 242.279 135.722 242.247 135.437C242.152 134.834 242.025 134.231 241.93 133.628C241.676 132.201 241.454 130.773 241.232 129.345C241.073 128.14 240.947 126.934 240.693 125.76C241.01 126.554 241.549 127.22 242.183 127.759C242.532 128.045 242.881 128.299 243.262 128.521C243.452 128.616 243.642 128.743 243.833 128.806C243.959 128.87 244.277 129.06 244.435 129.028C244.404 128.679 244.213 128.267 244.118 127.95C243.706 126.49 243.389 125.031 243.198 123.508C243.167 123.286 243.135 123.032 243.103 122.81C243.103 122.683 242.976 122.366 243.04 122.271C243.357 121.541 244.879 120.938 245.45 120.43C246.338 119.637 247.099 118.654 247.639 117.543C248.685 115.449 248.78 112.975 248.717 110.627C248.653 108.597 248.051 105.614 249.224 103.838C255.98 93.7171 265.209 95.4938 266.541 98.476C267.366 100.316 266.573 103.267 266.287 105.138C265.907 107.803 265.336 110.627 265.812 113.292C266.129 114.942 266.605 116.592 267.366 118.083C267.937 119.161 268.666 120.177 269.586 120.906C269.903 121.16 270.22 121.35 270.601 121.541C270.759 121.636 270.95 121.699 271.108 121.763C271.552 121.922 271.933 121.763 271.616 122.397C271.489 122.651 271.33 122.937 271.235 123.222C270.95 123.825 270.696 124.46 270.442 125.094C270.252 125.634 270.062 126.141 269.935 126.712C269.744 127.696 269.649 128.743 269.522 129.726C269.459 130.329 269.522 130.9 269.427 131.503C270.062 130.773 270.442 129.504 270.886 128.647C271.203 128.076 271.521 127.569 271.965 127.125C272.345 126.776 272.567 126.458 273.043 126.395C272.694 129.155 271.457 131.725 270.22 134.136C269.776 134.993 269.142 135.944 268.508 136.96C270.918 136.96 273.202 135.849 274.692 133.946C276.215 132.042 277.578 130.012 278.815 127.854C289.535 109.168 286.934 87.0546 280.655 67.1941C279.164 62.4035 277.261 57.5494 274.185 53.7105C272.567 51.7118 270.379 50.0303 268.19 48.8565C266.509 47.9681 264.131 47.1115 262.513 48.6344C262.101 49.0151 262.133 49.1103 261.625 48.9199C261.276 48.793 260.896 48.6661 260.547 48.5709C259.913 48.3806 259.247 48.1268 258.581 48.0316C256.646 47.746 254.679 48.0633 252.808 48.5709C248.527 49.7131 244.784 52.4415 241.993 56.1217C237.616 61.8959 235.396 69.3198 233.937 76.5216C231.971 86.198 231.178 96.1283 231.59 106.027C231.971 115.037 232.605 125.126 237.965 132.582Z" fill="#232323"/>
<path d="M277.42 82.8026C277.42 86.9904 276.659 91.3052 275.2 95.3344C273.868 99.0146 271.933 102.441 269.46 105.201C263.243 112.149 253.665 112.371 247.385 105.55C242.089 99.8077 239.234 90.861 239.234 82.8026C239.234 77.663 240.471 72.8723 242.596 68.9383C243.643 67.003 244.88 65.2898 246.307 63.7987C249.605 60.3723 253.792 58.3418 258.327 58.3418C262.894 58.3418 267.081 60.3723 270.348 63.7987C274.661 68.3038 277.42 75.1566 277.42 82.8026Z" fill="#FFB87F"/>
<path d="M277.419 82.8032C277.419 86.9911 276.658 91.3058 275.199 95.335C274.628 91.1472 274.66 86.6104 273.518 82.2004C271.615 74.7765 264.732 72.3019 257.184 72.6509C254.393 72.7778 245.354 72.0481 242.722 71.2549C240.438 70.557 244.561 69.9224 242.563 68.9072C242.309 68.7803 242.055 68.6534 241.802 68.5265V63.7993H270.314C274.66 68.3044 277.419 75.1572 277.419 82.8032Z" fill="#FFA578"/>
<path d="M279.418 83.0579C278.593 83.2166 277.801 82.709 277.071 81.9793C276.246 81.1544 275.517 80.0757 274.946 79.4412C274.28 78.6798 273.582 77.9501 272.853 77.2204C270.696 75.063 268.286 73.1277 265.558 71.9221C264.892 71.6366 264.194 71.3828 263.497 71.1924C262.26 70.8434 260.991 70.7482 259.881 69.9868C258.866 69.2888 258.01 68.2736 257.217 67.2901C256.424 66.3066 255.631 64.5617 254.68 63.8637C254.458 64.1492 254.331 64.4665 254.172 64.7837C253.95 65.1645 253.696 65.5452 253.474 65.9259C252.999 66.6556 252.428 67.3218 251.857 67.9563C250.715 69.2254 249.415 70.3675 248.051 71.351C247.956 71.4145 247.829 71.5097 247.734 71.5731C247.131 71.9856 246.529 72.398 245.958 72.8422C243.611 74.6823 241.613 76.9983 239.741 79.3777C239.075 80.2343 238.346 82.2648 237.743 83.1849C237.363 83.7559 235.745 85.4691 234.857 85.025C233.113 84.1049 235.491 62.5629 248.812 56.6301C255.948 53.4575 264.004 55.6784 269.396 59.9297C270.791 61.0083 272.06 62.3408 273.233 63.832C274.724 65.6721 275.993 67.766 277.071 69.8282C280.37 76.2368 281.511 82.709 279.418 83.0579Z" fill="#232323"/>
<path d="M198.291 143.337C197.91 143.654 197.498 143.939 197.085 144.257C193.248 146.953 188.554 148.54 183.511 148.54C178.468 148.54 173.806 146.953 169.937 144.257C169.493 143.939 169.08 143.622 168.668 143.305V130.075C171.11 130.234 173.521 131.471 175.645 132.835C178.373 134.612 181.069 136.738 184.272 137.372C187.507 138.038 191.25 137.182 193.882 139.181C194.707 139.783 195.309 140.608 196.007 141.37C196.673 142.099 197.434 142.766 198.291 143.337Z" fill="#FFAE70"/>
<path d="M198.32 128.457V143.368C198.288 143.368 198.288 143.337 198.256 143.337C197.432 142.765 196.639 142.099 195.973 141.37C195.275 140.608 194.673 139.783 193.848 139.18C191.216 137.182 187.473 138.038 184.238 137.372C181.035 136.738 178.371 134.612 175.611 132.835C173.486 131.471 171.076 130.234 168.634 130.075V128.457H198.32Z" fill="#FC9570"/>
<path d="M158.991 112.404V95.748C156.866 95.748 155.153 97.4613 155.153 99.5869V108.534C155.153 110.659 156.866 112.404 158.991 112.404Z" fill="#FFA578"/>
<path d="M207.962 112.404V95.7476C210.087 95.7476 211.8 97.4608 211.8 99.5864V108.533C211.8 110.659 210.087 112.404 207.962 112.404Z" fill="#FC9570"/>
<path d="M179.355 86.2933C171.521 86.6423 163.941 83.9456 157.598 80.9316V109.961C157.598 118.749 161.974 126.522 168.698 131.217C172.885 134.136 177.991 135.849 183.478 135.849C188.965 135.849 194.071 134.136 198.258 131.217C201.651 128.87 204.442 125.729 206.377 122.049C203.808 115.037 204.759 106.725 202.507 98.73C199.78 89.0852 190.043 85.8492 179.355 86.2933Z" fill="#FFB87F"/>
<path d="M209.326 74.7451H157.598V80.9317C163.941 83.9457 171.521 86.6424 179.355 86.2934C190.043 85.8492 199.78 89.0536 202.476 98.73C204.728 106.725 203.776 115.037 206.345 122.049C208.248 118.432 209.326 114.339 209.326 109.961V74.7451Z" fill="#FFA578"/>
<path d="M159.407 95.5891C159.216 93.5269 159.09 91.4964 159.438 89.3708C159.851 86.8009 160.929 84.2629 162.832 82.4862C164.735 80.7095 167.558 79.8212 170.063 80.5826C172.03 81.1854 173.52 82.6766 175.17 83.8187C176.819 84.9608 178.785 85.5636 180.783 85.754C185.255 86.2299 189.061 84.9925 192.772 82.6131C194.833 81.2806 197.244 80.075 199.591 80.7095C201.716 81.3123 203.175 83.3111 204.031 85.3733C205.395 88.5459 205.934 92.0357 206.156 95.4939C206.41 98.952 205.871 102.727 206.473 106.09C206.505 106.249 208.376 104.694 208.471 104.568C209.169 103.806 209.772 102.886 210.279 101.998C211.357 100.126 212.119 98.0954 212.658 96.0332C215.163 86.452 214.593 75.7603 210.723 66.5914C208.757 61.9594 205.522 57.613 201.05 55.1383C195.785 52.2513 189.156 52.4733 183.352 51.6167C184.082 52.5051 185.033 53.1713 186.112 53.5838C182.559 53.6789 182.115 52.7906 178.944 51.6802C177.802 51.2678 175.836 50.5698 174.662 51.014C174.662 53.0127 173.869 53.4251 175.201 54.948C172.157 54.0914 168.414 52.3782 168.541 49.2056C161.468 51.2995 157.631 58.7234 154.554 65.4493C153.634 64.2754 153.095 62.816 152.968 61.3249C151.414 61.9277 150.78 63.5457 150.526 65.1003C149.67 70.5255 150.843 75.9824 150.812 81.4075C150.78 85.3415 150.843 89.3708 151.985 93.1779C153.159 97.1119 155.886 99.9672 158.963 102.569C159.248 102.823 159.629 99.8721 159.629 99.6817C159.66 98.2858 159.534 96.9533 159.407 95.5891Z" fill="#963F00"/>
<path d="M206.058 93.8765C205.773 90.9894 205.202 88.0706 204.06 85.4057C203.172 83.3752 201.745 81.3447 199.62 80.7419C197.273 80.0757 194.831 81.313 192.801 82.6455C189.122 85.0249 185.284 86.2305 180.812 85.7864C178.814 85.5643 176.848 84.9932 175.199 83.8511C173.549 82.7089 172.059 81.2178 170.092 80.615C167.587 79.8536 164.764 80.7419 162.861 82.5186C160.958 84.2952 159.88 86.8333 159.468 89.4031C159.119 91.497 159.246 93.5592 159.436 95.6214C159.563 96.9856 159.69 98.3181 159.753 99.7141C159.753 99.9044 159.372 102.855 159.087 102.601C156.011 99.9996 153.283 97.1443 152.11 93.2102C151.919 92.6074 151.761 92.0047 151.634 91.4019C152.3 89.0859 153.124 86.8016 154.108 84.5808C155.154 82.2013 156.455 79.8219 158.611 78.3625C161.022 76.7444 164.13 76.5224 166.731 75.285C169.363 74.0477 173.074 70.7165 171.425 68.3053C173.581 67.2584 176.182 68.2101 178.085 69.6695C179.956 71.1289 179.924 73.096 181.859 74.4919C185.824 77.3155 193.435 76.2368 198.224 76.9348C202.95 77.5693 207.708 80.0122 206.058 93.8765Z" fill="#FF6B01"/>
<path d="M255.441 199.684C239.71 207.393 218.809 212.628 195.498 213.96C193.849 214.056 192.168 214.151 190.487 214.183C188.14 214.278 185.761 214.309 183.383 214.309H183.192C180.814 214.309 178.435 214.278 176.088 214.183C174.407 214.119 172.726 214.056 171.077 213.96C147.766 212.596 126.897 207.393 111.134 199.684L111.197 198.922C111.673 193.021 112.815 187.215 114.654 181.6L121.473 160.534C122.012 158.852 123.218 157.456 124.835 156.695L128.419 154.982C137.648 150.54 147.131 146.606 156.805 143.211L157.376 143.021C159.976 142.101 162.228 140.356 163.782 138.072L164.195 137.437C164.29 137.279 164.385 137.152 164.512 136.993C164.829 136.581 165.209 136.232 165.653 135.946L167.937 134.36H168.698L168.73 134.392L183.351 144.956L192.453 138.389L198.004 134.36H198.765L201.049 135.946C201.461 136.232 201.873 136.612 202.19 136.993C202.317 137.12 202.412 137.279 202.507 137.437L202.951 138.072C204.474 140.388 206.726 142.133 209.358 143.021L209.929 143.211C219.602 146.606 229.085 150.54 238.315 154.982L241.899 156.695C243.484 157.456 244.69 158.852 245.261 160.534L252.079 181.632C253.887 187.247 255.061 193.053 255.505 198.954L255.441 199.684Z" fill="#FF6B01"/>
<path d="M202.128 136.959L195.531 213.99C193.882 214.085 192.201 214.18 190.52 214.212C188.173 214.307 185.794 214.339 183.415 214.339H183.225C180.846 214.339 178.468 214.307 176.121 214.212C174.44 214.148 172.759 214.085 171.11 213.99L164.513 136.959C164.83 136.547 165.21 136.198 165.654 135.912L167.938 134.326H168.699L168.731 134.357L183.352 144.922L192.454 138.355L198.005 134.326H198.766L201.049 135.912C201.398 136.198 201.779 136.578 202.128 136.959Z" fill="white"/>
<path d="M190.551 210.213C190.551 210.372 190.551 210.499 190.551 210.657L190.519 212.212V212.244L190.487 214.211C188.14 214.306 185.762 214.338 183.383 214.338H183.193C180.814 214.338 178.435 214.306 176.088 214.211L176.056 212.244V212.212L176.025 210.657C176.025 210.499 176.025 210.34 176.025 210.213C175.866 194.953 176.818 179.693 178.943 164.56C179.038 163.893 179.101 163.259 179.165 162.592C179.292 161.26 179.355 159.927 179.355 158.595V156.025C179.355 155.613 179.228 155.232 179.038 154.883L178.657 154.28C178.435 153.931 178.34 153.551 178.34 153.138V151.996C178.34 151.298 178.689 150.632 179.26 150.251L181.861 148.443L182.083 148.284C182.431 148.062 182.812 147.935 183.193 147.903H183.383C183.763 147.935 184.176 148.03 184.493 148.284L184.747 148.474L187.316 150.251C187.887 150.663 188.235 151.298 188.235 151.996V153.138C188.235 153.551 188.109 153.931 187.918 154.28L187.538 154.883C187.316 155.232 187.189 155.613 187.189 156.025V158.595C187.189 159.927 187.252 161.26 187.379 162.592C187.443 163.259 187.506 163.893 187.601 164.56C189.758 179.693 190.709 194.953 190.551 210.213Z" fill="#B7BAC2"/>
<path d="M212.751 81.9794C211.926 80.2345 211.07 78.553 210.213 76.8715C209.959 76.3639 209.864 75.6342 210.086 75.2535C210.277 74.9045 210.689 74.9997 210.974 75.5073C211.831 77.1888 212.687 78.902 213.512 80.6152C213.765 81.1545 213.861 81.8525 213.639 82.2332C213.448 82.5822 213.004 82.487 212.751 81.9794Z" fill="#F0F0F0"/>
<path d="M208.25 114.277C208.884 108.947 209.107 103.648 208.916 98.2868C208.853 96.7639 208.758 95.2411 208.662 93.7182C208.631 93.2106 209.011 92.6713 209.582 92.6395C210.121 92.6078 210.661 92.9885 210.692 93.5279C211.136 99.0165 211.136 104.537 210.724 109.994C210.597 111.548 210.439 113.071 210.28 114.594C210.217 115.133 209.614 115.482 209.107 115.419C208.504 115.324 208.187 114.816 208.25 114.277Z" fill="#19181D"/>
<path d="M215.227 103.616V98.1588L214.719 97.0801C214.402 96.3821 214.022 95.7476 213.578 95.1448C213.451 94.9862 213.356 94.8593 213.229 94.7007C212.88 94.2565 212.468 93.8441 212.055 93.4633L211.516 92.9875C211.294 92.6702 210.787 92.7019 210.628 93.0509L209.772 94.8276L209.518 101.839C209.518 99.3009 209.391 96.7946 209.169 94.2565C209.137 93.7172 208.757 93.273 208.249 93.1144C206.315 92.5116 204.19 93.5268 203.587 95.3986C203.46 95.7476 203.397 96.1283 203.397 96.509L203.302 112.309C203.302 114.276 204.824 115.703 206.791 115.83C206.981 115.83 207.171 115.83 207.33 115.798C208.059 115.64 208.598 115.069 208.662 114.339L208.725 113.895C209.137 110.627 209.391 107.359 209.455 104.06L210.501 103.965L210.406 104.885L209.645 113.102L210.248 114.974C210.374 115.354 210.85 115.449 211.136 115.164L211.167 115.132L211.294 115.069C212.658 114.244 213.8 113.133 214.688 111.833C214.846 111.611 214.973 111.389 215.1 111.166C215.227 110.944 215.354 110.722 215.481 110.469L215.227 103.616Z" fill="#19181D"/>
<path d="M208.25 114.277C208.884 108.947 209.107 103.648 208.916 98.2868C208.853 96.7639 208.758 95.2411 208.662 93.7182C208.631 93.2106 209.011 92.6713 209.582 92.6395C210.121 92.6078 210.661 92.9885 210.692 93.5279C211.136 99.0165 211.136 104.537 210.724 109.994C210.597 111.548 210.439 113.071 210.28 114.594C210.217 115.133 209.614 115.482 209.107 115.419C208.504 115.324 208.187 114.816 208.25 114.277Z" fill="#F0F0F0"/>
<path d="M189.502 133.47H186.774C185.284 133.47 184.11 132.264 184.11 130.805C184.11 129.314 185.316 128.14 186.774 128.14H189.502C190.993 128.14 192.166 129.345 192.166 130.805C192.198 132.264 190.993 133.47 189.502 133.47Z" fill="#19181D"/>
<path d="M208.022 122.778C201.076 128.997 193.972 129.536 190.927 129.79C190.737 129.79 190.546 129.821 190.388 129.821L190.578 131.852C190.737 131.852 190.927 131.82 191.117 131.82C194.384 131.566 201.996 130.964 209.481 124.301C214.428 119.86 215.76 114.276 216.078 111.357H213.984C213.604 114.022 212.367 118.876 208.022 122.778Z" fill="#19181D"/>
<path d="M217.605 99.2685V98.634C217.605 98.1899 217.574 97.7774 217.542 97.3333C217.51 96.8891 217.51 96.4767 217.478 96.0325C217.447 95.5883 217.415 95.1759 217.383 94.7317L217.256 93.431L217.098 92.1302C217.034 91.686 217.003 91.2736 216.939 90.8294C216.876 90.3852 216.812 89.9728 216.749 89.5287L216.527 88.2596L216.463 87.9423L216.4 87.6251L216.273 86.9588C216.178 86.5147 216.083 86.1022 215.988 85.6581C215.544 83.9131 215.227 81.9778 214.402 80.2329C214.37 80.1377 214.307 80.0743 214.275 79.9791C214.18 79.7888 213.926 79.6936 213.736 79.8205L211.135 81.3116C210.945 81.4068 210.881 81.6606 211.04 81.8192C211.262 82.1048 211.643 82.3903 211.738 82.7076C212.182 83.8814 212.055 85.087 212.245 86.2926C212.372 87.1175 213.133 87.9106 213.228 88.7355L213.387 90.0045C213.45 90.417 212.816 90.9246 212.88 91.337C212.911 91.7495 212.975 92.1936 213.006 92.6061L213.133 93.8751C213.197 94.7317 213.419 95.5566 213.482 96.4132L213.514 97.0477L213.546 97.6822C213.577 98.0947 213.609 98.5388 213.609 98.9513L213.672 100.22L213.704 101.489C213.736 102.346 213.736 103.171 213.768 104.027V104.662V105.296V105.931V106.566V107.2L213.736 107.835C213.736 108.057 213.736 108.247 213.704 108.469L213.672 109.104C213.641 109.516 213.641 109.96 213.609 110.373C213.577 110.785 213.546 111.198 213.514 111.642H213.926H216.019C216.241 111.578 216.432 111.42 216.463 111.229C216.654 110.5 216.781 109.802 216.907 109.072L217.003 108.406C217.034 108.184 217.066 107.961 217.098 107.739L217.193 107.073C217.225 106.851 217.256 106.629 217.256 106.407L217.32 105.741C217.352 105.519 217.352 105.296 217.383 105.074C217.415 104.63 217.447 104.218 217.478 103.774C217.51 102.917 217.574 102.029 217.574 101.172C217.574 100.728 217.574 100.316 217.574 99.8713L217.605 99.2685Z" fill="#19181D"/>
<path d="M152.904 81.9794C153.729 80.2345 154.585 78.553 155.441 76.8715C155.695 76.3639 155.79 75.6342 155.568 75.2535C155.378 74.9045 154.966 74.9997 154.68 75.5073C153.824 77.1888 152.968 78.902 152.143 80.6152C151.889 81.1545 151.794 81.8525 152.016 82.2332C152.206 82.5822 152.65 82.487 152.904 81.9794Z" fill="#F0F0F0"/>
<path d="M157.409 114.276C156.775 108.946 156.553 103.648 156.743 98.2863C156.806 96.7634 156.902 95.2406 156.997 93.7177C157.028 93.2101 156.648 92.6708 156.077 92.6391C155.538 92.6073 154.999 92.988 154.967 93.5274C154.523 99.016 154.523 104.536 154.935 109.993C155.062 111.548 155.221 113.071 155.379 114.593C155.443 115.133 156.045 115.482 156.553 115.418C157.124 115.323 157.473 114.816 157.409 114.276Z" fill="#19181D"/>
<path d="M150.432 103.616V98.1588L150.939 97.0801C151.257 96.3821 151.637 95.7476 152.081 95.1448C152.208 94.9862 152.303 94.8593 152.43 94.7007C152.779 94.2565 153.191 93.8441 153.604 93.4633L154.143 92.9875C154.365 92.6702 154.872 92.7019 155.031 93.0509L155.887 94.8276L156.141 101.839C156.141 99.3009 156.268 96.7946 156.49 94.2565C156.521 93.7172 156.902 93.273 157.409 93.1144C159.344 92.5116 161.469 93.5268 162.072 95.3986C162.199 95.7476 162.262 96.1283 162.262 96.509L162.325 112.213C162.325 114.18 160.803 115.608 158.837 115.735C158.646 115.735 158.456 115.735 158.297 115.703C157.568 115.545 157.029 114.974 156.965 114.244L156.902 113.8C156.49 110.532 156.236 107.264 156.173 103.965L155.126 103.869L155.221 104.79L155.982 113.007L155.38 114.878C155.253 115.259 154.777 115.354 154.492 115.069L154.46 115.037L154.333 114.974C152.969 114.149 151.827 113.038 150.939 111.738C150.781 111.515 150.654 111.293 150.527 111.071C150.4 110.849 150.273 110.627 150.146 110.373L150.432 103.616Z" fill="#19181D"/>
<path d="M157.409 114.276C156.775 108.946 156.553 103.648 156.743 98.2863C156.806 96.7634 156.902 95.2406 156.997 93.7177C157.028 93.2101 156.648 92.6708 156.077 92.6391C155.538 92.6073 154.999 92.988 154.967 93.5274C154.523 99.016 154.523 104.536 154.935 109.993C155.062 111.548 155.221 113.071 155.379 114.593C155.443 115.133 156.045 115.482 156.553 115.418C157.124 115.323 157.473 114.816 157.409 114.276Z" fill="#F0F0F0"/>
<path d="M148.021 99.2695V98.635C148.021 98.1908 148.052 97.7784 148.084 97.3342C148.116 96.8901 148.116 96.4776 148.147 96.0335C148.179 95.5893 148.211 95.1769 148.243 94.7327L148.369 93.4319L148.528 92.1312C148.591 91.687 148.623 91.2746 148.687 90.8304C148.75 90.3862 148.813 89.9738 148.877 89.5296L149.099 88.2606L149.162 87.9433L149.226 87.6261L149.353 86.9598C149.448 86.5157 149.543 86.1032 149.638 85.659C150.082 83.9141 150.399 81.9788 151.224 80.2339C151.256 80.1387 151.319 80.0753 151.351 79.9801C151.446 79.7897 151.7 79.6946 151.89 79.8215L154.491 81.3126C154.681 81.4078 154.744 81.6616 154.586 81.8202C154.364 82.1057 153.983 82.3913 153.888 82.7085C153.444 83.8824 153.571 85.088 153.38 86.2936C153.254 87.1184 152.492 87.9116 152.397 88.7365L152.239 90.0055C152.175 90.418 152.81 90.9256 152.746 91.338C152.714 91.7504 152.651 92.1946 152.619 92.607L152.492 93.8761C152.429 94.7327 152.207 95.5576 152.144 96.4142L152.112 97.0487L152.08 97.6832C152.048 98.0957 152.017 98.5398 152.017 98.9523L151.953 100.221L151.922 101.49C151.89 102.347 151.89 103.172 151.858 104.028V104.663V105.297V105.932V106.567V107.201L151.89 107.836C151.89 108.058 151.89 108.248 151.922 108.47L151.953 109.105C151.985 109.517 151.985 109.961 152.017 110.374C152.048 110.786 152.08 111.199 152.112 111.643H151.7H149.606C149.384 111.579 149.194 111.421 149.162 111.23C148.972 110.501 148.845 109.803 148.718 109.073L148.623 108.407C148.591 108.185 148.56 107.962 148.528 107.74L148.433 107.074C148.401 106.852 148.369 106.63 148.369 106.408L148.306 105.742C148.274 105.52 148.274 105.297 148.243 105.075C148.211 104.631 148.179 104.219 148.147 103.775C148.116 102.918 148.052 102.03 148.052 101.173C148.052 100.729 148.052 100.316 148.052 99.8723L148.021 99.2695Z" fill="#19181D"/>
<path d="M209.583 71.255L209.266 70.8108C209.139 70.6522 209.044 70.5253 208.917 70.3984C208.79 70.2715 208.695 70.1128 208.568 69.9859L208.219 69.5735C207.997 69.288 207.744 69.0341 207.49 68.7486C207.236 68.4631 206.982 68.2093 206.729 67.9555C204.667 65.8615 202.32 64.0532 199.783 62.5303C199.149 62.1496 198.483 61.8006 197.848 61.4516C197.69 61.3564 197.531 61.293 197.341 61.1978L196.833 60.944C196.484 60.7854 196.167 60.6267 195.818 60.4998C195.47 60.3412 195.121 60.2143 194.772 60.0557C194.423 59.897 194.074 59.8019 193.725 59.675C193.535 59.6115 193.376 59.5481 193.186 59.4846L192.647 59.326C192.457 59.2625 192.298 59.1991 192.108 59.1673L191.569 59.0087C188.746 58.2156 185.796 57.8349 182.847 57.8666C179.897 57.8349 176.947 58.2156 174.125 59.0087L173.586 59.1673C173.395 59.2308 173.237 59.2625 173.046 59.326L172.507 59.4846C172.317 59.5481 172.158 59.6115 171.968 59.675C171.619 59.8019 171.27 59.9288 170.921 60.0557C170.573 60.1826 170.224 60.3412 169.875 60.4998C169.526 60.6585 169.177 60.7854 168.86 60.944L168.352 61.1978C168.194 61.2613 168.004 61.3564 167.845 61.4516C167.179 61.8006 166.545 62.1496 165.91 62.5303C163.373 64.0532 161.026 65.8615 158.965 67.9555C158.711 68.2093 158.457 68.4948 158.203 68.7486C157.95 69.0341 157.696 69.288 157.474 69.5735L157.125 69.9859C156.998 70.1128 156.903 70.2715 156.776 70.3984C156.649 70.5253 156.554 70.6839 156.427 70.8108L156.11 71.255C155.222 72.4288 154.429 73.6344 153.731 74.9669L156.332 77.3146C156.522 77.0608 156.713 76.807 156.935 76.5215L157.252 76.1408L157.41 75.9504L157.569 75.7601C157.791 75.5063 157.981 75.2525 158.203 75.0304L158.521 74.6497C158.616 74.5228 158.743 74.3959 158.869 74.3007C159.757 73.3489 160.709 72.4288 161.692 71.5405C162.675 70.6839 163.722 69.859 164.8 69.0976C165.879 68.3362 166.989 67.6382 168.13 66.972C168.701 66.6547 169.272 66.3374 169.875 66.0519C170.033 65.9884 170.16 65.8933 170.319 65.8298L170.763 65.6077C171.048 65.4808 171.365 65.3539 171.651 65.1953C172.856 64.6877 174.093 64.2435 175.362 63.8628C177.804 63.1648 180.341 62.7207 182.91 62.6572C185.479 62.7524 188.016 63.1648 190.458 63.8628C191.727 64.2435 192.964 64.6877 194.169 65.1953C194.486 65.3222 194.772 65.4491 195.057 65.6077L195.501 65.8298C195.66 65.8933 195.787 65.9567 195.945 66.0519C196.548 66.3374 197.119 66.6547 197.69 66.972C198.831 67.6065 199.942 68.3362 201.02 69.0976C202.098 69.859 203.113 70.6839 204.128 71.5405C205.111 72.4288 206.063 73.3489 206.951 74.3007C207.078 74.4276 207.173 74.5545 207.3 74.6497L207.617 75.0304C207.839 75.2842 208.061 75.538 208.251 75.7601L208.41 75.9504L208.568 76.1408L208.885 76.5215C209.076 76.7753 209.266 77.0291 209.488 77.3146L212.089 74.9669C211.296 73.6344 210.471 72.4288 209.583 71.255Z" fill="#19181D"/>
</g>
<defs>
<linearGradient id="paint0_linear" x1="235.231" y1="454.082" x2="240.874" y2="386.945" gradientUnits="userSpaceOnUse">
<stop stop-color="#7DCEFF"/>
<stop offset="1" stop-color="#3AE597"/>
</linearGradient>
<linearGradient id="paint1_linear" x1="285.258" y1="338.17" x2="466.979" y2="61.0442" gradientUnits="userSpaceOnUse">
<stop stop-color="#7DCEFF"/>
<stop offset="1" stop-color="#3AE597"/>
</linearGradient>
<linearGradient id="paint2_linear" x1="199.476" y1="140.797" x2="468.676" y2="297.825" gradientUnits="userSpaceOnUse">
<stop stop-color="#333333"/>
<stop offset="1" stop-color="#2E2E2E"/>
</linearGradient>
<linearGradient id="paint3_linear" x1="80.2295" y1="17.1622" x2="390.8" y2="377.963" gradientUnits="userSpaceOnUse">
<stop offset="0.285594" stop-color="#0285CB"/>
<stop offset="0.751549" stop-color="#0285CB" stop-opacity="0"/>
</linearGradient>
<linearGradient id="paint4_linear" x1="53.8924" y1="18.3873" x2="55.6697" y2="-11.975" gradientUnits="userSpaceOnUse">
<stop stop-color="#7DCEFF"/>
<stop offset="1" stop-color="#3AE597"/>
</linearGradient>
<clipPath id="clip0">
<rect width="568.73" height="72.4288" fill="white" transform="translate(151.969 376.827)"/>
</clipPath>
<clipPath id="clip1">
<rect width="167.196" height="167.196" fill="white" transform="translate(352.829 155.628)"/>
</clipPath>
<clipPath id="clip2">
<rect width="368" height="252" fill="white"/>
</clipPath>
</defs>
</svg>
