<svg width="69" height="65" viewBox="0 0 69 65" fill="none" xmlns="http://www.w3.org/2000/svg">
<circle cx="34.4793" cy="32.1981" r="32.1981" fill="white"/>
<g clip-path="url(#clip0)">
<path d="M33.1422 18.6681C31.9301 18.4175 30.7991 17.8585 29.9112 17.0711C27.6318 15.0497 26.9273 11.8743 28.1315 9.04879C28.4272 8.35493 28.908 7.65076 29.5036 7.039L30.0288 6.49966L30.0658 9.65639C30.1013 12.6779 30.1092 12.8301 30.2524 13.2109C30.5388 13.9726 30.8458 14.4576 31.3743 14.9832C32.7396 16.3408 34.7421 16.6796 36.4445 15.841C38.0446 15.0528 39.0534 13.3389 38.9361 11.6077C38.8574 10.4449 38.4657 9.59218 37.6201 8.74258C36.9807 8.10015 36.2285 7.68052 35.4094 7.50942C34.5762 7.33533 34.6161 7.30989 34.6161 8.01415V8.62215L35.073 8.70619C36.8422 9.03169 38.0123 10.7664 37.6435 12.517C37.5257 13.0761 37.263 13.5699 36.8413 14.0247C36.2004 14.7158 35.2987 15.0462 34.5114 15.0447C33.2096 15.0422 32.1226 14.3036 31.5957 13.2113C31.5957 13.2113 31.4577 12.899 31.4134 12.7061C31.1525 11.5715 31.3192 9.18306 31.3192 9.18306L31.299 5.69077L31.5055 5.58415C31.6191 5.52552 31.728 5.47754 31.7476 5.47754C31.7671 5.47754 31.7919 7.08155 31.8027 9.04201C31.8027 9.04201 31.552 11.6119 31.8618 12.5967C31.9065 12.7388 31.9914 12.9818 31.9914 12.9818C32.263 13.5344 32.6984 14.0204 33.264 14.2879C33.6934 14.491 33.9095 14.5829 34.5448 14.5829C34.9598 14.5829 35.3275 14.4521 35.7506 14.2578C36.2493 14.0288 36.8214 13.4216 37.0328 12.8672C37.6153 11.3396 36.8042 9.69624 35.2417 9.23799C34.6031 9.05071 34.6161 9.0404 34.6161 9.73373V10.3394L34.9227 10.4212C36.0276 10.7163 36.3647 12.195 35.4973 12.9549C35.1909 13.2233 34.9147 13.342 34.4317 13.342C33.9155 13.342 33.42 13.03 33.1653 12.5516C33.0123 12.2642 32.9994 11.9915 32.9994 11.8667C32.9994 10.7133 32.9744 8.63904 32.9744 8.63904L32.9537 5.08092L33.1123 5.04158C33.1996 5.01994 33.5522 4.9664 33.896 4.9226C35.0618 4.77406 36.7865 5.155 37.9452 5.81696C39.5249 6.71943 40.7202 8.26975 41.2179 10.0617C41.3891 10.6781 41.4082 10.8573 41.4082 11.8488C41.4082 12.8359 41.3887 13.0211 41.2211 13.624C40.5442 16.0594 38.8223 17.8004 36.3603 18.5388C35.8422 18.6942 35.5994 18.7238 34.6851 18.7433C33.9473 18.759 33.4691 18.7357 33.1422 18.6681Z" fill="#C60C30"/>
</g>
<path d="M21.2965 32.2917V31.6885C21.5302 31.6885 21.7204 31.6341 21.8671 31.5254C22.0138 31.4167 22.1442 31.2021 22.2584 30.8815C22.3725 30.5554 22.4676 30.0908 22.5437 29.4876L22.8779 26.7569H26.2036V32.1938H25.5271V27.3601H23.4811L23.2121 29.5365C23.1414 30.118 23.0463 30.5962 22.9268 30.9711C22.8126 31.3461 22.6686 31.6287 22.4947 31.8189C22.3263 32.0036 22.1497 32.1286 21.9649 32.1938C21.7856 32.2591 21.5628 32.2917 21.2965 32.2917ZM28.1267 32.1938H27.4746V26.7569H28.1511V31.0037L31.2813 26.7569H31.9741V32.1938H31.2976V27.8573L28.1267 32.1938ZM32.8708 33.1965V31.6477C33.11 31.6314 33.3002 31.5743 33.4414 31.4765C33.5827 31.3787 33.7104 31.1722 33.8246 30.857C33.9441 30.5418 34.0419 30.0853 34.118 29.4876L34.4522 26.7569H37.778V31.5906H38.2752V33.1965H37.5987V32.1938H33.5474V33.1965H32.8708ZM34.7864 29.5365C34.6614 30.5853 34.3843 31.27 33.955 31.5906H37.1014V27.3601H35.0554L34.7864 29.5365ZM42.6986 32.1938H39.1365V26.7569H42.6986V27.3601H39.813V29.1126H42.6416V29.7158H39.813V31.5906H42.6986V32.1938ZM44.4539 32.1938H43.7774V26.7569H45.962C46.4891 26.7569 46.9048 26.9145 47.2091 27.2296C47.5134 27.5448 47.6656 27.9334 47.6656 28.3953C47.6656 28.8572 47.5107 29.2458 47.201 29.5609C46.8966 29.8761 46.4836 30.0337 45.962 30.0337H44.4539V32.1938ZM45.8804 29.4305C46.2011 29.4305 46.4619 29.3354 46.663 29.1452C46.864 28.9496 46.9646 28.6996 46.9646 28.3953C46.9646 28.091 46.864 27.8437 46.663 27.6535C46.4619 27.4579 46.2011 27.3601 45.8804 27.3601H44.4539V29.4305H45.8804ZM22.0563 40.1938H21.3797V35.3601H18.2007V40.1938H17.5241V34.7569H22.0563V40.1938ZM24.0038 40.1938H23.3272V34.7569H25.5118C26.0389 34.7569 26.4546 34.9145 26.759 35.2296C27.0633 35.5448 27.2154 35.9334 27.2154 36.3953C27.2154 36.8572 27.0606 37.2458 26.7508 37.5609C26.4465 37.8761 26.0335 38.0337 25.5118 38.0337H24.0038V40.1938ZM25.4303 37.4305C25.7509 37.4305 26.0117 37.3354 26.2128 37.1452C26.4139 36.9496 26.5144 36.6996 26.5144 36.3953C26.5144 36.091 26.4139 35.8437 26.2128 35.6535C26.0117 35.4579 25.7509 35.3601 25.4303 35.3601H24.0038V37.4305H25.4303ZM30.5894 40.2917C29.7906 40.2917 29.1412 40.0254 28.6412 39.4928C28.1413 38.9603 27.8913 38.2891 27.8913 37.4794C27.8913 36.6697 28.1413 35.9986 28.6412 35.466C29.1412 34.9335 29.7906 34.6672 30.5894 34.6672C31.3828 34.6672 32.0295 34.9335 32.5294 35.466C33.0348 35.9986 33.2875 36.6697 33.2875 37.4794C33.2875 38.2891 33.0348 38.9603 32.5294 39.4928C32.0295 40.0254 31.3828 40.2917 30.5894 40.2917ZM30.5894 39.6885C31.1872 39.6885 31.6681 39.482 32.0322 39.069C32.4017 38.6505 32.5865 38.1207 32.5865 37.4794C32.5865 36.8328 32.4017 36.3029 32.0322 35.8899C31.6681 35.4769 31.1872 35.2704 30.5894 35.2704C29.9862 35.2704 29.5026 35.4769 29.1385 35.8899C28.7744 36.3029 28.5923 36.8328 28.5923 37.4794C28.5923 38.1207 28.7744 38.6505 29.1385 39.069C29.5026 39.482 29.9862 39.6885 30.5894 39.6885ZM33.6669 41.1965V39.6477C33.906 39.6314 34.0962 39.5743 34.2375 39.4765C34.3788 39.3787 34.5065 39.1722 34.6206 38.857C34.7402 38.5418 34.838 38.0853 34.9141 37.4876L35.2483 34.7569H38.574V39.5906H39.0713V41.1965H38.3947V40.1938H34.3435V41.1965H33.6669ZM35.5825 37.5365C35.4575 38.5853 35.1803 39.27 34.751 39.5906H37.8975V35.3601H35.8515L35.5825 37.5365ZM44.587 40.1938H43.8126L43.3317 38.9874H40.6254L40.1445 40.1938H39.3701L41.5546 34.7569H42.3942L44.587 40.1938ZM43.1279 38.3842L41.9785 35.4579L40.821 38.3842H43.1279ZM45.6402 40.1938H44.8006L47.2623 37.3409L44.9962 34.7569H45.8439L48.0285 37.3164V34.7569H48.7051V37.3164L50.8978 34.7569H51.7456L49.4713 37.3409L51.9412 40.1938H51.0935L49.0311 37.7484L48.7051 38.1234V40.1938H48.0285V38.1234L47.7025 37.7484L45.6402 40.1938Z" fill="black"/>
<path d="M31.5296 54.0176H28.5429V53.5872C28.9951 53.2307 29.345 52.9481 29.5928 52.7394C29.845 52.5264 30.0863 52.3025 30.3167 52.0678C30.5514 51.8287 30.7166 51.6178 30.8123 51.4352C30.9079 51.2483 30.9558 51.0635 30.9558 50.8809C30.9558 50.6201 30.8666 50.4223 30.6884 50.2875C30.5101 50.1527 30.2971 50.0853 30.0493 50.0853C29.5494 50.0853 29.1559 50.2679 28.869 50.6331L28.5364 50.2875C28.7016 50.0701 28.9168 49.9027 29.182 49.7854C29.4515 49.6636 29.7406 49.6028 30.0493 49.6028C30.4449 49.6028 30.7862 49.7136 31.0731 49.9354C31.3644 50.1571 31.51 50.4723 31.51 50.8809C31.51 51.2852 31.3362 51.6895 30.9884 52.0938C30.6406 52.4938 30.1102 52.9742 29.3972 53.535H31.5296V54.0176ZM34.02 54.0958C33.733 54.0958 33.4787 54.0306 33.257 53.9002C33.0396 53.7654 32.8657 53.5872 32.7353 53.3655C32.6092 53.1437 32.5136 52.9046 32.4484 52.6481C32.3875 52.3916 32.3571 52.1243 32.3571 51.846C32.3571 51.5678 32.3875 51.3004 32.4484 51.0439C32.5136 50.7874 32.6092 50.5505 32.7353 50.3331C32.8657 50.1114 33.0396 49.9354 33.257 49.8049C33.4787 49.6702 33.733 49.6028 34.02 49.6028C34.3026 49.6028 34.5547 49.6702 34.7764 49.8049C34.9981 49.9354 35.172 50.1114 35.2981 50.3331C35.4285 50.5505 35.5242 50.7874 35.585 51.0439C35.6502 51.3004 35.6829 51.5678 35.6829 51.846C35.6829 52.1243 35.6502 52.3916 35.585 52.6481C35.5242 52.9046 35.4285 53.1437 35.2981 53.3655C35.172 53.5872 34.9981 53.7654 34.7764 53.9002C34.5547 54.0306 34.3026 54.0958 34.02 54.0958ZM33.3679 53.3459C33.5418 53.5241 33.7591 53.6133 34.02 53.6133C34.2808 53.6133 34.4982 53.5241 34.6721 53.3459C34.846 53.1633 34.9655 52.9459 35.0307 52.6938C35.096 52.4416 35.1286 52.1591 35.1286 51.846C35.1286 51.533 35.096 51.2504 35.0307 50.9983C34.9655 50.7461 34.846 50.5309 34.6721 50.3527C34.4982 50.1745 34.2808 50.0853 34.02 50.0853C33.7591 50.0853 33.5418 50.1745 33.3679 50.3527C33.194 50.5309 33.0744 50.7461 33.0092 50.9983C32.944 51.2504 32.9114 51.533 32.9114 51.846C32.9114 52.1591 32.944 52.4416 33.0092 52.6938C33.0744 52.9459 33.194 53.1633 33.3679 53.3459ZM37.7194 54.0176H37.1782V50.3853L36.4804 51.1222L36.1544 50.7896L37.2434 49.668H37.7194V54.0176ZM39.6162 54.0176H39.0163L40.7705 50.1505H38.4294V49.668H41.3965V50.0397L39.6162 54.0176Z" fill="#C60C30"/>
<defs>
<clipPath id="clip0">
<rect width="13.8574" height="13.8574" fill="white" transform="translate(27.5508 4.89062)"/>
</clipPath>
</defs>
</svg>
