<svg width="69" height="65" viewBox="0 0 69 65" fill="none" xmlns="http://www.w3.org/2000/svg">
<circle cx="34.8231" cy="32.1981" r="32.1981" fill="white"/>
<g clip-path="url(#clip0)">
<path d="M33.4859 18.6681C32.2738 18.4175 31.1429 17.8585 30.255 17.0711C27.9755 15.0497 27.2711 11.8743 28.4753 9.04879C28.771 8.35493 29.2517 7.65076 29.8474 7.039L30.3725 6.49966L30.4096 9.65639C30.445 12.6779 30.453 12.8301 30.5961 13.2109C30.8825 13.9726 31.1895 14.4576 31.7181 14.9832C33.0833 16.3408 35.0859 16.6796 36.7882 15.841C38.3883 15.0528 39.3971 13.3389 39.2799 11.6077C39.2011 10.4449 38.8095 9.59218 37.9639 8.74258C37.3245 8.10015 36.5722 7.68052 35.7532 7.50942C34.9199 7.33533 34.9599 7.30989 34.9599 8.01415V8.62215L35.4167 8.70619C37.1859 9.03169 38.356 10.7664 37.9872 12.517C37.8695 13.0761 37.6067 13.5699 37.185 14.0247C36.5442 14.7158 35.6425 15.0462 34.8552 15.0447C33.5534 15.0422 32.4663 14.3036 31.9395 13.2113C31.9395 13.2113 31.8015 12.899 31.7571 12.7061C31.4963 11.5715 31.663 9.18306 31.663 9.18306L31.6428 5.69077L31.8493 5.58415C31.9628 5.52552 32.0717 5.47754 32.0913 5.47754C32.1109 5.47754 32.1357 7.08155 32.1465 9.04201C32.1465 9.04201 31.8957 11.6119 32.2056 12.5967C32.2503 12.7388 32.3352 12.9818 32.3352 12.9818C32.6068 13.5344 33.0421 14.0204 33.6077 14.2879C34.0371 14.491 34.2533 14.5829 34.8885 14.5829C35.3036 14.5829 35.6712 14.4521 36.0943 14.2578C36.593 14.0288 37.1651 13.4216 37.3766 12.8672C37.959 11.3396 37.148 9.69624 35.5855 9.23799C34.9469 9.05071 34.9599 9.0404 34.9599 9.73373V10.3394L35.2664 10.4212C36.3713 10.7163 36.7085 12.195 35.8411 12.9549C35.5346 13.2233 35.2585 13.342 34.7754 13.342C34.2593 13.342 33.7638 13.03 33.5091 12.5516C33.3561 12.2642 33.3431 11.9915 33.3431 11.8667C33.3431 10.7133 33.3181 8.63904 33.3181 8.63904L33.2975 5.08092L33.4561 5.04158C33.5433 5.01994 33.896 4.9664 34.2397 4.9226C35.4055 4.77406 37.1302 5.155 38.2889 5.81696C39.8687 6.71943 41.064 8.26975 41.5616 10.0617C41.7328 10.6781 41.7519 10.8573 41.7519 11.8488C41.7519 12.8359 41.7324 13.0211 41.5648 13.624C40.8879 16.0594 39.1661 17.8004 36.7041 18.5388C36.1859 18.6942 35.9432 18.7238 35.0289 18.7433C34.291 18.759 33.8128 18.7357 33.4859 18.6681Z" fill="#C60C30"/>
</g>
<path d="M21.6402 32.2917V31.6885C21.8739 31.6885 22.0641 31.6341 22.2108 31.5254C22.3576 31.4167 22.488 31.2021 22.6021 30.8815C22.7162 30.5554 22.8113 30.0908 22.8874 29.4876L23.2216 26.7569H26.5474V32.1938H25.8708V27.3601H23.8248L23.5558 29.5365C23.4852 30.118 23.3901 30.5962 23.2705 30.9711C23.1564 31.3461 23.0124 31.6287 22.8385 31.8189C22.67 32.0036 22.4934 32.1286 22.3087 32.1938C22.1293 32.2591 21.9065 32.2917 21.6402 32.2917ZM28.4704 32.1938H27.8183V26.7569H28.4949V31.0037L31.625 26.7569H32.3179V32.1938H31.6413V27.8573L28.4704 32.1938ZM33.2146 33.1965V31.6477C33.4537 31.6314 33.6439 31.5743 33.7852 31.4765C33.9265 31.3787 34.0542 31.1722 34.1683 30.857C34.2879 30.5418 34.3857 30.0853 34.4618 29.4876L34.796 26.7569H38.1217V31.5906H38.619V33.1965H37.9424V32.1938H33.8912V33.1965H33.2146ZM35.1302 29.5365C35.0052 30.5853 34.728 31.27 34.2987 31.5906H37.4452V27.3601H35.3992L35.1302 29.5365ZM43.0424 32.1938H39.4802V26.7569H43.0424V27.3601H40.1568V29.1126H42.9853V29.7158H40.1568V31.5906H43.0424V32.1938ZM44.7977 32.1938H44.1211V26.7569H46.3057C46.8328 26.7569 47.2485 26.9145 47.5529 27.2296C47.8572 27.5448 48.0093 27.9334 48.0093 28.3953C48.0093 28.8572 47.8545 29.2458 47.5447 29.5609C47.2404 29.8761 46.8274 30.0337 46.3057 30.0337H44.7977V32.1938ZM46.2242 29.4305C46.5448 29.4305 46.8057 29.3354 47.0067 29.1452C47.2078 28.9496 47.3083 28.6996 47.3083 28.3953C47.3083 28.091 47.2078 27.8437 47.0067 27.6535C46.8057 27.4579 46.5448 27.3601 46.2242 27.3601H44.7977V29.4305H46.2242ZM22.4 40.1938H21.7235V35.3601H18.5444V40.1938H17.8679V34.7569H22.4V40.1938ZM24.3475 40.1938H23.671V34.7569H25.8555C26.3827 34.7569 26.7984 34.9145 27.1027 35.2296C27.407 35.5448 27.5592 35.9334 27.5592 36.3953C27.5592 36.8572 27.4043 37.2458 27.0946 37.5609C26.7902 37.8761 26.3772 38.0337 25.8555 38.0337H24.3475V40.1938ZM25.774 37.4305C26.0946 37.4305 26.3555 37.3354 26.5566 37.1452C26.7576 36.9496 26.8582 36.6996 26.8582 36.3953C26.8582 36.091 26.7576 35.8437 26.5566 35.6535C26.3555 35.4579 26.0946 35.3601 25.774 35.3601H24.3475V37.4305H25.774ZM30.9332 40.2917C30.1343 40.2917 29.4849 40.0254 28.985 39.4928C28.485 38.9603 28.235 38.2891 28.235 37.4794C28.235 36.6697 28.485 35.9986 28.985 35.466C29.4849 34.9335 30.1343 34.6672 30.9332 34.6672C31.7266 34.6672 32.3732 34.9335 32.8732 35.466C33.3786 35.9986 33.6313 36.6697 33.6313 37.4794C33.6313 38.2891 33.3786 38.9603 32.8732 39.4928C32.3732 40.0254 31.7266 40.2917 30.9332 40.2917ZM30.9332 39.6885C31.5309 39.6885 32.0119 39.482 32.376 39.069C32.7455 38.6505 32.9303 38.1207 32.9303 37.4794C32.9303 36.8328 32.7455 36.3029 32.376 35.8899C32.0119 35.4769 31.5309 35.2704 30.9332 35.2704C30.33 35.2704 29.8463 35.4769 29.4822 35.8899C29.1181 36.3029 28.9361 36.8328 28.9361 37.4794C28.9361 38.1207 29.1181 38.6505 29.4822 39.069C29.8463 39.482 30.33 39.6885 30.9332 39.6885ZM34.0106 41.1965V39.6477C34.2497 39.6314 34.4399 39.5743 34.5812 39.4765C34.7225 39.3787 34.8502 39.1722 34.9644 38.857C35.0839 38.5418 35.1817 38.0853 35.2578 37.4876L35.592 34.7569H38.9178V39.5906H39.415V41.1965H38.7385V40.1938H34.6872V41.1965H34.0106ZM35.9262 37.5365C35.8012 38.5853 35.5241 39.27 35.0948 39.5906H38.2412V35.3601H36.1952L35.9262 37.5365ZM44.9307 40.1938H44.1563L43.6754 38.9874H40.9691L40.4882 40.1938H39.7138L41.8984 34.7569H42.738L44.9307 40.1938ZM43.4716 38.3842L42.3223 35.4579L41.1648 38.3842H43.4716ZM45.9839 40.1938H45.1443L47.606 37.3409L45.3399 34.7569H46.1877L48.3723 37.3164V34.7569H49.0488V37.3164L51.2416 34.7569H52.0893L49.8151 37.3409L52.2849 40.1938H51.4372L49.3749 37.7484L49.0488 38.1234V40.1938H48.3723V38.1234L48.0462 37.7484L45.9839 40.1938Z" fill="black"/>
<path d="M31.6346 54.0176H28.6479V53.5872C29.1 53.2307 29.45 52.9481 29.6978 52.7394C29.9499 52.5264 30.1912 52.3025 30.4216 52.0678C30.6564 51.8287 30.8216 51.6178 30.9172 51.4352C31.0129 51.2483 31.0607 51.0635 31.0607 50.8809C31.0607 50.6201 30.9716 50.4223 30.7933 50.2875C30.6151 50.1527 30.4021 50.0853 30.1543 50.0853C29.6543 50.0853 29.2609 50.2679 28.9739 50.6331L28.6414 50.2875C28.8066 50.0701 29.0218 49.9027 29.2869 49.7854C29.5565 49.6636 29.8456 49.6028 30.1543 49.6028C30.5499 49.6028 30.8911 49.7136 31.1781 49.9354C31.4693 50.1571 31.615 50.4723 31.615 50.8809C31.615 51.2852 31.4411 51.6895 31.0933 52.0938C30.7455 52.4938 30.2151 52.9742 29.5021 53.535H31.6346V54.0176ZM34.1249 54.0958C33.838 54.0958 33.5837 54.0306 33.3619 53.9002C33.1446 53.7654 32.9707 53.5872 32.8402 53.3655C32.7142 53.1437 32.6185 52.9046 32.5533 52.6481C32.4925 52.3916 32.462 52.1243 32.462 51.846C32.462 51.5678 32.4925 51.3004 32.5533 51.0439C32.6185 50.7874 32.7142 50.5505 32.8402 50.3331C32.9707 50.1114 33.1446 49.9354 33.3619 49.8049C33.5837 49.6702 33.838 49.6028 34.1249 49.6028C34.4075 49.6028 34.6596 49.6702 34.8814 49.8049C35.1031 49.9354 35.277 50.1114 35.403 50.3331C35.5335 50.5505 35.6291 50.7874 35.69 51.0439C35.7552 51.3004 35.7878 51.5678 35.7878 51.846C35.7878 52.1243 35.7552 52.3916 35.69 52.6481C35.6291 52.9046 35.5335 53.1437 35.403 53.3655C35.277 53.5872 35.1031 53.7654 34.8814 53.9002C34.6596 54.0306 34.4075 54.0958 34.1249 54.0958ZM33.4728 53.3459C33.6467 53.5241 33.8641 53.6133 34.1249 53.6133C34.3858 53.6133 34.6031 53.5241 34.777 53.3459C34.9509 53.1633 35.0705 52.9459 35.1357 52.6938C35.2009 52.4416 35.2335 52.1591 35.2335 51.846C35.2335 51.533 35.2009 51.2504 35.1357 50.9983C35.0705 50.7461 34.9509 50.5309 34.777 50.3527C34.6031 50.1745 34.3858 50.0853 34.1249 50.0853C33.8641 50.0853 33.6467 50.1745 33.4728 50.3527C33.2989 50.5309 33.1793 50.7461 33.1141 50.9983C33.0489 51.2504 33.0163 51.533 33.0163 51.846C33.0163 52.1591 33.0489 52.4416 33.1141 52.6938C33.1793 52.9459 33.2989 53.1633 33.4728 53.3459ZM37.8244 54.0176H37.2831V50.3853L36.5854 51.1222L36.2593 50.7896L37.3483 49.668H37.8244V54.0176ZM41.671 54.0176H38.6843V53.5872C39.1364 53.2307 39.4864 52.9481 39.7342 52.7394C39.9863 52.5264 40.2276 52.3025 40.458 52.0678C40.6928 51.8287 40.858 51.6178 40.9536 51.4352C41.0493 51.2483 41.0971 51.0635 41.0971 50.8809C41.0971 50.6201 41.008 50.4223 40.8297 50.2875C40.6515 50.1527 40.4385 50.0853 40.1907 50.0853C39.6907 50.0853 39.2973 50.2679 39.0104 50.6331L38.6778 50.2875C38.843 50.0701 39.0582 49.9027 39.3234 49.7854C39.5929 49.6636 39.882 49.6028 40.1907 49.6028C40.5863 49.6028 40.9276 49.7136 41.2145 49.9354C41.5058 50.1571 41.6514 50.4723 41.6514 50.8809C41.6514 51.2852 41.4775 51.6895 41.1297 52.0938C40.7819 52.4938 40.2515 52.9742 39.5386 53.535H41.671V54.0176Z" fill="#C60C30"/>
<defs>
<clipPath id="clip0">
<rect width="13.8574" height="13.8574" fill="white" transform="translate(27.8945 4.89062)"/>
</clipPath>
</defs>
</svg>
