<svg width="131" height="65" viewBox="0 0 131 65" fill="none" xmlns="http://www.w3.org/2000/svg">
<rect x="0.390625" width="130.423" height="64.3961" rx="4.89085" fill="white"/>
<path d="M0.390625 4.89085C0.390625 2.18971 2.58033 0 5.28147 0H125.922C128.623 0 130.813 2.18971 130.813 4.89085V39.9419H0.390625V4.89085Z" fill="#E0E0E3"/>
<path d="M20.0393 19.2492C19.8165 19.2492 19.61 19.2084 19.4198 19.1269C19.2296 19.0454 19.0828 18.9421 18.9796 18.8172L19.2649 18.2792C19.4986 18.5237 19.7458 18.646 20.0067 18.646C20.2132 18.646 20.3762 18.5916 20.4958 18.483C20.6207 18.3743 20.762 18.1705 20.9196 17.8716L21.0174 17.6841L18.9307 13.7144H19.7051L21.4087 17.0809L23.1124 13.7144H23.8867L21.5147 18.1895C21.3245 18.5482 21.1207 18.8144 20.9033 18.9883C20.686 19.1622 20.3979 19.2492 20.0393 19.2492ZM25.1093 13.7144V15.1327C25.1093 15.9696 25.5304 16.388 26.3727 16.388C26.8238 16.388 27.2422 16.3255 27.628 16.2006V13.7144H28.3046V19.1514H27.628V16.8038C27.1716 16.9287 26.7341 16.9912 26.3157 16.9912C25.6962 16.9912 25.2261 16.8255 24.9055 16.494C24.5903 16.1571 24.4327 15.7006 24.4327 15.1246V13.7144H25.1093ZM34.2334 19.1514H33.459L32.978 17.945H30.2718L29.7908 19.1514H29.0165L31.201 13.7144H32.0406L34.2334 19.1514ZM32.7743 17.3418L31.6249 14.4154L30.4674 17.3418H32.7743ZM37.2175 19.2492C36.4241 19.2492 35.7584 18.9883 35.2204 18.4666C34.6879 17.9395 34.4216 17.263 34.4216 16.4369C34.4216 15.6109 34.6879 14.9371 35.2204 14.4154C35.7584 13.8883 36.4241 13.6247 37.2175 13.6247C38.087 13.6247 38.7745 13.9834 39.2798 14.7007L38.7092 15.0186C38.5517 14.7849 38.3397 14.5947 38.0734 14.448C37.8072 14.3013 37.5219 14.2279 37.2175 14.2279C36.6198 14.2279 36.1198 14.4371 35.7177 14.8556C35.321 15.2686 35.1226 15.7957 35.1226 16.4369C35.1226 17.0782 35.321 17.608 35.7177 18.0265C36.1198 18.4395 36.6198 18.646 37.2175 18.646C37.5219 18.646 37.8072 18.5753 38.0734 18.434C38.3397 18.2873 38.5517 18.0944 38.7092 17.8553L39.288 18.1732C38.7609 18.8905 38.0707 19.2492 37.2175 19.2492ZM42.1718 19.1514H41.4952V14.3176H39.7753V13.7144H43.8999V14.3176H42.1718V19.1514ZM49.3313 19.1514H48.6547V16.657H45.4757V19.1514H44.7991V13.7144H45.4757V16.0538H48.6547V13.7144H49.3313V19.1514ZM51.2543 19.1514H50.6022V13.7144H51.2788V17.9613L54.4089 13.7144H55.1018V19.1514H54.4252V14.8148L51.2543 19.1514ZM60.4981 19.1514H59.6585L57.5962 16.7059L57.05 17.3255V19.1514H56.3735V13.7144H57.05V16.5266L59.4547 13.7144H60.3025L58.0364 16.2984L60.4981 19.1514ZM67.9028 19.1514H67.2262V14.3176H64.0472V19.1514H63.3706V13.7144H67.9028V19.1514ZM69.8503 19.1514H69.1737V13.7144H71.3583C71.8854 13.7144 72.3012 13.872 72.6055 14.1872C72.9098 14.5023 73.062 14.8909 73.062 15.3528C73.062 15.8147 72.9071 16.2033 72.5973 16.5185C72.293 16.8337 71.88 16.9912 71.3583 16.9912H69.8503V19.1514ZM71.2768 16.388C71.5974 16.388 71.8583 16.2929 72.0593 16.1027C72.2604 15.9071 72.3609 15.6571 72.3609 15.3528C72.3609 15.0485 72.2604 14.8012 72.0593 14.611C71.8583 14.4154 71.5974 14.3176 71.2768 14.3176H69.8503V16.388H71.2768ZM76.4359 19.2492C75.6371 19.2492 74.9877 18.9829 74.4877 18.4503C73.9878 17.9178 73.7378 17.2467 73.7378 16.4369C73.7378 15.6272 73.9878 14.9561 74.4877 14.4236C74.9877 13.891 75.6371 13.6247 76.4359 13.6247C77.2293 13.6247 77.876 13.891 78.376 14.4236C78.8814 14.9561 79.1341 15.6272 79.1341 16.4369C79.1341 17.2467 78.8814 17.9178 78.376 18.4503C77.876 18.9829 77.2293 19.2492 76.4359 19.2492ZM76.4359 18.646C77.0337 18.646 77.5146 18.4395 77.8787 18.0265C78.2483 17.608 78.433 17.0782 78.433 16.4369C78.433 15.7903 78.2483 15.2604 77.8787 14.8474C77.5146 14.4344 77.0337 14.2279 76.4359 14.2279C75.8327 14.2279 75.3491 14.4344 74.985 14.8474C74.6209 15.2604 74.4388 15.7903 74.4388 16.4369C74.4388 17.0782 74.6209 17.608 74.985 18.0265C75.3491 18.4395 75.8327 18.646 76.4359 18.646ZM80.8674 19.1514H80.1909V13.7144H83.753V14.3176H80.8674V19.1514ZM85.3491 19.1514H84.6726V13.7144H86.8571C87.3843 13.7144 87.8 13.872 88.1043 14.1872C88.4086 14.5023 88.5608 14.8909 88.5608 15.3528C88.5608 15.8147 88.4059 16.2033 88.0961 16.5185C87.7918 16.8337 87.3788 16.9912 86.8571 16.9912H85.3491V19.1514ZM86.7756 16.388C87.0962 16.388 87.3571 16.2929 87.5582 16.1027C87.7592 15.9071 87.8598 15.6571 87.8598 15.3528C87.8598 15.0485 87.7592 14.8012 87.5582 14.611C87.3571 14.4154 87.0962 14.3176 86.7756 14.3176H85.3491V16.388H86.7756ZM93.4823 19.1514H92.7079L92.227 17.945H89.5207L89.0398 19.1514H88.2654L90.45 13.7144H91.2896L93.4823 19.1514ZM92.0232 17.3418L90.8739 14.4154L89.7164 17.3418H92.0232ZM99.516 19.1514H98.8394V14.6762L96.9891 19.1514H96.7119L94.8697 14.6762V19.1514H94.1931V13.7144H95.1632L96.8505 17.8064L98.546 13.7144H99.516V19.1514ZM106.107 19.1514H105.431V14.6762L103.58 19.1514H103.303L101.461 14.6762V19.1514H100.784V13.7144H101.754L103.442 17.8064L105.137 13.7144H106.107V19.1514ZM107.375 13.7144H108.052V15.8745H109.56C110.082 15.8745 110.495 16.0321 110.799 16.3473C111.109 16.6625 111.264 17.051 111.264 17.5129C111.264 17.9748 111.112 18.3634 110.807 18.6786C110.503 18.9938 110.087 19.1514 109.56 19.1514H107.375V13.7144ZM109.479 16.4777H108.052V18.5482H109.479C109.799 18.5482 110.06 18.4531 110.261 18.2629C110.462 18.0672 110.563 17.8173 110.563 17.5129C110.563 17.2086 110.462 16.9614 110.261 16.7712C110.06 16.5755 109.799 16.4777 109.479 16.4777ZM112.527 19.1514H111.851V13.7144H112.527V19.1514ZM25.6118 27.1514H24.7722L22.7099 24.7059L22.1638 25.3255V27.1514H21.4872V21.7144H22.1638V24.5266L24.5684 21.7144H25.4162L23.1501 24.2984L25.6118 27.1514ZM31.0373 27.1514H30.2629L29.782 25.945H27.0757L26.5948 27.1514H25.8204L28.005 21.7144H28.8445L31.0373 27.1514ZM29.5782 25.3418L28.4288 22.4154L27.2713 25.3418H29.5782ZM31.7124 21.7144V23.1327C31.7124 23.9696 32.1335 24.388 32.9758 24.388C33.4269 24.388 33.8453 24.3255 34.2312 24.2006V21.7144H34.9077V27.1514H34.2312V24.8038C33.7747 24.9287 33.3372 24.9912 32.9188 24.9912C32.2993 24.9912 31.8292 24.8255 31.5086 24.494C31.1934 24.1571 31.0358 23.7006 31.0358 23.1246V21.7144H31.7124ZM39.7442 27.1514H36.182V21.7144H39.7442V22.3176H36.8586V24.0701H39.6871V24.6733H36.8586V26.5482H39.7442V27.1514ZM43.3988 27.2492C42.6054 27.2492 41.9397 26.9883 41.4017 26.4666C40.8691 25.9395 40.6028 25.263 40.6028 24.4369C40.6028 23.6109 40.8691 22.9371 41.4017 22.4154C41.9397 21.8883 42.6054 21.6247 43.3988 21.6247C44.2682 21.6247 44.9557 21.9834 45.4611 22.7007L44.8905 23.0186C44.7329 22.7849 44.5209 22.5947 44.2547 22.448C43.9884 22.3013 43.7031 22.2279 43.3988 22.2279C42.801 22.2279 42.301 22.4371 41.8989 22.8556C41.5022 23.2686 41.3038 23.7957 41.3038 24.4369C41.3038 25.0782 41.5022 25.608 41.8989 26.0265C42.301 26.4395 42.801 26.646 43.3988 26.646C43.7031 26.646 43.9884 26.5753 44.2547 26.434C44.5209 26.2873 44.7329 26.0944 44.8905 25.8553L45.4692 26.1732C44.9421 26.8905 44.2519 27.2492 43.3988 27.2492ZM48.353 27.1514H47.6765V22.3176H45.9565V21.7144H50.0811V22.3176H48.353V27.1514ZM53.4584 27.1514H50.9803V21.7144H53.4013C53.8687 21.7144 54.2382 21.8421 54.5099 22.0975C54.787 22.3529 54.9256 22.6871 54.9256 23.1001C54.9256 23.4262 54.8332 23.7033 54.6485 23.9316C54.4637 24.1544 54.2382 24.2929 53.9719 24.3473C54.2599 24.3908 54.5072 24.5429 54.7137 24.8038C54.9256 25.0646 55.0316 25.3581 55.0316 25.6841C55.0316 26.1243 54.8903 26.4802 54.6077 26.7519C54.3306 27.0182 53.9474 27.1514 53.4584 27.1514ZM53.2872 24.0701C53.5861 24.0701 53.817 23.9886 53.9801 23.8256C54.1431 23.6626 54.2246 23.4533 54.2246 23.1979C54.2246 22.9425 54.1404 22.7333 53.9719 22.5703C53.8089 22.4018 53.5806 22.3176 53.2872 22.3176H51.6569V24.0701H53.2872ZM53.3198 26.5482C53.635 26.5482 53.8822 26.4639 54.0616 26.2955C54.2409 26.127 54.3306 25.8988 54.3306 25.6108C54.3306 25.3445 54.2409 25.1217 54.0616 24.9423C53.8877 24.763 53.6404 24.6733 53.3198 24.6733H51.6569V26.5482H53.3198ZM60.7613 27.1514H59.9869L59.5059 25.945H56.7997L56.3187 27.1514H55.5444L57.7289 21.7144H58.5685L60.7613 27.1514ZM59.3022 25.3418L58.1528 22.4154L56.9953 25.3418H59.3022ZM66.0517 27.1514H63.5736V21.7144H65.9946C66.4619 21.7144 66.8315 21.8421 67.1032 22.0975C67.3803 22.3529 67.5189 22.6871 67.5189 23.1001C67.5189 23.4262 67.4265 23.7033 67.2418 23.9316C67.057 24.1544 66.8315 24.2929 66.5652 24.3473C66.8532 24.3908 67.1005 24.5429 67.307 24.8038C67.5189 25.0646 67.6249 25.3581 67.6249 25.6841C67.6249 26.1243 67.4836 26.4802 67.201 26.7519C66.9239 27.0182 66.5407 27.1514 66.0517 27.1514ZM65.8805 24.0701C66.1794 24.0701 66.4103 23.9886 66.5733 23.8256C66.7364 23.6626 66.8179 23.4533 66.8179 23.1979C66.8179 22.9425 66.7337 22.7333 66.5652 22.5703C66.4022 22.4018 66.1739 22.3176 65.8805 22.3176H64.2502V24.0701H65.8805ZM65.9131 26.5482C66.2283 26.5482 66.4755 26.4639 66.6549 26.2955C66.8342 26.127 66.9239 25.8988 66.9239 25.6108C66.9239 25.3445 66.8342 25.1217 66.6549 24.9423C66.481 24.763 66.2337 24.6733 65.9131 24.6733H64.2502V26.5482H65.9131ZM73.2323 27.1514H72.5557V24.657H69.3767V27.1514H68.7001V21.7144H69.3767V24.0538H72.5557V21.7144H73.2323V27.1514ZM78.0654 27.1514H74.5032V21.7144H78.0654V22.3176H75.1798V24.0701H78.0083V24.6733H75.1798V26.5482H78.0654V27.1514ZM78.7691 28.154V26.6052C79.0082 26.5889 79.1984 26.5319 79.3397 26.434C79.481 26.3362 79.6087 26.1297 79.7228 25.8145C79.8424 25.4993 79.9402 25.0429 80.0163 24.4451L80.3505 21.7144H83.6763V26.5482H84.1735V28.154H83.4969V27.1514H79.4457V28.154H78.7691ZM80.6847 24.494C80.5597 25.5428 80.2826 26.2275 79.8533 26.5482H82.9997V22.3176H80.9537L80.6847 24.494ZM85.7113 27.1514H85.0348V21.7144H87.2193C87.7465 21.7144 88.1622 21.872 88.4665 22.1872C88.7708 22.5023 88.923 22.8909 88.923 23.3528C88.923 23.8147 88.7681 24.2033 88.4583 24.5185C88.154 24.8337 87.741 24.9912 87.2193 24.9912H85.7113V27.1514ZM87.1378 24.388C87.4584 24.388 87.7193 24.2929 87.9203 24.1027C88.1214 23.9071 88.222 23.6571 88.222 23.3528C88.222 23.0485 88.1214 22.8012 87.9203 22.611C87.7193 22.4154 87.4584 22.3176 87.1378 22.3176H85.7113V24.388H87.1378ZM93.3811 27.1514H89.8189V21.7144H93.3811V22.3176H90.4955V24.0701H93.324V24.6733H90.4955V26.5482H93.3811V27.1514ZM98.992 27.1514H98.3154V24.657H95.1364V27.1514H94.4598V21.7144H95.1364V24.0538H98.3154V21.7144H98.992V27.1514ZM100.915 27.1514H100.263V21.7144H100.939V25.9613L104.07 21.7144H104.762V27.1514H104.086V22.8148L100.915 27.1514ZM106.686 27.1514H106.034V21.7144H106.711V25.9613L109.841 21.7144H110.534V27.1514H109.857V22.8148L106.686 27.1514ZM109.71 20.6873C109.357 21.1655 108.882 21.4046 108.284 21.4046C107.692 21.4046 107.213 21.1655 106.849 20.6873L107.151 20.4265C107.434 20.8177 107.811 21.0134 108.284 21.0134C108.762 21.0134 109.137 20.8177 109.409 20.4265L109.71 20.6873Z" fill="#5A5A5A"/>
<path fill-rule="evenodd" clip-rule="evenodd" d="M57.3485 51.1105C56.7391 51.1105 56.2444 51.5965 56.2444 52.1952C56.2444 52.7952 56.7391 53.2807 57.3485 53.2807C57.9584 53.2807 58.4524 52.7952 58.4524 52.1952C58.4524 51.5965 57.9584 51.1105 57.3485 51.1105ZM102.273 50.314C102.997 50.314 103.526 50.7124 103.873 51.1105V49.1871C103.304 48.808 102.619 48.6562 102.023 48.6562C100.193 48.6562 98.6032 49.9446 98.6032 52.161C98.6032 54.2833 100.048 55.6667 102.052 55.6667C102.63 55.6667 103.266 55.5806 103.873 55.1739V53.2875C103.526 53.6388 102.978 54.0087 102.273 54.0087C101.194 54.0087 100.548 53.2227 100.548 52.218C100.548 51.1285 101.233 50.314 102.273 50.314ZM98.8102 48.8461H96.5941L94.5607 51.6306V48.8461H92.6727L92.6734 55.477H94.5607V52.6251L96.5159 55.477H98.8779L96.2471 52.057L98.8102 48.8461ZM87.0966 52.8248V48.8461H85.2757V55.477H87.1256L89.7368 51.4981V55.477H91.5577V48.8461H89.7074L87.0966 52.8248ZM81.6247 51.8295H81.0861V50.305H81.6247C82.4342 50.305 82.5493 50.7308 82.5493 51.0625C82.5493 51.3466 82.4629 51.8295 81.6247 51.8295ZM82.0386 48.8461H79.1968V55.477H81.0861V53.2875H82.0386C83.9468 53.2875 84.4961 51.9819 84.4961 51.0625C84.4961 50.1528 83.9564 48.8461 82.0386 48.8461ZM73.5708 50.4369H75.0536V55.477H76.9427V50.4369H78.4259V48.8461H73.5708V50.4369ZM68.3384 52.8248V48.8461H66.5179V55.477H68.3682L70.9781 51.4981V55.477H72.7995V48.8461H70.95L68.3384 52.8248ZM62.7121 54.1499H61.9032V52.758H62.7121C63.3098 52.758 63.6568 52.9288 63.6568 53.4502C63.6568 53.9802 63.3004 54.1499 62.7121 54.1499ZM62.8957 51.4318H61.9032V50.4369H64.9957V48.8461H60.015L60.0147 55.477L62.8957 55.477C63.3864 55.477 65.545 55.4954 65.545 53.4215C65.545 51.4224 63.4062 51.4318 62.8957 51.4318ZM49.4459 52.161C49.4459 54.2833 50.891 55.6667 52.8948 55.6667C53.4735 55.6667 54.1092 55.5806 54.7164 55.1739V53.2875C54.3685 53.6388 53.8194 54.0087 53.1164 54.0087C52.037 54.0087 51.392 53.2227 51.392 52.218C51.392 51.1285 52.0758 50.314 53.1164 50.314C53.8388 50.314 54.3685 50.7124 54.7164 51.1105V49.1871C54.1466 48.808 53.4632 48.6562 52.8658 48.6562C51.0351 48.6562 49.4459 49.9446 49.4459 52.161ZM45.4922 50.371H46.5237V55.477H48.2678V48.8461H45.4922V50.371Z" fill="#231F20"/>
<path fill-rule="evenodd" clip-rule="evenodd" d="M34.7039 44.2031C34.1515 44.2031 33.6143 44.2642 33.0966 44.3772V51.4987C33.0966 52.3713 33.8203 53.0831 34.7082 53.0831C35.5956 53.0831 36.319 52.3713 36.319 51.4991C36.319 50.6608 35.6528 49.9727 34.8153 49.918V48.6498C36.3629 48.705 37.6083 49.9637 37.6083 51.4991C37.6083 53.0693 36.3054 54.3508 34.7082 54.3508C33.1102 54.3508 31.8076 53.0693 31.8076 51.4987V44.7802C31.6245 44.8566 31.4457 44.9414 31.2704 45.0325V51.4987C31.2706 53.3599 32.8151 54.8777 34.7082 54.8777C36.6015 54.8777 38.1453 53.3599 38.1453 51.4991C38.1453 49.6729 36.6596 48.1774 34.8153 48.1211V46.8534C37.3693 46.9101 39.4338 48.9752 39.4338 51.4991C39.4338 54.0587 37.3109 56.1455 34.7082 56.1455C32.1047 56.1455 29.9811 54.0587 29.9811 51.4987V45.8734C28.3373 47.2099 27.2891 49.231 27.2891 51.4932C27.2891 55.5194 30.6088 58.7841 34.7041 58.7841C38.8001 58.7841 42.119 55.5194 42.119 51.4932C42.119 47.467 38.8001 44.2031 34.7039 44.2031Z" fill="#D91935"/>
</svg>
