<svg width="132" height="65" viewBox="0 0 132 65" fill="none" xmlns="http://www.w3.org/2000/svg">
<rect x="0.964844" width="130.423" height="64.3961" rx="4.89085" fill="white"/>
<path d="M0.964844 4.89085C0.964844 2.18971 3.15455 0 5.85569 0H126.497C129.198 0 131.387 2.18971 131.387 4.89085V39.9419H0.964844V4.89085Z" fill="#FCED91"/>
<path d="M49.4001 15.2492C48.9436 15.2492 48.5333 15.165 48.1692 14.9965C47.8051 14.828 47.5334 14.6134 47.3541 14.3525L47.7535 13.9205C47.9165 14.1379 48.1447 14.3145 48.4382 14.4503C48.7371 14.5808 49.0523 14.646 49.3838 14.646C49.8076 14.646 50.1418 14.5563 50.3864 14.377C50.6309 14.1922 50.7532 13.9422 50.7532 13.6271C50.7532 13.301 50.6255 13.0592 50.3701 12.9016C50.1201 12.744 49.7777 12.6652 49.343 12.6652H48.2344V12.062H49.343C49.7288 12.062 50.044 11.9886 50.2886 11.8419C50.5385 11.6897 50.6635 11.4642 50.6635 11.1653C50.6635 10.8719 50.5385 10.6436 50.2886 10.4806C50.044 10.3176 49.7343 10.2361 49.3593 10.2361C48.7452 10.2361 48.2317 10.4562 47.8187 10.8963L47.4437 10.4725C47.6611 10.2225 47.9382 10.0214 48.2752 9.86925C48.6175 9.71166 48.9952 9.63286 49.4082 9.63286C49.9625 9.63286 50.4244 9.76329 50.794 10.0241C51.1689 10.285 51.3564 10.6382 51.3564 11.0838C51.3564 11.4425 51.2341 11.7305 50.9896 11.9479C50.7505 12.1598 50.4815 12.2929 50.1826 12.3473C50.4815 12.3745 50.7641 12.5049 51.0303 12.7386C51.3021 12.9722 51.4379 13.2874 51.4379 13.6841C51.4379 14.1406 51.2504 14.5156 50.8755 14.809C50.5005 15.1025 50.0087 15.2492 49.4001 15.2492ZM54.9918 15.2492C54.193 15.2492 53.5436 14.9829 53.0436 14.4503C52.5437 13.9178 52.2937 13.2467 52.2937 12.4369C52.2937 11.6272 52.5437 10.9561 53.0436 10.4236C53.5436 9.89099 54.193 9.62471 54.9918 9.62471C55.7852 9.62471 56.4319 9.89099 56.9318 10.4236C57.4372 10.9561 57.6899 11.6272 57.6899 12.4369C57.6899 13.2467 57.4372 13.9178 56.9318 14.4503C56.4319 14.9829 55.7852 15.2492 54.9918 15.2492ZM54.9918 14.646C55.5896 14.646 56.0705 14.4395 56.4346 14.0265C56.8041 13.608 56.9889 13.0782 56.9889 12.4369C56.9889 11.7903 56.8041 11.2604 56.4346 10.8474C56.0705 10.4344 55.5896 10.2279 54.9918 10.2279C54.3886 10.2279 53.9049 10.4344 53.5409 10.8474C53.1768 11.2604 52.9947 11.7903 52.9947 12.4369C52.9947 13.0782 53.1768 13.608 53.5409 14.0265C53.9049 14.4395 54.3886 14.646 54.9918 14.646ZM58.0693 15.2492V14.646C58.303 14.646 58.4932 14.5916 58.6399 14.483C58.7866 14.3743 58.917 14.1596 59.0311 13.839C59.1453 13.5129 59.2404 13.0483 59.3164 12.4451L59.6507 9.71438H62.9764V15.1514H62.2999V10.3176H60.2539L59.9849 12.494C59.9142 13.0755 59.8191 13.5537 59.6996 13.9287C59.5854 14.3036 59.4414 14.5862 59.2675 14.7764C59.0991 14.9612 58.9225 15.0862 58.7377 15.1514C58.5584 15.2166 58.3356 15.2492 58.0693 15.2492ZM66.7254 15.2492C65.9265 15.2492 65.2771 14.9829 64.7772 14.4503C64.2772 13.9178 64.0273 13.2467 64.0273 12.4369C64.0273 11.6272 64.2772 10.9561 64.7772 10.4236C65.2771 9.89099 65.9265 9.62471 66.7254 9.62471C67.5188 9.62471 68.1655 9.89099 68.6654 10.4236C69.1708 10.9561 69.4235 11.6272 69.4235 12.4369C69.4235 13.2467 69.1708 13.9178 68.6654 14.4503C68.1655 14.9829 67.5188 15.2492 66.7254 15.2492ZM66.7254 14.646C67.3231 14.646 67.8041 14.4395 68.1682 14.0265C68.5377 13.608 68.7225 13.0782 68.7225 12.4369C68.7225 11.7903 68.5377 11.2604 68.1682 10.8474C67.8041 10.4344 67.3231 10.2279 66.7254 10.2279C66.1222 10.2279 65.6385 10.4344 65.2744 10.8474C64.9103 11.2604 64.7283 11.7903 64.7283 12.4369C64.7283 13.0782 64.9103 13.608 65.2744 14.0265C65.6385 14.4395 66.1222 14.646 66.7254 14.646ZM72.279 15.1514H71.6024V10.3176H69.8824V9.71438H74.0071V10.3176H72.279V15.1514ZM77.1614 15.2492C76.3626 15.2492 75.7132 14.9829 75.2132 14.4503C74.7133 13.9178 74.4633 13.2467 74.4633 12.4369C74.4633 11.6272 74.7133 10.9561 75.2132 10.4236C75.7132 9.89099 76.3626 9.62471 77.1614 9.62471C77.9548 9.62471 78.6015 9.89099 79.1014 10.4236C79.6068 10.9561 79.8595 11.6272 79.8595 12.4369C79.8595 13.2467 79.6068 13.9178 79.1014 14.4503C78.6015 14.9829 77.9548 15.2492 77.1614 15.2492ZM77.1614 14.646C77.7592 14.646 78.2401 14.4395 78.6042 14.0265C78.9737 13.608 79.1585 13.0782 79.1585 12.4369C79.1585 11.7903 78.9737 11.2604 78.6042 10.8474C78.2401 10.4344 77.7592 10.2279 77.1614 10.2279C76.5582 10.2279 76.0745 10.4344 75.7104 10.8474C75.3464 11.2604 75.1643 11.7903 75.1643 12.4369C75.1643 13.0782 75.3464 13.608 75.7104 14.0265C76.0745 14.4395 76.5582 14.646 77.1614 14.646ZM81.5684 15.1514H80.9163V9.71438H81.5929V13.9613L84.723 9.71438H85.4159V15.1514H84.7393V10.8148L81.5684 15.1514ZM84.5926 8.6873C84.2394 9.16552 83.7639 9.40462 83.1661 9.40462C82.5738 9.40462 82.0956 9.16552 81.7315 8.6873L82.0331 8.42646C82.3157 8.81772 82.6933 9.01336 83.1661 9.01336C83.6443 9.01336 84.0193 8.81772 84.291 8.42646L84.5926 8.6873ZM22.4641 23.2492C21.6707 23.2492 21.005 22.9883 20.467 22.4666C19.9344 21.9395 19.6682 21.263 19.6682 20.4369C19.6682 19.6109 19.9344 18.9371 20.467 18.4154C21.005 17.8883 21.6707 17.6247 22.4641 17.6247C23.3336 17.6247 24.021 17.9834 24.5264 18.7007L23.9558 19.0186C23.7982 18.7849 23.5863 18.5947 23.32 18.448C23.0537 18.3013 22.7684 18.2279 22.4641 18.2279C21.8663 18.2279 21.3664 18.4371 20.9642 18.8556C20.5675 19.2686 20.3692 19.7957 20.3692 20.4369C20.3692 21.0782 20.5675 21.608 20.9642 22.0265C21.3664 22.4395 21.8663 22.646 22.4641 22.646C22.7684 22.646 23.0537 22.5753 23.32 22.434C23.5863 22.2873 23.7982 22.0944 23.9558 21.8553L24.5345 22.1732C24.0074 22.8905 23.3173 23.2492 22.4641 23.2492ZM28.959 23.1514H25.3968V17.7144H28.959V18.3176H26.0734V20.0701H28.9019V20.6733H26.0734V22.5482H28.959V23.1514ZM30.7143 23.1514H30.0377V17.7144H32.2223C32.7494 17.7144 33.1651 17.872 33.4694 18.1872C33.7738 18.5023 33.9259 18.8909 33.9259 19.3528C33.9259 19.8147 33.771 20.2033 33.4613 20.5185C33.157 20.8337 32.744 20.9912 32.2223 20.9912H30.7143V23.1514ZM32.1408 20.388C32.4614 20.388 32.7222 20.2929 32.9233 20.1027C33.1244 19.9071 33.2249 19.6571 33.2249 19.3528C33.2249 19.0485 33.1244 18.8012 32.9233 18.611C32.7222 18.4154 32.4614 18.3176 32.1408 18.3176H30.7143V20.388H32.1408ZM36.8434 23.1514H36.1669V18.3176H34.4469V17.7144H38.5715V18.3176H36.8434V23.1514ZM40.1228 23.1514H39.4707V17.7144H40.1473V21.9613L43.2774 17.7144H43.9703V23.1514H43.2937V18.8148L40.1228 23.1514ZM48.2254 23.1514H47.5488V22.6215C46.7663 22.5672 46.1495 22.3444 45.6985 21.9531C45.2474 21.5618 45.0219 21.0565 45.0219 20.4369C45.0219 19.8229 45.2474 19.3202 45.6985 18.9289C46.1495 18.5377 46.7663 18.3149 47.5488 18.2605V17.7144H48.2254V18.2605C49.0025 18.3149 49.6193 18.5404 50.0758 18.9371C50.5322 19.3284 50.7605 19.8283 50.7605 20.4369C50.7605 21.0565 50.5322 21.5618 50.0758 21.9531C49.6247 22.3444 49.0079 22.5672 48.2254 22.6215V23.1514ZM49.5704 21.5129C49.8964 21.2304 50.0595 20.8717 50.0595 20.4369C50.0595 20.0022 49.8964 19.6435 49.5704 19.361C49.2443 19.0784 48.796 18.9126 48.2254 18.8637V22.0102C48.796 21.9613 49.2443 21.7955 49.5704 21.5129ZM46.2039 19.361C45.8832 19.6435 45.7229 20.0022 45.7229 20.4369C45.7229 20.8717 45.8832 21.2304 46.2039 21.5129C46.5299 21.7955 46.9782 21.9613 47.5488 22.0102V18.8637C46.9782 18.9126 46.5299 19.0784 46.2039 19.361ZM52.4614 23.1514H51.8093V17.7144H52.4858V21.9613L55.616 17.7144H56.3089V23.1514H55.6323V18.8148L52.4614 23.1514ZM61.9334 24.154V23.1514H57.5805V17.7144H58.2571V22.5482H61.4362V17.7144H62.1127V22.5482H62.61V24.154H61.9334ZM64.1233 23.1514H63.4712V17.7144H64.1478V21.9613L67.2779 17.7144H67.9708V23.1514H67.2942V18.8148L64.1233 23.1514ZM69.919 23.1514H69.2425V17.7144H71.427C71.9542 17.7144 72.3699 17.872 72.6742 18.1872C72.9785 18.5023 73.1307 18.8909 73.1307 19.3528C73.1307 19.8147 72.9758 20.2033 72.6661 20.5185C72.3617 20.8337 71.9487 20.9912 71.427 20.9912H69.919V23.1514ZM71.3455 20.388C71.6662 20.388 71.927 20.2929 72.1281 20.1027C72.3291 19.9071 72.4297 19.6571 72.4297 19.3528C72.4297 19.0485 72.3291 18.8012 72.1281 18.611C71.927 18.4154 71.6662 18.3176 71.3455 18.3176H69.919V20.388H71.3455ZM76.5047 23.2492C75.7058 23.2492 75.0564 22.9829 74.5565 22.4503C74.0565 21.9178 73.8066 21.2467 73.8066 20.4369C73.8066 19.6272 74.0565 18.9561 74.5565 18.4236C75.0564 17.891 75.7058 17.6247 76.5047 17.6247C77.2981 17.6247 77.9448 17.891 78.4447 18.4236C78.9501 18.9561 79.2028 19.6272 79.2028 20.4369C79.2028 21.2467 78.9501 21.9178 78.4447 22.4503C77.9448 22.9829 77.2981 23.2492 76.5047 23.2492ZM76.5047 22.646C77.1024 22.646 77.5834 22.4395 77.9475 22.0265C78.317 21.608 78.5018 21.0782 78.5018 20.4369C78.5018 19.7903 78.317 19.2604 77.9475 18.8474C77.5834 18.4344 77.1024 18.2279 76.5047 18.2279C75.9015 18.2279 75.4178 18.4344 75.0537 18.8474C74.6896 19.2604 74.5076 19.7903 74.5076 20.4369C74.5076 21.0782 74.6896 21.608 75.0537 22.0265C75.4178 22.4395 75.9015 22.646 76.5047 22.646ZM82.7376 23.1514H80.2596V17.7144H82.6806C83.1479 17.7144 83.5175 17.8421 83.7892 18.0975C84.0663 18.3529 84.2049 18.6871 84.2049 19.1001C84.2049 19.4262 84.1125 19.7033 83.9277 19.9316C83.743 20.1544 83.5175 20.2929 83.2512 20.3473C83.5392 20.3908 83.7864 20.5429 83.9929 20.8038C84.2049 21.0646 84.3109 21.3581 84.3109 21.6841C84.3109 22.1243 84.1696 22.4802 83.887 22.7519C83.6098 23.0182 83.2267 23.1514 82.7376 23.1514ZM82.5665 20.0701C82.8653 20.0701 83.0963 19.9886 83.2593 19.8256C83.4224 19.6626 83.5039 19.4533 83.5039 19.1979C83.5039 18.9425 83.4196 18.7333 83.2512 18.5703C83.0881 18.4018 82.8599 18.3176 82.5665 18.3176H80.9362V20.0701H82.5665ZM82.5991 22.5482C82.9142 22.5482 83.1615 22.4639 83.3408 22.2955C83.5202 22.127 83.6098 21.8988 83.6098 21.6108C83.6098 21.3445 83.5202 21.1217 83.3408 20.9423C83.1669 20.763 82.9197 20.6733 82.5991 20.6733H80.9362V22.5482H82.5991ZM90.0405 23.1514H89.2662L88.7852 21.945H86.079L85.598 23.1514H84.8236L87.0082 17.7144H87.8478L90.0405 23.1514ZM88.5814 21.3418L87.4321 18.4154L86.2746 21.3418H88.5814ZM95.2835 23.1514H94.607V20.657H91.4279V23.1514H90.7514V17.7144H91.4279V20.0538H94.607V17.7144H95.2835V23.1514ZM101.087 23.1514H100.41V20.657H97.231V23.1514H96.5545V17.7144H97.231V20.0538H100.41V17.7144H101.087V23.1514ZM102.358 17.7144H103.034V19.8745H104.542C105.064 19.8745 105.477 20.0321 105.781 20.3473C106.091 20.6625 106.246 21.051 106.246 21.5129C106.246 21.9748 106.094 22.3634 105.789 22.6786C105.485 22.9938 105.069 23.1514 104.542 23.1514H102.358V17.7144ZM104.461 20.4777H103.034V22.5482H104.461C104.781 22.5482 105.042 22.4531 105.243 22.2629C105.444 22.0672 105.545 21.8173 105.545 21.5129C105.545 21.2086 105.444 20.9614 105.243 20.7712C105.042 20.5755 104.781 20.4777 104.461 20.4777ZM107.509 23.1514H106.833V17.7144H107.509V23.1514ZM109.434 23.1514H108.782V17.7144H109.458V21.9613L112.588 17.7144H113.281V23.1514H112.605V18.8148L109.434 23.1514ZM112.458 16.6873C112.105 17.1655 111.629 17.4046 111.031 17.4046C110.439 17.4046 109.961 17.1655 109.597 16.6873L109.898 16.4265C110.181 16.8177 110.559 17.0134 111.031 17.0134C111.51 17.0134 111.885 16.8177 112.156 16.4265L112.458 16.6873ZM53.8379 31.1514H53.1614V26.3176H49.9823V31.1514H49.3057V25.7144H53.8379V31.1514ZM59.7633 31.1514H58.9889L58.508 29.945H55.8017L55.3208 31.1514H54.5464L56.731 25.7144H57.5706L59.7633 31.1514ZM58.3042 29.3418L57.1549 26.4154L55.9974 29.3418H58.3042ZM61.1507 31.1514H60.4741V25.7144H62.6587C63.1858 25.7144 63.6016 25.872 63.9059 26.1872C64.2102 26.5023 64.3624 26.8909 64.3624 27.3528C64.3624 27.8147 64.2075 28.2033 63.8977 28.5185C63.5934 28.8337 63.1804 28.9912 62.6587 28.9912H61.1507V31.1514ZM62.5772 28.388C62.8978 28.388 63.1587 28.2929 63.3597 28.1027C63.5608 27.9071 63.6613 27.6571 63.6613 27.3528C63.6613 27.0485 63.5608 26.8012 63.3597 26.611C63.1587 26.4154 62.8978 26.3176 62.5772 26.3176H61.1507V28.388H62.5772ZM67.2799 31.1514H66.6033V26.3176H64.8833V25.7144H69.008V26.3176H67.2799V31.1514ZM74.4393 31.1514H73.7628V28.657H70.5837V31.1514H69.9072V25.7144H70.5837V28.0538H73.7628V25.7144H74.4393V31.1514ZM78.5959 24.6058C78.6719 24.6764 78.71 24.7634 78.71 24.8666C78.71 24.9699 78.6719 25.0595 78.5959 25.1356C78.5198 25.2117 78.4301 25.2497 78.3269 25.2497C78.2236 25.2497 78.1339 25.2117 78.0579 25.1356C77.9818 25.0595 77.9437 24.9699 77.9437 24.8666C77.9437 24.7634 77.9818 24.6764 78.0579 24.6058C78.1339 24.5297 78.2236 24.4917 78.3269 24.4917C78.4301 24.4917 78.5198 24.5297 78.5959 24.6058ZM76.9085 24.6058C76.9846 24.6764 77.0226 24.7634 77.0226 24.8666C77.0226 24.9699 76.9846 25.0595 76.9085 25.1356C76.8379 25.2117 76.7509 25.2497 76.6477 25.2497C76.5444 25.2497 76.4548 25.2117 76.3787 25.1356C76.3026 25.0595 76.2646 24.9699 76.2646 24.8666C76.2646 24.7634 76.3026 24.6764 76.3787 24.6058C76.4548 24.5297 76.5444 24.4917 76.6477 24.4917C76.7509 24.4917 76.8379 24.5297 76.9085 24.6058ZM79.2724 31.1514H75.7103V25.7144H79.2724V26.3176H76.3868V28.0701H79.2154V28.6733H76.3868V30.5482H79.2724V31.1514ZM81.0277 31.1514H80.3511V25.7144H82.5357C83.0629 25.7144 83.4786 25.872 83.7829 26.1872C84.0872 26.5023 84.2394 26.8909 84.2394 27.3528C84.2394 27.8147 84.0845 28.2033 83.7747 28.5185C83.4704 28.8337 83.0574 28.9912 82.5357 28.9912H81.0277V31.1514ZM82.4542 28.388C82.7748 28.388 83.0357 28.2929 83.2367 28.1027C83.4378 27.9071 83.5384 27.6571 83.5384 27.3528C83.5384 27.0485 83.4378 26.8012 83.2367 26.611C83.0357 26.4154 82.7748 26.3176 82.4542 26.3176H81.0277V28.388H82.4542Z" fill="#944F00"/>
<path fill-rule="evenodd" clip-rule="evenodd" d="M57.9227 51.1105C57.3133 51.1105 56.8186 51.5965 56.8186 52.1952C56.8186 52.7952 57.3133 53.2807 57.9227 53.2807C58.5326 53.2807 59.0266 52.7952 59.0266 52.1952C59.0266 51.5965 58.5326 51.1105 57.9227 51.1105ZM102.847 50.314C103.571 50.314 104.1 50.7124 104.447 51.1105V49.1871C103.879 48.808 103.193 48.6562 102.598 48.6562C100.768 48.6562 99.1774 49.9446 99.1774 52.161C99.1774 54.2833 100.623 55.6667 102.626 55.6667C103.204 55.6667 103.84 55.5806 104.447 55.1739V53.2875C104.1 53.6388 103.552 54.0087 102.847 54.0087C101.769 54.0087 101.123 53.2227 101.123 52.218C101.123 51.1285 101.807 50.314 102.847 50.314ZM99.3844 48.8461H97.1683L95.1349 51.6306V48.8461H93.2469L93.2476 55.477H95.1349V52.6251L97.0901 55.477H99.4521L96.8213 52.057L99.3844 48.8461ZM87.6708 52.8248V48.8461H85.8499V55.477H87.6998L90.311 51.4981V55.477H92.1319V48.8461H90.2816L87.6708 52.8248ZM82.1989 51.8295H81.6604V50.305H82.1989C83.0084 50.305 83.1235 50.7308 83.1235 51.0625C83.1235 51.3466 83.0371 51.8295 82.1989 51.8295ZM82.6128 48.8461H79.7711V55.477H81.6604V53.2875H82.6128C84.521 53.2875 85.0703 51.9819 85.0703 51.0625C85.0703 50.1528 84.5306 48.8461 82.6128 48.8461ZM74.145 50.4369H75.6278V55.477H77.5169V50.4369H79.0001V48.8461H74.145V50.4369ZM68.9126 52.8248V48.8461H67.0921V55.477H68.9425L71.5523 51.4981V55.477H73.3737V48.8461H71.5243L68.9126 52.8248ZM63.2864 54.1499H62.4774V52.758H63.2864C63.884 52.758 64.231 52.9288 64.231 53.4502C64.231 53.9802 63.8746 54.1499 63.2864 54.1499ZM63.4699 51.4318H62.4774V50.4369H65.5699V48.8461H60.5892L60.589 55.477L63.4699 55.477C63.9606 55.477 66.1192 55.4954 66.1192 53.4215C66.1192 51.4224 63.9804 51.4318 63.4699 51.4318ZM50.0201 52.161C50.0201 54.2833 51.4652 55.6667 53.469 55.6667C54.0477 55.6667 54.6834 55.5806 55.2906 55.1739V53.2875C54.9427 53.6388 54.3936 54.0087 53.6906 54.0087C52.6112 54.0087 51.9662 53.2227 51.9662 52.218C51.9662 51.1285 52.65 50.314 53.6906 50.314C54.413 50.314 54.9427 50.7124 55.2906 51.1105V49.1871C54.7208 48.808 54.0375 48.6562 53.4401 48.6562C51.6093 48.6562 50.0201 49.9446 50.0201 52.161ZM46.0664 50.371H47.0979V55.477H48.842V48.8461H46.0664V50.371Z" fill="#231F20"/>
<path fill-rule="evenodd" clip-rule="evenodd" d="M35.2781 44.2031C34.7257 44.2031 34.1885 44.2642 33.6708 44.3772V51.4987C33.6708 52.3713 34.3945 53.0831 35.2824 53.0831C36.1698 53.0831 36.8932 52.3713 36.8932 51.4991C36.8932 50.6608 36.227 49.9727 35.3895 49.918V48.6498C36.9371 48.705 38.1825 49.9637 38.1825 51.4991C38.1825 53.0693 36.8797 54.3508 35.2824 54.3508C33.6844 54.3508 32.3818 53.0693 32.3818 51.4987V44.7802C32.1987 44.8566 32.0199 44.9414 31.8446 45.0325V51.4987C31.8448 53.3599 33.3893 54.8777 35.2824 54.8777C37.1757 54.8777 38.7195 53.3599 38.7195 51.4991C38.7195 49.6729 37.2338 48.1774 35.3895 48.1211V46.8534C37.9435 46.9101 40.0081 48.9752 40.0081 51.4991C40.0081 54.0587 37.8851 56.1455 35.2824 56.1455C32.679 56.1455 30.5553 54.0587 30.5553 51.4987V45.8734C28.9115 47.2099 27.8633 49.231 27.8633 51.4932C27.8633 55.5194 31.183 58.7841 35.2784 58.7841C39.3744 58.7841 42.6932 55.5194 42.6932 51.4932C42.6932 47.467 39.3744 44.2031 35.2781 44.2031Z" fill="#D91935"/>
</svg>
