<svg width="1920" height="268" viewBox="0 0 1920 268" fill="none" xmlns="http://www.w3.org/2000/svg">
<mask id="mask0" mask-type="alpha" maskUnits="userSpaceOnUse" x="0" y="0" width="1920" height="268">
<rect width="1920" height="268" fill="#0F1825"/>
<rect width="1920" height="268" fill="url(#paint0_linear)"/>
</mask>
<g mask="url(#mask0)">
<g opacity="0.1">
<path d="M1744.34 33.1953H1739.45V31.7422H1741.09V25.9453C1741.01 26.2005 1740.89 26.4271 1740.7 26.625C1740.53 26.8229 1740.31 26.9896 1740.05 27.125C1739.8 27.2552 1739.52 27.3568 1739.21 27.4297C1738.9 27.4974 1738.59 27.5312 1738.26 27.5312V25.9141C1738.61 25.9141 1738.96 25.8568 1739.29 25.7422C1739.63 25.6224 1739.93 25.4427 1740.2 25.2031C1740.46 24.9635 1740.67 24.6641 1740.84 24.3047C1741 23.9401 1741.09 23.5052 1741.09 23H1742.7V31.7422H1744.34V33.1953Z" fill="white"/>
<path d="M1738 55.0938C1738 54.4115 1738.07 53.7526 1738.22 53.1172C1738.36 52.4818 1738.59 51.9219 1738.9 51.4375C1739.21 50.9531 1739.61 50.5651 1740.1 50.2734C1740.6 49.9766 1741.2 49.8281 1741.91 49.8281C1742.61 49.8281 1743.21 49.9766 1743.7 50.2734C1744.2 50.5651 1744.61 50.9531 1744.92 51.4375C1745.23 51.9219 1745.46 52.4818 1745.6 53.1172C1745.74 53.7526 1745.81 54.4115 1745.81 55.0938C1745.81 55.776 1745.74 56.4349 1745.6 57.0703C1745.46 57.7005 1745.24 58.263 1744.93 58.7578C1744.62 59.2474 1744.22 59.6406 1743.72 59.9375C1743.22 60.2292 1742.62 60.375 1741.91 60.375C1741.19 60.375 1740.59 60.2292 1740.09 59.9375C1739.59 59.6406 1739.19 59.2474 1738.88 58.7578C1738.57 58.263 1738.35 57.7005 1738.21 57.0703C1738.07 56.4349 1738 55.776 1738 55.0938ZM1739.62 55.0938C1739.62 55.5729 1739.65 56.0365 1739.71 56.4844L1743.71 52.4688C1743.53 52.1146 1743.3 51.8281 1743.01 51.6094C1742.72 51.3906 1742.35 51.2812 1741.91 51.2812C1741.16 51.2812 1740.59 51.6172 1740.2 52.2891C1739.81 52.9609 1739.62 53.8958 1739.62 55.0938ZM1741.91 58.9141C1742.36 58.9141 1742.74 58.8021 1743.03 58.5781C1743.33 58.3542 1743.56 58.0625 1743.73 57.7031C1743.9 57.3385 1744.02 56.9271 1744.09 56.4688C1744.16 56.0104 1744.2 55.5521 1744.2 55.0938C1744.2 54.6562 1744.16 54.2292 1744.1 53.8125L1740.13 57.7969C1740.31 58.1354 1740.54 58.4062 1740.81 58.6094C1741.09 58.8125 1741.46 58.9141 1741.91 58.9141Z" fill="white"/>
<path d="M1738 82.0938C1738 81.4115 1738.07 80.7526 1738.22 80.1172C1738.36 79.4818 1738.59 78.9219 1738.9 78.4375C1739.21 77.9531 1739.61 77.5651 1740.1 77.2734C1740.6 76.9766 1741.2 76.8281 1741.91 76.8281C1742.61 76.8281 1743.21 76.9766 1743.7 77.2734C1744.2 77.5651 1744.61 77.9531 1744.92 78.4375C1745.23 78.9219 1745.46 79.4818 1745.6 80.1172C1745.74 80.7526 1745.81 81.4115 1745.81 82.0938C1745.81 82.776 1745.74 83.4349 1745.6 84.0703C1745.46 84.7005 1745.24 85.263 1744.93 85.7578C1744.62 86.2474 1744.22 86.6406 1743.72 86.9375C1743.22 87.2292 1742.62 87.375 1741.91 87.375C1741.19 87.375 1740.59 87.2292 1740.09 86.9375C1739.59 86.6406 1739.19 86.2474 1738.88 85.7578C1738.57 85.263 1738.35 84.7005 1738.21 84.0703C1738.07 83.4349 1738 82.776 1738 82.0938ZM1739.62 82.0938C1739.62 82.5729 1739.65 83.0365 1739.71 83.4844L1743.71 79.4688C1743.53 79.1146 1743.3 78.8281 1743.01 78.6094C1742.72 78.3906 1742.35 78.2812 1741.91 78.2812C1741.16 78.2812 1740.59 78.6172 1740.2 79.2891C1739.81 79.9609 1739.62 80.8958 1739.62 82.0938ZM1741.91 85.9141C1742.36 85.9141 1742.74 85.8021 1743.03 85.5781C1743.33 85.3542 1743.56 85.0625 1743.73 84.7031C1743.9 84.3385 1744.02 83.9271 1744.09 83.4688C1744.16 83.0104 1744.2 82.5521 1744.2 82.0938C1744.2 81.6562 1744.16 81.2292 1744.1 80.8125L1740.13 84.7969C1740.31 85.1354 1740.54 85.4062 1740.81 85.6094C1741.09 85.8125 1741.46 85.9141 1741.91 85.9141Z" fill="white"/>
<path d="M1738 109.094C1738 108.411 1738.07 107.753 1738.22 107.117C1738.36 106.482 1738.59 105.922 1738.9 105.438C1739.21 104.953 1739.61 104.565 1740.1 104.273C1740.6 103.977 1741.2 103.828 1741.91 103.828C1742.61 103.828 1743.21 103.977 1743.7 104.273C1744.2 104.565 1744.61 104.953 1744.92 105.438C1745.23 105.922 1745.46 106.482 1745.6 107.117C1745.74 107.753 1745.81 108.411 1745.81 109.094C1745.81 109.776 1745.74 110.435 1745.6 111.07C1745.46 111.701 1745.24 112.263 1744.93 112.758C1744.62 113.247 1744.22 113.641 1743.72 113.938C1743.22 114.229 1742.62 114.375 1741.91 114.375C1741.19 114.375 1740.59 114.229 1740.09 113.938C1739.59 113.641 1739.19 113.247 1738.88 112.758C1738.57 112.263 1738.35 111.701 1738.21 111.07C1738.07 110.435 1738 109.776 1738 109.094ZM1739.62 109.094C1739.62 109.573 1739.65 110.036 1739.71 110.484L1743.71 106.469C1743.53 106.115 1743.3 105.828 1743.01 105.609C1742.72 105.391 1742.35 105.281 1741.91 105.281C1741.16 105.281 1740.59 105.617 1740.2 106.289C1739.81 106.961 1739.62 107.896 1739.62 109.094ZM1741.91 112.914C1742.36 112.914 1742.74 112.802 1743.03 112.578C1743.33 112.354 1743.56 112.062 1743.73 111.703C1743.9 111.339 1744.02 110.927 1744.09 110.469C1744.16 110.01 1744.2 109.552 1744.2 109.094C1744.2 108.656 1744.16 108.229 1744.1 107.812L1740.13 111.797C1740.31 112.135 1740.54 112.406 1740.81 112.609C1741.09 112.812 1741.46 112.914 1741.91 112.914Z" fill="white"/>
<path d="M1744.34 141.195H1739.45V139.742H1741.09V133.945C1741.01 134.201 1740.89 134.427 1740.7 134.625C1740.53 134.823 1740.31 134.99 1740.05 135.125C1739.8 135.255 1739.52 135.357 1739.21 135.43C1738.9 135.497 1738.59 135.531 1738.26 135.531V133.914C1738.61 133.914 1738.96 133.857 1739.29 133.742C1739.63 133.622 1739.93 133.443 1740.2 133.203C1740.46 132.964 1740.67 132.664 1740.84 132.305C1741 131.94 1741.09 131.505 1741.09 131H1742.7V139.742H1744.34V141.195Z" fill="white"/>
<path d="M1744.34 168.195H1739.45V166.742H1741.09V160.945C1741.01 161.201 1740.89 161.427 1740.7 161.625C1740.53 161.823 1740.31 161.99 1740.05 162.125C1739.8 162.255 1739.52 162.357 1739.21 162.43C1738.9 162.497 1738.59 162.531 1738.26 162.531V160.914C1738.61 160.914 1738.96 160.857 1739.29 160.742C1739.63 160.622 1739.93 160.443 1740.2 160.203C1740.46 159.964 1740.67 159.664 1740.84 159.305C1741 158.94 1741.09 158.505 1741.09 158H1742.7V166.742H1744.34V168.195Z" fill="white"/>
<path d="M1738 190.094C1738 189.411 1738.07 188.753 1738.22 188.117C1738.36 187.482 1738.59 186.922 1738.9 186.438C1739.21 185.953 1739.61 185.565 1740.1 185.273C1740.6 184.977 1741.2 184.828 1741.91 184.828C1742.61 184.828 1743.21 184.977 1743.7 185.273C1744.2 185.565 1744.61 185.953 1744.92 186.438C1745.23 186.922 1745.46 187.482 1745.6 188.117C1745.74 188.753 1745.81 189.411 1745.81 190.094C1745.81 190.776 1745.74 191.435 1745.6 192.07C1745.46 192.701 1745.24 193.263 1744.93 193.758C1744.62 194.247 1744.22 194.641 1743.72 194.938C1743.22 195.229 1742.62 195.375 1741.91 195.375C1741.19 195.375 1740.59 195.229 1740.09 194.938C1739.59 194.641 1739.19 194.247 1738.88 193.758C1738.57 193.263 1738.35 192.701 1738.21 192.07C1738.07 191.435 1738 190.776 1738 190.094ZM1739.62 190.094C1739.62 190.573 1739.65 191.036 1739.71 191.484L1743.71 187.469C1743.53 187.115 1743.3 186.828 1743.01 186.609C1742.72 186.391 1742.35 186.281 1741.91 186.281C1741.16 186.281 1740.59 186.617 1740.2 187.289C1739.81 187.961 1739.62 188.896 1739.62 190.094ZM1741.91 193.914C1742.36 193.914 1742.74 193.802 1743.03 193.578C1743.33 193.354 1743.56 193.062 1743.73 192.703C1743.9 192.339 1744.02 191.927 1744.09 191.469C1744.16 191.01 1744.2 190.552 1744.2 190.094C1744.2 189.656 1744.16 189.229 1744.1 188.812L1740.13 192.797C1740.31 193.135 1740.54 193.406 1740.81 193.609C1741.09 193.812 1741.46 193.914 1741.91 193.914Z" fill="white"/>
<path d="M1744.34 222.195H1739.45V220.742H1741.09V214.945C1741.01 215.201 1740.89 215.427 1740.7 215.625C1740.53 215.823 1740.31 215.99 1740.05 216.125C1739.8 216.255 1739.52 216.357 1739.21 216.43C1738.9 216.497 1738.59 216.531 1738.26 216.531V214.914C1738.61 214.914 1738.96 214.857 1739.29 214.742C1739.63 214.622 1739.93 214.443 1740.2 214.203C1740.46 213.964 1740.67 213.664 1740.84 213.305C1741 212.94 1741.09 212.505 1741.09 212H1742.7V220.742H1744.34V222.195Z" fill="white"/>
</g>
<g opacity="0.1">
<path d="M1761.34 82.1953H1756.45V80.7422H1758.09V74.9453C1758.01 75.2005 1757.89 75.4271 1757.7 75.625C1757.53 75.8229 1757.31 75.9896 1757.05 76.125C1756.8 76.2552 1756.52 76.3568 1756.21 76.4297C1755.9 76.4974 1755.59 76.5312 1755.26 76.5312V74.9141C1755.61 74.9141 1755.96 74.8568 1756.29 74.7422C1756.63 74.6224 1756.93 74.4427 1757.2 74.2031C1757.46 73.9635 1757.67 73.6641 1757.84 73.3047C1758 72.9401 1758.09 72.5052 1758.09 72H1759.7V80.7422H1761.34V82.1953Z" fill="white"/>
<path d="M1755 104.094C1755 103.411 1755.07 102.753 1755.22 102.117C1755.36 101.482 1755.59 100.922 1755.9 100.438C1756.21 99.9531 1756.61 99.5651 1757.1 99.2734C1757.6 98.9766 1758.2 98.8281 1758.91 98.8281C1759.61 98.8281 1760.21 98.9766 1760.7 99.2734C1761.2 99.5651 1761.61 99.9531 1761.92 100.438C1762.23 100.922 1762.46 101.482 1762.6 102.117C1762.74 102.753 1762.81 103.411 1762.81 104.094C1762.81 104.776 1762.74 105.435 1762.6 106.07C1762.46 106.701 1762.24 107.263 1761.93 107.758C1761.62 108.247 1761.22 108.641 1760.72 108.938C1760.22 109.229 1759.62 109.375 1758.91 109.375C1758.19 109.375 1757.59 109.229 1757.09 108.938C1756.59 108.641 1756.19 108.247 1755.88 107.758C1755.57 107.263 1755.35 106.701 1755.21 106.07C1755.07 105.435 1755 104.776 1755 104.094ZM1756.62 104.094C1756.62 104.573 1756.65 105.036 1756.71 105.484L1760.71 101.469C1760.53 101.115 1760.3 100.828 1760.01 100.609C1759.72 100.391 1759.35 100.281 1758.91 100.281C1758.16 100.281 1757.59 100.617 1757.2 101.289C1756.81 101.961 1756.62 102.896 1756.62 104.094ZM1758.91 107.914C1759.36 107.914 1759.74 107.802 1760.03 107.578C1760.33 107.354 1760.56 107.062 1760.73 106.703C1760.9 106.339 1761.02 105.927 1761.09 105.469C1761.16 105.01 1761.2 104.552 1761.2 104.094C1761.2 103.656 1761.16 103.229 1761.1 102.812L1757.13 106.797C1757.31 107.135 1757.54 107.406 1757.81 107.609C1758.09 107.812 1758.46 107.914 1758.91 107.914Z" fill="white"/>
<path d="M1755 131.094C1755 130.411 1755.07 129.753 1755.22 129.117C1755.36 128.482 1755.59 127.922 1755.9 127.438C1756.21 126.953 1756.61 126.565 1757.1 126.273C1757.6 125.977 1758.2 125.828 1758.91 125.828C1759.61 125.828 1760.21 125.977 1760.7 126.273C1761.2 126.565 1761.61 126.953 1761.92 127.438C1762.23 127.922 1762.46 128.482 1762.6 129.117C1762.74 129.753 1762.81 130.411 1762.81 131.094C1762.81 131.776 1762.74 132.435 1762.6 133.07C1762.46 133.701 1762.24 134.263 1761.93 134.758C1761.62 135.247 1761.22 135.641 1760.72 135.938C1760.22 136.229 1759.62 136.375 1758.91 136.375C1758.19 136.375 1757.59 136.229 1757.09 135.938C1756.59 135.641 1756.19 135.247 1755.88 134.758C1755.57 134.263 1755.35 133.701 1755.21 133.07C1755.07 132.435 1755 131.776 1755 131.094ZM1756.62 131.094C1756.62 131.573 1756.65 132.036 1756.71 132.484L1760.71 128.469C1760.53 128.115 1760.3 127.828 1760.01 127.609C1759.72 127.391 1759.35 127.281 1758.91 127.281C1758.16 127.281 1757.59 127.617 1757.2 128.289C1756.81 128.961 1756.62 129.896 1756.62 131.094ZM1758.91 134.914C1759.36 134.914 1759.74 134.802 1760.03 134.578C1760.33 134.354 1760.56 134.062 1760.73 133.703C1760.9 133.339 1761.02 132.927 1761.09 132.469C1761.16 132.01 1761.2 131.552 1761.2 131.094C1761.2 130.656 1761.16 130.229 1761.1 129.812L1757.13 133.797C1757.31 134.135 1757.54 134.406 1757.81 134.609C1758.09 134.812 1758.46 134.914 1758.91 134.914Z" fill="white"/>
<path d="M1755 158.094C1755 157.411 1755.07 156.753 1755.22 156.117C1755.36 155.482 1755.59 154.922 1755.9 154.438C1756.21 153.953 1756.61 153.565 1757.1 153.273C1757.6 152.977 1758.2 152.828 1758.91 152.828C1759.61 152.828 1760.21 152.977 1760.7 153.273C1761.2 153.565 1761.61 153.953 1761.92 154.438C1762.23 154.922 1762.46 155.482 1762.6 156.117C1762.74 156.753 1762.81 157.411 1762.81 158.094C1762.81 158.776 1762.74 159.435 1762.6 160.07C1762.46 160.701 1762.24 161.263 1761.93 161.758C1761.62 162.247 1761.22 162.641 1760.72 162.938C1760.22 163.229 1759.62 163.375 1758.91 163.375C1758.19 163.375 1757.59 163.229 1757.09 162.938C1756.59 162.641 1756.19 162.247 1755.88 161.758C1755.57 161.263 1755.35 160.701 1755.21 160.07C1755.07 159.435 1755 158.776 1755 158.094ZM1756.62 158.094C1756.62 158.573 1756.65 159.036 1756.71 159.484L1760.71 155.469C1760.53 155.115 1760.3 154.828 1760.01 154.609C1759.72 154.391 1759.35 154.281 1758.91 154.281C1758.16 154.281 1757.59 154.617 1757.2 155.289C1756.81 155.961 1756.62 156.896 1756.62 158.094ZM1758.91 161.914C1759.36 161.914 1759.74 161.802 1760.03 161.578C1760.33 161.354 1760.56 161.062 1760.73 160.703C1760.9 160.339 1761.02 159.927 1761.09 159.469C1761.16 159.01 1761.2 158.552 1761.2 158.094C1761.2 157.656 1761.16 157.229 1761.1 156.812L1757.13 160.797C1757.31 161.135 1757.54 161.406 1757.81 161.609C1758.09 161.812 1758.46 161.914 1758.91 161.914Z" fill="white"/>
<path d="M1761.34 190.195H1756.45V188.742H1758.09V182.945C1758.01 183.201 1757.89 183.427 1757.7 183.625C1757.53 183.823 1757.31 183.99 1757.05 184.125C1756.8 184.255 1756.52 184.357 1756.21 184.43C1755.9 184.497 1755.59 184.531 1755.26 184.531V182.914C1755.61 182.914 1755.96 182.857 1756.29 182.742C1756.63 182.622 1756.93 182.443 1757.2 182.203C1757.46 181.964 1757.67 181.664 1757.84 181.305C1758 180.94 1758.09 180.505 1758.09 180H1759.7V188.742H1761.34V190.195Z" fill="white"/>
<path d="M1761.34 217.195H1756.45V215.742H1758.09V209.945C1758.01 210.201 1757.89 210.427 1757.7 210.625C1757.53 210.823 1757.31 210.99 1757.05 211.125C1756.8 211.255 1756.52 211.357 1756.21 211.43C1755.9 211.497 1755.59 211.531 1755.26 211.531V209.914C1755.61 209.914 1755.96 209.857 1756.29 209.742C1756.63 209.622 1756.93 209.443 1757.2 209.203C1757.46 208.964 1757.67 208.664 1757.84 208.305C1758 207.94 1758.09 207.505 1758.09 207H1759.7V215.742H1761.34V217.195Z" fill="white"/>
<path d="M1755 239.094C1755 238.411 1755.07 237.753 1755.22 237.117C1755.36 236.482 1755.59 235.922 1755.9 235.438C1756.21 234.953 1756.61 234.565 1757.1 234.273C1757.6 233.977 1758.2 233.828 1758.91 233.828C1759.61 233.828 1760.21 233.977 1760.7 234.273C1761.2 234.565 1761.61 234.953 1761.92 235.438C1762.23 235.922 1762.46 236.482 1762.6 237.117C1762.74 237.753 1762.81 238.411 1762.81 239.094C1762.81 239.776 1762.74 240.435 1762.6 241.07C1762.46 241.701 1762.24 242.263 1761.93 242.758C1761.62 243.247 1761.22 243.641 1760.72 243.938C1760.22 244.229 1759.62 244.375 1758.91 244.375C1758.19 244.375 1757.59 244.229 1757.09 243.938C1756.59 243.641 1756.19 243.247 1755.88 242.758C1755.57 242.263 1755.35 241.701 1755.21 241.07C1755.07 240.435 1755 239.776 1755 239.094ZM1756.62 239.094C1756.62 239.573 1756.65 240.036 1756.71 240.484L1760.71 236.469C1760.53 236.115 1760.3 235.828 1760.01 235.609C1759.72 235.391 1759.35 235.281 1758.91 235.281C1758.16 235.281 1757.59 235.617 1757.2 236.289C1756.81 236.961 1756.62 237.896 1756.62 239.094ZM1758.91 242.914C1759.36 242.914 1759.74 242.802 1760.03 242.578C1760.33 242.354 1760.56 242.062 1760.73 241.703C1760.9 241.339 1761.02 240.927 1761.09 240.469C1761.16 240.01 1761.2 239.552 1761.2 239.094C1761.2 238.656 1761.16 238.229 1761.1 237.812L1757.13 241.797C1757.31 242.135 1757.54 242.406 1757.81 242.609C1758.09 242.812 1758.46 242.914 1758.91 242.914Z" fill="white"/>
<path d="M1761.34 271.195H1756.45V269.742H1758.09V263.945C1758.01 264.201 1757.89 264.427 1757.7 264.625C1757.53 264.823 1757.31 264.99 1757.05 265.125C1756.8 265.255 1756.52 265.357 1756.21 265.43C1755.9 265.497 1755.59 265.531 1755.26 265.531V263.914C1755.61 263.914 1755.96 263.857 1756.29 263.742C1756.63 263.622 1756.93 263.443 1757.2 263.203C1757.46 262.964 1757.67 262.664 1757.84 262.305C1758 261.94 1758.09 261.505 1758.09 261H1759.7V269.742H1761.34V271.195Z" fill="white"/>
</g>
<g opacity="0.1">
<path d="M413.336 117.195H408.445V115.742H410.086V109.945C410.013 110.201 409.885 110.427 409.703 110.625C409.526 110.823 409.31 110.99 409.055 111.125C408.805 111.255 408.523 111.357 408.211 111.43C407.904 111.497 407.586 111.531 407.258 111.531V109.914C407.612 109.914 407.956 109.857 408.289 109.742C408.628 109.622 408.93 109.443 409.195 109.203C409.461 108.964 409.674 108.664 409.836 108.305C410.003 107.94 410.086 107.505 410.086 107H411.703V115.742H413.336V117.195Z" fill="white"/>
<path d="M407 139.094C407 138.411 407.073 137.753 407.219 137.117C407.365 136.482 407.591 135.922 407.898 135.438C408.206 134.953 408.607 134.565 409.102 134.273C409.602 133.977 410.203 133.828 410.906 133.828C411.609 133.828 412.208 133.977 412.703 134.273C413.203 134.565 413.609 134.953 413.922 135.438C414.234 135.922 414.461 136.482 414.602 137.117C414.742 137.753 414.812 138.411 414.812 139.094C414.812 139.776 414.742 140.435 414.602 141.07C414.461 141.701 414.237 142.263 413.93 142.758C413.622 143.247 413.219 143.641 412.719 143.938C412.224 144.229 411.62 144.375 410.906 144.375C410.193 144.375 409.586 144.229 409.086 143.938C408.591 143.641 408.188 143.247 407.875 142.758C407.568 142.263 407.346 141.701 407.211 141.07C407.07 140.435 407 139.776 407 139.094ZM408.617 139.094C408.617 139.573 408.648 140.036 408.711 140.484L412.711 136.469C412.534 136.115 412.299 135.828 412.008 135.609C411.721 135.391 411.354 135.281 410.906 135.281C410.161 135.281 409.594 135.617 409.203 136.289C408.812 136.961 408.617 137.896 408.617 139.094ZM410.906 142.914C411.365 142.914 411.74 142.802 412.031 142.578C412.328 142.354 412.56 142.062 412.727 141.703C412.898 141.339 413.018 140.927 413.086 140.469C413.159 140.01 413.195 139.552 413.195 139.094C413.195 138.656 413.164 138.229 413.102 137.812L409.133 141.797C409.31 142.135 409.536 142.406 409.812 142.609C410.094 142.812 410.458 142.914 410.906 142.914Z" fill="white"/>
<path d="M407 166.094C407 165.411 407.073 164.753 407.219 164.117C407.365 163.482 407.591 162.922 407.898 162.438C408.206 161.953 408.607 161.565 409.102 161.273C409.602 160.977 410.203 160.828 410.906 160.828C411.609 160.828 412.208 160.977 412.703 161.273C413.203 161.565 413.609 161.953 413.922 162.438C414.234 162.922 414.461 163.482 414.602 164.117C414.742 164.753 414.812 165.411 414.812 166.094C414.812 166.776 414.742 167.435 414.602 168.07C414.461 168.701 414.237 169.263 413.93 169.758C413.622 170.247 413.219 170.641 412.719 170.938C412.224 171.229 411.62 171.375 410.906 171.375C410.193 171.375 409.586 171.229 409.086 170.938C408.591 170.641 408.188 170.247 407.875 169.758C407.568 169.263 407.346 168.701 407.211 168.07C407.07 167.435 407 166.776 407 166.094ZM408.617 166.094C408.617 166.573 408.648 167.036 408.711 167.484L412.711 163.469C412.534 163.115 412.299 162.828 412.008 162.609C411.721 162.391 411.354 162.281 410.906 162.281C410.161 162.281 409.594 162.617 409.203 163.289C408.812 163.961 408.617 164.896 408.617 166.094ZM410.906 169.914C411.365 169.914 411.74 169.802 412.031 169.578C412.328 169.354 412.56 169.062 412.727 168.703C412.898 168.339 413.018 167.927 413.086 167.469C413.159 167.01 413.195 166.552 413.195 166.094C413.195 165.656 413.164 165.229 413.102 164.812L409.133 168.797C409.31 169.135 409.536 169.406 409.812 169.609C410.094 169.812 410.458 169.914 410.906 169.914Z" fill="white"/>
<path d="M407 193.094C407 192.411 407.073 191.753 407.219 191.117C407.365 190.482 407.591 189.922 407.898 189.438C408.206 188.953 408.607 188.565 409.102 188.273C409.602 187.977 410.203 187.828 410.906 187.828C411.609 187.828 412.208 187.977 412.703 188.273C413.203 188.565 413.609 188.953 413.922 189.438C414.234 189.922 414.461 190.482 414.602 191.117C414.742 191.753 414.812 192.411 414.812 193.094C414.812 193.776 414.742 194.435 414.602 195.07C414.461 195.701 414.237 196.263 413.93 196.758C413.622 197.247 413.219 197.641 412.719 197.938C412.224 198.229 411.62 198.375 410.906 198.375C410.193 198.375 409.586 198.229 409.086 197.938C408.591 197.641 408.188 197.247 407.875 196.758C407.568 196.263 407.346 195.701 407.211 195.07C407.07 194.435 407 193.776 407 193.094ZM408.617 193.094C408.617 193.573 408.648 194.036 408.711 194.484L412.711 190.469C412.534 190.115 412.299 189.828 412.008 189.609C411.721 189.391 411.354 189.281 410.906 189.281C410.161 189.281 409.594 189.617 409.203 190.289C408.812 190.961 408.617 191.896 408.617 193.094ZM410.906 196.914C411.365 196.914 411.74 196.802 412.031 196.578C412.328 196.354 412.56 196.062 412.727 195.703C412.898 195.339 413.018 194.927 413.086 194.469C413.159 194.01 413.195 193.552 413.195 193.094C413.195 192.656 413.164 192.229 413.102 191.812L409.133 195.797C409.31 196.135 409.536 196.406 409.812 196.609C410.094 196.812 410.458 196.914 410.906 196.914Z" fill="white"/>
<path d="M413.336 225.195H408.445V223.742H410.086V217.945C410.013 218.201 409.885 218.427 409.703 218.625C409.526 218.823 409.31 218.99 409.055 219.125C408.805 219.255 408.523 219.357 408.211 219.43C407.904 219.497 407.586 219.531 407.258 219.531V217.914C407.612 217.914 407.956 217.857 408.289 217.742C408.628 217.622 408.93 217.443 409.195 217.203C409.461 216.964 409.674 216.664 409.836 216.305C410.003 215.94 410.086 215.505 410.086 215H411.703V223.742H413.336V225.195Z" fill="white"/>
<path d="M413.336 252.195H408.445V250.742H410.086V244.945C410.013 245.201 409.885 245.427 409.703 245.625C409.526 245.823 409.31 245.99 409.055 246.125C408.805 246.255 408.523 246.357 408.211 246.43C407.904 246.497 407.586 246.531 407.258 246.531V244.914C407.612 244.914 407.956 244.857 408.289 244.742C408.628 244.622 408.93 244.443 409.195 244.203C409.461 243.964 409.674 243.664 409.836 243.305C410.003 242.94 410.086 242.505 410.086 242H411.703V250.742H413.336V252.195Z" fill="white"/>
<path d="M407 274.094C407 273.411 407.073 272.753 407.219 272.117C407.365 271.482 407.591 270.922 407.898 270.438C408.206 269.953 408.607 269.565 409.102 269.273C409.602 268.977 410.203 268.828 410.906 268.828C411.609 268.828 412.208 268.977 412.703 269.273C413.203 269.565 413.609 269.953 413.922 270.438C414.234 270.922 414.461 271.482 414.602 272.117C414.742 272.753 414.812 273.411 414.812 274.094C414.812 274.776 414.742 275.435 414.602 276.07C414.461 276.701 414.237 277.263 413.93 277.758C413.622 278.247 413.219 278.641 412.719 278.938C412.224 279.229 411.62 279.375 410.906 279.375C410.193 279.375 409.586 279.229 409.086 278.938C408.591 278.641 408.188 278.247 407.875 277.758C407.568 277.263 407.346 276.701 407.211 276.07C407.07 275.435 407 274.776 407 274.094ZM408.617 274.094C408.617 274.573 408.648 275.036 408.711 275.484L412.711 271.469C412.534 271.115 412.299 270.828 412.008 270.609C411.721 270.391 411.354 270.281 410.906 270.281C410.161 270.281 409.594 270.617 409.203 271.289C408.812 271.961 408.617 272.896 408.617 274.094ZM410.906 277.914C411.365 277.914 411.74 277.802 412.031 277.578C412.328 277.354 412.56 277.062 412.727 276.703C412.898 276.339 413.018 275.927 413.086 275.469C413.159 275.01 413.195 274.552 413.195 274.094C413.195 273.656 413.164 273.229 413.102 272.812L409.133 276.797C409.31 277.135 409.536 277.406 409.812 277.609C410.094 277.812 410.458 277.914 410.906 277.914Z" fill="white"/>
<path d="M413.336 306.195H408.445V304.742H410.086V298.945C410.013 299.201 409.885 299.427 409.703 299.625C409.526 299.823 409.31 299.99 409.055 300.125C408.805 300.255 408.523 300.357 408.211 300.43C407.904 300.497 407.586 300.531 407.258 300.531V298.914C407.612 298.914 407.956 298.857 408.289 298.742C408.628 298.622 408.93 298.443 409.195 298.203C409.461 297.964 409.674 297.664 409.836 297.305C410.003 296.94 410.086 296.505 410.086 296H411.703V304.742H413.336V306.195Z" fill="white"/>
</g>
<g opacity="0.1">
<path d="M391.336 227.195H386.445V225.742H388.086V219.945C388.013 220.201 387.885 220.427 387.703 220.625C387.526 220.823 387.31 220.99 387.055 221.125C386.805 221.255 386.523 221.357 386.211 221.43C385.904 221.497 385.586 221.531 385.258 221.531V219.914C385.612 219.914 385.956 219.857 386.289 219.742C386.628 219.622 386.93 219.443 387.195 219.203C387.461 218.964 387.674 218.664 387.836 218.305C388.003 217.94 388.086 217.505 388.086 217H389.703V225.742H391.336V227.195Z" fill="white"/>
<path d="M385 249.094C385 248.411 385.073 247.753 385.219 247.117C385.365 246.482 385.591 245.922 385.898 245.438C386.206 244.953 386.607 244.565 387.102 244.273C387.602 243.977 388.203 243.828 388.906 243.828C389.609 243.828 390.208 243.977 390.703 244.273C391.203 244.565 391.609 244.953 391.922 245.438C392.234 245.922 392.461 246.482 392.602 247.117C392.742 247.753 392.812 248.411 392.812 249.094C392.812 249.776 392.742 250.435 392.602 251.07C392.461 251.701 392.237 252.263 391.93 252.758C391.622 253.247 391.219 253.641 390.719 253.938C390.224 254.229 389.62 254.375 388.906 254.375C388.193 254.375 387.586 254.229 387.086 253.938C386.591 253.641 386.188 253.247 385.875 252.758C385.568 252.263 385.346 251.701 385.211 251.07C385.07 250.435 385 249.776 385 249.094ZM386.617 249.094C386.617 249.573 386.648 250.036 386.711 250.484L390.711 246.469C390.534 246.115 390.299 245.828 390.008 245.609C389.721 245.391 389.354 245.281 388.906 245.281C388.161 245.281 387.594 245.617 387.203 246.289C386.812 246.961 386.617 247.896 386.617 249.094ZM388.906 252.914C389.365 252.914 389.74 252.802 390.031 252.578C390.328 252.354 390.56 252.062 390.727 251.703C390.898 251.339 391.018 250.927 391.086 250.469C391.159 250.01 391.195 249.552 391.195 249.094C391.195 248.656 391.164 248.229 391.102 247.812L387.133 251.797C387.31 252.135 387.536 252.406 387.812 252.609C388.094 252.812 388.458 252.914 388.906 252.914Z" fill="white"/>
<path d="M385 276.094C385 275.411 385.073 274.753 385.219 274.117C385.365 273.482 385.591 272.922 385.898 272.438C386.206 271.953 386.607 271.565 387.102 271.273C387.602 270.977 388.203 270.828 388.906 270.828C389.609 270.828 390.208 270.977 390.703 271.273C391.203 271.565 391.609 271.953 391.922 272.438C392.234 272.922 392.461 273.482 392.602 274.117C392.742 274.753 392.812 275.411 392.812 276.094C392.812 276.776 392.742 277.435 392.602 278.07C392.461 278.701 392.237 279.263 391.93 279.758C391.622 280.247 391.219 280.641 390.719 280.938C390.224 281.229 389.62 281.375 388.906 281.375C388.193 281.375 387.586 281.229 387.086 280.938C386.591 280.641 386.188 280.247 385.875 279.758C385.568 279.263 385.346 278.701 385.211 278.07C385.07 277.435 385 276.776 385 276.094ZM386.617 276.094C386.617 276.573 386.648 277.036 386.711 277.484L390.711 273.469C390.534 273.115 390.299 272.828 390.008 272.609C389.721 272.391 389.354 272.281 388.906 272.281C388.161 272.281 387.594 272.617 387.203 273.289C386.812 273.961 386.617 274.896 386.617 276.094ZM388.906 279.914C389.365 279.914 389.74 279.802 390.031 279.578C390.328 279.354 390.56 279.062 390.727 278.703C390.898 278.339 391.018 277.927 391.086 277.469C391.159 277.01 391.195 276.552 391.195 276.094C391.195 275.656 391.164 275.229 391.102 274.812L387.133 278.797C387.31 279.135 387.536 279.406 387.812 279.609C388.094 279.812 388.458 279.914 388.906 279.914Z" fill="white"/>
<path d="M385 303.094C385 302.411 385.073 301.753 385.219 301.117C385.365 300.482 385.591 299.922 385.898 299.438C386.206 298.953 386.607 298.565 387.102 298.273C387.602 297.977 388.203 297.828 388.906 297.828C389.609 297.828 390.208 297.977 390.703 298.273C391.203 298.565 391.609 298.953 391.922 299.438C392.234 299.922 392.461 300.482 392.602 301.117C392.742 301.753 392.812 302.411 392.812 303.094C392.812 303.776 392.742 304.435 392.602 305.07C392.461 305.701 392.237 306.263 391.93 306.758C391.622 307.247 391.219 307.641 390.719 307.938C390.224 308.229 389.62 308.375 388.906 308.375C388.193 308.375 387.586 308.229 387.086 307.938C386.591 307.641 386.188 307.247 385.875 306.758C385.568 306.263 385.346 305.701 385.211 305.07C385.07 304.435 385 303.776 385 303.094ZM386.617 303.094C386.617 303.573 386.648 304.036 386.711 304.484L390.711 300.469C390.534 300.115 390.299 299.828 390.008 299.609C389.721 299.391 389.354 299.281 388.906 299.281C388.161 299.281 387.594 299.617 387.203 300.289C386.812 300.961 386.617 301.896 386.617 303.094ZM388.906 306.914C389.365 306.914 389.74 306.802 390.031 306.578C390.328 306.354 390.56 306.062 390.727 305.703C390.898 305.339 391.018 304.927 391.086 304.469C391.159 304.01 391.195 303.552 391.195 303.094C391.195 302.656 391.164 302.229 391.102 301.812L387.133 305.797C387.31 306.135 387.536 306.406 387.812 306.609C388.094 306.812 388.458 306.914 388.906 306.914Z" fill="white"/>
<path d="M391.336 335.195H386.445V333.742H388.086V327.945C388.013 328.201 387.885 328.427 387.703 328.625C387.526 328.823 387.31 328.99 387.055 329.125C386.805 329.255 386.523 329.357 386.211 329.43C385.904 329.497 385.586 329.531 385.258 329.531V327.914C385.612 327.914 385.956 327.857 386.289 327.742C386.628 327.622 386.93 327.443 387.195 327.203C387.461 326.964 387.674 326.664 387.836 326.305C388.003 325.94 388.086 325.505 388.086 325H389.703V333.742H391.336V335.195Z" fill="white"/>
<path d="M391.336 362.195H386.445V360.742H388.086V354.945C388.013 355.201 387.885 355.427 387.703 355.625C387.526 355.823 387.31 355.99 387.055 356.125C386.805 356.255 386.523 356.357 386.211 356.43C385.904 356.497 385.586 356.531 385.258 356.531V354.914C385.612 354.914 385.956 354.857 386.289 354.742C386.628 354.622 386.93 354.443 387.195 354.203C387.461 353.964 387.674 353.664 387.836 353.305C388.003 352.94 388.086 352.505 388.086 352H389.703V360.742H391.336V362.195Z" fill="white"/>
<path d="M385 384.094C385 383.411 385.073 382.753 385.219 382.117C385.365 381.482 385.591 380.922 385.898 380.438C386.206 379.953 386.607 379.565 387.102 379.273C387.602 378.977 388.203 378.828 388.906 378.828C389.609 378.828 390.208 378.977 390.703 379.273C391.203 379.565 391.609 379.953 391.922 380.438C392.234 380.922 392.461 381.482 392.602 382.117C392.742 382.753 392.812 383.411 392.812 384.094C392.812 384.776 392.742 385.435 392.602 386.07C392.461 386.701 392.237 387.263 391.93 387.758C391.622 388.247 391.219 388.641 390.719 388.938C390.224 389.229 389.62 389.375 388.906 389.375C388.193 389.375 387.586 389.229 387.086 388.938C386.591 388.641 386.188 388.247 385.875 387.758C385.568 387.263 385.346 386.701 385.211 386.07C385.07 385.435 385 384.776 385 384.094ZM386.617 384.094C386.617 384.573 386.648 385.036 386.711 385.484L390.711 381.469C390.534 381.115 390.299 380.828 390.008 380.609C389.721 380.391 389.354 380.281 388.906 380.281C388.161 380.281 387.594 380.617 387.203 381.289C386.812 381.961 386.617 382.896 386.617 384.094ZM388.906 387.914C389.365 387.914 389.74 387.802 390.031 387.578C390.328 387.354 390.56 387.062 390.727 386.703C390.898 386.339 391.018 385.927 391.086 385.469C391.159 385.01 391.195 384.552 391.195 384.094C391.195 383.656 391.164 383.229 391.102 382.812L387.133 386.797C387.31 387.135 387.536 387.406 387.812 387.609C388.094 387.812 388.458 387.914 388.906 387.914Z" fill="white"/>
<path d="M391.336 416.195H386.445V414.742H388.086V408.945C388.013 409.201 387.885 409.427 387.703 409.625C387.526 409.823 387.31 409.99 387.055 410.125C386.805 410.255 386.523 410.357 386.211 410.43C385.904 410.497 385.586 410.531 385.258 410.531V408.914C385.612 408.914 385.956 408.857 386.289 408.742C386.628 408.622 386.93 408.443 387.195 408.203C387.461 407.964 387.674 407.664 387.836 407.305C388.003 406.94 388.086 406.505 388.086 406H389.703V414.742H391.336V416.195Z" fill="white"/>
</g>
</g>
<defs>
<linearGradient id="paint0_linear" x1="1920" y1="4.71934" x2="1364.78" y2="936.42" gradientUnits="userSpaceOnUse">
<stop stop-color="#0F1825" stop-opacity="0"/>
<stop offset="1" stop-color="#182434"/>
</linearGradient>
</defs>
</svg>
