<svg width="68" height="65" viewBox="0 0 68 65" fill="none" xmlns="http://www.w3.org/2000/svg">
<circle cx="34.1356" cy="32.1981" r="32.1981" fill="white"/>
<path d="M36.4549 7C39.8045 7 42.1476 9.90575 41.846 12.7766C43.8187 13.1509 45.3086 14.8359 45.3086 16.8519C45.3086 19.1428 43.3867 21 41.0159 21H27.8696C25.1414 21 23.3086 19.2707 23.3086 17.1111C23.3086 15.3052 24.6248 13.5308 26.5281 13.2222C26.5281 10.1111 29.4793 8.81481 31.6257 9.85185C32.4305 8.2963 34.1617 7 36.4549 7Z" fill="#20B6E8"/>
<path d="M30.3086 18H34.5102V17.2323H31.741C32.1229 15.9724 34.4624 15.6969 34.4624 14.2992C34.4624 13.5512 33.8418 13 32.5288 13C31.7171 13 31.0009 13.1969 30.5234 13.3937L30.8099 14.1024C31.2396 13.9252 31.741 13.7677 32.3616 13.7677C32.8391 13.7677 33.2927 13.9449 33.2927 14.3976C33.2927 15.4213 30.5473 15.5 30.3086 18ZM34.6295 16.7795H37.3272V18H38.4014V16.7795H39.3086V16.0315H38.4014V13H37.6136L34.6295 16.189V16.7795ZM35.8471 16.0709L37.3749 14.378C37.3749 14.5157 37.3272 14.9488 37.3272 15.3425V16.0512H36.611C36.3961 16.0512 35.9903 16.0709 35.8471 16.0709Z" fill="white"/>
<path d="M20.9527 32.2917V31.6885C21.1864 31.6885 21.3766 31.6341 21.5233 31.5254C21.6701 31.4167 21.8005 31.2021 21.9146 30.8815C22.0287 30.5554 22.1238 30.0908 22.1999 29.4876L22.5341 26.7569H25.8599V32.1938H25.1833V27.3601H23.1373L22.8683 29.5365C22.7977 30.118 22.7026 30.5962 22.583 30.9711C22.4689 31.3461 22.3249 31.6287 22.151 31.8189C21.9825 32.0036 21.8059 32.1286 21.6212 32.1938C21.4418 32.2591 21.219 32.2917 20.9527 32.2917ZM27.7829 32.1938H27.1308V26.7569H27.8074V31.0037L30.9375 26.7569H31.6304V32.1938H30.9538V27.8573L27.7829 32.1938ZM32.5271 33.1965V31.6477C32.7662 31.6314 32.9564 31.5743 33.0977 31.4765C33.239 31.3787 33.3667 31.1722 33.4808 30.857C33.6004 30.5418 33.6982 30.0853 33.7743 29.4876L34.1085 26.7569H37.4342V31.5906H37.9315V33.1965H37.2549V32.1938H33.2037V33.1965H32.5271ZM34.4427 29.5365C34.3177 30.5853 34.0405 31.27 33.6112 31.5906H36.7577V27.3601H34.7117L34.4427 29.5365ZM42.3549 32.1938H38.7927V26.7569H42.3549V27.3601H39.4693V29.1126H42.2978V29.7158H39.4693V31.5906H42.3549V32.1938ZM44.1102 32.1938H43.4336V26.7569H45.6182C46.1453 26.7569 46.561 26.9145 46.8654 27.2296C47.1697 27.5448 47.3218 27.9334 47.3218 28.3953C47.3218 28.8572 47.167 29.2458 46.8572 29.5609C46.5529 29.8761 46.1399 30.0337 45.6182 30.0337H44.1102V32.1938ZM45.5367 29.4305C45.8573 29.4305 46.1182 29.3354 46.3192 29.1452C46.5203 28.9496 46.6208 28.6996 46.6208 28.3953C46.6208 28.091 46.5203 27.8437 46.3192 27.6535C46.1182 27.4579 45.8573 27.3601 45.5367 27.3601H44.1102V29.4305H45.5367ZM21.7125 40.1938H21.036V35.3601H17.8569V40.1938H17.1804V34.7569H21.7125V40.1938ZM23.66 40.1938H22.9835V34.7569H25.168C25.6952 34.7569 26.1109 34.9145 26.4152 35.2296C26.7195 35.5448 26.8717 35.9334 26.8717 36.3953C26.8717 36.8572 26.7168 37.2458 26.4071 37.5609C26.1027 37.8761 25.6897 38.0337 25.168 38.0337H23.66V40.1938ZM25.0865 37.4305C25.4071 37.4305 25.668 37.3354 25.8691 37.1452C26.0701 36.9496 26.1707 36.6996 26.1707 36.3953C26.1707 36.091 26.0701 35.8437 25.8691 35.6535C25.668 35.4579 25.4071 35.3601 25.0865 35.3601H23.66V37.4305H25.0865ZM30.2457 40.2917C29.4468 40.2917 28.7974 40.0254 28.2975 39.4928C27.7975 38.9603 27.5475 38.2891 27.5475 37.4794C27.5475 36.6697 27.7975 35.9986 28.2975 35.466C28.7974 34.9335 29.4468 34.6672 30.2457 34.6672C31.0391 34.6672 31.6857 34.9335 32.1857 35.466C32.6911 35.9986 32.9438 36.6697 32.9438 37.4794C32.9438 38.2891 32.6911 38.9603 32.1857 39.4928C31.6857 40.0254 31.0391 40.2917 30.2457 40.2917ZM30.2457 39.6885C30.8434 39.6885 31.3244 39.482 31.6885 39.069C32.058 38.6505 32.2428 38.1207 32.2428 37.4794C32.2428 36.8328 32.058 36.3029 31.6885 35.8899C31.3244 35.4769 30.8434 35.2704 30.2457 35.2704C29.6425 35.2704 29.1588 35.4769 28.7947 35.8899C28.4306 36.3029 28.2486 36.8328 28.2486 37.4794C28.2486 38.1207 28.4306 38.6505 28.7947 39.069C29.1588 39.482 29.6425 39.6885 30.2457 39.6885ZM33.3231 41.1965V39.6477C33.5622 39.6314 33.7524 39.5743 33.8937 39.4765C34.035 39.3787 34.1627 39.1722 34.2769 38.857C34.3964 38.5418 34.4942 38.0853 34.5703 37.4876L34.9045 34.7569H38.2303V39.5906H38.7275V41.1965H38.051V40.1938H33.9997V41.1965H33.3231ZM35.2387 37.5365C35.1137 38.5853 34.8366 39.27 34.4073 39.5906H37.5537V35.3601H35.5077L35.2387 37.5365ZM44.2432 40.1938H43.4688L42.9879 38.9874H40.2816L39.8007 40.1938H39.0263L41.2109 34.7569H42.0505L44.2432 40.1938ZM42.7841 38.3842L41.6348 35.4579L40.4773 38.3842H42.7841ZM45.2964 40.1938H44.4568L46.9185 37.3409L44.6524 34.7569H45.5002L47.6848 37.3164V34.7569H48.3613V37.3164L50.5541 34.7569H51.4018L49.1276 37.3409L51.5974 40.1938H50.7497L48.6874 37.7484L48.3613 38.1234V40.1938H47.6848V38.1234L47.3587 37.7484L45.2964 40.1938Z" fill="black"/>
<path d="M31.1859 54.0176H28.1992V53.5872C28.6513 53.2307 29.0013 52.9481 29.2491 52.7394C29.5012 52.5264 29.7425 52.3025 29.9729 52.0678C30.2077 51.8287 30.3729 51.6178 30.4685 51.4352C30.5642 51.2483 30.612 51.0635 30.612 50.8809C30.612 50.6201 30.5229 50.4223 30.3446 50.2875C30.1664 50.1527 29.9534 50.0853 29.7056 50.0853C29.2056 50.0853 28.8122 50.2679 28.5252 50.6331L28.1927 50.2875C28.3579 50.0701 28.5731 49.9027 28.8383 49.7854C29.1078 49.6636 29.3969 49.6028 29.7056 49.6028C30.1012 49.6028 30.4425 49.7136 30.7294 49.9354C31.0207 50.1571 31.1663 50.4723 31.1663 50.8809C31.1663 51.2852 30.9924 51.6895 30.6446 52.0938C30.2968 52.4938 29.7664 52.9742 29.0535 53.535H31.1859V54.0176ZM33.6762 54.0958C33.3893 54.0958 33.135 54.0306 32.9132 53.9002C32.6959 53.7654 32.522 53.5872 32.3916 53.3655C32.2655 53.1437 32.1698 52.9046 32.1046 52.6481C32.0438 52.3916 32.0133 52.1243 32.0133 51.846C32.0133 51.5678 32.0438 51.3004 32.1046 51.0439C32.1698 50.7874 32.2655 50.5505 32.3916 50.3331C32.522 50.1114 32.6959 49.9354 32.9132 49.8049C33.135 49.6702 33.3893 49.6028 33.6762 49.6028C33.9588 49.6028 34.211 49.6702 34.4327 49.8049C34.6544 49.9354 34.8283 50.1114 34.9544 50.3331C35.0848 50.5505 35.1804 50.7874 35.2413 51.0439C35.3065 51.3004 35.3391 51.5678 35.3391 51.846C35.3391 52.1243 35.3065 52.3916 35.2413 52.6481C35.1804 52.9046 35.0848 53.1437 34.9544 53.3655C34.8283 53.5872 34.6544 53.7654 34.4327 53.9002C34.211 54.0306 33.9588 54.0958 33.6762 54.0958ZM33.0241 53.3459C33.198 53.5241 33.4154 53.6133 33.6762 53.6133C33.9371 53.6133 34.1544 53.5241 34.3283 53.3459C34.5022 53.1633 34.6218 52.9459 34.687 52.6938C34.7522 52.4416 34.7848 52.1591 34.7848 51.846C34.7848 51.533 34.7522 51.2504 34.687 50.9983C34.6218 50.7461 34.5022 50.5309 34.3283 50.3527C34.1544 50.1745 33.9371 50.0853 33.6762 50.0853C33.4154 50.0853 33.198 50.1745 33.0241 50.3527C32.8502 50.5309 32.7307 50.7461 32.6654 50.9983C32.6002 51.2504 32.5676 51.533 32.5676 51.846C32.5676 52.1591 32.6002 52.4416 32.6654 52.6938C32.7307 52.9459 32.8502 53.1633 33.0241 53.3459ZM37.3757 54.0176H36.8344V50.3853L36.1367 51.1222L35.8106 50.7896L36.8996 49.668H37.3757V54.0176ZM39.2725 54.0176H38.6725L40.4267 50.1505H38.0856V49.668H41.0527V50.0397L39.2725 54.0176Z" fill="#004C87"/>
</svg>
