<svg width="768" height="733" viewBox="0 0 768 733" fill="none" xmlns="http://www.w3.org/2000/svg">
<mask id="mask0_2395_8211" style="mask-type:alpha" maskUnits="userSpaceOnUse" x="0" y="0" width="768" height="733">
<rect width="768" height="733" fill="#0F1825"/>
</mask>
<g mask="url(#mask0_2395_8211)">
<path d="M25.6364 143.362C25.6364 162.185 37.5982 176.361 61.5218 185.889C84.8891 195.649 116.045 200.529 154.991 200.529H276V176.129H185.035C151.096 176.129 126.895 172.759 112.429 166.02C97.9636 159.281 90.7309 148.823 90.7309 134.648V101.184C90.7309 92.1206 86.5582 83.8708 78.2127 76.4344C69.8673 68.998 59.8527 62.6073 48.1691 57.2624C36.4854 51.6851 24.5236 47.3859 12.2836 44.3649C0.043635 41.1115 -9.97091 39.2524 -17.76 38.7876V36.6961C-9.97091 36.2313 0.043635 34.6046 12.2836 31.816C24.5236 28.7949 36.4854 24.8443 48.1691 19.9642C59.8527 14.8517 69.8673 8.57719 78.2127 1.14078C86.5582 -6.29563 90.7309 -14.7778 90.7309 -24.3057V-58.1181C90.7309 -71.829 97.6855 -82.1702 111.595 -89.1418C124.947 -96.1135 149.149 -99.5993 184.2 -99.5993H276V-124H154.991C136.075 -124 118.827 -122.489 103.249 -119.468C87.1145 -116.68 73.4836 -112.729 62.3563 -107.617C50.6727 -102.504 41.7709 -96.4621 35.6509 -89.4904C28.9745 -82.5188 25.6364 -74.85 25.6364 -66.484V-30.9287C25.6364 -20.2389 21.7418 -11.292 13.9527 -4.08795C5.60726 3.11608 -4.40727 9.04196 -16.0909 13.6897C-28.3309 18.1051 -41.1273 21.3585 -54.48 23.45C-68.3891 25.3091 -80.6291 26.2386 -91.2 26.2386V50.6394C-80.6291 50.6394 -68.3891 51.8013 -54.48 54.1252C-41.1273 56.4491 -28.3309 60.0511 -16.0909 64.9312C-4.40727 69.8113 5.60726 75.9696 13.9527 83.406C21.7418 90.61 25.6364 99.2084 25.6364 109.201V143.362Z" fill="#1A2738"/>
<g opacity="0.1">
<path d="M617.605 -32.8047H605.867V-34.2578H609.805V-40.0547C609.63 -39.7995 609.323 -39.5729 608.886 -39.375C608.461 -39.1771 607.942 -39.0104 607.33 -38.875C606.73 -38.7448 606.055 -38.6432 605.305 -38.5703C604.567 -38.5026 603.805 -38.4688 603.017 -38.4688V-40.0859C603.867 -40.0859 604.692 -40.1432 605.492 -40.2578C606.305 -40.3776 607.03 -40.5573 607.667 -40.7969C608.305 -41.0365 608.817 -41.3359 609.205 -41.6953C609.605 -42.0599 609.805 -42.4948 609.805 -43H613.686V-34.2578H617.605V-32.8047Z" fill="white"/>
<path d="M602.398 -10.9062C602.398 -11.5885 602.573 -12.2474 602.923 -12.8828C603.273 -13.5182 603.817 -14.0781 604.555 -14.5625C605.292 -15.0469 606.255 -15.4349 607.442 -15.7266C608.642 -16.0234 610.086 -16.1719 611.773 -16.1719C613.461 -16.1719 614.898 -16.0234 616.086 -15.7266C617.286 -15.4349 618.261 -15.0469 619.011 -14.5625C619.761 -14.0781 620.305 -13.5182 620.642 -12.8828C620.98 -12.2474 621.148 -11.5885 621.148 -10.9062C621.148 -10.224 620.98 -9.5651 620.642 -8.92969C620.305 -8.29948 619.767 -7.73698 619.03 -7.24219C618.292 -6.7526 617.323 -6.35938 616.123 -6.0625C614.936 -5.77083 613.486 -5.625 611.773 -5.625C610.061 -5.625 608.605 -5.77083 607.405 -6.0625C606.217 -6.35938 605.248 -6.7526 604.498 -7.24219C603.761 -7.73698 603.23 -8.29948 602.905 -8.92969C602.567 -9.5651 602.398 -10.224 602.398 -10.9062ZM606.28 -10.9062C606.28 -10.4271 606.355 -9.96354 606.505 -9.51562L616.105 -13.5312C615.68 -13.8854 615.117 -14.1719 614.417 -14.3906C613.73 -14.6094 612.848 -14.7188 611.773 -14.7188C609.986 -14.7188 608.623 -14.3828 607.686 -13.7109C606.748 -13.0391 606.28 -12.1042 606.28 -10.9062ZM611.773 -7.08594C612.873 -7.08594 613.773 -7.19792 614.473 -7.42188C615.186 -7.64583 615.742 -7.9375 616.142 -8.29688C616.555 -8.66146 616.842 -9.07292 617.005 -9.53125C617.18 -9.98958 617.267 -10.4479 617.267 -10.9062C617.267 -11.3438 617.192 -11.7708 617.042 -12.1875L607.517 -8.20312C607.942 -7.86458 608.486 -7.59375 609.148 -7.39062C609.823 -7.1875 610.698 -7.08594 611.773 -7.08594Z" fill="white"/>
<path d="M602.398 16.0938C602.398 15.4115 602.573 14.7526 602.923 14.1172C603.273 13.4818 603.817 12.9219 604.555 12.4375C605.292 11.9531 606.255 11.5651 607.442 11.2734C608.642 10.9766 610.086 10.8281 611.773 10.8281C613.461 10.8281 614.898 10.9766 616.086 11.2734C617.286 11.5651 618.261 11.9531 619.011 12.4375C619.761 12.9219 620.305 13.4818 620.642 14.1172C620.98 14.7526 621.148 15.4115 621.148 16.0938C621.148 16.776 620.98 17.4349 620.642 18.0703C620.305 18.7005 619.767 19.263 619.03 19.7578C618.292 20.2474 617.323 20.6406 616.123 20.9375C614.936 21.2292 613.486 21.375 611.773 21.375C610.061 21.375 608.605 21.2292 607.405 20.9375C606.217 20.6406 605.248 20.2474 604.498 19.7578C603.761 19.263 603.23 18.7005 602.905 18.0703C602.567 17.4349 602.398 16.776 602.398 16.0938ZM606.28 16.0938C606.28 16.5729 606.355 17.0365 606.505 17.4844L616.105 13.4688C615.68 13.1146 615.117 12.8281 614.417 12.6094C613.73 12.3906 612.848 12.2812 611.773 12.2812C609.986 12.2812 608.623 12.6172 607.686 13.2891C606.748 13.9609 606.28 14.8958 606.28 16.0938ZM611.773 19.9141C612.873 19.9141 613.773 19.8021 614.473 19.5781C615.186 19.3542 615.742 19.0625 616.142 18.7031C616.555 18.3385 616.842 17.9271 617.005 17.4688C617.18 17.0104 617.267 16.5521 617.267 16.0938C617.267 15.6562 617.192 15.2292 617.042 14.8125L607.517 18.7969C607.942 19.1354 608.486 19.4062 609.148 19.6094C609.823 19.8125 610.698 19.9141 611.773 19.9141Z" fill="white"/>
<path d="M602.398 43.0938C602.398 42.4115 602.573 41.7526 602.923 41.1172C603.273 40.4818 603.817 39.9219 604.555 39.4375C605.292 38.9531 606.255 38.5651 607.442 38.2734C608.642 37.9766 610.086 37.8281 611.773 37.8281C613.461 37.8281 614.898 37.9766 616.086 38.2734C617.286 38.5651 618.261 38.9531 619.011 39.4375C619.761 39.9219 620.305 40.4818 620.642 41.1172C620.98 41.7526 621.148 42.4115 621.148 43.0938C621.148 43.776 620.98 44.4349 620.642 45.0703C620.305 45.7005 619.767 46.263 619.03 46.7578C618.292 47.2474 617.323 47.6406 616.123 47.9375C614.936 48.2292 613.486 48.375 611.773 48.375C610.061 48.375 608.605 48.2292 607.405 47.9375C606.217 47.6406 605.248 47.2474 604.498 46.7578C603.761 46.263 603.23 45.7005 602.905 45.0703C602.567 44.4349 602.398 43.776 602.398 43.0938ZM606.28 43.0938C606.28 43.5729 606.355 44.0365 606.505 44.4844L616.105 40.4688C615.68 40.1146 615.117 39.8281 614.417 39.6094C613.73 39.3906 612.848 39.2812 611.773 39.2812C609.986 39.2812 608.623 39.6172 607.686 40.2891C606.748 40.9609 606.28 41.8958 606.28 43.0938ZM611.773 46.9141C612.873 46.9141 613.773 46.8021 614.473 46.5781C615.186 46.3542 615.742 46.0625 616.142 45.7031C616.555 45.3385 616.842 44.9271 617.005 44.4688C617.18 44.0104 617.267 43.5521 617.267 43.0938C617.267 42.6562 617.192 42.2292 617.042 41.8125L607.517 45.7969C607.942 46.1354 608.486 46.4062 609.148 46.6094C609.823 46.8125 610.698 46.9141 611.773 46.9141Z" fill="white"/>
<path d="M617.605 75.1953H605.867V73.7422H609.805V67.9453C609.63 68.2005 609.323 68.4271 608.886 68.625C608.461 68.8229 607.942 68.9896 607.33 69.125C606.73 69.2552 606.055 69.3568 605.305 69.4297C604.567 69.4974 603.805 69.5312 603.017 69.5312V67.9141C603.867 67.9141 604.692 67.8568 605.492 67.7422C606.305 67.6224 607.03 67.4427 607.667 67.2031C608.305 66.9635 608.817 66.6641 609.205 66.3047C609.605 65.9401 609.805 65.5052 609.805 65H613.686V73.7422H617.605V75.1953Z" fill="white"/>
<path d="M617.605 102.195H605.867V100.742H609.805V94.9453C609.63 95.2005 609.323 95.4271 608.886 95.625C608.461 95.8229 607.942 95.9896 607.33 96.125C606.73 96.2552 606.055 96.3568 605.305 96.4297C604.567 96.4974 603.805 96.5312 603.017 96.5312V94.9141C603.867 94.9141 604.692 94.8568 605.492 94.7422C606.305 94.6224 607.03 94.4427 607.667 94.2031C608.305 93.9635 608.817 93.6641 609.205 93.3047C609.605 92.9401 609.805 92.5052 609.805 92H613.686V100.742H617.605V102.195Z" fill="white"/>
<path d="M602.398 124.094C602.398 123.411 602.573 122.753 602.923 122.117C603.273 121.482 603.817 120.922 604.555 120.438C605.292 119.953 606.255 119.565 607.442 119.273C608.642 118.977 610.086 118.828 611.773 118.828C613.461 118.828 614.898 118.977 616.086 119.273C617.286 119.565 618.261 119.953 619.011 120.438C619.761 120.922 620.305 121.482 620.642 122.117C620.98 122.753 621.148 123.411 621.148 124.094C621.148 124.776 620.98 125.435 620.642 126.07C620.305 126.701 619.767 127.263 619.03 127.758C618.292 128.247 617.323 128.641 616.123 128.938C614.936 129.229 613.486 129.375 611.773 129.375C610.061 129.375 608.605 129.229 607.405 128.938C606.217 128.641 605.248 128.247 604.498 127.758C603.761 127.263 603.23 126.701 602.905 126.07C602.567 125.435 602.398 124.776 602.398 124.094ZM606.28 124.094C606.28 124.573 606.355 125.036 606.505 125.484L616.105 121.469C615.68 121.115 615.117 120.828 614.417 120.609C613.73 120.391 612.848 120.281 611.773 120.281C609.986 120.281 608.623 120.617 607.686 121.289C606.748 121.961 606.28 122.896 606.28 124.094ZM611.773 127.914C612.873 127.914 613.773 127.802 614.473 127.578C615.186 127.354 615.742 127.062 616.142 126.703C616.555 126.339 616.842 125.927 617.005 125.469C617.18 125.01 617.267 124.552 617.267 124.094C617.267 123.656 617.192 123.229 617.042 122.812L607.517 126.797C607.942 127.135 608.486 127.406 609.148 127.609C609.823 127.812 610.698 127.914 611.773 127.914Z" fill="white"/>
<path d="M617.605 156.195H605.867V154.742H609.805V148.945C609.63 149.201 609.323 149.427 608.886 149.625C608.461 149.823 607.942 149.99 607.33 150.125C606.73 150.255 606.055 150.357 605.305 150.43C604.567 150.497 603.805 150.531 603.017 150.531V148.914C603.867 148.914 604.692 148.857 605.492 148.742C606.305 148.622 607.03 148.443 607.667 148.203C608.305 147.964 608.817 147.664 609.205 147.305C609.605 146.94 609.805 146.505 609.805 146H613.686V154.742H617.605V156.195Z" fill="white"/>
</g>
<g opacity="0.1">
<path d="M634.405 571.195H622.668V569.742H626.605V563.945C626.43 564.201 626.124 564.427 625.687 564.625C625.262 564.823 624.743 564.99 624.13 565.125C623.53 565.255 622.855 565.357 622.105 565.43C621.368 565.497 620.605 565.531 619.818 565.531V563.914C620.668 563.914 621.493 563.857 622.293 563.742C623.105 563.622 623.83 563.443 624.468 563.203C625.105 562.964 625.618 562.664 626.005 562.305C626.405 561.94 626.605 561.505 626.605 561H630.487V569.742H634.405V571.195Z" fill="white"/>
<path d="M619.199 593.094C619.199 592.411 619.374 591.753 619.724 591.117C620.074 590.482 620.618 589.922 621.355 589.438C622.093 588.953 623.055 588.565 624.243 588.273C625.443 587.977 626.887 587.828 628.574 587.828C630.262 587.828 631.699 587.977 632.887 588.273C634.087 588.565 635.062 588.953 635.812 589.438C636.562 589.922 637.105 590.482 637.443 591.117C637.78 591.753 637.949 592.411 637.949 593.094C637.949 593.776 637.78 594.435 637.443 595.07C637.105 595.701 636.568 596.263 635.83 596.758C635.093 597.247 634.124 597.641 632.924 597.938C631.737 598.229 630.287 598.375 628.574 598.375C626.862 598.375 625.405 598.229 624.205 597.938C623.018 597.641 622.049 597.247 621.299 596.758C620.562 596.263 620.03 595.701 619.705 595.07C619.368 594.435 619.199 593.776 619.199 593.094ZM623.08 593.094C623.08 593.573 623.155 594.036 623.305 594.484L632.905 590.469C632.48 590.115 631.918 589.828 631.218 589.609C630.53 589.391 629.649 589.281 628.574 589.281C626.787 589.281 625.424 589.617 624.487 590.289C623.549 590.961 623.08 591.896 623.08 593.094ZM628.574 596.914C629.674 596.914 630.574 596.802 631.274 596.578C631.987 596.354 632.543 596.062 632.943 595.703C633.355 595.339 633.643 594.927 633.805 594.469C633.98 594.01 634.068 593.552 634.068 593.094C634.068 592.656 633.993 592.229 633.843 591.812L624.318 595.797C624.743 596.135 625.287 596.406 625.949 596.609C626.624 596.812 627.499 596.914 628.574 596.914Z" fill="white"/>
<path d="M619.199 620.094C619.199 619.411 619.374 618.753 619.724 618.117C620.074 617.482 620.618 616.922 621.355 616.438C622.093 615.953 623.055 615.565 624.243 615.273C625.443 614.977 626.887 614.828 628.574 614.828C630.262 614.828 631.699 614.977 632.887 615.273C634.087 615.565 635.062 615.953 635.812 616.438C636.562 616.922 637.105 617.482 637.443 618.117C637.78 618.753 637.949 619.411 637.949 620.094C637.949 620.776 637.78 621.435 637.443 622.07C637.105 622.701 636.568 623.263 635.83 623.758C635.093 624.247 634.124 624.641 632.924 624.938C631.737 625.229 630.287 625.375 628.574 625.375C626.862 625.375 625.405 625.229 624.205 624.938C623.018 624.641 622.049 624.247 621.299 623.758C620.562 623.263 620.03 622.701 619.705 622.07C619.368 621.435 619.199 620.776 619.199 620.094ZM623.08 620.094C623.08 620.573 623.155 621.036 623.305 621.484L632.905 617.469C632.48 617.115 631.918 616.828 631.218 616.609C630.53 616.391 629.649 616.281 628.574 616.281C626.787 616.281 625.424 616.617 624.487 617.289C623.549 617.961 623.08 618.896 623.08 620.094ZM628.574 623.914C629.674 623.914 630.574 623.802 631.274 623.578C631.987 623.354 632.543 623.062 632.943 622.703C633.355 622.339 633.643 621.927 633.805 621.469C633.98 621.01 634.068 620.552 634.068 620.094C634.068 619.656 633.993 619.229 633.843 618.812L624.318 622.797C624.743 623.135 625.287 623.406 625.949 623.609C626.624 623.812 627.499 623.914 628.574 623.914Z" fill="white"/>
<path d="M619.199 647.094C619.199 646.411 619.374 645.753 619.724 645.117C620.074 644.482 620.618 643.922 621.355 643.438C622.093 642.953 623.055 642.565 624.243 642.273C625.443 641.977 626.887 641.828 628.574 641.828C630.262 641.828 631.699 641.977 632.887 642.273C634.087 642.565 635.062 642.953 635.812 643.438C636.562 643.922 637.105 644.482 637.443 645.117C637.78 645.753 637.949 646.411 637.949 647.094C637.949 647.776 637.78 648.435 637.443 649.07C637.105 649.701 636.568 650.263 635.83 650.758C635.093 651.247 634.124 651.641 632.924 651.938C631.737 652.229 630.287 652.375 628.574 652.375C626.862 652.375 625.405 652.229 624.205 651.938C623.018 651.641 622.049 651.247 621.299 650.758C620.562 650.263 620.03 649.701 619.705 649.07C619.368 648.435 619.199 647.776 619.199 647.094ZM623.08 647.094C623.08 647.573 623.155 648.036 623.305 648.484L632.905 644.469C632.48 644.115 631.918 643.828 631.218 643.609C630.53 643.391 629.649 643.281 628.574 643.281C626.787 643.281 625.424 643.617 624.487 644.289C623.549 644.961 623.08 645.896 623.08 647.094ZM628.574 650.914C629.674 650.914 630.574 650.802 631.274 650.578C631.987 650.354 632.543 650.062 632.943 649.703C633.355 649.339 633.643 648.927 633.805 648.469C633.98 648.01 634.068 647.552 634.068 647.094C634.068 646.656 633.993 646.229 633.843 645.812L624.318 649.797C624.743 650.135 625.287 650.406 625.949 650.609C626.624 650.812 627.499 650.914 628.574 650.914Z" fill="white"/>
<path d="M634.405 679.195H622.668V677.742H626.605V671.945C626.43 672.201 626.124 672.427 625.687 672.625C625.262 672.823 624.743 672.99 624.13 673.125C623.53 673.255 622.855 673.357 622.105 673.43C621.368 673.497 620.605 673.531 619.818 673.531V671.914C620.668 671.914 621.493 671.857 622.293 671.742C623.105 671.622 623.83 671.443 624.468 671.203C625.105 670.964 625.618 670.664 626.005 670.305C626.405 669.94 626.605 669.505 626.605 669H630.487V677.742H634.405V679.195Z" fill="white"/>
<path d="M634.405 706.195H622.668V704.742H626.605V698.945C626.43 699.201 626.124 699.427 625.687 699.625C625.262 699.823 624.743 699.99 624.13 700.125C623.53 700.255 622.855 700.357 622.105 700.43C621.368 700.497 620.605 700.531 619.818 700.531V698.914C620.668 698.914 621.493 698.857 622.293 698.742C623.105 698.622 623.83 698.443 624.468 698.203C625.105 697.964 625.618 697.664 626.005 697.305C626.405 696.94 626.605 696.505 626.605 696H630.487V704.742H634.405V706.195Z" fill="white"/>
<path d="M619.199 728.094C619.199 727.411 619.374 726.753 619.724 726.117C620.074 725.482 620.618 724.922 621.355 724.438C622.093 723.953 623.055 723.565 624.243 723.273C625.443 722.977 626.887 722.828 628.574 722.828C630.262 722.828 631.699 722.977 632.887 723.273C634.087 723.565 635.062 723.953 635.812 724.438C636.562 724.922 637.105 725.482 637.443 726.117C637.78 726.753 637.949 727.411 637.949 728.094C637.949 728.776 637.78 729.435 637.443 730.07C637.105 730.701 636.568 731.263 635.83 731.758C635.093 732.247 634.124 732.641 632.924 732.938C631.737 733.229 630.287 733.375 628.574 733.375C626.862 733.375 625.405 733.229 624.205 732.938C623.018 732.641 622.049 732.247 621.299 731.758C620.562 731.263 620.03 730.701 619.705 730.07C619.368 729.435 619.199 728.776 619.199 728.094ZM623.08 728.094C623.08 728.573 623.155 729.036 623.305 729.484L632.905 725.469C632.48 725.115 631.918 724.828 631.218 724.609C630.53 724.391 629.649 724.281 628.574 724.281C626.787 724.281 625.424 724.617 624.487 725.289C623.549 725.961 623.08 726.896 623.08 728.094ZM628.574 731.914C629.674 731.914 630.574 731.802 631.274 731.578C631.987 731.354 632.543 731.062 632.943 730.703C633.355 730.339 633.643 729.927 633.805 729.469C633.98 729.01 634.068 728.552 634.068 728.094C634.068 727.656 633.993 727.229 633.843 726.812L624.318 730.797C624.743 731.135 625.287 731.406 625.949 731.609C626.624 731.812 627.499 731.914 628.574 731.914Z" fill="white"/>
<path d="M634.405 760.195H622.668V758.742H626.605V752.945C626.43 753.201 626.124 753.427 625.687 753.625C625.262 753.823 624.743 753.99 624.13 754.125C623.53 754.255 622.855 754.357 622.105 754.43C621.368 754.497 620.605 754.531 619.818 754.531V752.914C620.668 752.914 621.493 752.857 622.293 752.742C623.105 752.622 623.83 752.443 624.468 752.203C625.105 751.964 625.618 751.664 626.005 751.305C626.405 750.94 626.605 750.505 626.605 750H630.487V758.742H634.405V760.195Z" fill="white"/>
</g>
<g opacity="0.1">
<path d="M675.206 620.195H663.469V618.742H667.406V612.945C667.231 613.201 666.925 613.427 666.488 613.625C666.063 613.823 665.544 613.99 664.931 614.125C664.331 614.255 663.656 614.357 662.906 614.43C662.169 614.497 661.406 614.531 660.619 614.531V612.914C661.469 612.914 662.294 612.857 663.094 612.742C663.906 612.622 664.631 612.443 665.269 612.203C665.906 611.964 666.419 611.664 666.806 611.305C667.206 610.94 667.406 610.505 667.406 610H671.288V618.742H675.206V620.195Z" fill="white"/>
<path d="M660 642.094C660 641.411 660.175 640.753 660.525 640.117C660.875 639.482 661.419 638.922 662.156 638.438C662.894 637.953 663.856 637.565 665.044 637.273C666.244 636.977 667.688 636.828 669.375 636.828C671.063 636.828 672.5 636.977 673.688 637.273C674.888 637.565 675.863 637.953 676.613 638.438C677.363 638.922 677.906 639.482 678.244 640.117C678.581 640.753 678.75 641.411 678.75 642.094C678.75 642.776 678.581 643.435 678.244 644.07C677.906 644.701 677.369 645.263 676.631 645.758C675.894 646.247 674.925 646.641 673.725 646.938C672.538 647.229 671.088 647.375 669.375 647.375C667.663 647.375 666.206 647.229 665.006 646.938C663.819 646.641 662.85 646.247 662.1 645.758C661.363 645.263 660.831 644.701 660.506 644.07C660.169 643.435 660 642.776 660 642.094ZM663.881 642.094C663.881 642.573 663.956 643.036 664.106 643.484L673.706 639.469C673.281 639.115 672.719 638.828 672.019 638.609C671.331 638.391 670.45 638.281 669.375 638.281C667.588 638.281 666.225 638.617 665.288 639.289C664.35 639.961 663.881 640.896 663.881 642.094ZM669.375 645.914C670.475 645.914 671.375 645.802 672.075 645.578C672.788 645.354 673.344 645.062 673.744 644.703C674.156 644.339 674.444 643.927 674.606 643.469C674.781 643.01 674.869 642.552 674.869 642.094C674.869 641.656 674.794 641.229 674.644 640.812L665.119 644.797C665.544 645.135 666.088 645.406 666.75 645.609C667.425 645.812 668.3 645.914 669.375 645.914Z" fill="white"/>
<path d="M660 669.094C660 668.411 660.175 667.753 660.525 667.117C660.875 666.482 661.419 665.922 662.156 665.438C662.894 664.953 663.856 664.565 665.044 664.273C666.244 663.977 667.688 663.828 669.375 663.828C671.063 663.828 672.5 663.977 673.688 664.273C674.888 664.565 675.863 664.953 676.613 665.438C677.363 665.922 677.906 666.482 678.244 667.117C678.581 667.753 678.75 668.411 678.75 669.094C678.75 669.776 678.581 670.435 678.244 671.07C677.906 671.701 677.369 672.263 676.631 672.758C675.894 673.247 674.925 673.641 673.725 673.938C672.538 674.229 671.088 674.375 669.375 674.375C667.663 674.375 666.206 674.229 665.006 673.938C663.819 673.641 662.85 673.247 662.1 672.758C661.363 672.263 660.831 671.701 660.506 671.07C660.169 670.435 660 669.776 660 669.094ZM663.881 669.094C663.881 669.573 663.956 670.036 664.106 670.484L673.706 666.469C673.281 666.115 672.719 665.828 672.019 665.609C671.331 665.391 670.45 665.281 669.375 665.281C667.588 665.281 666.225 665.617 665.288 666.289C664.35 666.961 663.881 667.896 663.881 669.094ZM669.375 672.914C670.475 672.914 671.375 672.802 672.075 672.578C672.788 672.354 673.344 672.062 673.744 671.703C674.156 671.339 674.444 670.927 674.606 670.469C674.781 670.01 674.869 669.552 674.869 669.094C674.869 668.656 674.794 668.229 674.644 667.812L665.119 671.797C665.544 672.135 666.088 672.406 666.75 672.609C667.425 672.812 668.3 672.914 669.375 672.914Z" fill="white"/>
<path d="M660 696.094C660 695.411 660.175 694.753 660.525 694.117C660.875 693.482 661.419 692.922 662.156 692.438C662.894 691.953 663.856 691.565 665.044 691.273C666.244 690.977 667.688 690.828 669.375 690.828C671.063 690.828 672.5 690.977 673.688 691.273C674.888 691.565 675.863 691.953 676.613 692.438C677.363 692.922 677.906 693.482 678.244 694.117C678.581 694.753 678.75 695.411 678.75 696.094C678.75 696.776 678.581 697.435 678.244 698.07C677.906 698.701 677.369 699.263 676.631 699.758C675.894 700.247 674.925 700.641 673.725 700.938C672.538 701.229 671.088 701.375 669.375 701.375C667.663 701.375 666.206 701.229 665.006 700.938C663.819 700.641 662.85 700.247 662.1 699.758C661.363 699.263 660.831 698.701 660.506 698.07C660.169 697.435 660 696.776 660 696.094ZM663.881 696.094C663.881 696.573 663.956 697.036 664.106 697.484L673.706 693.469C673.281 693.115 672.719 692.828 672.019 692.609C671.331 692.391 670.45 692.281 669.375 692.281C667.588 692.281 666.225 692.617 665.288 693.289C664.35 693.961 663.881 694.896 663.881 696.094ZM669.375 699.914C670.475 699.914 671.375 699.802 672.075 699.578C672.788 699.354 673.344 699.062 673.744 698.703C674.156 698.339 674.444 697.927 674.606 697.469C674.781 697.01 674.869 696.552 674.869 696.094C674.869 695.656 674.794 695.229 674.644 694.812L665.119 698.797C665.544 699.135 666.088 699.406 666.75 699.609C667.425 699.812 668.3 699.914 669.375 699.914Z" fill="white"/>
<path d="M675.206 728.195H663.469V726.742H667.406V720.945C667.231 721.201 666.925 721.427 666.488 721.625C666.063 721.823 665.544 721.99 664.931 722.125C664.331 722.255 663.656 722.357 662.906 722.43C662.169 722.497 661.406 722.531 660.619 722.531V720.914C661.469 720.914 662.294 720.857 663.094 720.742C663.906 720.622 664.631 720.443 665.269 720.203C665.906 719.964 666.419 719.664 666.806 719.305C667.206 718.94 667.406 718.505 667.406 718H671.288V726.742H675.206V728.195Z" fill="white"/>
<path d="M675.206 755.195H663.469V753.742H667.406V747.945C667.231 748.201 666.925 748.427 666.488 748.625C666.063 748.823 665.544 748.99 664.931 749.125C664.331 749.255 663.656 749.357 662.906 749.43C662.169 749.497 661.406 749.531 660.619 749.531V747.914C661.469 747.914 662.294 747.857 663.094 747.742C663.906 747.622 664.631 747.443 665.269 747.203C665.906 746.964 666.419 746.664 666.806 746.305C667.206 745.94 667.406 745.505 667.406 745H671.288V753.742H675.206V755.195Z" fill="white"/>
<path d="M660 777.094C660 776.411 660.175 775.753 660.525 775.117C660.875 774.482 661.419 773.922 662.156 773.438C662.894 772.953 663.856 772.565 665.044 772.273C666.244 771.977 667.688 771.828 669.375 771.828C671.063 771.828 672.5 771.977 673.688 772.273C674.888 772.565 675.863 772.953 676.613 773.438C677.363 773.922 677.906 774.482 678.244 775.117C678.581 775.753 678.75 776.411 678.75 777.094C678.75 777.776 678.581 778.435 678.244 779.07C677.906 779.701 677.369 780.263 676.631 780.758C675.894 781.247 674.925 781.641 673.725 781.938C672.538 782.229 671.088 782.375 669.375 782.375C667.663 782.375 666.206 782.229 665.006 781.938C663.819 781.641 662.85 781.247 662.1 780.758C661.363 780.263 660.831 779.701 660.506 779.07C660.169 778.435 660 777.776 660 777.094ZM663.881 777.094C663.881 777.573 663.956 778.036 664.106 778.484L673.706 774.469C673.281 774.115 672.719 773.828 672.019 773.609C671.331 773.391 670.45 773.281 669.375 773.281C667.588 773.281 666.225 773.617 665.288 774.289C664.35 774.961 663.881 775.896 663.881 777.094ZM669.375 780.914C670.475 780.914 671.375 780.802 672.075 780.578C672.788 780.354 673.344 780.062 673.744 779.703C674.156 779.339 674.444 778.927 674.606 778.469C674.781 778.01 674.869 777.552 674.869 777.094C674.869 776.656 674.794 776.229 674.644 775.812L665.119 779.797C665.544 780.135 666.088 780.406 666.75 780.609C667.425 780.812 668.3 780.914 669.375 780.914Z" fill="white"/>
<path d="M675.206 809.195H663.469V807.742H667.406V801.945C667.231 802.201 666.925 802.427 666.488 802.625C666.063 802.823 665.544 802.99 664.931 803.125C664.331 803.255 663.656 803.357 662.906 803.43C662.169 803.497 661.406 803.531 660.619 803.531V801.914C661.469 801.914 662.294 801.857 663.094 801.742C663.906 801.622 664.631 801.443 665.269 801.203C665.906 800.964 666.419 800.664 666.806 800.305C667.206 799.94 667.406 799.505 667.406 799H671.288V807.742H675.206V809.195Z" fill="white"/>
</g>
</g>
</svg>
