<svg width="50" height="50" viewBox="0 0 50 50" fill="none" xmlns="http://www.w3.org/2000/svg">
<path d="M19.7302 43.7993C18.6746 38.3466 13.9499 32.8313 11.8936 27.3049C9.35321 20.4781 10.446 12.156 11.1223 8.13542C11.2079 6.64162 10.3651 5.27664 8.99869 5.00008L8.96966 4.99423C7.55398 4.70792 6.18556 5.70094 5.90457 7.22367C5.18749 11.1094 4.43506 19.6452 6.5437 27.1425C8.0577 32.5254 12.5129 37.4115 13.7772 42.1849C14.1583 43.6237 15.3785 44.6152 16.7666 44.6152C17.8767 44.6152 19.4491 45.4404 19.999 44.5001C19.8869 44.2815 19.779 44.0517 19.7302 43.7993Z" fill="#C3E9FE"/>
<path d="M35.325 46.2C35.825 46.2 36.225 45.8 36.225 45.3C36.225 42.2001 38.225 39 40.425 35.6C42.125 32.9 43.925 30 44.825 27C47.125 19.4 46.425 11.9 45.525 6.90005C45.125 5.10005 43.525 3.80005 41.725 3.80005C41.525 3.80005 41.225 3.80005 41.025 3.90005C39.025 4.30005 37.725 6.10005 37.825 8.20005C37.825 8.60005 37.925 9.00005 37.925 9.40005V9.50005C38.125 12.1 38.525 16 37.725 20.3L37.425 21.8L36.325 20.7C36.225 20.6 36.225 20.6 36.125 20.5C35.225 19.8 34.125 19.4 32.925 19.5C31.625 19.6 30.425 20.3 29.725 21.5C29.425 22 29.225 22.6 29.025 23.2L28.925 23.5C27.725 27.8 25.925 30.1 24.225 32.4C22.925 34.1 21.725 35.7 21.125 37.9V38C20.825 39.1 20.725 40.3 20.725 41.7C20.725 42.4 20.425 43.1 19.925 43.6C19.425 44.1 18.725 44.4 18.025 44.4C16.825 44.4 15.825 43.6 15.525 42.5C14.825 39.9 13.225 37.4 11.525 34.7C9.825 32.1 8.125 29.4 7.325 26.6C5.125 19.2001 5.825 12.1 6.725 7.30005C6.925 6.30005 7.725 5.60005 8.725 5.60005C8.825 5.60005 9.025 5.60005 9.125 5.60005C10.425 5.90005 10.925 7.10005 10.825 8.10005V8.20005C10.825 8.60005 10.725 9.00005 10.725 9.40005C9.425 22.3 13.725 28.8 14.625 30L14.725 30.1C15.025 30.5 15.525 30.7 16.025 30.4C16.225 30.3 16.425 30.1 16.425 29.8C16.425 29.5 16.425 29.3001 16.325 29.1C14.825 26.6 14.625 24.9 14.625 24.1C14.725 23.2001 15.025 22.4 15.525 21.9C16.025 21.5 16.625 21.3 17.325 21.4C18.025 21.5 18.725 21.9 19.125 22.5C19.325 22.8 19.425 23.2 19.525 23.7L19.625 24C19.925 25 20.325 26.1 20.725 27.2C20.925 27.7 21.425 27.9 21.925 27.7C22.425 27.5 22.625 27 22.425 26.5C22.025 25.5 21.625 24.5 21.425 23.6L21.325 23.3C21.125 22.7 21.025 22.1 20.625 21.6C19.925 20.5 18.725 19.8001 17.425 19.6C16.225 19.5 15.125 19.8001 14.225 20.6C14.125 20.7001 14.025 20.7 14.025 20.8L13.025 21.8L12.725 20.3C12.025 16 12.325 12.1 12.525 9.50005C12.525 9.00005 12.625 8.60005 12.625 8.20005C12.825 6.10005 11.525 4.30005 9.525 3.90005C9.225 3.90005 9.025 3.80005 8.725 3.80005C6.825 3.80005 5.225 5.10005 4.925 6.90005C3.925 11.8 3.225 19.3 5.625 27C6.525 30 8.325 32.8 10.025 35.5C11.625 38.1 13.125 40.5 13.825 42.8C14.325 44.7001 16.125 46 18.125 46C19.325 46 20.425 45.5 21.325 44.7C22.125 43.8 22.625 42.7 22.625 41.5C22.625 40.3 22.725 39.3 22.925 38.3C23.525 36.4 24.525 35 25.725 33.4C27.325 31.2 29.325 28.4 30.625 23.9L30.725 23.6C30.825 23.1 30.925 22.7 31.125 22.4C31.525 21.7 32.225 21.3 32.925 21.3C33.625 21.2 34.225 21.4 34.725 21.8C35.325 22.3 35.625 23 35.625 24C35.625 24.8 35.525 26.5 33.925 29C33.625 29.4 33.825 30 34.225 30.3C34.625 30.6 35.225 30.4 35.525 30L35.625 29.9C36.525 28.7 41.125 22.2 39.525 9.40005C39.525 9.00005 39.425 8.60005 39.425 8.30005V8.10005C39.325 7.10005 39.825 6.00005 41.125 5.70005C41.325 5.70005 41.425 5.70005 41.525 5.70005C42.525 5.70005 43.325 6.40005 43.525 7.40005C44.425 12.1 45.125 19.3 42.925 26.6C42.125 29.4 40.425 32.1 38.725 34.7C36.425 38.4 34.225 41.8 34.225 45.4C34.325 45.8 34.825 46.2 35.325 46.2Z" fill="#0285CB"/>
<path d="M8.72578 3C8.62578 3 8.52578 3 8.42578 3C8.52578 3.1 8.62578 3.1 8.72578 3Z" fill="#0285CB" stroke="white" stroke-width="0.3" stroke-miterlimit="10"/>
<path d="M41.925 3.1001C41.825 3.1001 41.725 3.1001 41.625 3.1001C41.725 3.1001 41.825 3.1001 41.925 3.1001Z" fill="#0285CB" stroke="white" stroke-width="0.3" stroke-miterlimit="10"/>
<path d="M26.2258 19.3001C26.7258 19.3001 27.1258 18.9001 27.1258 18.4001V17.5001L27.7258 17.3001C29.0258 16.8001 29.9258 15.5001 29.9258 14.1001C29.9258 12.2001 28.3258 10.7001 26.2258 10.7001C24.9258 10.7001 23.9258 10.0001 23.9258 9.0001C23.9258 8.1001 24.7258 7.3001 25.6258 7.3001C26.3258 7.3001 27.1258 7.4001 28.5258 7.9001C28.9258 8.1001 29.5258 7.8001 29.6258 7.4001C29.7258 7.2001 29.7258 7.0001 29.6258 6.7001C29.5258 6.5001 29.3258 6.3001 29.1258 6.2001C28.6258 6.0001 28.1258 5.9001 27.7258 5.7001L27.1258 5.5001V4.5001C27.1258 4.0001 26.7258 3.6001 26.2258 3.6001C25.7258 3.6001 25.3258 4.0001 25.3258 4.5001V5.3001L24.7258 5.5001C23.2258 5.9001 22.1258 7.3001 22.1258 8.8001C22.1258 10.8001 23.8258 12.2001 26.1258 12.2001C27.2258 12.2001 28.1258 13.0001 28.1258 13.9001C28.1258 14.8001 27.3258 15.6001 26.4258 15.6001C25.9258 15.6001 24.6258 15.5001 23.2258 14.9001C23.1258 14.9001 23.0258 14.8001 22.9258 14.8001C22.5258 14.8001 22.2258 15.0001 22.1258 15.3001C22.0258 15.5001 22.0258 15.7001 22.1258 16.0001C22.2258 16.2001 22.4258 16.4001 22.6258 16.5001C23.3258 16.8001 24.0258 17.0001 24.7258 17.1001L25.4258 17.2001V18.1001C25.4258 18.9001 25.8258 19.3001 26.2258 19.3001Z" fill="#FF6B01"/>
</svg>
