<svg width="50" height="50" viewBox="0 0 50 50" fill="none" xmlns="http://www.w3.org/2000/svg">
<path d="M17.3535 14.6016C17.3535 10.2082 20.2206 6.48511 24.1855 5.1994C23.2246 4.88788 22.1995 4.71875 21.1348 4.71875C15.6766 4.71875 11.252 9.14341 11.252 14.6016C11.252 20.0597 15.6766 24.4844 21.1348 24.4844C22.1995 24.4844 23.2246 24.3153 24.1855 24.0037C20.2206 22.718 17.3535 18.9949 17.3535 14.6016Z" fill="#C3E9FE"/>
<path fill-rule="evenodd" clip-rule="evenodd" d="M28.7757 31.2919C29.3022 31.4899 29.5687 32.0773 29.3708 32.604C29.1727 33.1307 28.585 33.3971 28.0588 33.1992L28.0587 33.1991C26.6091 32.6541 25.081 32.3781 23.5187 32.3781H20.9406C13.8252 32.3781 8.0375 38.1658 8.0375 45.2812C8.0375 45.8439 7.58142 46.2999 7.01875 46.2999C6.45608 46.2999 6 45.8439 6 45.2812C6 37.0435 12.703 30.3406 20.9406 30.3406H23.5187C25.3289 30.3406 27.097 30.6608 28.7757 31.2919ZM22.0578 3.69995C28.0683 3.69995 32.9594 8.59101 32.9594 14.6015C32.9594 20.612 28.0683 25.5031 22.0578 25.5031C16.0473 25.5031 11.1562 20.612 11.1562 14.6015C11.1562 8.59101 16.0473 3.69995 22.0578 3.69995ZM22.0578 23.4656C26.9461 23.4656 30.9219 19.4898 30.9219 14.6015C30.9219 9.71325 26.9461 5.73745 22.0578 5.73745C17.1695 5.73745 13.1938 9.71325 13.1938 14.6015C13.1938 19.4898 17.1695 23.4656 22.0578 23.4656Z" fill="#0285CB"/>
<path d="M45 39.2614C45 40.2208 44.6504 41.0303 43.9513 41.6899C43.2647 42.3496 42.3346 42.7633 41.161 42.9312V44.0645C41.161 44.3404 41.0737 44.5623 40.8989 44.7302C40.7241 44.9101 40.4931 45 40.206 45C39.9189 45 39.6879 44.9101 39.5131 44.7302C39.3383 44.5623 39.2509 44.3404 39.2509 44.0645V42.9672C38.5393 42.9072 37.8464 42.7633 37.1723 42.5354C36.4981 42.3076 35.9176 42.0078 35.4307 41.636C35.2684 41.528 35.1561 41.4081 35.0936 41.2762C35.0312 41.1443 35 40.9824 35 40.7905C35 40.5386 35.0749 40.3168 35.2247 40.1249C35.387 39.933 35.568 39.837 35.7678 39.837C35.8926 39.837 36.005 39.861 36.1049 39.909C36.2172 39.945 36.3608 40.0109 36.5356 40.1069C37.1099 40.4667 37.6717 40.7305 38.221 40.8984C38.7828 41.0663 39.3695 41.1503 39.9813 41.1503C40.8177 41.1503 41.4607 40.9944 41.9101 40.6825C42.372 40.3707 42.603 39.921 42.603 39.3333C42.603 38.9855 42.4782 38.7037 42.2285 38.4878C41.9788 38.272 41.6667 38.1041 41.2921 37.9841C40.9176 37.8522 40.3933 37.7023 39.7191 37.5344C38.7828 37.3065 38.0212 37.0787 37.4345 36.8508C36.8477 36.6109 36.3421 36.2511 35.9176 35.7714C35.4931 35.2917 35.2809 34.6441 35.2809 33.8286C35.2809 32.8571 35.6429 32.0296 36.367 31.346C37.0911 30.6624 38.0399 30.2367 39.2135 30.0688V28.9354C39.2135 28.6596 39.3009 28.4377 39.4757 28.2698C39.6504 28.0899 39.8814 28 40.1685 28C40.4557 28 40.6866 28.0899 40.8614 28.2698C41.0362 28.4377 41.1236 28.6596 41.1236 28.9354V30.0508C42.3845 30.2067 43.4707 30.6444 44.382 31.364C44.6816 31.5799 44.8315 31.8617 44.8315 32.2095C44.8315 32.4614 44.7503 32.6832 44.588 32.8751C44.4382 33.067 44.2572 33.163 44.0449 33.163C43.9326 33.163 43.8202 33.145 43.7079 33.109C43.608 33.073 43.4707 33.0011 43.2959 32.8931C42.784 32.5453 42.2971 32.2875 41.8352 32.1196C41.3858 31.9397 40.8489 31.8497 40.2247 31.8497C39.4507 31.8497 38.8327 32.0176 38.3708 32.3534C37.9089 32.6772 37.6779 33.127 37.6779 33.7026C37.6779 34.0984 37.809 34.4222 38.0712 34.6741C38.3333 34.9139 38.6642 35.0998 39.0637 35.2317C39.4632 35.3637 40.0062 35.5136 40.6929 35.6815C41.6042 35.8974 42.3471 36.1192 42.9213 36.3471C43.4956 36.575 43.9825 36.9228 44.382 37.3905C44.794 37.8462 45 38.4698 45 39.2614Z" fill="#FF6B01"/>
</svg>
