<svg width="50" height="50" viewBox="0 0 50 50" fill="none" xmlns="http://www.w3.org/2000/svg">
<path d="M13.4872 43.1375C12.7457 43.6212 11.8607 43.9033 10.9095 43.9033C8.2994 43.9033 6.18358 41.7874 6.18358 39.1774C6.18358 36.5674 8.2994 34.4515 10.9095 34.4515C11.8607 34.4515 12.7457 34.7336 13.4872 35.2173C12.1944 36.0605 11.3391 37.5187 11.3391 39.1774C11.3391 40.8361 12.1943 42.2942 13.4872 43.1375ZM10.8235 15.462C11.7748 15.462 12.6598 15.1799 13.4013 14.6963C12.1085 13.853 11.2532 12.3948 11.2532 10.7361C11.2532 9.07744 12.1085 7.61929 13.4013 6.77602C12.6598 6.29235 11.7748 6.01025 10.8235 6.01025C8.21348 6.01025 6.09766 8.12616 6.09766 10.7361C6.09766 13.3461 8.21348 15.462 10.8235 15.462ZM39.8663 39.2633C39.8663 37.6046 40.7216 36.1465 42.0144 35.3032C41.2729 34.8195 40.3879 34.5374 39.4366 34.5374C36.8266 34.5374 34.7107 36.6533 34.7107 39.2633C34.7107 41.8734 36.8266 43.9892 39.4366 43.9892C40.3879 43.9892 41.2729 43.7071 42.0144 43.2234C40.7215 42.3802 39.8663 40.922 39.8663 39.2633ZM39.3507 15.462C40.302 15.462 41.1869 15.1799 41.9285 14.6963C40.6356 13.853 39.7803 12.3948 39.7803 10.7361C39.7803 9.07744 40.6356 7.61929 41.9285 6.77602C41.1869 6.29235 40.302 6.01025 39.3507 6.01025C36.7406 6.01025 34.6248 8.12616 34.6248 10.7361C34.6248 13.3461 36.7406 15.462 39.3507 15.462Z" fill="#C3E9FE"/>
<path d="M25.2258 33.3001C25.7258 33.3001 26.1258 32.9001 26.1258 32.4001V31.5001L26.7258 31.3001C28.0258 30.8001 28.9258 29.5001 28.9258 28.1001C28.9258 26.2001 27.3258 24.7001 25.2258 24.7001C23.9258 24.7001 22.9258 24.0001 22.9258 23.0001C22.9258 22.1001 23.7258 21.3001 24.6258 21.3001C25.3258 21.3001 26.1258 21.4001 27.5258 21.9001C27.9258 22.1001 28.5258 21.8001 28.6258 21.4001C28.7258 21.2001 28.7258 21.0001 28.6258 20.7001C28.5258 20.5001 28.3258 20.3001 28.1258 20.2001C27.6258 20.0001 27.1258 19.9001 26.7258 19.7001L26.1258 19.5001V18.5001C26.1258 18.0001 25.7258 17.6001 25.2258 17.6001C24.7258 17.6001 24.3258 18.0001 24.3258 18.5001V19.3001L23.7258 19.5001C22.2258 19.9001 21.1258 21.3001 21.1258 22.8001C21.1258 24.8001 22.8258 26.2001 25.1258 26.2001C26.2258 26.2001 27.1258 27.0001 27.1258 27.9001C27.1258 28.8001 26.3258 29.6001 25.4258 29.6001C24.9258 29.6001 23.6258 29.5001 22.2258 28.9001C22.1258 28.9001 22.0258 28.8001 21.9258 28.8001C21.5258 28.8001 21.2258 29.0001 21.1258 29.3001C21.0258 29.5001 21.0258 29.7001 21.1258 30.0001C21.2258 30.2001 21.4258 30.4001 21.6258 30.5001C22.3258 30.8001 23.0258 31.0001 23.7258 31.1001L24.4258 31.2001V32.1001C24.4258 32.9001 24.8258 33.3001 25.2258 33.3001Z" fill="#FF6B01"/>
<path d="M44.8988 30.2C45.3988 30.3 45.8988 30 45.9988 29.5C46.5988 26.6 46.5988 23.6999 45.9988 20.9C45.8988 20.5 45.4988 20.2 45.0988 20.2C44.9988 20.2 44.9988 20.2 44.8988 20.2C44.3988 20.3 44.0988 20.7999 44.1988 21.2999C44.6988 23.8999 44.7988 26.6 44.1988 29.2C44.1988 29.4 44.1988 29.7 44.2988 29.9C44.3988 30 44.5988 30.2 44.8988 30.2Z" fill="#0285CB"/>
<path d="M30.0996 4.90005C29.9996 4.70005 29.7996 4.60005 29.4996 4.50005C26.5996 3.90005 23.6996 3.90005 20.8996 4.50005C20.6996 4.50005 20.4996 4.70005 20.2996 4.90005C20.1996 5.10005 20.0996 5.40005 20.1996 5.60005C20.2996 6.10005 20.7996 6.40005 21.2996 6.30005C22.5996 6.00005 23.8996 5.90005 25.1996 5.90005C26.4996 5.90005 27.8996 6.00005 29.1996 6.30005C29.6996 6.40005 30.1996 6.10005 30.2996 5.60005C30.2996 5.30005 30.1996 5.10005 30.0996 4.90005Z" fill="#0285CB"/>
<path d="M39.6 33.8C36.5 33.8 34 36.3001 34 39.4001C34 42.5001 36.5 45 39.6 45C42.7 45 45.2 42.5001 45.2 39.4001C45.2 36.3001 42.7 33.8 39.6 33.8ZM39.6 43.3C37.5 43.3 35.8 41.6 35.8 39.5C35.8 37.4 37.5 35.7001 39.6 35.7001C41.7 35.7001 43.4 37.4 43.4 39.5C43.4 41.6 41.7 43.3 39.6 43.3Z" fill="#0285CB"/>
<path d="M39.4984 5.30005C36.3984 5.30005 33.8984 7.80005 33.8984 10.9C33.8984 14 36.3984 16.5 39.4984 16.5C42.5984 16.5 45.0984 14 45.0984 10.9C45.0984 7.80005 42.6984 5.30005 39.4984 5.30005ZM39.4984 14.7C37.3984 14.7 35.6984 13 35.6984 10.9C35.6984 8.80005 37.3984 7.10005 39.4984 7.10005C41.5984 7.10005 43.2984 8.80005 43.2984 10.9C43.2984 13 41.5984 14.7 39.4984 14.7Z" fill="#0285CB"/>
<path d="M29.1988 44.2001C26.5988 44.7001 23.8988 44.7001 21.2988 44.2001C21.1988 44.2001 21.1988 44.2001 21.0988 44.2001C20.6988 44.2001 20.2988 44.5001 20.1988 44.9001C20.0988 45.4001 20.3988 45.9001 20.8988 46.0001C23.7988 46.6001 26.6988 46.6001 29.4988 46.0001C29.9988 45.9001 30.2988 45.4001 30.1988 44.9001C30.0988 44.4001 29.6988 44.1001 29.1988 44.2001Z" fill="#0285CB"/>
<path d="M10.9984 5.30005C7.89844 5.30005 5.39844 7.80005 5.39844 10.9C5.39844 14 7.89844 16.5 10.9984 16.5C14.0984 16.5 16.5984 14 16.5984 10.9C16.5984 7.80005 14.0984 5.30005 10.9984 5.30005ZM10.9984 14.7C8.89844 14.7 7.19844 13 7.19844 10.9C7.19844 8.80005 8.89844 7.10005 10.9984 7.10005C13.0984 7.10005 14.7984 8.80005 14.7984 10.9C14.7984 13 13.0984 14.7 10.9984 14.7Z" fill="#0285CB"/>
<path d="M11.1 33.7C8 33.7 5.5 36.1999 5.5 39.2999C5.5 42.4 8 45 11.1 45C14.2 45 16.7 42.5 16.7 39.4C16.7 36.3 14.2 33.7 11.1 33.7ZM11.1 43.2C9 43.2 7.3 41.5 7.3 39.4C7.3 37.3 9 35.6 11.1 35.6C13.2 35.6 14.9 37.3 14.9 39.4C14.9 41.5 13.2 43.2 11.1 43.2Z" fill="#0285CB"/>
<path d="M6.19922 21.2001C6.19922 21.0001 6.19922 20.7001 6.09922 20.5001C5.99922 20.3001 5.79922 20.2001 5.49922 20.1001C5.39922 20.1001 5.39922 20.1001 5.29922 20.1001C4.89922 20.1001 4.49922 20.4001 4.39922 20.8001C3.79922 23.7001 3.79922 26.6001 4.39922 29.4001C4.59922 30.0001 4.99922 30.3001 5.49922 30.2001C5.69922 30.2001 5.89922 30.0001 6.09922 29.8001C6.19922 29.6001 6.29922 29.3001 6.19922 29.1001C5.69922 26.5001 5.69922 23.9001 6.19922 21.2001Z" fill="#0285CB"/>
</svg>
