<svg width="50" height="50" viewBox="0 0 50 50" fill="none" xmlns="http://www.w3.org/2000/svg">
<path d="M13.9249 36.9368V13.3843C13.9249 8.60544 17.7895 4.73145 22.5567 4.73145H17.3009C12.5201 4.73145 8.64453 8.607 8.64453 13.3878V36.9332C8.64453 41.714 12.5201 45.5896 17.3009 45.5896H22.5567C17.7895 45.5896 13.9249 41.7156 13.9249 36.9368Z" fill="#C3E9FE"/>
<path fill-rule="evenodd" clip-rule="evenodd" d="M33.3162 46.5208H17.3885C12.1025 46.5208 7.80078 42.2191 7.80078 36.9331V13.3877C7.80078 8.10179 12.1025 3.80005 17.3885 3.80005H33.3162C38.6022 3.80005 42.9039 8.10179 42.9039 13.3877V36.9331C42.9039 42.2191 38.6022 46.5208 33.3162 46.5208ZM17.3885 5.66261C13.1281 5.66261 9.66334 9.12739 9.66334 13.3877V36.9331C9.66334 41.1935 13.1281 44.6582 17.3885 44.6582H33.3162C37.5766 44.6582 41.0413 41.1935 41.0413 36.9331V13.3877C41.0413 9.12739 37.5766 5.66261 33.3162 5.66261H17.3885ZM32.97 10.552C33.4843 10.552 33.9013 10.969 33.9013 11.4833C33.9013 14.3827 31.5411 16.7428 28.6418 16.7428H22.0629C19.1635 16.7428 16.8034 14.3827 16.8034 11.4833C16.8034 10.969 17.2204 10.552 17.7347 10.552C18.2491 10.552 18.666 10.969 18.666 11.4833C18.666 13.3571 20.1891 14.8802 22.0629 14.8802H28.6418C30.5155 14.8802 32.0387 13.3571 32.0387 11.4833C32.0387 10.969 32.4556 10.552 32.97 10.552Z" fill="#0285CB"/>
<path d="M31.3432 26.2788C31.7206 25.9087 32.3342 25.9069 32.714 26.2746C33.0936 26.6424 33.0956 27.2406 32.7183 27.6106L27.3324 32.8931C26.6061 33.6071 25.6405 34 24.6113 34C23.5823 34 22.617 33.6075 21.8896 32.8924L19.2809 30.3278C18.9041 29.9573 18.9067 29.3591 19.2868 28.9918C19.5676 28.7205 19.9756 28.651 20.3216 28.7824C20.4442 28.8289 20.559 28.9006 20.6576 28.9975L23.2662 31.5621C23.6247 31.9145 24.1035 32.1105 24.6113 32.1105C25.1191 32.1105 25.598 31.9143 25.9565 31.5621L31.3432 26.2788Z" fill="#FF6B01"/>
</svg>
