<svg width="50" height="50" viewBox="0 0 50 50" fill="none" xmlns="http://www.w3.org/2000/svg">
<path d="M17.3545 14.6016C17.3545 10.2082 20.2215 6.48511 24.1865 5.1994C23.2256 4.88788 22.2005 4.71875 21.1357 4.71875C15.6776 4.71875 11.2529 9.14341 11.2529 14.6016C11.2529 20.0597 15.6776 24.4844 21.1357 24.4844C22.2005 24.4844 23.2256 24.3153 24.1865 24.0037C20.2215 22.718 17.3545 18.9949 17.3545 14.6016Z" fill="#C3E9FE"/>
<path fill-rule="evenodd" clip-rule="evenodd" d="M28.7764 31.2921C29.303 31.4901 29.5694 32.0775 29.3716 32.6042C29.1735 33.1309 28.5857 33.3973 28.0595 33.1994L28.0594 33.1994C26.6098 32.6543 25.0817 32.3783 23.5195 32.3783H20.9414C13.8259 32.3783 8.03823 38.166 8.03823 45.2814C8.03823 45.8441 7.58215 46.3002 7.01948 46.3002C6.45682 46.3002 6.00073 45.8441 6.00073 45.2814C6.00073 37.0438 12.7037 30.3408 20.9414 30.3408H23.5195C25.3296 30.3408 27.0977 30.6611 28.7764 31.2921ZM22.0585 3.7002C28.069 3.7002 32.9601 8.59126 32.9601 14.6018C32.9601 20.6123 28.069 25.5033 22.0585 25.5033C16.048 25.5033 11.157 20.6123 11.157 14.6018C11.157 8.59126 16.048 3.7002 22.0585 3.7002ZM22.0585 23.4658C26.9468 23.4658 30.9226 19.49 30.9226 14.6018C30.9226 9.71349 26.9468 5.7377 22.0585 5.7377C17.1703 5.7377 13.1945 9.71349 13.1945 14.6018C13.1945 19.49 17.1703 23.4658 22.0585 23.4658Z" fill="#0285CB"/>
<path d="M45.0007 39.2614C45.0007 40.2208 44.6512 41.0303 43.952 41.6899C43.2654 42.3496 42.3353 42.7633 41.1618 42.9312V44.0645C41.1618 44.3404 41.0744 44.5623 40.8996 44.7302C40.7248 44.9101 40.4939 45 40.2067 45C39.9196 45 39.6886 44.9101 39.5138 44.7302C39.3391 44.5623 39.2517 44.3404 39.2517 44.0645V42.9672C38.5401 42.9072 37.8472 42.7633 37.173 42.5354C36.4989 42.3076 35.9183 42.0078 35.4314 41.636C35.2691 41.528 35.1568 41.4081 35.0944 41.2762C35.0319 41.1443 35.0007 40.9824 35.0007 40.7905C35.0007 40.5386 35.0756 40.3168 35.2255 40.1249C35.3877 39.933 35.5688 39.837 35.7685 39.837C35.8934 39.837 36.0057 39.861 36.1056 39.909C36.218 39.945 36.3615 40.0109 36.5363 40.1069C37.1106 40.4667 37.6724 40.7305 38.2217 40.8984C38.7835 41.0663 39.3703 41.1503 39.982 41.1503C40.8185 41.1503 41.4614 40.9944 41.9108 40.6825C42.3728 40.3707 42.6037 39.921 42.6037 39.3333C42.6037 38.9855 42.4789 38.7037 42.2292 38.4878C41.9795 38.272 41.6674 38.1041 41.2929 37.9841C40.9183 37.8522 40.394 37.7023 39.7198 37.5344C38.7835 37.3065 38.022 37.0787 37.4352 36.8508C36.8484 36.6109 36.3428 36.2511 35.9183 35.7714C35.4939 35.2917 35.2816 34.6441 35.2816 33.8286C35.2816 32.8571 35.6437 32.0296 36.3678 31.346C37.0919 30.6624 38.0407 30.2367 39.2142 30.0688V28.9354C39.2142 28.6596 39.3016 28.4377 39.4764 28.2698C39.6512 28.0899 39.8821 28 40.1693 28C40.4564 28 40.6874 28.0899 40.8622 28.2698C41.0369 28.4377 41.1243 28.6596 41.1243 28.9354V30.0508C42.3853 30.2067 43.4714 30.6444 44.3828 31.364C44.6824 31.5799 44.8322 31.8617 44.8322 32.2095C44.8322 32.4614 44.751 32.6832 44.5887 32.8751C44.4389 33.067 44.2579 33.163 44.0457 33.163C43.9333 33.163 43.821 33.145 43.7086 33.109C43.6087 33.073 43.4714 33.0011 43.2966 32.8931C42.7848 32.5453 42.2979 32.2875 41.8359 32.1196C41.3865 31.9397 40.8497 31.8497 40.2255 31.8497C39.4514 31.8497 38.8334 32.0176 38.3715 32.3534C37.9096 32.6772 37.6786 33.127 37.6786 33.7026C37.6786 34.0984 37.8097 34.4222 38.0719 34.6741C38.3341 34.9139 38.6649 35.0998 39.0644 35.2317C39.4639 35.3637 40.007 35.5136 40.6936 35.6815C41.605 35.8974 42.3478 36.1192 42.9221 36.3471C43.4964 36.575 43.9833 36.9228 44.3828 37.3905C44.7947 37.8462 45.0007 38.4698 45.0007 39.2614Z" fill="#FF6B01"/>
</svg>
