<svg width="50" height="50" viewBox="0 0 50 50" fill="none" xmlns="http://www.w3.org/2000/svg">
<path d="M12.9998 9.22412C8.39827 9.38859 4.71851 13.1707 4.71851 17.8123V38.1873C4.71851 42.9335 8.56601 46.781 13.3123 46.781L17.786 46.7541C13.3589 46.4062 9.87476 42.7037 9.87476 38.1873V17.8123C9.87476 14.2729 10.6415 11.2332 12.9998 9.91632V9.22412Z" fill="#C3E9FE"/>
<path d="M16.3975 24.1544L13.8784 26.6735C13.0973 27.4545 13.0973 28.7208 13.8784 29.5019L16.3975 32.021" stroke="#0285CB" stroke-width="2" stroke-linecap="round" stroke-linejoin="round"/>
<path d="M33.3181 31.0001L35.8372 33.5192C36.6183 34.3002 36.6183 35.5665 35.8372 36.3476L33.3181 38.8667" stroke="#FF6B01" stroke-width="2" stroke-linecap="round" stroke-linejoin="round"/>
<path d="M24.7157 27.9998C24.7157 27.4924 24.3044 27.0811 23.7969 27.0811H18.3829C17.8754 27.0811 17.4641 27.4924 17.4641 27.9998C17.4641 28.5072 17.8754 28.9186 18.3829 28.9186H23.7969C24.3044 28.9186 24.7157 28.5072 24.7157 27.9998Z" fill="#0285CB"/>
<path d="M24.9997 34.845C24.9997 34.3376 25.411 33.9263 25.9184 33.9263H31.3325C31.8399 33.9263 32.2512 34.3376 32.2512 34.845C32.2512 35.3525 31.8399 35.7638 31.3325 35.7638H25.9184C25.411 35.7638 24.9997 35.3525 24.9997 34.845Z" fill="#FF6B01"/>
<path d="M13.3125 9.21855C13.3125 8.71114 12.9 8.29514 12.3949 8.34373C7.57915 8.80699 3.80005 12.8773 3.80005 17.8123V38.1873C3.80005 43.4318 8.06806 47.6998 13.3125 47.6998H36.6875C41.932 47.6998 46.2001 43.4318 46.2001 38.1873V17.8123C46.2001 12.8773 42.4209 8.80699 37.6052 8.34373C37.1001 8.29514 36.6875 8.71114 36.6875 9.21855C36.6875 9.72597 37.1008 10.1315 37.6046 10.1918C41.4064 10.6462 44.3625 13.8899 44.3625 17.8123V38.1873C44.3625 42.42 40.9203 45.8623 36.6875 45.8623H13.3125C9.07985 45.8623 5.63755 42.42 5.63755 38.1873V17.8123C5.63755 13.8899 8.59365 10.6462 12.3955 10.1918C12.8993 10.1315 13.3125 9.72597 13.3125 9.21855Z" fill="#0285CB"/>
<circle cx="25" cy="4" r="4" fill="#FF6B01"/>
<path d="M30.0527 17C30.5759 17 31.0058 16.5744 30.9451 16.0547C30.769 14.5473 30.1751 13.1382 29.2426 12.0503C28.1174 10.7375 26.5913 10 25 10C23.4087 10 21.8826 10.7375 20.7574 12.0503C19.8249 13.1382 19.231 14.5473 19.0549 16.0547C18.9942 16.5744 19.4241 17 19.9473 17C20.4705 17 20.8862 16.5728 20.975 16.0572C21.1332 15.1381 21.5205 14.286 22.0971 13.6133C22.867 12.7151 23.9112 12.2105 25 12.2105C26.0888 12.2105 27.133 12.7151 27.9029 13.6133C28.4795 14.286 28.8668 15.1381 29.025 16.0572C29.1138 16.5728 29.5295 17 30.0527 17Z" fill="#FF6B01"/>
</svg>
