<svg width="50" height="50" viewBox="0 0 50 50" fill="none" xmlns="http://www.w3.org/2000/svg">
<path fill-rule="evenodd" clip-rule="evenodd" d="M14.0002 28.0885L14 28.1806L14.0002 32.7152C14.0002 36.1802 16.8363 39 20.3213 39L29.6801 39C33.1644 39 36 36.1807 36 32.7164L36 17.2848C36 13.8198 33.1639 11 29.6789 11L28.1383 11C28.1191 11 28.1001 11.0009 28.0813 11.0026L20.3459 11.039C16.8542 11.0554 14.0303 13.8705 14.0229 17.3421L14.0013 27.5728C14.0006 27.585 14.0002 27.5972 14.0002 27.6096L14.0002 28.0885ZM15.2147 27.4696L15.2361 17.3447C15.242 14.5359 17.5267 12.2584 20.3517 12.2451L28.0049 12.2091C28.0478 12.2186 28.0925 12.2236 28.1383 12.2236L29.6789 12.2236C32.4862 12.2235 34.7694 14.4935 34.7694 17.2848L34.7694 32.7164C34.7694 35.507 32.4868 37.7765 29.6801 37.7765L20.3213 37.7765C17.514 37.7765 15.2308 35.5065 15.2308 32.7152L15.2308 27.6096C15.2308 27.5614 15.2252 27.5146 15.2147 27.4696Z" fill="white" stroke="white" stroke-width="0.6"/>
<path fill-rule="evenodd" clip-rule="evenodd" d="M16.0002 19.4267L16 19.4991L16.0002 23.062C16.0002 25.7844 18.3206 28 21.172 28L28.8291 28C31.68 28 34 25.7848 34 23.0629L34 10.938C34 8.21556 31.6795 6 28.8282 6L27.5677 6C27.552 6 27.5364 6.00069 27.521 6.00203L21.1921 6.03061C18.3353 6.04351 16.0248 8.25536 16.0188 10.9831L16.0011 19.0215C16.0005 19.0311 16.0002 19.0407 16.0002 19.0504L16.0002 19.4267ZM16.9938 18.9404L17.0113 10.9851C17.0162 8.77822 18.8855 6.98874 21.1968 6.9783L27.4586 6.95003C27.4937 6.95745 27.5302 6.96136 27.5677 6.96136L28.8282 6.96136C31.1251 6.96136 32.9931 8.74492 32.9931 10.938L32.9931 23.0629C32.9931 25.2555 31.1255 27.0386 28.8291 27.0386L21.172 27.0386C18.8751 27.0386 17.007 25.2551 17.007 23.062L17.007 19.0504C17.007 19.0125 17.0025 18.9757 16.9938 18.9404Z" fill="#0285CB" stroke="#0285CB" stroke-width="0.8"/>
<path d="M18.5 12L15 14.5V32L15.5 36L19 38.5H30L33.5 37L35.5 34V25V18.5L34.5 14L32 12L26.5 11.5L18.5 12Z" fill="white"/>
<path fill-rule="evenodd" clip-rule="evenodd" d="M35.9998 21.9115L36 21.8194L35.9998 17.2848C35.9998 13.8198 33.1637 11 29.6787 11L20.3199 11C16.8356 11 14 13.8193 14 17.2836L14 32.7152C14 36.1802 16.8361 39 20.3211 39L21.8617 39C21.8809 39 21.8999 38.9991 21.9187 38.9974L29.6541 38.961C33.1458 38.9446 35.9697 36.1295 35.9771 32.6579L35.9987 22.4272C35.9994 22.415 35.9998 22.4028 35.9998 22.3904L35.9998 21.9115ZM34.7853 22.5304L34.7639 32.6553C34.758 35.4641 32.4733 37.7416 29.6483 37.7549L21.9951 37.7909C21.9521 37.7814 21.9075 37.7764 21.8617 37.7764L20.3211 37.7764C17.5138 37.7764 15.2306 35.5065 15.2306 32.7152L15.2306 17.2836C15.2306 14.493 17.5132 12.2235 20.3199 12.2235L29.6787 12.2235C32.486 12.2235 34.7692 14.4935 34.7692 17.2848L34.7692 22.3904C34.7692 22.4386 34.7748 22.4854 34.7853 22.5304Z" fill="white" stroke="white" stroke-width="0.6"/>
<path fill-rule="evenodd" clip-rule="evenodd" d="M33.9998 30.5733L34 30.5009L33.9998 26.938C33.9998 24.2156 31.6794 22 28.828 22L21.1709 22C18.32 22 16 24.2152 16 26.9371L16 39.062C16 41.7844 18.3205 44 21.1718 44L22.4323 44C22.448 44 22.4636 43.9993 22.4789 43.998L28.8079 43.9694C31.6647 43.9565 33.9752 41.7446 33.9812 39.0169L33.9989 30.9785C33.9995 30.9689 33.9998 30.9593 33.9998 30.9496L33.9998 30.5733ZM33.0062 31.0596L32.9887 39.0149C32.9838 41.2218 31.1145 43.0113 28.8032 43.0217L22.5414 43.05C22.5063 43.0426 22.4698 43.0386 22.4323 43.0386L21.1718 43.0386C18.8749 43.0386 17.0069 41.2551 17.0069 39.062L17.0069 26.9371C17.0069 24.7445 18.8745 22.9614 21.1709 22.9614L28.828 22.9614C31.1249 22.9614 32.993 24.7449 32.993 26.938L32.993 30.9496C32.993 30.9875 32.9975 31.0243 33.0062 31.0596Z" fill="#0285CB" stroke="#0285CB" stroke-width="0.8"/>
<path d="M31.5 38L35 35.5L35 18L34.5 14L31 11.5L20 11.5L16.5 13L14.5 16L14.5 25L14.5 31.5L15.5 36L18 38L23.5 38.5L31.5 38Z" fill="white"/>
<path d="M20.0728 31.3108V18.6892C20.0728 14.4425 24.5173 11 30 11H23.9554C18.4572 11 14 14.4439 14 18.6923V31.3077C14 35.556 18.4572 39 23.9554 39H30C24.5173 39 20.0728 35.5575 20.0728 31.3108Z" fill="#C3E9FE"/>
<path fill-rule="evenodd" clip-rule="evenodd" d="M14.0002 28.0885L14 28.1806L14.0002 32.7152C14.0002 36.1802 16.8363 39 20.3213 39L29.6801 39C33.1644 39 36 36.1807 36 32.7164L36 17.2848C36 13.8198 33.1639 11 29.6789 11L28.1383 11C28.1191 11 28.1001 11.0009 28.0813 11.0026L20.3459 11.039C16.8542 11.0554 14.0303 13.8705 14.0229 17.3421L14.0013 27.5728C14.0006 27.585 14.0002 27.5972 14.0002 27.6096L14.0002 28.0885ZM15.2147 27.4696L15.2361 17.3447C15.242 14.5359 17.5267 12.2584 20.3517 12.2451L28.0049 12.2091C28.0478 12.2186 28.0925 12.2236 28.1383 12.2236L29.6789 12.2236C32.4862 12.2235 34.7694 14.4935 34.7694 17.2848L34.7694 32.7164C34.7694 35.507 32.4868 37.7765 29.6801 37.7765L20.3213 37.7765C17.514 37.7765 15.2308 35.5065 15.2308 32.7152L15.2308 27.6096C15.2308 27.5614 15.2252 27.5146 15.2147 27.4696Z" fill="#0285CB" stroke="#0285CB" stroke-width="0.6"/>
<path d="M38.5 29.5V22.5C38.5 21.6716 37.8284 21 37 21C36.1716 21 35.5 21.6716 35.5 22.5V29.5C35.5 30.3284 36.1716 31 37 31C37.8284 31 38.5 30.3284 38.5 29.5Z" stroke="#0285CB" stroke-width="1.8"/>
<line x1="23.5" y1="19" x2="26.5" y2="19" stroke="#FF6B01" stroke-width="2" stroke-linecap="round"/>
<line x1="23.5" y1="26" x2="26.5" y2="26" stroke="#FF6B01" stroke-width="2" stroke-linecap="round"/>
<line x1="23.5" y1="33" x2="26.5" y2="33" stroke="#FF6B01" stroke-width="2" stroke-linecap="round"/>
</svg>
