<svg width="50" height="50" viewBox="0 0 50 50" fill="none" xmlns="http://www.w3.org/2000/svg">
<path d="M13.9252 36.9363V13.3838C13.9252 8.60495 17.7897 4.73096 22.557 4.73096H17.3012C12.5203 4.73096 8.64478 8.60651 8.64478 13.3874V36.9328C8.64478 41.7135 12.5203 45.5892 17.3012 45.5892H22.557C17.7897 45.5892 13.9252 41.7152 13.9252 36.9363Z" fill="#C3E9FE"/>
<path fill-rule="evenodd" clip-rule="evenodd" d="M33.3155 46.5206H17.3877C12.1018 46.5206 7.80005 42.2188 7.80005 36.9329V13.3875C7.80005 8.10154 12.1018 3.7998 17.3877 3.7998H33.3155C38.6014 3.7998 42.9032 8.10154 42.9032 13.3875V36.9329C42.9032 42.2188 38.6014 46.5206 33.3155 46.5206ZM17.3877 5.66236C13.1274 5.66236 9.66261 9.12714 9.66261 13.3875V36.9329C9.66261 41.1932 13.1274 44.658 17.3877 44.658H33.3155C37.5758 44.658 41.0406 41.1932 41.0406 36.9329V13.3875C41.0406 9.12714 37.5758 5.66236 33.3155 5.66236H17.3877ZM32.9692 10.5518C33.4836 10.5518 33.9005 10.9687 33.9005 11.4831C33.9005 14.3824 31.5404 16.7426 28.641 16.7426H22.0622C19.1628 16.7426 16.8027 14.3824 16.8027 11.4831C16.8027 10.9687 17.2196 10.5518 17.734 10.5518C18.2483 10.5518 18.6653 10.9687 18.6653 11.4831C18.6653 13.3568 20.1884 14.88 22.0622 14.88H28.641C30.5148 14.88 32.038 13.3568 32.038 11.4831C32.038 10.9687 32.4549 10.5518 32.9692 10.5518Z" fill="#0285CB"/>
<path d="M31.3435 26.2788C31.7208 25.9087 32.3345 25.9069 32.7142 26.2746C33.0939 26.6424 33.0958 27.2406 32.7185 27.6106L27.3326 32.8931C26.6063 33.6071 25.6408 34 24.6116 34C23.5825 34 22.6172 33.6075 21.8898 32.8924L19.2812 30.3278C18.9043 29.9573 18.9069 29.3591 19.2871 28.9918C19.5678 28.7205 19.9759 28.651 20.3219 28.7824C20.4445 28.8289 20.5592 28.9006 20.6578 28.9975L23.2664 31.5621C23.6249 31.9145 24.1037 32.1105 24.6116 32.1105C25.1193 32.1105 25.5983 31.9143 25.9568 31.5621L31.3435 26.2788Z" fill="#FF6B01"/>
</svg>
