<svg width="50" height="50" viewBox="0 0 50 50" fill="none" xmlns="http://www.w3.org/2000/svg">
<path d="M22.581 47.5002H17.3136C12.5668 47.5002 8.71875 44.4336 8.71875 39.6868V19.133C8.71875 16.8535 9.6243 12.6673 11.2362 11.0555L18.1266 5.95379C21.4241 2.65629 25.1318 2.77215 28.5 5.95371C26.0952 5.77786 24.1669 5.71298 22.3281 7.55176L14.8927 14.9872C14.3125 15.5675 14.0476 18.3545 14.0476 19.1751V39.6867C14.0476 44.4335 17.8344 47.4999 22.581 47.5002Z" fill="#C3E9FE"/>
<path d="M27.5539 3.6759C24.918 1.47262 21.0828 1.47262 18.4469 3.6759L10.0882 10.6628C8.70168 11.8218 7.90039 13.5359 7.90039 15.343V42C7.90039 45.369 10.6315 48.1 14.0004 48.1L25.103 48.1C25.6557 48.1 26.1004 47.6519 26.1004 47.1C26.1004 46.5478 25.6527 46.1 25.1004 46.1H14.0004C11.736 46.1 9.90039 44.2644 9.90039 42V15.343C9.90039 14.1284 10.439 12.9763 11.3709 12.1973L19.7296 5.21042C21.6229 3.62778 24.3778 3.62778 26.2712 5.21042L34.6299 12.1973C35.5618 12.9763 36.1004 14.1284 36.1004 15.343V24.1C36.1004 24.6523 36.5481 25.1 37.1004 25.1C37.6527 25.1 38.1004 24.6523 38.1004 24.1V15.343C38.1004 13.5359 37.2991 11.8218 35.9126 10.6628L27.5539 3.6759Z" fill="#0285CB"/>
<path d="M22.4434 15.4429C21.3388 15.4429 20.4434 16.3383 20.4434 17.4429C20.4434 18.5474 21.3388 19.4429 22.4434 19.4429C23.5479 19.4429 24.4434 18.5474 24.4434 17.4429C24.4434 16.3383 23.5479 15.4429 22.4434 15.4429Z" fill="#0285CB"/>
<circle cx="36" cy="37" r="7.5" fill="#FF6B01"/>
<path d="M30.5 37C30.5 33.2445 33.3071 30.1446 36.9375 29.6841C36.6305 29.6451 36.3176 29.625 36 29.625C31.9269 29.625 28.625 32.9269 28.625 37C28.625 41.0731 31.9269 44.375 36 44.375C36.3176 44.375 36.6305 44.3549 36.9375 44.3159C33.3071 43.8554 30.5 40.7555 30.5 37Z" fill="#FF6B01"/>
<path d="M33.5 38.75C34.25 39.75 36.5 41.75 38.75 38.75" stroke="white" stroke-linecap="round"/>
<path d="M33.25 34.1562C33.6815 34.1562 34.0312 34.506 34.0312 34.9375C34.0312 35.369 33.6815 35.7188 33.25 35.7188C32.8185 35.7188 32.4688 35.369 32.4688 34.9375C32.4688 34.506 32.8185 34.1562 33.25 34.1562ZM37.9375 34.9375C37.9375 35.369 38.2873 35.7188 38.7188 35.7188C39.1502 35.7188 39.5 35.369 39.5 34.9375C39.5 34.506 39.1502 34.1562 38.7188 34.1562C38.2873 34.1562 37.9375 34.506 37.9375 34.9375Z" fill="white"/>
</svg>
