<svg width="50" height="50" viewBox="0 0 50 50" fill="none" xmlns="http://www.w3.org/2000/svg">
<path d="M22.581 47.5002H17.3136C12.5668 47.5002 8.71875 44.4336 8.71875 39.6868V19.133C8.71875 16.8535 9.6243 12.6673 11.2362 11.0555L18.1266 5.95379C21.4241 2.65629 25.1318 2.77215 28.5 5.95371C26.0952 5.77786 24.1669 5.71298 22.3281 7.55176L14.8927 14.9872C14.3125 15.5675 14.0476 18.3545 14.0476 19.1751V39.6867C14.0476 44.4335 17.8344 47.4999 22.581 47.5002Z" fill="#C3E9FE"/>
<path d="M27.5539 3.6759C24.918 1.47262 21.0828 1.47262 18.4469 3.6759L10.0882 10.6628C8.70168 11.8218 7.90039 13.5359 7.90039 15.343V42C7.90039 45.369 10.6315 48.1 14.0004 48.1L25.103 48.1C25.6557 48.1 26.1004 47.6519 26.1004 47.1C26.1004 46.5478 25.6527 46.1 25.1004 46.1H14.0004C11.736 46.1 9.90039 44.2644 9.90039 42V15.343C9.90039 14.1284 10.439 12.9763 11.3709 12.1973L19.7296 5.21042C21.6229 3.62778 24.3778 3.62778 26.2712 5.21042L34.6299 12.1973C35.5618 12.9763 36.1004 14.1284 36.1004 15.343V24.1C36.1004 24.6523 36.5481 25.1 37.1004 25.1C37.6527 25.1 38.1004 24.6523 38.1004 24.1V15.343C38.1004 13.5359 37.2991 11.8218 35.9126 10.6628L27.5539 3.6759Z" fill="#0285CB"/>
<path d="M22.4434 15.4429C21.3388 15.4429 20.4434 16.3383 20.4434 17.4429C20.4434 18.5474 21.3388 19.4429 22.4434 19.4429C23.5479 19.4429 24.4434 18.5474 24.4434 17.4429C24.4434 16.3383 23.5479 15.4429 22.4434 15.4429Z" fill="#0285CB"/>
<path fill-rule="evenodd" clip-rule="evenodd" d="M31.5 31.5H36.5V33H31.5V31.5ZM30 33V30H38V33H39.6035C40.3716 33 40.9965 33.6249 40.9965 34.393C40.9965 34.4684 40.9974 34.5431 40.9983 34.6173C41.0054 35.2207 41.0122 35.7917 40.5392 36.422C40.2401 36.8206 39.829 37.105 39.3504 37.2444L34.7032 38.5974C34.243 38.7314 33.7566 38.7314 33.2965 38.5974L28.6493 37.2444C28.1707 37.105 27.7596 36.8206 27.4605 36.422C26.9885 35.7929 26.9948 35.2261 27.0016 34.6153C27.0024 34.5419 27.0032 34.4679 27.0032 34.393C27.0032 33.6249 27.6282 33 28.3963 33H30ZM37.1307 39.5664L37.1302 39.5665L37.1302 39.5665C34.5838 40.3142 34.5199 40.333 34.0005 40.333C33.4832 40.333 33.478 40.3314 30.8814 39.5694C30.2326 39.379 29.4222 39.1412 28.4016 38.844C27.8632 38.6872 27.3865 38.3983 27.0039 38V42.2643C27.0039 43.0324 27.6288 43.6573 28.3969 43.6573H39.6042C40.3723 43.6573 40.9972 43.0324 40.9972 42.2643V38C40.6146 38.3983 40.1378 38.6872 39.5995 38.844C38.5844 39.1395 37.7775 39.3765 37.1307 39.5664Z" fill="#FF6B01"/>
</svg>
