<svg width="50" height="50" viewBox="0 0 50 50" fill="none" xmlns="http://www.w3.org/2000/svg">
<path d="M9.45113 36.5676V13.3921C9.45113 8.45872 13.4406 4.45947 18.362 4.45947H12.9363C8.00086 4.45947 4 8.46033 4 13.3957L4 36.5639C4 41.4992 8.00086 45.5002 12.9363 45.5002H18.362C13.4406 45.5002 9.45113 41.5009 9.45113 36.5676Z" fill="#C3E9FE"/>
<path d="M18.0798 25.028C18.1532 24.8447 18.2558 24.709 18.3878 24.621C18.5272 24.5257 18.6775 24.478 18.8388 24.478C19.0808 24.478 19.2972 24.5623 19.4878 24.731C19.6785 24.8923 19.7738 25.0903 19.7738 25.325C19.7738 25.435 19.7445 25.556 19.6858 25.688L17.9038 29.505C17.8232 29.6883 17.6985 29.8313 17.5298 29.934C17.3685 30.0293 17.1888 30.077 16.9908 30.077C16.7928 30.077 16.6132 30.0293 16.4518 29.934C16.2905 29.8313 16.1695 29.6883 16.0888 29.505L15.0438 27.184L14.0648 29.505C13.9915 29.6883 13.8705 29.8313 13.7018 29.934C13.5405 30.0293 13.3608 30.077 13.1628 30.077C12.9648 30.077 12.7815 30.0293 12.6128 29.934C12.4515 29.8313 12.3268 29.6883 12.2388 29.505L10.4678 25.688C10.4165 25.578 10.3908 25.4607 10.3908 25.336C10.3908 25.094 10.4898 24.8923 10.6878 24.731C10.8932 24.5623 11.1205 24.478 11.3698 24.478C11.5458 24.478 11.7035 24.5257 11.8428 24.621C11.9895 24.709 12.0995 24.8483 12.1728 25.039L13.2178 27.58L14.2848 25.05C14.3582 24.8667 14.4718 24.7273 14.6258 24.632C14.7798 24.5367 14.9448 24.489 15.1208 24.489C15.2968 24.489 15.4618 24.5367 15.6158 24.632C15.7698 24.7273 15.8835 24.8667 15.9568 25.05L17.0568 27.591L18.0798 25.028ZM28.0026 25.028C28.0759 24.8447 28.1786 24.709 28.3106 24.621C28.4499 24.5257 28.6003 24.478 28.7616 24.478C29.0036 24.478 29.2199 24.5623 29.4106 24.731C29.6013 24.8923 29.6966 25.0903 29.6966 25.325C29.6966 25.435 29.6673 25.556 29.6086 25.688L27.8266 29.505C27.7459 29.6883 27.6213 29.8313 27.4526 29.934C27.2913 30.0293 27.1116 30.077 26.9136 30.077C26.7156 30.077 26.5359 30.0293 26.3746 29.934C26.2133 29.8313 26.0923 29.6883 26.0116 29.505L24.9666 27.184L23.9876 29.505C23.9143 29.6883 23.7933 29.8313 23.6246 29.934C23.4633 30.0293 23.2836 30.077 23.0856 30.077C22.8876 30.077 22.7043 30.0293 22.5356 29.934C22.3743 29.8313 22.2496 29.6883 22.1616 29.505L20.3906 25.688C20.3393 25.578 20.3136 25.4607 20.3136 25.336C20.3136 25.094 20.4126 24.8923 20.6106 24.731C20.8159 24.5623 21.0433 24.478 21.2926 24.478C21.4686 24.478 21.6263 24.5257 21.7656 24.621C21.9123 24.709 22.0223 24.8483 22.0956 25.039L23.1406 27.58L24.2076 25.05C24.2809 24.8667 24.3946 24.7273 24.5486 24.632C24.7026 24.5367 24.8676 24.489 25.0436 24.489C25.2196 24.489 25.3846 24.5367 25.5386 24.632C25.6926 24.7273 25.8063 24.8667 25.8796 25.05L26.9796 27.591L28.0026 25.028ZM37.9254 25.028C37.9987 24.8447 38.1014 24.709 38.2334 24.621C38.3727 24.5257 38.5231 24.478 38.6844 24.478C38.9264 24.478 39.1427 24.5623 39.3334 24.731C39.5241 24.8923 39.6194 25.0903 39.6194 25.325C39.6194 25.435 39.5901 25.556 39.5314 25.688L37.7494 29.505C37.6687 29.6883 37.5441 29.8313 37.3754 29.934C37.2141 30.0293 37.0344 30.077 36.8364 30.077C36.6384 30.077 36.4587 30.0293 36.2974 29.934C36.1361 29.8313 36.0151 29.6883 35.9344 29.505L34.8894 27.184L33.9104 29.505C33.8371 29.6883 33.7161 29.8313 33.5474 29.934C33.3861 30.0293 33.2064 30.077 33.0084 30.077C32.8104 30.077 32.6271 30.0293 32.4584 29.934C32.2971 29.8313 32.1724 29.6883 32.0844 29.505L30.3134 25.688C30.2621 25.578 30.2364 25.4607 30.2364 25.336C30.2364 25.094 30.3354 24.8923 30.5334 24.731C30.7387 24.5623 30.9661 24.478 31.2154 24.478C31.3914 24.478 31.5491 24.5257 31.6884 24.621C31.8351 24.709 31.9451 24.8483 32.0184 25.039L33.0634 27.58L34.1304 25.05C34.2037 24.8667 34.3174 24.7273 34.4714 24.632C34.6254 24.5367 34.7904 24.489 34.9664 24.489C35.1424 24.489 35.3074 24.5367 35.4614 24.632C35.6154 24.7273 35.7291 24.8667 35.8024 25.05L36.9024 27.591L37.9254 25.028Z" fill="#FF6B01"/>
<rect x="3.95" y="4.95" width="42.1" height="40.1" rx="7.05" stroke="#0285CB" stroke-width="1.9"/>
<line x1="4" y1="12.05" x2="46" y2="12.05" stroke="#0285CB" stroke-width="1.9"/>
<circle cx="11" cy="9" r="1" fill="#0285CB"/>
<circle cx="16" cy="9" r="1" fill="#0285CB"/>
<circle cx="21" cy="9" r="1" fill="#0285CB"/>
</svg>
