<svg width="36" height="36" viewBox="0 0 36 36" fill="none" xmlns="http://www.w3.org/2000/svg">
<path d="M11.6274 13.7812C11.6274 8.744 15.1026 5.04732 19.677 4.30781C19.1322 4.21975 18.5719 4.17334 17.9999 4.17188C12.6256 4.18559 8.27344 8.14418 8.27344 13.7812C8.27344 20.7832 15.1491 25.9688 15.1491 25.9688H20.4023C20.4023 25.9688 11.6274 20.4023 11.6274 13.7812Z" fill="#A8E1FF"/>
<path d="M14.7289 29.1346C15.2136 28.9783 15.733 29.2444 15.8893 29.729L16.2692 30.9065H19.6727L20.0525 29.729C20.1245 29.5059 20.2734 29.3292 20.4605 29.2187C20.6797 29.0891 20.9514 29.0504 21.2129 29.1346C21.6974 29.291 21.9635 29.8105 21.8072 30.295L21.2213 32.1114C21.0984 32.4922 20.744 32.7503 20.3439 32.7503H15.5978C15.1977 32.7503 14.8433 32.4922 14.7205 32.1114L14.1346 30.295C13.9783 29.8105 14.2444 29.2909 14.7289 29.1346Z" fill="#0285CB"/>
<path d="M30.0703 10.3242C30.0703 9.51521 30.7262 8.85938 31.5352 8.85938C32.3442 8.85938 33 9.51521 33 10.3242C33 11.1332 32.3442 11.7891 31.5352 11.7891C30.7262 11.7891 30.0703 11.1332 30.0703 10.3242ZM32.8242 16.9453C32.8242 17.7543 32.1684 18.4102 31.3594 18.4102C30.5504 18.4102 29.8945 17.7543 29.8945 16.9453C29.8945 16.1363 30.5504 15.4805 31.3594 15.4805C32.1684 15.4805 32.8242 16.1363 32.8242 16.9453ZM3 10.3242C3 9.51521 3.65584 8.85938 4.46484 8.85938C5.27385 8.85938 5.92969 9.51521 5.92969 10.3242C5.92969 11.1332 5.27385 11.7891 4.46484 11.7891C3.65584 11.7891 3 11.1332 3 10.3242ZM6.16406 16.9453C6.16406 17.7543 5.50822 18.4102 4.69922 18.4102C3.89021 18.4102 3.23438 17.7543 3.23438 16.9453C3.23438 16.1363 3.89021 15.4805 4.69922 15.4805C5.50822 15.4805 6.16406 16.1363 6.16406 16.9453ZM8.85938 4.46484C8.85938 5.27385 8.20354 5.92969 7.39453 5.92969C6.58553 5.92969 5.92969 5.27385 5.92969 4.46484C5.92969 3.65584 6.58553 3 7.39453 3C8.20354 3 8.85938 3.65584 8.85938 4.46484ZM30.1875 4.46484C30.1875 5.27385 29.5317 5.92969 28.7227 5.92969C27.9137 5.92969 27.2578 5.27385 27.2578 4.46484C27.2578 3.65584 27.9137 3 28.7227 3C29.5317 3 30.1875 3.65584 30.1875 4.46484Z" fill="#FF6B01"/>
<path fill-rule="evenodd" clip-rule="evenodd" d="M17.6001 8.5001C17.6001 8.00304 18.003 7.6001 18.5001 7.6001C20.1113 7.6001 21.5972 8.55392 22.644 9.87992C23.7024 11.2206 24.4001 13.0406 24.4001 15.0001C24.4001 15.4972 23.9972 15.9001 23.5001 15.9001C23.003 15.9001 22.6001 15.4972 22.6001 15.0001C22.6001 13.4596 22.0478 12.0296 21.2312 10.9953C20.403 9.94628 19.3889 9.4001 18.5001 9.4001C18.003 9.4001 17.6001 8.99715 17.6001 8.5001Z" fill="#FF6B01"/>
<path d="M21.774 25.823C21.589 25.9985 21.3339 26.1 21.0567 26.1H14.9433C14.6661 26.1 14.411 25.9985 14.226 25.823C11.1948 22.949 7.9 18.7133 7.9 14C7.9 8.42192 12.4219 3.9 18 3.9C23.5781 3.9 28.1 8.42192 28.1 14C28.1 18.7133 24.8052 22.949 21.774 25.823Z" stroke="#0285CB" stroke-width="1.8"/>
</svg>
