<svg width="50" height="50" viewBox="0 0 50 50" fill="none" xmlns="http://www.w3.org/2000/svg">
<path d="M12.2867 45.1684C7.69231 44.7701 4.08716 40.915 4.08716 36.2174V21.097C4.08716 18.2943 5.39494 15.652 7.62348 13.9523L19.844 4.6315C23.0624 2.17687 27.5245 2.17687 30.7428 4.6315L31.5695 5.26202C29.3626 5.04421 27.0921 5.64158 25.2355 7.05763L10.7017 18.1428C9.93092 18.7306 9.47858 19.6445 9.47858 20.6139V38.6435C9.47858 41.2132 10.5575 43.5307 12.2867 45.1684Z" fill="#C3E9FE"/>
<path fill-rule="evenodd" clip-rule="evenodd" d="M30.5942 4L42.7942 13.4C45.1942 15.2 46.6942 18.2 46.5942 21.3V27.0407C46.5942 27.5705 46.1647 28 45.6349 28C45.1104 28 44.6831 27.5787 44.6757 27.0543L44.5942 21.3C44.5942 18.8 43.4942 16.4 41.4942 14.9L29.2942 5.6C27.9942 4.6 26.1942 4 24.4942 4C22.7942 4 20.9942 4.6 19.5942 5.6L7.39419 14.9C5.49419 16.4 4.29419 18.8 4.29419 21.3V36.3C4.29419 40.5 7.59419 44 11.8942 44.4C11.9379 44.4 11.9795 44.4021 12.0193 44.4064H17.8282C18.3528 44.4064 18.7782 44.8317 18.7782 45.3564C18.7782 45.881 18.3528 46.3064 17.8282 46.3064H11.8282C11.7907 46.3064 11.7538 46.3042 11.7175 46.3H11.6942C6.39419 46 2.29419 41.6 2.29419 36.3V21.3C2.29419 18.2 3.79419 15.2 6.19419 13.4L18.3942 4C20.1942 2.7 22.2942 2 24.4942 2C26.6942 2 28.8942 2.7 30.5942 4Z" fill="#0285CB"/>
<rect x="22.9493" y="26.95" width="15.1" height="15.1" rx="4.05" stroke="#FF6B01" stroke-width="1.9"/>
<line x1="16.9493" y1="18.05" x2="31.0493" y2="18.05" stroke="#0285CB" stroke-width="1.9" stroke-linecap="round"/>
<rect x="30.9493" y="32.95" width="15.1" height="15.1" rx="4.05" fill="white" stroke="#FF6B01" stroke-width="1.9"/>
<circle cx="35.5" cy="43.5" r="1.5" fill="#FF6B01"/>
<circle cx="39.5" cy="43.5" r="1.5" fill="#FF6B01"/>
</svg>
