<svg width="50" height="50" viewBox="0 0 50 50" fill="none" xmlns="http://www.w3.org/2000/svg">
<path d="M13.4872 43.1375C12.7457 43.6212 11.8607 43.9033 10.9095 43.9033C8.2994 43.9033 6.18358 41.7874 6.18358 39.1774C6.18358 36.5674 8.2994 34.4515 10.9095 34.4515C11.8607 34.4515 12.7457 34.7336 13.4872 35.2173C12.1944 36.0605 11.3391 37.5187 11.3391 39.1774C11.3391 40.8361 12.1943 42.2942 13.4872 43.1375ZM10.8235 15.462C11.7748 15.462 12.6598 15.1799 13.4013 14.6963C12.1085 13.853 11.2532 12.3948 11.2532 10.7361C11.2532 9.07744 12.1085 7.61929 13.4013 6.77602C12.6598 6.29235 11.7748 6.01025 10.8235 6.01025C8.21348 6.01025 6.09766 8.12616 6.09766 10.7361C6.09766 13.3461 8.21348 15.462 10.8235 15.462ZM39.8663 39.2633C39.8663 37.6046 40.7216 36.1465 42.0144 35.3032C41.2729 34.8195 40.3879 34.5374 39.4366 34.5374C36.8266 34.5374 34.7107 36.6533 34.7107 39.2633C34.7107 41.8734 36.8266 43.9892 39.4366 43.9892C40.3879 43.9892 41.2729 43.7071 42.0144 43.2234C40.7215 42.3802 39.8663 40.922 39.8663 39.2633ZM39.3507 15.462C40.302 15.462 41.1869 15.1799 41.9285 14.6963C40.6356 13.853 39.7803 12.3948 39.7803 10.7361C39.7803 9.07744 40.6356 7.61929 41.9285 6.77602C41.1869 6.29235 40.302 6.01025 39.3507 6.01025C36.7406 6.01025 34.6248 8.12616 34.6248 10.7361C34.6248 13.3461 36.7406 15.462 39.3507 15.462Z" fill="#C3E9FE"/>
<path d="M25.2258 33.3001C25.7258 33.3001 26.1258 32.9001 26.1258 32.4001V31.5001L26.7258 31.3001C28.0258 30.8001 28.9258 29.5001 28.9258 28.1001C28.9258 26.2001 27.3258 24.7001 25.2258 24.7001C23.9258 24.7001 22.9258 24.0001 22.9258 23.0001C22.9258 22.1001 23.7258 21.3001 24.6258 21.3001C25.3258 21.3001 26.1258 21.4001 27.5258 21.9001C27.9258 22.1001 28.5258 21.8001 28.6258 21.4001C28.7258 21.2001 28.7258 21.0001 28.6258 20.7001C28.5258 20.5001 28.3258 20.3001 28.1258 20.2001C27.6258 20.0001 27.1258 19.9001 26.7258 19.7001L26.1258 19.5001V18.5001C26.1258 18.0001 25.7258 17.6001 25.2258 17.6001C24.7258 17.6001 24.3258 18.0001 24.3258 18.5001V19.3001L23.7258 19.5001C22.2258 19.9001 21.1258 21.3001 21.1258 22.8001C21.1258 24.8001 22.8258 26.2001 25.1258 26.2001C26.2258 26.2001 27.1258 27.0001 27.1258 27.9001C27.1258 28.8001 26.3258 29.6001 25.4258 29.6001C24.9258 29.6001 23.6258 29.5001 22.2258 28.9001C22.1258 28.9001 22.0258 28.8001 21.9258 28.8001C21.5258 28.8001 21.2258 29.0001 21.1258 29.3001C21.0258 29.5001 21.0258 29.7001 21.1258 30.0001C21.2258 30.2001 21.4258 30.4001 21.6258 30.5001C22.3258 30.8001 23.0258 31.0001 23.7258 31.1001L24.4258 31.2001V32.1001C24.4258 32.9001 24.8258 33.3001 25.2258 33.3001Z" fill="#FF6B01"/>
<path d="M44.9001 30.1997C45.4001 30.2997 45.9001 29.9997 46.0001 29.4997C46.6001 26.5997 46.6001 23.6997 46.0001 20.8997C45.9001 20.4997 45.5001 20.1997 45.1001 20.1997C45.0001 20.1997 45.0001 20.1997 44.9001 20.1997C44.4001 20.2997 44.1001 20.7997 44.2001 21.2997C44.7001 23.8997 44.8001 26.5997 44.2001 29.1997C44.2001 29.3997 44.2001 29.6997 44.3001 29.8997C44.4001 29.9997 44.6001 30.1997 44.9001 30.1997Z" fill="#0285CB"/>
<path d="M30.0999 4.8998C29.9999 4.6998 29.7999 4.5998 29.4999 4.4998C26.5999 3.8998 23.6999 3.8998 20.8999 4.4998C20.6999 4.4998 20.4999 4.6998 20.2999 4.8998C20.1999 5.0998 20.0999 5.3998 20.1999 5.5998C20.2999 6.0998 20.7999 6.3998 21.2999 6.2998C22.5999 5.9998 23.8999 5.8998 25.1999 5.8998C26.4999 5.8998 27.8999 5.9998 29.1999 6.2998C29.6999 6.3998 30.1999 6.0998 30.2999 5.5998C30.2999 5.2998 30.1999 5.0998 30.0999 4.8998Z" fill="#0285CB"/>
<path d="M39.6 33.7998C36.5 33.7998 34 36.2998 34 39.3998C34 42.4998 36.5 44.9998 39.6 44.9998C42.7 44.9998 45.2 42.4998 45.2 39.3998C45.2 36.2998 42.7 33.7998 39.6 33.7998ZM39.6 43.2998C37.5 43.2998 35.8 41.5998 35.8 39.4998C35.8 37.3998 37.5 35.6998 39.6 35.6998C41.7 35.6998 43.4 37.3998 43.4 39.4998C43.4 41.5998 41.7 43.2998 39.6 43.2998Z" fill="#0285CB"/>
<path d="M39.4999 5.2998C36.3999 5.2998 33.8999 7.79981 33.8999 10.8998C33.8999 13.9998 36.3999 16.4998 39.4999 16.4998C42.5999 16.4998 45.0999 13.9998 45.0999 10.8998C45.0999 7.79981 42.6999 5.2998 39.4999 5.2998ZM39.4999 14.6998C37.3999 14.6998 35.6999 12.9998 35.6999 10.8998C35.6999 8.79981 37.3999 7.0998 39.4999 7.0998C41.5999 7.0998 43.2999 8.79981 43.2999 10.8998C43.2999 12.9998 41.5999 14.6998 39.4999 14.6998Z" fill="#0285CB"/>
<path d="M29.2001 44.1998C26.6001 44.6998 23.9001 44.6998 21.3001 44.1998C21.2001 44.1998 21.2001 44.1998 21.1001 44.1998C20.7001 44.1998 20.3001 44.4998 20.2001 44.8998C20.1001 45.3998 20.4001 45.8998 20.9001 45.9998C23.8001 46.5998 26.7001 46.5998 29.5001 45.9998C30.0001 45.8998 30.3001 45.3998 30.2001 44.8998C30.1001 44.3998 29.7001 44.0998 29.2001 44.1998Z" fill="#0285CB"/>
<path d="M10.9999 5.2998C7.8999 5.2998 5.3999 7.79981 5.3999 10.8998C5.3999 13.9998 7.8999 16.4998 10.9999 16.4998C14.0999 16.4998 16.5999 13.9998 16.5999 10.8998C16.5999 7.79981 14.0999 5.2998 10.9999 5.2998ZM10.9999 14.6998C8.8999 14.6998 7.1999 12.9998 7.1999 10.8998C7.1999 8.79981 8.8999 7.0998 10.9999 7.0998C13.0999 7.0998 14.7999 8.79981 14.7999 10.8998C14.7999 12.9998 13.0999 14.6998 10.9999 14.6998Z" fill="#0285CB"/>
<path d="M11.1 33.6997C8 33.6997 5.5 36.1997 5.5 39.2997C5.5 42.3997 8 44.9997 11.1 44.9997C14.2 44.9997 16.7 42.4997 16.7 39.3997C16.7 36.2997 14.2 33.6997 11.1 33.6997ZM11.1 43.1997C9 43.1997 7.3 41.4997 7.3 39.3997C7.3 37.2997 9 35.5997 11.1 35.5997C13.2 35.5997 14.9 37.2997 14.9 39.3997C14.9 41.4997 13.2 43.1997 11.1 43.1997Z" fill="#0285CB"/>
<path d="M6.19995 21.1996C6.19995 20.9996 6.19995 20.6996 6.09995 20.4996C5.99995 20.2996 5.79995 20.1996 5.49995 20.0996C5.39995 20.0996 5.39995 20.0996 5.29995 20.0996C4.89995 20.0996 4.49995 20.3996 4.39995 20.7996C3.79995 23.6996 3.79995 26.5996 4.39995 29.3996C4.59995 29.9996 4.99995 30.2996 5.49995 30.1996C5.69995 30.1996 5.89995 29.9996 6.09995 29.7996C6.19995 29.5996 6.29995 29.2996 6.19995 29.0996C5.69995 26.4996 5.69995 23.8996 6.19995 21.1996Z" fill="#0285CB"/>
</svg>
