<svg width="50" height="50" viewBox="0 0 50 50" fill="none" xmlns="http://www.w3.org/2000/svg">
<path d="M22.581 47.5002H17.3136C12.5668 47.5002 8.71875 44.4336 8.71875 39.6868V19.133C8.71875 16.8535 9.6243 12.6673 11.2362 11.0555L18.1266 5.95379C21.4241 2.65629 25.1318 2.77215 28.5 5.95371C26.0952 5.77786 24.1669 5.71298 22.3281 7.55176L14.8927 14.9872C14.3125 15.5675 14.0476 18.3545 14.0476 19.1751V39.6867C14.0476 44.4335 17.8344 47.4999 22.581 47.5002Z" fill="#C3E9FE"/>
<path d="M27.5539 3.6759C24.918 1.47262 21.0828 1.47262 18.4469 3.6759L10.0882 10.6628C8.70168 11.8218 7.90039 13.5359 7.90039 15.343V42C7.90039 45.369 10.6315 48.1 14.0004 48.1L25.103 48.1C25.6557 48.1 26.1004 47.6519 26.1004 47.1C26.1004 46.5478 25.6527 46.1 25.1004 46.1H14.0004C11.736 46.1 9.90039 44.2644 9.90039 42V15.343C9.90039 14.1284 10.439 12.9763 11.3709 12.1973L19.7296 5.21042C21.6229 3.62778 24.3778 3.62778 26.2712 5.21042L34.6299 12.1973C35.5618 12.9763 36.1004 14.1284 36.1004 15.343V24.1C36.1004 24.6523 36.5481 25.1 37.1004 25.1C37.6527 25.1 38.1004 24.6523 38.1004 24.1V15.343C38.1004 13.5359 37.2991 11.8218 35.9126 10.6628L27.5539 3.6759Z" fill="#0285CB"/>
<path d="M22.4434 15.4429C21.3388 15.4429 20.4434 16.3383 20.4434 17.4429C20.4434 18.5474 21.3388 19.4429 22.4434 19.4429C23.5479 19.4429 24.4434 18.5474 24.4434 17.4429C24.4434 16.3383 23.5479 15.4429 22.4434 15.4429Z" fill="#0285CB"/>
<path d="M34.9688 30C39.3628 30 43 33.5747 43 37.9688C43 42.3628 39.3628 46 34.9688 46C30.5747 46 27 42.3628 27 37.9688C27 33.5747 30.5747 30 34.9688 30Z" fill="#FF6B01"/>
<path fill-rule="evenodd" clip-rule="evenodd" d="M39.6691 35.2569C40.0796 35.6264 40.1127 36.2587 39.7431 36.6692L36.201 40.603C35.0511 41.8801 33.0654 41.932 31.8503 40.7169L30.7929 39.6595C30.4024 39.269 30.4024 38.6358 30.7929 38.2453C31.1834 37.8548 31.8166 37.8548 32.2071 38.2453L33.2645 39.3027C33.6695 39.7077 34.3314 39.6904 34.7147 39.2647L38.2569 35.3309C38.6264 34.9204 39.2587 34.8873 39.6691 35.2569Z" fill="white"/>
</svg>
