<svg width="50" height="50" viewBox="0 0 50 50" fill="none" xmlns="http://www.w3.org/2000/svg">
<path d="M4.84005 34.648L4.83998 34.6481C3.05786 35.6807 2.45338 37.9438 3.54466 39.6998L3.54471 39.6999C4.25811 40.8476 5.50628 41.4671 6.76489 41.4671C7.41784 41.4671 8.08174 41.3012 8.68459 40.9519L10.093 40.136C11.4538 41.3303 13.0809 42.243 14.8763 42.7813V44.3333C14.8763 46.3912 16.5938 48 18.6381 48C20.6824 48 22.3999 46.3912 22.3999 44.3333V42.7814C24.1469 42.2578 25.7358 41.3806 27.0746 40.2332L28.3155 40.9521L28.3155 40.9521C28.9184 41.3013 29.5821 41.4672 30.2351 41.4672C31.4936 41.4672 32.742 40.8478 33.4554 39.6999L33.4554 39.6999C34.5465 37.9437 33.9422 35.6805 32.16 34.648L30.9993 33.9757C31.2447 33.0224 31.3758 32.0256 31.3758 31C31.3758 29.9742 31.2446 28.9775 30.9993 28.0243L32.16 27.3518C33.9422 26.3194 34.5466 24.0561 33.4552 22.3001C32.3775 20.5663 30.0776 20.0264 28.3151 21.0484L27.0748 21.767C25.736 20.6194 24.147 19.7421 22.3999 19.2186V17.6667C22.3999 15.6088 20.6824 14 18.6381 14C16.5938 14 14.8763 15.6088 14.8763 17.6667V19.2187C13.0809 19.757 11.4538 20.6698 10.0929 21.864L8.68464 21.0481C8.6846 21.0481 8.68456 21.0481 8.68452 21.0481C6.92211 20.0268 4.62245 20.566 3.5448 22.3C2.45358 24.056 3.05789 26.3193 4.84005 27.3517C4.84005 27.3517 4.84006 27.3517 4.84007 27.3517L6.24148 28.1635C6.01882 29.0747 5.90036 30.0243 5.90036 31C5.90036 31.9755 6.0188 32.9251 6.24145 33.8362L4.84005 34.648ZM18.6381 36C15.7306 36 13.424 33.7234 13.424 31C13.424 28.2766 15.7306 26 18.6381 26C21.5456 26 23.8522 28.2766 23.8522 31C23.8522 33.7234 21.5456 36 18.6381 36Z" stroke="#FF6B01" stroke-width="2"/>
<path d="M32.4685 7.17191L32.4684 7.1719C31.1865 6.91458 29.9296 7.73726 29.7246 9.05876L29.7245 9.05885C29.5923 9.91158 29.9419 10.7227 30.5361 11.2404C30.8461 11.5105 31.2302 11.7087 31.6617 11.7953L32.1363 11.8906C32.2783 12.6219 32.5395 13.3364 32.9159 14.0029L32.6485 14.3098C31.7729 15.3147 31.9639 16.802 32.926 17.6403C33.8881 18.4785 35.3875 18.464 36.2631 17.4592L36.5304 17.1523C37.2182 17.4247 37.9359 17.5846 38.655 17.6319L38.7836 18.0007L38.7836 18.0008C38.9285 18.4163 39.1773 18.7695 39.4873 19.0397C40.0815 19.5574 40.9329 19.7928 41.7596 19.5449L41.7597 19.5449C43.0405 19.1608 43.6836 17.8032 43.253 16.5684L42.3088 16.8977L43.253 16.5684L43.1529 16.2812C43.4738 16.0322 43.7749 15.7494 44.0509 15.4327C44.3268 15.116 44.5657 14.7789 44.7684 14.427L45.0667 14.4869C45.0667 14.4869 45.0667 14.4869 45.0668 14.4869C46.3487 14.7443 47.6057 13.9215 47.8106 12.5999C48.0097 11.3159 47.1247 10.1143 45.8731 9.86349L45.4907 9.78671C45.3454 9.08073 45.0887 8.39168 44.7247 7.74764L44.992 7.4408C45.8676 6.43593 45.6767 4.9486 44.7146 4.11033C43.7525 3.27205 42.253 3.28656 41.3775 4.29144L41.11 4.59837C40.3983 4.31673 39.6547 4.15585 38.9109 4.11524L38.7516 3.65827C38.7516 3.65822 38.7516 3.65818 38.7516 3.65814C38.3316 2.45321 37.0206 1.74074 35.7757 2.11393C34.4948 2.4979 33.8517 3.85566 34.2823 5.09028C34.2823 5.09029 34.2823 5.0903 34.2823 5.09031L34.4301 5.51437C34.1307 5.75238 33.849 6.02022 33.5897 6.31789C33.3304 6.61549 33.1036 6.93112 32.9089 7.26034L32.4685 7.17191ZM37.5132 12.3755C36.5867 11.5682 36.5147 10.2586 37.2042 9.46726C37.8938 8.67589 39.2009 8.5679 40.1274 9.37513C41.0538 10.1824 41.1258 11.492 40.4363 12.2833C39.7468 13.0747 38.4396 13.1827 37.5132 12.3755Z" stroke="#0285CB" stroke-width="2"/>
</svg>
