<svg width="50" height="50" viewBox="0 0 50 50" fill="none" xmlns="http://www.w3.org/2000/svg">
<path d="M8.94466 40.7636V15.6529C8.94466 14.5238 9.39562 13.4414 10.1974 12.6463L16.9101 5.98897C18.5359 4.37664 20.7329 3.47195 23.0226 3.47195H39.2363C37.7855 2.38193 35.9824 1.73584 34.028 1.73584H17.8143C15.5245 1.73584 13.3275 2.64053 11.7017 4.25294L6.3043 9.60581C4.66081 11.2357 3.73633 13.4545 3.73633 15.7693V39.0275C3.73633 43.8215 7.62244 47.7078 12.4164 47.7081C10.3083 46.1243 8.94466 43.6033 8.94466 40.7636Z" fill="#C3E9FE"/>
<path fill-rule="evenodd" clip-rule="evenodd" d="M34.6502 25.332C34.1332 25.332 33.7141 24.9129 33.7141 24.3959V19.0347C33.7141 15.6731 30.9806 12.9396 27.6189 12.9396H16.1988C15.6818 12.9396 15.2627 12.5205 15.2627 12.0035C15.2627 11.4865 15.6818 11.0674 16.1988 11.0674H27.6189C32.0114 11.0674 35.5863 14.6423 35.5863 19.0347V24.3959C35.5863 24.9129 35.1672 25.332 34.6502 25.332Z" fill="#0285CB"/>
<path d="M37.9366 8.20208C37.582 7.82546 36.9896 7.80768 36.6133 8.16189L35.1376 9.55085C34.7611 9.90511 34.7431 10.4976 35.0974 10.874C35.2817 11.0698 35.5288 11.1686 35.7795 11.1686C36.0105 11.1686 36.2397 11.0845 36.4206 10.9142L37.8964 9.52523C38.2728 9.17098 38.2908 8.57855 37.9366 8.20208Z" fill="#0285CB"/>
<path d="M5.51771 9.19108L10.9153 3.83833C12.7294 2.03911 15.132 1.0498 17.687 1.0498H35.3451C40.647 1.0498 44.9617 5.36455 44.9617 10.6665V30.1105C44.9617 30.6275 44.5426 31.0466 44.0256 31.0466C43.5086 31.0466 43.0895 30.6275 43.0895 30.1105V10.6665C43.0895 6.39548 39.6161 2.92203 35.3451 2.92203H17.687C15.6319 2.92203 13.6928 3.7205 12.2336 5.16762L6.83608 10.5205C5.37908 11.9656 4.54507 13.9673 4.54507 16.0193V39.3382C4.54507 43.6092 8.01852 47.0826 12.2895 47.0826H23.0639C23.5809 47.0826 24 47.5017 24 48.0187C24 48.5357 23.5809 48.9548 23.0639 48.9548H12.2895C6.9876 48.9548 2.67285 44.6401 2.67285 39.3382V16.0193C2.67285 13.4745 3.71085 10.9831 5.51771 9.19108Z" fill="#0285CB"/>
<path d="M39.7439 33C43.2457 33 45.6954 36.1133 45.38 39.1893C47.4424 39.5902 49 41.3956 49 43.5556C49 46.0102 46.9907 48 44.5122 48H30.7683C27.9161 48 26 46.1471 26 43.8333C26 41.8984 27.376 39.9973 29.3659 39.6667C29.3659 36.3333 32.4512 34.9444 34.6951 36.0556C35.5366 34.3889 37.3464 33 39.7439 33Z" fill="#FF6B01"/>
<path d="M33 45H37.6684V43.9252H34.5915C35.0159 42.1614 37.6154 41.7756 37.6154 39.8189C37.6154 38.7717 36.9257 38 35.4668 38C34.565 38 33.7692 38.2756 33.2387 38.5512L33.557 39.5433C34.0345 39.2953 34.5915 39.0748 35.2812 39.0748C35.8117 39.0748 36.3156 39.3228 36.3156 39.9567C36.3156 41.3898 33.2653 41.5 33 45ZM37.8011 43.2913H40.7984V45H41.992V43.2913H43V42.2441H41.992V38H41.1167L37.8011 42.4646V43.2913ZM39.1538 42.2992L40.8515 39.9291C40.8515 40.122 40.7984 40.7283 40.7984 41.2795V42.2717H40.0027C39.7639 42.2717 39.313 42.2992 39.1538 42.2992Z" fill="white"/>
<path d="M17.929 32.9217C17.929 32.445 18.0353 32.0234 18.248 31.6567C18.4533 31.2827 18.7467 30.993 19.128 30.7877C19.502 30.575 19.9347 30.4687 20.426 30.4687C20.954 30.4687 21.4197 30.5934 21.823 30.8427C22.2263 31.092 22.538 31.444 22.758 31.8987C22.978 32.3534 23.088 32.8777 23.088 33.4717C23.088 33.9264 23.022 34.3737 22.89 34.8137C22.758 35.2464 22.5747 35.6204 22.34 35.9357C22.2447 36.053 22.1457 36.141 22.043 36.1997C21.933 36.251 21.8047 36.2767 21.658 36.2767C21.4307 36.2767 21.24 36.2144 21.086 36.0897C20.9247 35.965 20.844 35.811 20.844 35.6277C20.844 35.5177 20.8587 35.426 20.888 35.3527C20.9173 35.2794 20.9723 35.1694 21.053 35.0227L21.163 34.8027C21.273 34.5754 21.361 34.37 21.427 34.1867C21.493 33.996 21.526 33.7907 21.526 33.5707C21.526 33.16 21.4453 32.8557 21.284 32.6577C21.1153 32.4597 20.855 32.3607 20.503 32.3607C20.173 32.3607 19.9163 32.4634 19.733 32.6687C19.5497 32.874 19.458 33.16 19.458 33.5267C19.458 33.7467 19.4763 33.9484 19.513 34.1317C19.5497 34.3077 19.6157 34.5167 19.711 34.7587C19.7917 34.9127 19.832 35.0777 19.832 35.2537C19.832 35.459 19.7733 35.6314 19.656 35.7707C19.5313 35.91 19.37 35.9797 19.172 35.9797L16.191 35.9797C15.883 35.9797 15.6483 35.899 15.487 35.7377C15.3257 35.5764 15.245 35.3454 15.245 35.0447L15.245 31.6347C15.245 30.9967 15.498 30.6777 16.004 30.6777C16.5173 30.6777 16.774 30.9967 16.774 31.6347L16.774 34.0107L18.127 34.0107C17.995 33.7027 17.929 33.3397 17.929 32.9217ZM23.099 26.535C23.099 27.4957 22.758 28.229 22.076 28.735C21.394 29.241 20.4077 29.494 19.117 29.494C17.8337 29.494 16.851 29.241 16.169 28.735C15.487 28.229 15.146 27.4957 15.146 26.535C15.146 25.5817 15.487 24.852 16.169 24.346C16.851 23.8327 17.8337 23.576 19.117 23.576C20.4077 23.576 21.394 23.829 22.076 24.335C22.758 24.841 23.099 25.5743 23.099 26.535ZM21.57 26.535C21.57 26.183 21.3793 25.93 20.998 25.776C20.6167 25.622 19.9897 25.545 19.117 25.545C18.2517 25.545 17.6283 25.622 17.247 25.776C16.8657 25.93 16.675 26.183 16.675 26.535C16.675 26.887 16.8657 27.14 17.247 27.294C17.621 27.448 18.2443 27.525 19.117 27.525C19.9897 27.525 20.6167 27.448 20.998 27.294C21.3793 27.14 21.57 26.887 21.57 26.535Z" fill="#FF6B01"/>
</svg>
