<svg width="50" height="50" viewBox="0 0 50 50" fill="none" xmlns="http://www.w3.org/2000/svg">
<path d="M14.5006 14.0002C8.50057 11.5002 12.0006 5.00021 14.5006 4.00021C9.70102 2.80021 7.50048 5.50021 7.00016 7.00021C6.83349 7.50021 6.60016 8.90021 7.00016 10.5002C7.40016 12.1002 8.83349 13.5002 9.50016 14.0002H14.5006Z" fill="#C3E9FE"/>
<path d="M14.5006 30.0002C8.50057 27.5002 12.0006 21.0002 14.5006 20.0002C9.70102 18.8002 7.50048 21.5002 7.00016 23.0002C6.83349 23.5002 6.60016 24.9002 7.00016 26.5002C7.40016 28.1002 8.83349 29.5002 9.50016 30.0002H14.5006Z" fill="#C3E9FE"/>
<path d="M14.5006 46.0002C8.50057 43.5002 12.0006 37.0002 14.5006 36.0002C9.70102 34.8002 7.50048 37.5002 7.00016 39.0002C6.83349 39.5002 6.60016 40.9002 7.00016 42.5002C7.40016 44.1002 8.83349 45.5002 9.50016 46.0002H14.5006Z" fill="#C3E9FE"/>
<path fill-rule="evenodd" clip-rule="evenodd" d="M39 4.8H11C9.23269 4.8 7.8 6.23269 7.8 8V10C7.8 11.7673 9.23269 13.2 11 13.2H39C40.7673 13.2 42.2 11.7673 42.2 10V8C42.2 6.23269 40.7673 4.8 39 4.8ZM11 3C8.23858 3 6 5.23858 6 8V10C6 12.7614 8.23858 15 11 15H39C41.7614 15 44 12.7614 44 10V8C44 5.23858 41.7614 3 39 3H11Z" fill="#0285CB"/>
<circle cx="12" cy="9" r="1" fill="#0285CB"/>
<circle cx="17" cy="9" r="1" fill="#0285CB"/>
<path fill-rule="evenodd" clip-rule="evenodd" d="M39 20.8H11C9.23269 20.8 7.8 22.2327 7.8 24V26C7.8 27.7673 9.23269 29.2 11 29.2H39C40.7673 29.2 42.2 27.7673 42.2 26V24C42.2 22.2327 40.7673 20.8 39 20.8ZM11 19C8.23858 19 6 21.2386 6 24V26C6 28.7614 8.23858 31 11 31H39C41.7614 31 44 28.7614 44 26V24C44 21.2386 41.7614 19 39 19H11Z" fill="#0285CB"/>
<circle cx="12" cy="25" r="1" fill="#0285CB"/>
<circle cx="17" cy="25" r="1" fill="#0285CB"/>
<path fill-rule="evenodd" clip-rule="evenodd" d="M29 35.9C29 35.4029 28.5971 35 28.1 35H11C8.23858 35 6 37.2386 6 40V42C6 44.7614 8.23858 47 11 47H28.1C28.5971 47 29 46.5971 29 46.1C29 45.6029 28.5971 45.2 28.1 45.2H11C9.23269 45.2 7.8 43.7673 7.8 42V40C7.8 38.2327 9.23269 36.8 11 36.8H28.1C28.5971 36.8 29 36.3971 29 35.9Z" fill="#0285CB"/>
<circle cx="12" cy="41" r="1" fill="#0285CB"/>
<circle cx="17" cy="41" r="1" fill="#0285CB"/>
<path d="M46.3062 43.8977L45.3545 43.3315C45.5411 42.7536 45.6427 42.1384 45.6427 41.5C45.6427 40.8615 45.541 40.2464 45.3545 39.6685L46.3062 39.1022C46.9828 38.6997 47.2021 37.8295 46.7961 37.1586C46.3901 36.4878 45.5125 36.27 44.8363 36.6728L43.8671 37.2495C43.0902 36.4773 42.1032 35.9141 41 35.6491V34.4167C41 33.6342 40.3604 33 39.5714 33C38.7825 33 38.1429 33.6342 38.1429 34.4167V35.6491C37.0145 35.9201 36.0086 36.5041 35.2238 37.3035L34.1637 36.6727C33.4873 36.2701 32.6098 36.4877 32.2039 37.1586C31.798 37.8294 32.0173 38.6997 32.6938 39.1021L33.7655 39.7398C33.5934 40.297 33.5002 40.8878 33.5002 41.5C33.5002 42.1121 33.5934 42.703 33.7655 43.2601L32.6938 43.8977C32.0172 44.3003 31.7979 45.1705 32.2038 45.8414C32.4717 46.2841 32.9448 46.5294 33.4301 46.5294C33.6803 46.5294 33.9337 46.4642 34.1637 46.3273L35.2238 45.6965C36.0086 46.4959 37.0145 47.0799 38.1429 47.3509V48.5833C38.1429 49.3658 38.7825 50 39.5714 50C40.3604 50 41 49.3658 41 48.5833V47.3509C42.1031 47.0859 43.0901 46.5227 43.867 45.7506L44.8363 46.3274C45.0664 46.4643 45.3197 46.5294 45.5699 46.5294C46.0552 46.5294 46.5284 46.2842 46.7962 45.8414C47.2021 45.1704 46.9828 44.3003 46.3062 43.8977ZM39.5714 44.6875C37.7991 44.6875 36.3572 43.2576 36.3572 41.5C36.3572 39.7424 37.7991 38.3125 39.5714 38.3125C41.3437 38.3125 42.7856 39.7424 42.7856 41.5C42.7856 43.2576 41.3437 44.6875 39.5714 44.6875Z" fill="#FF6B01"/>
</svg>
