<svg width="50" height="50" viewBox="0 0 50 50" fill="none" xmlns="http://www.w3.org/2000/svg">
<path d="M14.3137 34.4663V15.5337C14.3137 9.16381 18.2027 4 23 4H17.711C12.9 4 9 9.16588 9 15.5385V34.4615C9 40.834 12.9 46 17.711 46H23C18.2027 46 14.3137 40.8362 14.3137 34.4663Z" fill="#C3E9FE"/>
<path fill-rule="evenodd" clip-rule="evenodd" d="M42.2282 20.1882L42.2285 20.0431L42.2282 12.9C42.2282 7.44185 37.7864 3 32.3282 3L17.6709 3C12.2138 3 7.7728 7.44104 7.7728 12.8981L7.7728 37.2066C7.7728 42.6647 12.2147 47.1066 17.6728 47.1066L20.0856 47.1066C20.1157 47.1066 20.1454 47.1052 20.1749 47.1025L32.2897 47.0452C37.7583 47.0194 42.1811 42.5849 42.1926 37.1162L42.2265 21.0005C42.2276 20.9813 42.2282 20.962 42.2282 20.9426L42.2282 20.1882ZM40.3262 21.163L40.2926 37.1123C40.2833 41.5367 36.7051 45.1243 32.2807 45.1452L20.2945 45.2019C20.2272 45.187 20.1573 45.1792 20.0856 45.1792L17.6728 45.1792C13.2759 45.1792 9.70017 41.6034 9.70017 37.2066L9.70018 12.8981C9.70018 8.50234 13.2751 4.92737 17.6709 4.92737L32.3282 4.92737C36.7251 4.92737 40.3008 8.50315 40.3008 12.9L40.3008 20.9426C40.3008 21.0184 40.3096 21.0922 40.3262 21.163Z" fill="#0285CB"/>
<line x1="18" y1="17" x2="31" y2="17" stroke="#FF6B01" stroke-width="2" stroke-linecap="round"/>
<line x1="18" y1="24" x2="31" y2="24" stroke="#FF6B01" stroke-width="2" stroke-linecap="round"/>
<line x1="18" y1="31" x2="31" y2="31" stroke="#FF6B01" stroke-width="2" stroke-linecap="round"/>
<circle cx="25" cy="40" r="2" fill="#0285CB"/>
</svg>
