<svg width="50" height="50" viewBox="0 0 50 50" fill="none" xmlns="http://www.w3.org/2000/svg">
<path d="M15.4993 37.664V25.9453C15.4993 21.6305 18.997 17.1328 23.3117 17.1328H18.6242C14.3095 17.1328 10.8118 21.6305 10.8118 25.9453V37.664C10.8118 41.9787 14.3095 45.4765 18.6242 45.4765H23.3117C18.9971 45.4765 15.4993 41.9787 15.4993 37.664Z" fill="#C3E9FE"/>
<path d="M33.5841 9.84149C33.8875 10.2778 33.7796 10.8777 33.3431 11.1811C32.9067 11.4844 32.3068 11.3765 32.0035 10.94C30.7215 9.09551 28.6175 7.99384 26.3745 7.99384H11.3746C7.59697 7.99384 4.5246 11.0662 4.5246 14.8438V30.5429C4.5246 31.0745 4.0937 31.5054 3.5621 31.5054C3.03051 31.5054 2.59961 31.0745 2.59961 30.5429V14.8438C2.59961 10.0058 6.53659 6.06885 11.3746 6.06885H26.3745C29.2468 6.06885 31.9423 7.47901 33.5841 9.84149Z" fill="#0285CB"/>
<path fill-rule="evenodd" clip-rule="evenodd" d="M33.2014 46.947L18.8318 46.947C13.9938 46.947 10.0568 43.01 10.0568 38.172V24.791C10.0568 19.953 13.9938 16.016 18.8318 16.016L33.2014 16.016C38.0394 16.016 41.9763 19.953 41.9763 24.791V38.172C41.9763 43.01 38.0394 46.947 33.2014 46.947ZM18.8318 17.941C15.0542 17.941 11.9818 21.0134 11.9818 24.791V38.172C11.9818 41.9496 15.0542 45.022 18.8318 45.022L33.2014 45.022C36.979 45.022 40.0514 41.9496 40.0514 38.172V24.791C40.0514 21.0133 36.979 17.941 33.2014 17.941L18.8318 17.941Z" fill="#0285CB"/>
<path d="M31.5 2.99994C37 -0.500047 45 2.99994 45 11" stroke="#FF6B01" stroke-width="1.9" stroke-linecap="round"/>
<path d="M48.8666 11.9331L46.3475 14.4522C45.5665 15.2333 44.3002 15.2333 43.5191 14.4522L41 11.9331" stroke="#FF6B01" stroke-width="2" stroke-linecap="round" stroke-linejoin="round"/>
<circle cx="20" cy="27" r="1.5" fill="#FF6B01" stroke="#FF6B01"/>
<path d="M25 27H33" stroke="#FF6B01" stroke-width="1.8" stroke-linecap="round"/>
<path d="M25 32H33" stroke="#FF6B01" stroke-width="1.8" stroke-linecap="round"/>
<path d="M25 37H29" stroke="#FF6B01" stroke-width="1.8" stroke-linecap="round"/>
</svg>
