<svg width="50" height="50" viewBox="0 0 50 50" fill="none" xmlns="http://www.w3.org/2000/svg">
<path d="M8.94466 40.7636V15.6529C8.94466 14.5238 9.39562 13.4414 10.1974 12.6463L16.9101 5.98897C18.5359 4.37664 20.7329 3.47195 23.0226 3.47195H39.2363C37.7855 2.38193 35.9824 1.73584 34.028 1.73584H17.8143C15.5245 1.73584 13.3275 2.64053 11.7017 4.25294L6.3043 9.60581C4.66081 11.2357 3.73633 13.4545 3.73633 15.7693V39.0275C3.73633 43.8215 7.62244 47.7078 12.4164 47.7081C10.3083 46.1243 8.94466 43.6033 8.94466 40.7636Z" fill="#C3E9FE"/>
<path fill-rule="evenodd" clip-rule="evenodd" d="M34.6502 25.332C34.1332 25.332 33.7141 24.9129 33.7141 24.3959V19.0347C33.7141 15.6731 30.9806 12.9396 27.6189 12.9396H16.1988C15.6818 12.9396 15.2627 12.5205 15.2627 12.0035C15.2627 11.4865 15.6818 11.0674 16.1988 11.0674H27.6189C32.0114 11.0674 35.5863 14.6423 35.5863 19.0347V24.3959C35.5863 24.9129 35.1672 25.332 34.6502 25.332Z" fill="#0285CB"/>
<path d="M37.9366 8.20208C37.582 7.82546 36.9896 7.80768 36.6133 8.16189L35.1376 9.55085C34.7611 9.90511 34.7431 10.4976 35.0974 10.874C35.2817 11.0698 35.5288 11.1686 35.7795 11.1686C36.0105 11.1686 36.2397 11.0845 36.4206 10.9142L37.8964 9.52523C38.2728 9.17098 38.2908 8.57855 37.9366 8.20208Z" fill="#0285CB"/>
<path d="M5.51771 9.19108L10.9153 3.83833C12.7294 2.03911 15.132 1.0498 17.687 1.0498H35.3451C40.647 1.0498 44.9617 5.36455 44.9617 10.6665V30.1105C44.9617 30.6275 44.5426 31.0466 44.0256 31.0466C43.5086 31.0466 43.0895 30.6275 43.0895 30.1105V10.6665C43.0895 6.39548 39.6161 2.92203 35.3451 2.92203H17.687C15.6319 2.92203 13.6928 3.7205 12.2336 5.16762L6.83608 10.5205C5.37908 11.9656 4.54507 13.9673 4.54507 16.0193V39.3382C4.54507 43.6092 8.01852 47.0826 12.2895 47.0826H23.0639C23.5809 47.0826 24 47.5017 24 48.0187C24 48.5357 23.5809 48.9548 23.0639 48.9548H12.2895C6.9876 48.9548 2.67285 44.6401 2.67285 39.3382V16.0193C2.67285 13.4745 3.71085 10.9831 5.51771 9.19108Z" fill="#0285CB"/>
<path d="M39.7439 33C43.2457 33 45.6954 36.1133 45.38 39.1893C47.4424 39.5902 49 41.3956 49 43.5556C49 46.0102 46.9907 48 44.5122 48H30.7683C27.9161 48 26 46.1471 26 43.8333C26 41.8984 27.376 39.9973 29.3659 39.6667C29.3659 36.3333 32.4512 34.9444 34.6951 36.0556C35.5366 34.3889 37.3464 33 39.7439 33Z" fill="#FF6B01"/>
<path d="M33 45H37.6684V43.9252H34.5915C35.0159 42.1614 37.6154 41.7756 37.6154 39.8189C37.6154 38.7717 36.9257 38 35.4668 38C34.565 38 33.7692 38.2756 33.2387 38.5512L33.557 39.5433C34.0345 39.2953 34.5915 39.0748 35.2812 39.0748C35.8117 39.0748 36.3156 39.3228 36.3156 39.9567C36.3156 41.3898 33.2653 41.5 33 45ZM37.8011 43.2913H40.7984V45H41.992V43.2913H43V42.2441H41.992V38H41.1167L37.8011 42.4646V43.2913ZM39.1538 42.2992L40.8515 39.9291C40.8515 40.122 40.7984 40.7283 40.7984 41.2795V42.2717H40.0027C39.7639 42.2717 39.313 42.2992 39.1538 42.2992Z" fill="white"/>
<path d="M17.929 35.8846C17.929 35.4079 18.0353 34.9862 18.248 34.6196C18.4533 34.2456 18.7467 33.9559 19.128 33.7506C19.502 33.5379 19.9347 33.4316 20.426 33.4316C20.954 33.4316 21.4197 33.5562 21.823 33.8056C22.2263 34.0549 22.538 34.4069 22.758 34.8616C22.978 35.3162 23.088 35.8406 23.088 36.4346C23.088 36.8892 23.022 37.3366 22.89 37.7766C22.758 38.2092 22.5747 38.5832 22.34 38.8986C22.2447 39.0159 22.1457 39.1039 22.043 39.1626C21.933 39.2139 21.8047 39.2396 21.658 39.2396C21.4307 39.2396 21.24 39.1772 21.086 39.0526C20.9247 38.9279 20.844 38.7739 20.844 38.5906C20.844 38.4806 20.8587 38.3889 20.888 38.3156C20.9173 38.2422 20.9723 38.1322 21.053 37.9856L21.163 37.7656C21.273 37.5382 21.361 37.3329 21.427 37.1496C21.493 36.9589 21.526 36.7536 21.526 36.5336C21.526 36.1229 21.4453 35.8186 21.284 35.6206C21.1153 35.4226 20.855 35.3236 20.503 35.3236C20.173 35.3236 19.9163 35.4262 19.733 35.6316C19.5497 35.8369 19.458 36.1229 19.458 36.4896C19.458 36.7096 19.4763 36.9112 19.513 37.0946C19.5497 37.2706 19.6157 37.4796 19.711 37.7216C19.7917 37.8756 19.832 38.0406 19.832 38.2166C19.832 38.4219 19.7733 38.5942 19.656 38.7336C19.5313 38.8729 19.37 38.9426 19.172 38.9426L16.191 38.9426C15.883 38.9426 15.6483 38.8619 15.487 38.7006C15.3257 38.5392 15.245 38.3082 15.245 38.0076L15.245 34.5976C15.245 33.9596 15.498 33.6406 16.004 33.6406C16.5173 33.6406 16.774 33.9596 16.774 34.5976L16.774 36.9736L18.127 36.9736C17.995 36.6656 17.929 36.3026 17.929 35.8846ZM23.099 29.4979C23.099 30.4585 22.758 31.1919 22.076 31.6979C21.394 32.2039 20.4077 32.4569 19.117 32.4569C17.8337 32.4569 16.851 32.2039 16.169 31.6979C15.487 31.1919 15.146 30.4585 15.146 29.4979C15.146 28.5445 15.487 27.8149 16.169 27.3089C16.851 26.7955 17.8337 26.5389 19.117 26.5389C20.4077 26.5389 21.394 26.7919 22.076 27.2979C22.758 27.8039 23.099 28.5372 23.099 29.4979ZM21.57 29.4979C21.57 29.1459 21.3793 28.8929 20.998 28.7389C20.6167 28.5849 19.9897 28.5079 19.117 28.5079C18.2517 28.5079 17.6283 28.5849 17.247 28.7389C16.8657 28.8929 16.675 29.1459 16.675 29.4979C16.675 29.8499 16.8657 30.1029 17.247 30.2569C17.621 30.4109 18.2443 30.4879 19.117 30.4879C19.9897 30.4879 20.6167 30.4109 20.998 30.2569C21.3793 30.1029 21.57 29.8499 21.57 29.4979ZM23.099 22.5721C23.099 23.5328 22.758 24.2661 22.076 24.7721C21.394 25.2781 20.4077 25.5311 19.117 25.5311C17.8337 25.5311 16.851 25.2781 16.169 24.7721C15.487 24.2661 15.146 23.5328 15.146 22.5721C15.146 21.6188 15.487 20.8891 16.169 20.3831C16.851 19.8698 17.8337 19.6131 19.117 19.6131C20.4077 19.6131 21.394 19.8661 22.076 20.3721C22.758 20.8781 23.099 21.6115 23.099 22.5721ZM21.57 22.5721C21.57 22.2201 21.3793 21.9671 20.998 21.8131C20.6167 21.6591 19.9897 21.5821 19.117 21.5821C18.2517 21.5821 17.6283 21.6591 17.247 21.8131C16.8657 21.9671 16.675 22.2201 16.675 22.5721C16.675 22.9241 16.8657 23.1771 17.247 23.3311C17.621 23.4851 18.2443 23.5621 19.117 23.5621C19.9897 23.5621 20.6167 23.4851 20.998 23.3311C21.3793 23.1771 21.57 22.9241 21.57 22.5721Z" fill="#FF6B01"/>
</svg>
