<svg width="50" height="50" viewBox="0 0 50 50" fill="none" xmlns="http://www.w3.org/2000/svg">
<path d="M10.2725 40.7636V15.6529C10.2725 14.5238 10.7234 13.4414 11.5252 12.6463L18.2379 5.98897C19.8637 4.37664 22.0608 3.47195 24.3504 3.47195H30.7093C29.2584 2.38193 27.4554 1.73584 25.501 1.73584H19.1421C16.8523 1.73584 9.62709 2.64053 8.00131 4.25294C8.00131 4.25294 6.00131 7.49969 5.50085 9.60581C5.00039 11.7119 5.06415 13.4545 5.06415 15.7693V39.0275C5.06415 43.8215 8.95027 47.7078 13.7442 47.7081C11.6361 46.1243 10.2725 43.6033 10.2725 40.7636Z" fill="#C3E9FE"/>
<path d="M34.0475 3.83833L39.445 9.19108C41.2519 10.9831 42.2899 13.4745 42.2899 16.0193V23.0637C42.2899 23.5807 41.8708 23.9998 41.3538 23.9998C40.8368 23.9998 40.4176 23.5807 40.4176 23.0637V16.0193C40.4176 13.9673 39.5836 11.9656 38.1266 10.5205L32.7291 5.16762C31.2699 3.7205 29.3308 2.92203 27.2757 2.92203H13.6176C9.34665 2.92203 5.8732 6.39548 5.8732 10.6665V30.1105C5.8732 30.6275 5.45409 31.0466 4.93709 31.0466C4.42009 31.0466 4.00098 30.6275 4.00098 30.1105V10.6665C4.00098 5.36455 8.31572 1.0498 13.6176 1.0498H27.2757C29.8308 1.0498 32.2333 2.03911 34.0475 3.83833Z" fill="#0285CB"/>
<path d="M4.93652 30V40C4.93652 44.4183 8.51825 48 12.9365 48H24.0001" stroke="#0285CB" stroke-width="1.9" stroke-linecap="round"/>
<path d="M24 38.1993C24 38.4453 23.934 38.6343 23.802 38.7663C23.67 38.8983 23.481 38.9643 23.235 38.9643L18.42 38.9643C18.174 38.9643 17.985 38.8983 17.853 38.7663C17.721 38.6343 17.655 38.4453 17.655 38.1993L17.655 36.3813C17.655 35.6793 17.784 35.0763 18.042 34.5723C18.294 34.0623 18.657 33.6723 19.131 33.4023C19.605 33.1323 20.169 32.9973 20.823 32.9973C21.483 32.9973 22.053 33.1323 22.533 33.4023C23.007 33.6663 23.37 34.0533 23.622 34.5633C23.874 35.0673 24 35.6733 24 36.3813L24 38.1993ZM22.668 36.4983C22.668 35.8803 22.518 35.4183 22.218 35.1123C21.912 34.8003 21.447 34.6443 20.823 34.6443C20.199 34.6443 19.737 34.8003 19.437 35.1123C19.137 35.4183 18.987 35.8803 18.987 36.4983L18.987 37.3083L22.668 37.3083L22.668 36.4983ZM24.081 28.7183C24.081 29.3663 23.949 29.9303 23.685 30.4103C23.415 30.8843 23.037 31.2503 22.551 31.5083C22.059 31.7663 21.483 31.8953 20.823 31.8953C20.163 31.8953 19.59 31.7663 19.104 31.5083C18.612 31.2503 18.234 30.8843 17.97 30.4103C17.706 29.9303 17.574 29.3663 17.574 28.7183C17.574 28.0703 17.706 27.5093 17.97 27.0353C18.234 26.5553 18.612 26.1893 19.104 25.9373C19.59 25.6793 20.163 25.5503 20.823 25.5503C21.483 25.5503 22.059 25.6793 22.551 25.9373C23.037 26.1953 23.415 26.5643 23.685 27.0443C23.949 27.5183 24.081 28.0763 24.081 28.7183ZM22.812 28.7183C22.812 28.2383 22.644 27.8633 22.308 27.5933C21.966 27.3233 21.471 27.1883 20.823 27.1883C20.175 27.1883 19.683 27.3263 19.347 27.6023C19.011 27.8723 18.843 28.2443 18.843 28.7183C18.843 29.1983 19.011 29.5733 19.347 29.8433C19.677 30.1133 20.169 30.2483 20.823 30.2483C21.477 30.2483 21.972 30.1133 22.308 29.8433C22.644 29.5733 22.812 29.1983 22.812 28.7183ZM24.081 21.2942C24.081 21.9302 23.949 22.4882 23.685 22.9682C23.421 23.4422 23.043 23.8112 22.551 24.0752C22.059 24.3332 21.483 24.4622 20.823 24.4622C20.169 24.4622 19.596 24.3332 19.104 24.0752C18.612 23.8112 18.234 23.4422 17.97 22.9682C17.706 22.4882 17.574 21.9302 17.574 21.2942C17.574 20.5322 17.775 19.8632 18.177 19.2872C18.249 19.1852 18.327 19.1132 18.411 19.0712C18.495 19.0232 18.603 18.9992 18.735 18.9992C18.921 18.9992 19.08 19.0532 19.212 19.1612C19.338 19.2632 19.401 19.3892 19.401 19.5392C19.401 19.6292 19.389 19.7102 19.365 19.7822C19.335 19.8542 19.29 19.9382 19.23 20.0342C19.104 20.2442 19.014 20.4422 18.96 20.6282C18.906 20.8142 18.879 21.0062 18.879 21.2042C18.879 21.7382 19.041 22.1372 19.365 22.4012C19.683 22.6592 20.169 22.7882 20.823 22.7882C21.483 22.7882 21.975 22.6592 22.299 22.4012C22.617 22.1372 22.776 21.7382 22.776 21.2042C22.776 21.0242 22.749 20.8502 22.695 20.6822C22.635 20.5142 22.545 20.2982 22.425 20.0342C22.359 19.9082 22.314 19.8152 22.29 19.7552C22.266 19.6952 22.254 19.6232 22.254 19.5392C22.254 19.3892 22.32 19.2632 22.452 19.1612C22.578 19.0532 22.734 18.9992 22.92 18.9992C23.046 18.9992 23.154 19.0232 23.244 19.0712C23.328 19.1132 23.406 19.1852 23.478 19.2872C23.88 19.8632 24.081 20.5322 24.081 21.2942ZM22.803 12.8607C22.953 12.7287 23.118 12.6627 23.298 12.6627C23.502 12.6627 23.682 12.7437 23.838 12.9057C23.988 13.0617 24.063 13.2387 24.063 13.4367C24.063 13.6467 23.973 13.8297 23.793 13.9857L21.939 15.5337L23.793 17.1087C23.973 17.2647 24.063 17.4447 24.063 17.6487C24.063 17.8467 23.985 18.0267 23.829 18.1887C23.673 18.3447 23.493 18.4227 23.289 18.4227C23.115 18.4227 22.953 18.3597 22.803 18.2337L20.805 16.5057L18.852 18.1887C18.696 18.3207 18.534 18.3867 18.366 18.3867C18.162 18.3867 17.985 18.3087 17.835 18.1527C17.679 17.9907 17.601 17.8077 17.601 17.6037C17.601 17.3937 17.691 17.2107 17.871 17.0547L19.671 15.5337L17.871 14.0217C17.691 13.8777 17.601 13.7007 17.601 13.4907C17.601 13.2867 17.679 13.1067 17.835 12.9507C17.985 12.7887 18.162 12.7077 18.366 12.7077C18.54 12.7077 18.702 12.7707 18.852 12.8967L20.805 14.5797L22.803 12.8607Z" fill="#FF6B01"/>
<circle cx="38" cy="40" r="10" fill="#FF6B01"/>
<path fill-rule="evenodd" clip-rule="evenodd" d="M33.2928 40.5356C33.6833 40.145 34.3165 40.145 34.707 40.5356L37.2927 43.1213C37.6833 43.5118 38.3164 43.5118 38.707 43.1213L41.2927 40.5356C41.6832 40.145 42.3164 40.145 42.7069 40.5356C43.0974 40.9261 43.0974 41.5593 42.7069 41.9498L40.1212 44.5355C38.9496 45.7071 37.0501 45.7071 35.8785 44.5355L33.2928 41.9498C32.9023 41.5593 32.9023 40.9261 33.2928 40.5356Z" fill="white"/>
<path fill-rule="evenodd" clip-rule="evenodd" d="M38 34C38.5523 34 39 34.4477 39 35L39 41C39 41.5523 38.5523 42 38 42C37.4477 42 37 41.5523 37 41L37 35C37 34.4477 37.4477 34 38 34Z" fill="white"/>
</svg>
