<svg width="36" height="36" viewBox="0 0 36 36" fill="none" xmlns="http://www.w3.org/2000/svg">
<path d="M21.5635 30.4783L8.04412 17.0839C6.87347 15.9055 6.89972 13.981 8.12475 12.8591C8.62907 12.3972 9.18733 11.9973 9.78066 11.6543C7.75911 12.0264 5.72463 12.865 4.18716 14.2732C2.9622 15.3951 2.93589 17.3195 4.10654 18.4979L17.626 31.8924C18.8044 33.063 20.7288 33.0367 21.8507 31.8118C22.063 31.5799 22.2619 31.3363 22.4487 31.0836C22.128 30.9415 21.827 30.7401 21.5635 30.4783Z" fill="#A8E1FF"/>
<path d="M19.5665 22.728C18.5237 23.7389 18.0047 24.2341 17.4895 24.6838C16.9694 25.1378 16.9159 25.9275 17.3699 26.4476C17.6171 26.7307 17.9637 26.8756 18.3121 26.8756C18.6037 26.8756 18.8967 26.774 19.1337 26.5672C19.6912 26.0804 20.2309 25.5659 21.3067 24.523C21.8024 24.0424 21.8147 23.2511 21.3342 22.7554C20.8535 22.2597 20.0622 22.2475 19.5665 22.728Z" fill="#0285CB"/>
<path d="M11.4715 14.8857C11.062 15.3132 10.74 15.6368 10.456 15.9223C10.0787 16.3016 9.78069 16.6011 9.49487 16.9285C9.04086 17.4486 9.09443 18.2383 9.6145 18.6923C9.85151 18.8992 10.1444 19.0007 10.4361 19.0007C10.7845 19.0007 11.1312 18.8558 11.3783 18.5727C11.6105 18.3067 11.8697 18.0462 12.2284 17.6856C12.5058 17.4068 12.8509 17.0598 13.2767 16.6154C13.7543 16.1169 13.7374 15.3256 13.2389 14.848C12.7405 14.3703 11.9492 14.3872 11.4715 14.8857Z" fill="#0285CB"/>
<path fill-rule="evenodd" clip-rule="evenodd" d="M3.43807 19.1717L3.43615 19.1698L3.43456 19.1682C2.6896 18.4183 2.27617 17.381 2.30112 16.3243C2.3262 15.2623 2.76856 14.2868 3.54754 13.5733C4.86039 12.3709 6.60641 11.4585 8.60173 10.9432C10.3416 10.4939 12.2223 10.3637 13.8926 10.5742C15.1008 10.7266 16.313 10.3592 17.2183 9.56347C22.4297 4.98261 26.5981 3.16108 29.1583 2.4382C30.4174 2.0827 31.7186 2.42148 32.6457 3.34629C33.5762 4.27445 33.9194 5.58013 33.5654 6.84574C32.8456 9.4196 31.0454 13.5914 26.5489 18.7456C25.7561 19.6543 25.3921 20.8675 25.5479 22.0734C25.764 23.746 25.6373 25.6323 25.1887 27.3798C24.6743 29.3837 23.7601 31.1366 22.5533 32.4542C21.84 33.2332 20.864 33.6755 19.802 33.7006C19.7721 33.7013 19.7421 33.7017 19.712 33.7017C18.6866 33.7017 17.6867 33.2905 16.9582 32.5668L3.43994 19.1735L3.43807 19.1717ZM4.78112 17.8277L18.2964 31.218C18.6879 31.6069 19.2085 31.8136 19.7574 31.8011C20.2944 31.7884 20.7915 31.5648 21.1522 31.1709C23.3772 28.7416 24.0067 24.9728 23.6636 22.3169C23.4379 20.5704 23.9682 18.8135 25.1171 17.4965C29.3607 12.6324 31.0594 8.75212 31.7356 6.33406C31.9012 5.7421 31.739 5.12557 31.3038 4.69148C31.1022 4.49049 30.523 4.02722 29.6746 4.26683C27.269 4.9461 23.3928 6.66582 18.4727 10.9906C17.1605 12.1439 15.4047 12.6801 13.6548 12.4594C11.0059 12.1256 7.24906 12.7597 4.83083 14.9745C4.43696 15.3353 4.2133 15.8322 4.20065 16.3692C4.18773 16.9174 4.39353 17.4356 4.77889 17.8255L4.78112 17.8277Z" fill="#0285CB"/>
<path d="M20.1241 17.6256C20.987 17.6256 21.6866 16.926 21.6866 16.063C21.6866 15.2001 20.987 14.5005 20.1241 14.5005C19.2611 14.5005 18.5615 15.2001 18.5615 16.063C18.5615 16.926 19.2611 17.6256 20.1241 17.6256Z" fill="#0285CB"/>
<path d="M5.32263 26.3687C4.18865 27.5758 0.508942 35.5895 9.58448 30.8627" stroke="#FF6B01" stroke-width="1.8" stroke-linecap="round"/>
<path d="M22.4375 12.1892C22.4382 11.3263 23.1383 10.6261 24.0012 10.6255C24.8642 10.6248 25.5632 11.3239 25.5626 12.1868C25.5619 13.0498 24.8618 13.7499 23.9988 13.7506C23.1359 13.7512 22.4369 13.0522 22.4375 12.1892Z" fill="#FF6B01"/>
</svg>
