<svg width="88" height="95" viewBox="0 0 88 95" fill="none" xmlns="http://www.w3.org/2000/svg">
<g clip-path="url(#clip0)">
<path d="M88 23.1622C88 23.0951 88 23.0951 87.933 23.028C87.933 22.9608 87.866 22.8937 87.866 22.8265C87.866 22.7594 87.7989 22.7594 87.7989 22.6923C87.7319 22.6251 87.7319 22.558 87.6649 22.558C87.5979 22.4909 87.5979 22.4909 87.5308 22.4909C87.4638 22.4909 87.4638 22.4237 87.3968 22.3566C87.3968 22.3566 87.3968 22.3566 87.3298 22.3566C87.3298 22.3566 87.3298 22.3566 87.2628 22.3566L44.6367 0.13397C44.2346 -0.0674432 43.7654 -0.0674432 43.4303 0.13397L0.737243 22.3566C0.737243 22.3566 0.737243 22.3566 0.670221 22.3566C0.670221 22.3566 0.670221 22.3566 0.603199 22.3566C0.536177 22.3566 0.536177 22.4237 0.469155 22.4909C0.402133 22.4909 0.402133 22.558 0.33511 22.558C0.268088 22.6251 0.268088 22.6923 0.201066 22.6923C0.201066 22.7594 0.134044 22.7594 0.134044 22.8265C0.0670221 22.8937 0.0670221 22.9608 0.0670221 23.028C0.0670221 23.0951 0 23.0951 0 23.1622C0 23.2965 0 23.4308 0 23.5651V68.8831C0 69.3531 0.268088 69.823 0.670221 70.0244L43.3633 94.7983C43.4303 94.8654 43.4973 94.8654 43.5644 94.8654C43.6314 94.8654 43.6314 94.9325 43.6984 94.9325C43.8324 94.9325 43.8995 94.9997 44.0335 94.9997C44.1676 94.9997 44.2346 94.9997 44.3686 94.9325C44.4356 94.9325 44.4356 94.8654 44.5027 94.8654C44.5697 94.8654 44.6367 94.7983 44.7037 94.7983L87.3968 70.0244C87.7989 69.7559 88.067 69.3531 88.067 68.8831V23.5651C88 23.4308 88 23.2965 88 23.1622ZM69.5689 50.1516L67.4912 51.293L67.0891 51.4944L63.1348 53.6428C63.1348 53.7099 63.0678 53.7099 63.0008 53.7099C62.8667 53.7099 62.6656 53.5757 62.6656 53.3743V48.4061V38.0668C62.6656 37.8654 62.6656 37.7311 62.5986 37.5297L70.7083 33.3V48.2046C70.7753 49.0103 70.3062 49.8159 69.5689 50.1516ZM18.3641 16.1799L58.2422 36.7912L44.0335 44.1764L4.22239 23.5651L18.3641 16.1799ZM61.1241 35.3142C61.0571 35.247 60.9901 35.247 60.9231 35.1799L21.313 14.7029L29.4227 10.4732L69.1668 31.1516L61.1241 35.3142ZM44.0335 2.88662L83.7776 23.5651L72.0487 29.6746C71.9147 29.6075 71.7807 29.4732 71.6466 29.4061L32.3046 8.92902L44.0335 2.88662ZM2.68088 25.7806L42.6931 46.5933V91.3071L2.68088 68.0774V25.7806ZM85.3191 68.0774L45.374 91.3071V46.5262L59.9848 38.9396V50.2188V53.3743C59.9848 55.0527 61.3252 56.3955 63.0008 56.3955C63.4699 56.3955 64.0061 56.2612 64.4752 55.9926L68.7647 53.6428L70.8423 52.5015L71.3115 52.2329C72.5849 51.5615 73.3892 50.2188 73.3892 48.7417V48.2046V32.3601C73.3892 32.2258 73.3892 32.0916 73.3892 31.9573L77.0754 30.0774L85.3191 25.7806V68.0774Z" fill="#FF6B01"/>
</g>
<defs>
<clipPath id="clip0">
<rect width="88" height="95" fill="white"/>
</clipPath>
</defs>
</svg>
