<svg width="50" height="50" viewBox="0 0 50 50" fill="none" xmlns="http://www.w3.org/2000/svg">
<path d="M17.4975 37.9997C6.99751 30.4997 10.9975 19.9997 14.4975 18.4997L8.99871 17.9997C7.49871 17.6663 4.89871 18.8997 6.49871 26.4997C8.09871 34.0997 14.4979 37.333 17.4975 37.9997Z" fill="#C3E9FE"/>
<path fill-rule="evenodd" clip-rule="evenodd" d="M8.83333 18.9H35.1667C36.2344 18.9 37.1 19.7656 37.1 20.8333V23C37.1 24.9863 36.7165 26.883 36.0195 28.6201C35.762 29.2617 36.2119 30 36.9032 30C37.2644 30 37.5943 29.7894 37.7315 29.4553C38.5491 27.4649 39 25.2851 39 23V20.8333C39 18.7162 37.2838 17 35.1667 17H8.83333C6.71624 17 5 18.7162 5 20.8333V23C5 32.3888 12.6112 40 22 40C27.205 40 31.8637 37.6608 34.9821 33.9762C33.988 34.1258 33.017 34.0819 32.3028 34.0392C29.6048 36.5583 25.9824 38.1 22 38.1C13.6605 38.1 6.9 31.3395 6.9 23V20.8333C6.9 19.7656 7.76558 18.9 8.83333 18.9Z" fill="#0285CB"/>
<path fill-rule="evenodd" clip-rule="evenodd" d="M40.5638 24.3438C40.65 23.8262 41.1395 23.4766 41.657 23.5629C43.3832 23.8506 44.6761 24.7178 45.2602 26.0373C45.8373 27.3412 45.6178 28.8532 44.823 30.2259C43.237 32.9654 39.2605 35.4316 33.0797 35.9467C32.5569 35.9902 32.0977 35.6017 32.0541 35.0788C32.0105 34.556 32.3991 34.0968 32.9219 34.0532C38.7411 33.5683 42.0147 31.2845 43.1787 29.274C43.7589 28.2717 43.7894 27.4088 43.5228 26.8063C43.263 26.2196 42.6185 25.6493 41.3447 25.437C40.8271 25.3508 40.4775 24.8613 40.5638 24.3438Z" fill="#0285CB"/>
<path fill-rule="evenodd" clip-rule="evenodd" d="M12.0508 24.9998C12.0508 24.4751 12.4761 24.0498 13.0008 24.0498H31.0008C31.5255 24.0498 31.9508 24.4751 31.9508 24.9998C31.9508 25.5245 31.5255 25.9498 31.0008 25.9498H13.0008C12.4761 25.9498 12.0508 25.5245 12.0508 24.9998Z" fill="#FF6B01"/>
<path fill-rule="evenodd" clip-rule="evenodd" d="M5.05078 44.9998C5.05078 44.4751 5.47611 44.0498 6.00078 44.0498H40.0008C40.5255 44.0498 40.9508 44.4751 40.9508 44.9998C40.9508 45.5245 40.5255 45.9498 40.0008 45.9498H6.00078C5.47611 45.9498 5.05078 45.5245 5.05078 44.9998Z" fill="#0285CB"/>
<path fill-rule="evenodd" clip-rule="evenodd" d="M15.9966 5.27857C16.3949 5.62005 16.441 6.21979 16.0995 6.61812C15.9464 6.79676 15.9289 6.92085 15.967 7.12115C16.0144 7.36955 16.1293 7.62434 16.3065 8.01715C16.3448 8.10205 16.386 8.19339 16.4301 8.29252C16.6491 8.78539 16.9164 9.43627 16.9474 10.1789C16.9802 10.9635 16.7493 11.7679 16.1339 12.5756C15.8159 12.9929 15.2198 13.0734 14.8025 12.7554C14.3851 12.4374 14.3046 11.8413 14.6226 11.424C14.9869 10.946 15.0622 10.5719 15.0491 10.2583C15.0342 9.90266 14.9034 9.53568 14.6938 9.06427C14.6662 9.00218 14.6358 8.9356 14.6037 8.86527C14.4254 8.47511 14.1945 7.96969 14.1006 7.47671C13.9704 6.79308 14.0753 6.06003 14.657 5.38152C14.9985 4.98318 15.5982 4.93709 15.9966 5.27857Z" fill="#FF6B01"/>
<path fill-rule="evenodd" clip-rule="evenodd" d="M22.9966 5.27857C23.3949 5.62005 23.441 6.21979 23.0995 6.61812C22.9464 6.79676 22.9289 6.92085 22.967 7.12115C23.0144 7.36955 23.1293 7.62434 23.3065 8.01715C23.3448 8.10205 23.386 8.19339 23.4301 8.29252C23.6491 8.78539 23.9164 9.43627 23.9474 10.1789C23.9802 10.9635 23.7493 11.7679 23.1339 12.5756C22.8159 12.9929 22.2198 13.0734 21.8025 12.7554C21.3851 12.4374 21.3046 11.8413 21.6226 11.424C21.9869 10.946 22.0622 10.5719 22.0491 10.2583C22.0342 9.90266 21.9034 9.53568 21.6938 9.06427C21.6662 9.00218 21.6358 8.9356 21.6037 8.86527C21.4254 8.47511 21.1945 7.96969 21.1006 7.47671C20.9704 6.79308 21.0753 6.06003 21.657 5.38152C21.9985 4.98318 22.5982 4.93709 22.9966 5.27857Z" fill="#FF6B01"/>
<path fill-rule="evenodd" clip-rule="evenodd" d="M29.9966 5.27857C30.3949 5.62005 30.441 6.21979 30.0995 6.61812C29.9464 6.79676 29.9289 6.92085 29.967 7.12115C30.0144 7.36955 30.1293 7.62434 30.3065 8.01715C30.3448 8.10205 30.386 8.19339 30.4301 8.29252C30.6491 8.78539 30.9164 9.43627 30.9474 10.1789C30.9802 10.9635 30.7493 11.7679 30.1339 12.5756C29.8159 12.9929 29.2198 13.0734 28.8025 12.7554C28.3851 12.4374 28.3046 11.8413 28.6226 11.424C28.9869 10.946 29.0622 10.5719 29.0491 10.2583C29.0342 9.90266 28.9034 9.53568 28.6938 9.06427C28.6662 9.00218 28.6358 8.9356 28.6037 8.86527C28.4254 8.47511 28.1945 7.96969 28.1006 7.47671C27.9704 6.79308 28.0753 6.06003 28.657 5.38152C28.9985 4.98318 29.5982 4.93709 29.9966 5.27857Z" fill="#FF6B01"/>
</svg>
