<svg width="50" height="50" viewBox="0 0 50 50" fill="none" xmlns="http://www.w3.org/2000/svg">
<path fill-rule="evenodd" clip-rule="evenodd" d="M3.75 8.15625C3.75 5.72731 5.72731 3.75 8.15625 3.75C10.0684 3.75 11.7029 4.97661 12.31 6.68823L12.4871 7.1875H18.2109C18.746 7.1875 19.1797 7.6212 19.1797 8.15625C19.1797 8.6913 18.746 9.125 18.2109 9.125H12.4871L12.31 9.6243C11.8669 10.8738 10.8738 11.8668 9.62429 12.31L9.125 12.4871V18.125C9.125 18.6601 8.6913 19.0938 8.15625 19.0938C7.6212 19.0938 7.1875 18.6601 7.1875 18.125V12.4871L6.68823 12.31C4.97661 11.7029 3.75 10.0684 3.75 8.15625ZM37.69 6.68823C38.2971 4.97661 39.9316 3.75 41.8438 3.75C44.2727 3.75 46.25 5.72731 46.25 8.15625C46.25 10.0684 45.0234 11.703 43.3118 12.31L42.8125 12.4871V18.125C42.8125 18.6601 42.3788 19.0938 41.8438 19.0938C41.3087 19.0938 40.875 18.6601 40.875 18.125V12.4871L40.3757 12.31C39.1262 11.8669 38.1332 10.8738 37.69 9.62429L37.5129 9.125H31.7031C31.1681 9.125 30.7344 8.6913 30.7344 8.15625C30.7344 7.6212 31.1681 7.1875 31.7031 7.1875H37.5129L37.69 6.68823ZM8.15625 5.6875C6.79432 5.6875 5.6875 6.79432 5.6875 8.15625C5.6875 9.51818 6.79432 10.625 8.15625 10.625C9.51818 10.625 10.625 9.51818 10.625 8.15625C10.625 6.79432 9.51818 5.6875 8.15625 5.6875ZM41.8438 5.6875C40.4818 5.6875 39.375 6.79432 39.375 8.15625C39.375 9.51818 40.4818 10.625 41.8438 10.625C43.2057 10.625 44.3125 9.51818 44.3125 8.15625C44.3125 6.79432 43.2057 5.6875 41.8438 5.6875ZM40.4453 25.1719C40.4453 24.3995 41.0714 23.7734 41.8438 23.7734C42.6161 23.7734 43.2422 24.3995 43.2422 25.1719C43.2422 25.9442 42.6161 26.5703 41.8438 26.5703C41.0714 26.5703 40.4453 25.9442 40.4453 25.1719ZM25.3203 26.8906C25.3203 26.1183 25.9464 25.4922 26.7188 25.4922C27.4911 25.4922 28.1172 26.1183 28.1172 26.8906C28.1172 27.663 27.4911 28.2891 26.7188 28.2891C25.9464 28.2891 25.3203 27.663 25.3203 26.8906ZM7.1875 31.7891C7.1875 31.254 7.6212 30.8203 8.15625 30.8203C8.6913 30.8203 9.125 31.254 9.125 31.7891V37.5129L9.6243 37.69C10.8738 38.1331 11.8668 39.1262 12.31 40.3757L12.4871 40.875H18.2109C18.746 40.875 19.1797 41.3087 19.1797 41.8438C19.1797 42.3788 18.746 42.8125 18.2109 42.8125H12.4871L12.31 43.3118C11.7029 45.0234 10.0684 46.25 8.15625 46.25C5.72731 46.25 3.75 44.2727 3.75 41.8438C3.75 39.9316 4.97661 38.2971 6.68823 37.69L7.1875 37.5129V31.7891ZM23.5156 41.8438C23.5156 41.0714 24.1417 40.4453 24.9141 40.4453C25.6864 40.4453 26.3125 41.0714 26.3125 41.8438C26.3125 42.6161 25.6864 43.2422 24.9141 43.2422C24.1417 43.2422 23.5156 42.6161 23.5156 41.8438ZM8.15625 39.375C6.79432 39.375 5.6875 40.4818 5.6875 41.8438C5.6875 43.2057 6.79432 44.3125 8.15625 44.3125C9.51818 44.3125 10.625 43.2057 10.625 41.8438C10.625 40.4818 9.51818 39.375 8.15625 39.375Z" fill="#0285CB"/>
<path fill-rule="evenodd" clip-rule="evenodd" d="M23.5156 8.15625C23.5156 7.38392 24.1417 6.75781 24.9141 6.75781C25.6864 6.75781 26.3125 7.38392 26.3125 8.15625C26.3125 8.92858 25.6864 9.55469 24.9141 9.55469C24.1417 9.55469 23.5156 8.92858 23.5156 8.15625ZM6.75781 25.1719C6.75781 24.3995 7.38392 23.7734 8.15625 23.7734C8.92858 23.7734 9.55469 24.3995 9.55469 25.1719C9.55469 25.9442 8.92858 26.5703 8.15625 26.5703C7.38392 26.5703 6.75781 25.9442 6.75781 25.1719Z" fill="#FF6B01"/>
<path fill-rule="evenodd" clip-rule="evenodd" d="M17.4199 17.2752C17.8204 16.9363 18.4199 16.9863 18.7588 17.3868C18.7913 17.4253 18.8235 17.464 18.8553 17.5031C20.3974 18.6897 22.5932 19.3398 24.8904 19.6303C27.2887 19.9336 29.6664 19.8288 31.229 19.6282C31.7508 19.5612 32.3216 19.6963 32.7624 20.0931C35.7 22.7374 36.9505 26.8342 37.2803 28.8996L46.249 37.8683C46.62 38.2393 46.62 38.8408 46.249 39.2118C45.878 39.5828 45.2765 39.5828 44.9055 39.2118L36.3848 30.6911L34.6152 32.4608C34.2442 32.8318 33.6427 32.8318 33.2717 32.4608C32.9007 32.0898 32.9007 31.4883 33.2717 31.1173L35.3733 29.0156C35.0415 27.1496 33.9083 23.6866 31.4994 21.5126C31.4942 21.5118 31.4846 21.511 31.4709 21.5128C29.7788 21.73 27.2372 21.8422 24.652 21.5153C23.2864 21.3426 21.8706 21.0427 20.5491 20.5492C21.0426 21.8707 21.3425 23.2865 21.5152 24.6521C21.8421 27.2372 21.7299 29.7788 21.5127 31.471C21.5109 31.4846 21.5117 31.4942 21.5126 31.4995C23.8761 34.1184 27.7634 35.2295 29.4654 35.4422L29.7888 35.4827L30.0193 35.7132L39.2117 44.9055C39.5827 45.2765 39.5827 45.8781 39.2117 46.2491C38.8407 46.62 38.2392 46.62 37.8682 46.2491L28.8995 37.2803C26.8341 36.9506 22.7374 35.7001 20.093 32.7624C19.6963 32.3217 19.5612 31.7509 19.6282 31.2291C19.8288 29.6664 19.9335 27.2887 19.6302 24.8905C19.3397 22.5932 18.6896 20.3974 17.503 18.8554C17.4639 18.8235 17.4252 18.7914 17.3868 18.7588C16.9862 18.4199 16.9363 17.8205 17.2752 17.42C17.2975 17.3936 17.3209 17.3687 17.3454 17.3454C17.3687 17.321 17.3935 17.2976 17.4199 17.2752Z" fill="#FF6B01"/>
</svg>
