<svg width="50" height="50" viewBox="0 0 50 50" fill="none" xmlns="http://www.w3.org/2000/svg">
<path d="M9.875 25C9.875 14.6724 17.5944 6.14772 27.5781 4.88117C26.7338 4.77401 25.8734 4.71875 25 4.71875C13.799 4.71875 4.71875 13.799 4.71875 25C4.71875 36.201 13.799 45.2812 25 45.2812C25.8734 45.2812 26.7338 45.226 27.5781 45.1188C17.5944 43.8523 9.875 35.3276 9.875 25Z" fill="#C3E9FE"/>
<path fill-rule="evenodd" clip-rule="evenodd" d="M38.4063 25.9186H33.3914L33.3681 26.6945C33.3455 27.4489 33.3095 28.1974 33.2572 28.9322C33.2228 29.4158 32.8195 29.7858 32.3426 29.7858C32.3205 29.7858 32.2985 29.785 32.2765 29.7835L32.2755 29.7834C31.7694 29.7474 31.3883 29.3079 31.4244 28.8017C31.4727 28.1232 31.5067 27.4351 31.5288 26.7442L31.5553 25.9186H18.4455L18.4906 26.7613C18.7284 31.2091 19.8086 35.1367 20.6351 37.789C20.786 38.2735 20.5156 38.7886 20.0312 38.9395C19.9392 38.9682 19.8472 38.9815 19.7573 38.9815C19.3651 38.9815 19.0029 38.7279 18.8807 38.3356C18.0002 35.5098 16.874 31.3836 16.6465 26.6799L16.6097 25.9186H11.5938C11.0864 25.9186 10.675 25.5072 10.675 24.9998C10.675 24.4924 11.0864 24.0811 11.5938 24.0811H16.6097L16.6468 23.3199C16.8756 18.6174 18.0086 14.4899 18.8945 11.6626C19.0463 11.1781 19.5622 10.9089 20.0459 11.0607C20.5302 11.2124 20.7996 11.7279 20.6479 12.2121C19.8167 14.8648 18.7302 18.7926 18.4908 23.2381L18.4454 24.0811H31.5541L31.5138 23.2427C31.3438 19.7065 30.6628 16.0783 29.4514 12.2121C29.2996 11.7278 29.5693 11.2123 30.0534 11.0607C30.5376 10.9089 31.053 11.1784 31.2048 11.6626C32.4889 15.7608 33.1943 19.589 33.3575 23.3161L33.3911 24.0811H38.4063C38.9137 24.0811 39.3251 24.4924 39.3251 24.9998C39.3251 25.5072 38.9137 25.9186 38.4063 25.9186ZM25 3.7998C19.3358 3.7998 14.0146 6.00394 10.0093 10.0091C6.0042 14.0143 3.80005 19.3356 3.80005 24.9998C3.80005 30.664 6.00419 35.9853 10.0093 39.9905C14.0146 43.9957 19.3358 46.1998 25 46.1998C25.8998 46.1998 26.8063 46.1427 27.6938 46.0301C28.1972 45.9662 28.5535 45.5065 28.4896 45.0031C28.4258 44.4997 27.9657 44.1434 27.4626 44.2073C26.6508 44.3102 25.8226 44.3623 25 44.3623C14.3228 44.3623 5.63755 35.677 5.63755 24.9998C5.63755 14.3226 14.3228 5.6373 25 5.6373C35.6773 5.6373 44.3625 14.3226 44.3625 24.9998C44.3625 25.7918 44.3134 26.5936 44.2164 27.3836C44.1546 27.8872 44.513 28.3456 45.0166 28.4074C45.52 28.4693 45.9784 28.1112 46.0402 27.6074C46.1463 26.7433 46.2001 25.8657 46.2001 24.9997C46.2001 19.3356 43.9959 14.0143 39.9908 10.0091C35.9855 6.00395 30.6643 3.7998 25 3.7998Z" fill="#0285CB"/>
<path d="M39.2593 37.9595L44.9312 43.6314C45.29 43.9901 45.29 44.5719 44.9312 44.9308C44.7517 45.1103 44.518 45.1998 44.2815 45.1998C44.0451 45.1998 43.8114 45.1103 43.6319 44.9308L37.96 39.2589C37.6013 38.9002 37.6012 38.3184 37.9601 37.9595C38.3188 37.6007 38.9005 37.6007 39.2593 37.9595Z" fill="#FF6B01"/>
<path d="M33.68 42.7623C33.1725 42.7623 32.7612 42.351 32.7612 41.8436V37.0311C32.7612 34.6297 34.7162 32.6748 37.1175 32.6748H42.0159C42.5234 32.6748 42.9347 33.0861 42.9347 33.5936C42.9347 34.101 42.5234 34.5123 42.0159 34.5123H37.1175C35.7279 34.5123 34.5987 35.6415 34.5987 37.0311V41.8436C34.5987 42.351 34.1874 42.7623 33.68 42.7623Z" fill="#FF6B01"/>
</svg>
