<svg width="50" height="50" viewBox="0 0 50 50" fill="none" xmlns="http://www.w3.org/2000/svg">
<g clip-path="url(#clip0)">
<path d="M8.94466 40.7641V15.6534C8.94466 14.5243 9.39562 13.4419 10.1974 12.6467L16.9101 5.98945C18.5359 4.37713 20.7329 3.47244 23.0226 3.47244H39.2363C37.7855 2.38242 35.9824 1.73633 34.028 1.73633H17.8143C15.5245 1.73633 13.3275 2.64102 11.7017 4.25343L6.3043 9.60629C4.66081 11.2362 3.73633 13.455 3.73633 15.7697V39.028C3.73633 43.822 7.62244 47.7083 12.4164 47.7086C10.3083 46.1248 8.94466 43.6038 8.94466 40.7641Z" fill="#C3E9FE"/>
<path fill-rule="evenodd" clip-rule="evenodd" d="M34.6502 25.332C34.1332 25.332 33.7141 24.9129 33.7141 24.3959V19.0347C33.7141 15.6731 30.9806 12.9396 27.6189 12.9396H16.1988C15.6818 12.9396 15.2627 12.5205 15.2627 12.0035C15.2627 11.4865 15.6818 11.0674 16.1988 11.0674H27.6189C32.0114 11.0674 35.5863 14.6423 35.5863 19.0347V24.3959C35.5863 24.9129 35.1672 25.332 34.6502 25.332Z" fill="#0285CB"/>
<path d="M37.9366 8.20208C37.582 7.82546 36.9896 7.80768 36.6133 8.16189L35.1376 9.55085C34.7611 9.90511 34.7431 10.4976 35.0974 10.874C35.2817 11.0698 35.5288 11.1686 35.7795 11.1686C36.0105 11.1686 36.2397 11.0845 36.4206 10.9142L37.8964 9.52523C38.2728 9.17098 38.2908 8.57855 37.9366 8.20208Z" fill="#0285CB"/>
<path d="M5.51771 9.19108L10.9153 3.83833C12.7294 2.03911 15.132 1.0498 17.687 1.0498H35.3451C40.647 1.0498 44.9617 5.36455 44.9617 10.6665V30.1105C44.9617 30.6275 44.5426 31.0466 44.0256 31.0466C43.5086 31.0466 43.0895 30.6275 43.0895 30.1105V10.6665C43.0895 6.39548 39.6161 2.92203 35.3451 2.92203H17.687C15.6319 2.92203 13.6928 3.7205 12.2336 5.16762L6.83608 10.5205C5.37908 11.9656 4.54507 13.9673 4.54507 16.0193V39.3382C4.54507 43.6092 8.01852 47.0826 12.2895 47.0826H23.0639C23.5809 47.0826 24 47.5017 24 48.0187C24 48.5357 23.5809 48.9548 23.0639 48.9548H12.2895C6.9876 48.9548 2.67285 44.6401 2.67285 39.3382V16.0193C2.67285 13.4745 3.71085 10.9831 5.51771 9.19108Z" fill="#0285CB"/>
<path d="M15.729 31.0019C15.5457 30.9066 15.41 30.7856 15.322 30.6389C15.2267 30.4922 15.179 30.3346 15.179 30.1659C15.179 29.9166 15.267 29.6966 15.443 29.5059C15.6117 29.3152 15.8243 29.2199 16.081 29.2199C16.2497 29.2199 16.411 29.2602 16.565 29.3409L22.494 32.3219C22.6847 32.4172 22.8277 32.5382 22.923 32.6849C23.0183 32.8316 23.066 32.9892 23.066 33.1579C23.066 33.4072 22.9743 33.6309 22.791 33.8289C22.6077 34.0196 22.3877 34.1149 22.131 34.1149C21.9843 34.1149 21.8377 34.0782 21.691 34.0049L20.646 33.4769L16.609 35.8969C16.4403 36.0069 16.257 36.0619 16.059 36.0619C15.8097 36.0619 15.6007 35.9702 15.432 35.7869C15.256 35.6036 15.168 35.3946 15.168 35.1599C15.168 35.0059 15.2083 34.8629 15.289 34.7309C15.3697 34.5916 15.4943 34.4706 15.663 34.3679L18.765 32.5309L15.729 31.0019ZM23.055 24.9723C23.055 25.2803 22.967 25.5296 22.791 25.7203C22.6077 25.9036 22.3657 25.9953 22.065 25.9953L16.884 25.9953L16.884 27.5463C16.884 27.8689 16.818 28.1109 16.686 28.2723C16.5467 28.4263 16.3377 28.5033 16.059 28.5033C15.7803 28.5033 15.575 28.4263 15.443 28.2723C15.311 28.1109 15.245 27.8689 15.245 27.5463L15.245 22.3983C15.245 22.0756 15.311 21.8373 15.443 21.6833C15.575 21.5219 15.7803 21.4413 16.059 21.4413C16.3377 21.4413 16.5467 21.5219 16.686 21.6833C16.818 21.8373 16.884 22.0756 16.884 22.3983L16.884 23.9493L22.065 23.9493C22.3657 23.9493 22.6077 24.0446 22.791 24.2353C22.967 24.4186 23.055 24.6643 23.055 24.9723Z" fill="#FF6B01"/>
<path d="M34.2629 49.8962C32.6885 49.5707 31.2194 48.8445 30.0661 47.8218C27.1052 45.1961 26.1902 41.0714 27.7543 37.4012C28.1384 36.4999 28.7629 35.5853 29.5366 34.7906L30.2188 34.0901L30.2669 38.1905C30.3129 42.1153 30.3233 42.313 30.5092 42.8076C30.8812 43.7971 31.28 44.427 31.9665 45.1097C33.7399 46.8731 36.3412 47.3132 38.5525 46.224C40.6309 45.2001 41.9412 42.9739 41.789 40.7252C41.6867 39.2147 41.1779 38.1071 40.0795 37.0035C39.249 36.169 38.2718 35.6239 37.208 35.4017C36.1256 35.1755 36.1775 35.1425 36.1775 36.0573V36.847L36.7709 36.9562C39.069 37.379 40.5889 39.6322 40.1099 41.9062C39.9569 42.6325 39.6156 43.2738 39.0679 43.8646C38.2354 44.7624 37.0642 45.1916 36.0415 45.1896C34.3505 45.1863 32.9385 44.2269 32.2542 42.808C32.2542 42.808 32.0749 42.4025 32.0173 42.1519C31.6785 40.6781 31.895 37.5756 31.895 37.5756L31.8688 33.0393L32.137 32.9009C32.2845 32.8247 32.426 32.7624 32.4514 32.7624C32.4768 32.7624 32.509 34.8459 32.523 37.3924C32.523 37.3924 32.1973 40.7306 32.5998 42.0098C32.6579 42.1944 32.7681 42.5101 32.7681 42.5101C33.121 43.2278 33.6864 43.8591 34.4212 44.2066C34.9789 44.4704 35.2597 44.5898 36.0848 44.5898C36.6239 44.5898 37.1015 44.4198 37.6511 44.1675C38.2989 43.87 39.042 43.0812 39.3167 42.3611C40.0733 40.3769 39.0197 38.2422 36.9901 37.647C36.1606 37.4037 36.1775 37.3903 36.1775 38.2909V39.0776L36.5757 39.1839C38.0109 39.5672 38.4489 41.488 37.3222 42.475C36.9241 42.8237 36.5654 42.9779 35.9379 42.9779C35.2674 42.9779 34.6238 42.5727 34.293 41.9512C34.0942 41.5778 34.0775 41.2237 34.0775 41.0615C34.0775 39.5634 34.045 36.869 34.045 36.869L34.0181 32.2472L34.2242 32.1961C34.3375 32.168 34.7955 32.0984 35.242 32.0415C36.7564 31.8486 38.9967 32.3434 40.5018 33.2033C42.5538 34.3755 44.1064 36.3893 44.7528 38.7169C44.9752 39.5176 45 39.7504 45 41.0383C45 42.3205 44.9747 42.561 44.757 43.3442C43.8777 46.5077 41.6411 48.7691 38.4431 49.7283C37.7701 49.9301 37.4548 49.9686 36.2671 49.9939C35.3087 50.0143 34.6875 49.984 34.2629 49.8962Z" fill="#FF6B01"/>
</g>
<defs>
<clipPath id="clip0">
<rect width="50" height="50" fill="white"/>
</clipPath>
</defs>
</svg>
