<svg width="50" height="50" viewBox="0 0 50 50" fill="none" xmlns="http://www.w3.org/2000/svg">
<path d="M22.581 47.5002H17.3136C12.5668 47.5002 8.71875 44.4336 8.71875 39.6868V19.133C8.71875 16.8535 9.6243 12.6673 11.2362 11.0555L18.1266 5.95379C21.4241 2.65629 25.1318 2.77215 28.5 5.95371C26.0952 5.77786 24.1669 5.71298 22.3281 7.55176L14.8927 14.9872C14.3125 15.5675 14.0476 18.3545 14.0476 19.1751V39.6867C14.0476 44.4335 17.8344 47.4999 22.581 47.5002Z" fill="#C3E9FE"/>
<path d="M27.5539 3.6759C24.918 1.47262 21.0828 1.47262 18.4469 3.6759L10.0882 10.6628C8.70168 11.8218 7.90039 13.5359 7.90039 15.343V42C7.90039 45.369 10.6315 48.1 14.0004 48.1L25.103 48.1C25.6557 48.1 26.1004 47.6519 26.1004 47.1C26.1004 46.5478 25.6527 46.1 25.1004 46.1H14.0004C11.736 46.1 9.90039 44.2644 9.90039 42V15.343C9.90039 14.1284 10.439 12.9763 11.3709 12.1973L19.7296 5.21042C21.6229 3.62778 24.3778 3.62778 26.2712 5.21042L34.6299 12.1973C35.5618 12.9763 36.1004 14.1284 36.1004 15.343V24.1C36.1004 24.6523 36.5481 25.1 37.1004 25.1C37.6527 25.1 38.1004 24.6523 38.1004 24.1V15.343C38.1004 13.5359 37.2991 11.8218 35.9126 10.6628L27.5539 3.6759Z" fill="#0285CB"/>
<path d="M22.4434 15.4429C21.3388 15.4429 20.4434 16.3383 20.4434 17.4429C20.4434 18.5474 21.3388 19.4429 22.4434 19.4429C23.5479 19.4429 24.4434 18.5474 24.4434 17.4429C24.4434 16.3383 23.5479 15.4429 22.4434 15.4429Z" fill="#0285CB"/>
<path d="M29.8137 34.8906C29.8137 32.372 31.5513 30.5237 33.8385 30.1539C33.5661 30.1099 33.2859 30.0867 33 30.0859C30.3128 30.0928 28.1367 32.0721 28.1367 34.8906C28.1367 38.3916 31.5746 40.9844 31.5746 40.9844H34.2012C34.2012 40.9844 29.8137 38.2012 29.8137 34.8906Z" fill="#A8E1FF"/>
<path d="M31.3645 42.5673C31.6068 42.4891 31.8665 42.6222 31.9447 42.8645L32.1346 43.4533H33.8363L34.0263 42.8645C34.0622 42.753 34.1367 42.6646 34.2302 42.6093C34.3399 42.5445 34.4757 42.5252 34.6065 42.5673C34.8487 42.6455 34.9818 42.9052 34.9036 43.1475L34.6106 44.0557C34.5492 44.2461 34.372 44.3751 34.172 44.3751H31.7989C31.5989 44.3751 31.4217 44.2461 31.3603 44.0557L31.0673 43.1475C30.9892 42.9052 31.1222 42.6455 31.3645 42.5673Z" fill="#FF6B01"/>
<path fill-rule="evenodd" clip-rule="evenodd" d="M32.8003 32.2498C32.8003 32.0013 33.0018 31.7998 33.2503 31.7998C34.0559 31.7998 34.7988 32.2767 35.3222 32.9397C35.8514 33.61 36.2003 34.52 36.2003 35.4998C36.2003 35.7483 35.9988 35.9498 35.7503 35.9498C35.5018 35.9498 35.3003 35.7483 35.3003 35.4998C35.3003 34.7296 35.0241 34.0146 34.6158 33.4974C34.2018 32.9729 33.6947 32.6998 33.2503 32.6998C33.0018 32.6998 32.8003 32.4983 32.8003 32.2498Z" fill="#FF6B01"/>
<path d="M34.1427 41.5C34.6391 41.5 35.1211 41.3195 35.4732 40.9696C36.934 39.5177 38.5 37.4012 38.5 35C38.5 31.9624 36.0376 29.5 33 29.5C29.9624 29.5 27.5 31.9624 27.5 35C27.5 37.4012 29.066 39.5177 30.5268 40.9696C30.8789 41.3195 31.3609 41.5 31.8573 41.5H34.1427Z" fill="#FF6B01"/>
</svg>
