<svg width="50" height="50" viewBox="0 0 50 50" fill="none" xmlns="http://www.w3.org/2000/svg">
<path d="M9.45113 29.0544V14.3916C9.45113 9.45823 13.4406 5.45898 18.362 5.45898H12.9363C8.00086 5.45898 4 9.45984 4 14.3953V29.0507C4 33.9861 8.00086 37.987 12.9363 37.987H18.362C13.4406 37.987 9.45113 33.9878 9.45113 29.0544Z" fill="#C3E9FE"/>
<path d="M37.1539 38.9515H12.8453C7.38831 38.9515 2.94727 34.5105 2.94727 29.0534V14.3961C2.94727 8.93794 7.38912 4.49609 12.8472 4.49609H20.8899C21.4221 4.49609 21.8536 4.92752 21.8536 5.45978C21.8536 5.99204 21.4221 6.42347 20.8899 6.42347H12.8472C8.45041 6.42347 4.87464 9.99924 4.87464 14.3961V29.0534C4.87464 33.4492 8.44961 37.0241 12.8453 37.0241H37.1539C41.5507 37.0241 45.1265 33.4484 45.1265 29.0515V26.6387C45.1265 26.1065 45.5579 25.6751 46.0902 25.6751C46.6224 25.6751 47.0538 26.1065 47.0538 26.6387V29.0515C47.0538 34.5096 42.612 38.9515 37.1539 38.9515Z" fill="#0285CB"/>
<path d="M33.5794 44.0306C34.1116 44.0306 34.5431 44.462 34.5431 44.9943C34.5431 45.5265 34.1116 45.958 33.5794 45.958H16.4217C15.8895 45.958 15.458 45.5265 15.458 44.9943C15.458 44.462 15.8895 44.0306 16.4217 44.0306H33.5794Z" fill="#0285CB"/>
<path fill-rule="evenodd" clip-rule="evenodd" d="M37 3H32C30.3431 3 29 4.34315 29 6V22C29 23.6569 30.3431 25 32 25H37C38.6569 25 40 23.6569 40 22V6C40 4.34315 38.6569 3 37 3ZM32 1C29.2386 1 27 3.23858 27 6V22C27 24.7614 29.2386 27 32 27H37C39.7614 27 42 24.7614 42 22V6C42 3.23858 39.7614 1 37 1H32Z" fill="#FF6B01"/>
<circle cx="34.5" cy="21.5" r="1.5" fill="#FF6B01"/>
</svg>
