<svg width="50" height="50" viewBox="0 0 50 50" fill="none" xmlns="http://www.w3.org/2000/svg">
<path opacity="0.2" d="M25.2418 29.8732C19.5116 20.5068 24.5257 16.1541 25.9581 14.0054C25.2529 13.1238 19.3833 14.3727 16.5366 15.1073C16.7203 16.852 17.264 21.2892 17.9693 25.0798C18.6745 28.8705 23.1115 29.8549 25.2418 29.8732Z" fill="white"/>
<path fill-rule="evenodd" clip-rule="evenodd" d="M28.2551 3.19027C26.4197 1.48861 23.5465 1.48871 21.7112 3.19027L17.1586 7.41116C14.2145 10.1408 12.2725 13.8311 11.6899 17.8034C11.1467 21.5068 11.8065 25.3144 13.5481 28.6167L11.6411 30.093C9.47555 31.7694 7.69387 33.9546 6.48786 36.4132C5.28185 38.8719 4.64453 41.6184 4.64453 44.357V47.1643C4.64453 47.6733 5.05712 48.0857 5.56599 48.0857C6.07487 48.0857 6.48745 47.6733 6.48745 47.1643V44.3569C6.48745 41.8985 7.05984 39.4319 8.14244 37.2247C9.22504 35.0174 10.8252 33.0549 12.7692 31.5502L14.4745 30.2301L15.6496 32.2268C15.8215 32.519 16.1293 32.681 16.4444 32.681C16.6033 32.681 16.7646 32.6399 16.9111 32.5536C17.3497 32.2955 17.496 31.7307 17.2379 31.2921L15.5321 28.3935C13.7485 25.3626 13.0244 21.7888 13.4817 18.3048L13.6092 18.2078C14.2709 17.7035 14.9587 17.2479 15.6686 16.8411L15.8126 18.0708L15.7884 18.0708C15.7878 18.3331 15.8723 19.0571 15.9562 19.7397C16.0292 20.3334 16.1133 20.9811 16.1771 21.4727L16.1772 21.4728L16.2165 21.7763L16.2462 21.7724L16.2985 22.219C16.6798 25.4756 18.4457 28.4123 21.1433 30.2761C22.2711 31.0552 23.5917 31.4443 24.9115 31.4443C26.2312 31.4443 27.552 31.0552 28.6797 30.276C31.3774 28.4123 33.1432 25.4756 33.5246 22.219L34.1543 16.8411C34.8643 17.248 35.5521 17.7036 36.2139 18.2079L36.5008 18.4264C36.5409 18.7517 36.5714 19.0788 36.5916 19.4077C36.7842 22.561 36.0385 25.6679 34.4344 28.3936L32.7287 31.2922C32.4705 31.7307 32.6169 32.2956 33.0555 32.5537C33.2019 32.6399 33.3632 32.6811 33.5222 32.6811C33.8372 32.6811 34.1451 32.519 34.317 32.2269L35.5031 30.2114L37.2329 31.5502C39.1768 33.055 40.7769 35.0176 41.8596 37.2248C42.9423 39.4319 43.5146 41.8985 43.5146 44.357V47.1643C43.5146 47.6733 43.9272 48.0857 44.436 48.0857C44.9449 48.0857 45.3575 47.6733 45.3575 47.1643V44.3569C45.3571 41.6183 44.7198 38.8718 43.5139 36.4132C42.3079 33.9545 40.5262 31.7693 38.3607 30.0929L36.4294 28.5979C37.9381 25.7358 38.6289 22.5371 38.4309 19.2953C38.2217 15.8717 37.0387 12.6161 35.0074 9.86909L35.0186 9.86079C34.6925 9.42572 34.1438 8.77658 33.6523 8.2515C33.4504 8.0357 33.2432 7.83039 33.0564 7.65272L33.059 7.64993L32.855 7.45562L32.8095 7.4126L28.2551 3.19027ZM18.074 21.536L18.1289 22.0047C18.4486 24.7351 19.9291 27.1973 22.1908 28.7598C23.8176 29.8838 26.0053 29.884 27.6321 28.7599C29.8938 27.1973 31.3744 24.7351 31.6941 22.0047L32.4025 15.9558C30.0633 14.9262 27.5305 14.3924 24.9115 14.3924C22.2924 14.3924 19.7597 14.9262 17.4205 15.9558L17.6686 18.0749L17.6884 18.075L17.6884 18.0741C17.6884 18.0741 17.6886 18.0844 17.69 18.1089C17.6915 18.1351 17.6939 18.1698 17.6976 18.2135C17.7048 18.301 17.7158 18.4134 17.73 18.5468C17.7583 18.8133 17.7979 19.1485 17.842 19.5078C17.9141 20.0944 17.9971 20.7338 18.061 21.2255L18.061 21.2256L18.1008 21.5326L18.074 21.536ZM33.5096 10.9762L33.5255 10.9645C34.6065 12.4265 35.4188 14.0494 35.9396 15.7693C32.6465 13.6583 28.8668 12.5495 24.9115 12.5495C21.0292 12.5495 17.3164 13.6183 14.0666 15.6542C14.8874 13.0323 16.384 10.6425 18.4117 8.76263L22.9643 4.54173C24.0958 3.49265 25.8706 3.49263 27.0023 4.54174L27.0042 4.54345L27.4674 4.96754C27.7567 5.23276 28.1607 5.60377 28.6197 6.02691C29.4452 6.78797 30.4477 7.71697 31.2797 8.50228L31.2598 8.5255L31.2621 8.52748L31.2691 8.53373C31.2753 8.53927 31.2835 8.54666 31.2937 8.55615C31.3143 8.57526 31.3405 8.6001 31.3723 8.63083C31.4358 8.69232 31.5159 8.77179 31.6089 8.86593C31.7947 9.05397 32.0249 9.29312 32.2651 9.54984C32.7555 10.0737 33.2519 10.6324 33.5096 10.9762Z" fill="white"/>
<path fill-rule="evenodd" clip-rule="evenodd" d="M14.8074 35.04C12.9834 35.04 11.5 36.5234 11.5 38.3474V47.1102C11.5 47.6192 11.9126 48.0316 12.4215 48.0316C12.9303 48.0316 13.3429 47.6192 13.3429 47.1102V38.3474C13.3429 37.5401 14.0001 36.883 14.8074 36.883H29.8623C30.3712 36.883 30.7838 36.4705 30.7838 35.9615C30.7838 35.4525 30.3712 35.04 29.8623 35.04H14.8074ZM31.8027 35.9615C31.8027 35.4525 32.2153 35.04 32.7242 35.04H35.0109C36.8349 35.04 38.3183 36.5234 38.3183 38.3474V47.1102C38.3183 47.6192 37.9057 48.0316 37.3968 48.0316C36.888 48.0316 36.4754 47.6192 36.4754 47.1102V38.3474C36.4754 37.5402 35.8183 36.883 35.0109 36.883H32.7242C32.2153 36.883 31.8027 36.4705 31.8027 35.9615Z" fill="#FF6B01"/>
<path fill-rule="evenodd" clip-rule="evenodd" d="M20.9316 47.7677C21.2911 47.6628 21.4902 47.2855 21.4573 46.9125C21.4303 46.6059 21.4442 46.2959 21.4996 45.9913C21.5956 45.4633 21.8132 44.9649 22.1353 44.5356C22.4574 44.1063 22.8751 43.7579 23.3552 43.5181C23.8353 43.2782 24.3647 43.1535 24.9014 43.1539C25.4381 43.1542 25.9674 43.2795 26.4472 43.5199C26.927 43.7603 27.3443 44.1092 27.6658 44.5389C27.9874 44.9686 28.2045 45.4673 28.2998 45.9955C28.3548 46.3002 28.3684 46.61 28.3411 46.9164C28.3078 47.2893 28.5063 47.6667 28.8655 47.7722C29.2249 47.8778 29.6069 47.6719 29.6608 47.3012C29.7219 46.8806 29.7271 46.4532 29.6758 46.0301C29.6646 45.938 29.6508 45.8461 29.6342 45.7546C29.5015 45.0192 29.1992 44.3248 28.7515 43.7264C28.3037 43.1281 27.7227 42.6423 27.0546 42.3076C26.3865 41.9728 25.6495 41.7983 24.9022 41.7979C24.1549 41.7974 23.4178 41.971 22.7492 42.305C22.0807 42.6389 21.4991 43.124 21.0507 43.7218C20.6022 44.3196 20.2991 45.0136 20.1655 45.7488C20.1488 45.8404 20.1349 45.9322 20.1236 46.0243C20.0718 46.4474 20.0765 46.8749 20.1371 47.2956C20.1905 47.6663 20.5721 47.8727 20.9316 47.7677Z" fill="#FF6B01" stroke="#FF6B01" stroke-width="0.7"/>
<path fill-rule="evenodd" clip-rule="evenodd" d="M33.2441 36.8827H29.2324V35.0361H33.2441V36.8827Z" fill="#FF6B01"/>
</svg>
