<svg width="50" height="50" viewBox="0 0 50 50" fill="none" xmlns="http://www.w3.org/2000/svg">
<path d="M12.6152 40.0781C12.6152 38.266 14.0843 36.7969 15.8965 36.7969H8.97461C7.16246 36.7969 5.69336 38.266 5.69336 40.0781C5.69336 41.8903 7.16246 43.3594 8.97461 43.3594H15.8965C14.0843 43.3594 12.6152 41.8903 12.6152 40.0781Z" fill="#C3E9FE"/>
<path fill-rule="evenodd" clip-rule="evenodd" d="M41.1308 35.8564C43.4581 35.8564 45.3527 37.751 45.3527 40.0783C45.3527 42.4056 43.4581 44.3002 41.1308 44.3002H8.97456C6.64724 44.3002 4.75269 42.4056 4.75269 40.0783C4.75269 37.751 6.64724 35.8564 8.97456 35.8564H41.1308ZM43.4714 40.0783C43.4714 38.7871 42.4221 37.7377 41.1308 37.7377H8.97456C7.68332 37.7377 6.63394 38.7871 6.63394 40.0783C6.63394 41.3696 7.68332 42.4189 8.97456 42.4189H41.1308C42.4221 42.4189 43.4714 41.3696 43.4714 40.0783Z" fill="#0285CB"/>
<path d="M4.96369 33.0534C4.43146 33.0534 4 32.622 4 32.0897V15.3961C4 9.93794 8.44185 5.49609 13.9 5.49609H21.9426C22.4749 5.49609 22.9063 5.92752 22.9063 6.45978C22.9063 6.99204 22.4749 7.42347 21.9426 7.42347H13.9C9.50315 7.42347 5.92738 10.9992 5.92738 15.3961V32.0897C5.92738 32.622 5.49592 33.0534 4.96369 33.0534Z" fill="#0285CB"/>
<path d="M43.0527 31L43.0527 21" stroke="#0285CB" stroke-width="2" stroke-linecap="round"/>
<path d="M41.359 12.8977L40.4073 12.3315C40.5938 11.7536 40.6954 11.1384 40.6954 10.5C40.6954 9.86151 40.5938 9.24639 40.4073 8.66853L41.359 8.10222C42.0355 7.69968 42.2549 6.82949 41.8489 6.15863C41.4429 5.48776 40.5653 5.27002 39.889 5.67278L38.9198 6.2495C38.1429 5.47728 37.1559 4.91408 36.0527 4.6491V3.41667C36.0527 2.63424 35.4131 2 34.6242 2C33.8352 2 33.1956 2.63424 33.1956 3.41667V4.6491C32.0672 4.9201 31.0613 5.50413 30.2765 6.30348L29.2165 5.67271C28.5401 5.27009 27.6625 5.48769 27.2566 6.15855C26.8507 6.82942 27.07 7.69968 27.7465 8.10215L28.8182 8.73979C28.6461 9.29697 28.5529 9.88779 28.5529 10.5C28.5529 11.1121 28.6461 11.703 28.8182 12.2601L27.7465 12.8977C27.07 13.3003 26.8506 14.1705 27.2565 14.8414C27.5245 15.2841 27.9976 15.5294 28.4829 15.5294C28.733 15.5294 28.9864 15.4642 29.2165 15.3273L30.2766 14.6965C31.0613 15.4959 32.0672 16.0799 33.1956 16.3509V17.5833C33.1956 18.3658 33.8352 19 34.6242 19C35.4131 19 36.0527 18.3658 36.0527 17.5833V16.3509C37.1559 16.0859 38.1428 15.5227 38.9197 14.7506L39.889 15.3274C40.1191 15.4643 40.3725 15.5294 40.6226 15.5294C41.1079 15.5294 41.5811 15.2842 41.8489 14.8414C42.2549 14.1704 42.0355 13.3003 41.359 12.8977ZM34.6242 13.6875C32.8519 13.6875 31.41 12.2576 31.41 10.5C31.41 8.74241 32.8519 7.3125 34.6242 7.3125C36.3965 7.3125 37.8383 8.74241 37.8383 10.5C37.8383 12.2576 36.3965 13.6875 34.6242 13.6875Z" fill="#FF6B01"/>
<circle cx="12.0527" cy="27" r="2" fill="#0285CB"/>
</svg>
