<svg width="36" height="36" viewBox="0 0 36 36" fill="none" xmlns="http://www.w3.org/2000/svg">
<path d="M9.79828 30.4564C9.79828 25.5 7.6875 22.9219 7.6875 22.9219V17.9791C7.6875 16.2446 8.78543 14.7666 10.3242 14.2021C9.89232 14.0436 9.42568 13.957 8.93883 13.957H8.19398C5.97264 13.957 4.17188 15.7578 4.17188 17.9791V22.9219C4.17188 22.9219 6.28266 25.5 6.28266 30.4564C6.28266 31.235 6.99826 31.8281 7.77691 31.8281H9.3559C9.71297 31.8281 10.0566 31.7031 10.3242 31.493C10.0083 31.2449 9.79828 30.878 9.79828 30.4564Z" fill="#C3E9FE"/>
<path fill-rule="evenodd" clip-rule="evenodd" d="M5.36078 30.4564C5.36078 25.9713 3.50442 23.5619 3.45863 23.5059C3.32375 23.3412 3.25 23.1348 3.25 22.9219V17.9791C3.25 15.2533 5.46811 13.0352 8.19398 13.0352H8.93883C10.3476 13.0352 11.6936 13.6388 12.6313 14.6914C12.97 15.0715 12.9364 15.6543 12.5562 15.9929C12.1761 16.3316 11.5933 16.298 11.2547 15.9179C10.6664 15.2576 9.82244 14.8789 8.93883 14.8789H8.19398C6.48431 14.8789 5.09375 16.2695 5.09375 17.9791V22.6225L5.13575 22.6854C5.73741 23.5878 7.20447 26.222 7.20447 30.4564C7.20447 30.5507 7.24662 30.6248 7.2794 30.669C7.31541 30.7176 7.36092 30.7586 7.4086 30.7913C7.50343 30.8564 7.63257 30.9062 7.77686 30.9062H9.35584C9.50012 30.9062 9.62926 30.8564 9.72409 30.7913C9.77178 30.7586 9.81728 30.7176 9.8533 30.669C9.88607 30.6248 9.92822 30.5507 9.92822 30.4564C9.92822 29.6431 9.98303 28.8394 10.0909 28.0677C10.1614 27.5636 10.6272 27.212 11.1317 27.2824C11.6359 27.3529 11.9874 27.8188 11.9169 28.323C11.8207 29.0115 11.772 29.7292 11.772 30.4564C11.772 31.7099 10.6992 32.75 9.3559 32.75H7.77691C6.43366 32.75 5.36078 31.7099 5.36078 30.4564ZM32.75 22.9219C32.75 23.1416 32.6818 23.3378 32.5457 23.5007L32.5398 23.508C32.4426 23.6336 30.6393 26.0334 30.6393 30.4564C30.6393 31.7099 29.5663 32.75 28.2231 32.75H26.6442C25.3009 32.75 24.228 31.7099 24.228 30.4564C24.228 29.7292 24.1793 29.0115 24.0831 28.323C24.0126 27.8188 24.3641 27.3529 24.8683 27.2824C25.3732 27.212 25.8386 27.5635 25.9091 28.0677C26.017 28.8394 26.0718 29.6431 26.0718 30.4564C26.0718 30.5507 26.1139 30.6248 26.1467 30.669C26.1827 30.7176 26.2282 30.7586 26.2759 30.7913C26.3707 30.8564 26.4999 30.9062 26.6442 30.9062H28.2231C28.3674 30.9062 28.4966 30.8564 28.5914 30.7913C28.6391 30.7586 28.6846 30.7176 28.7206 30.669C28.7534 30.6248 28.7955 30.5507 28.7955 30.4564C28.7955 26.222 30.2626 23.5878 30.8643 22.6854L30.9062 22.6225V17.9791C30.9062 16.2695 29.5157 14.8789 27.806 14.8789H27.0612C26.1934 14.8789 25.36 15.2461 24.7737 15.8865C24.5664 16.113 24.3365 16.1919 24.1217 16.1852C23.9001 16.1783 23.6756 16.079 23.4972 15.9157C23.3187 15.7524 23.2001 15.5375 23.1737 15.3173C23.1481 15.1039 23.2065 14.868 23.4138 14.6415C24.3482 13.6208 25.678 13.0352 27.0612 13.0352H27.806C30.5319 13.0352 32.75 15.2533 32.75 17.9791V22.9219ZM8.50781 3.25C10.5667 3.25 12.2422 4.92547 12.2422 6.98438C12.2422 9.04328 10.5667 10.7188 8.50781 10.7188C6.44891 10.7188 4.77344 9.04328 4.77344 6.98438C4.77344 4.92547 6.44891 3.25 8.50781 3.25ZM8.50781 8.875C9.55051 8.875 10.3984 8.02708 10.3984 6.98438C10.3984 5.94167 9.55051 5.09375 8.50781 5.09375C7.46511 5.09375 6.61719 5.94167 6.61719 6.98438C6.61719 8.02708 7.46511 8.875 8.50781 8.875ZM27.375 3.25C29.4339 3.25 31.1094 4.92547 31.1094 6.98438C31.1094 9.04328 29.4339 10.7188 27.375 10.7188C25.3161 10.7188 23.6406 9.04328 23.6406 6.98438C23.6406 4.92547 25.3161 3.25 27.375 3.25ZM27.375 8.875C28.4177 8.875 29.2656 8.02708 29.2656 6.98438C29.2656 5.94167 28.4177 5.09375 27.375 5.09375C26.3323 5.09375 25.4844 5.94167 25.4844 6.98438C25.4844 8.02708 26.3323 8.875 27.375 8.875Z" fill="#0285CB"/>
<path fill-rule="evenodd" clip-rule="evenodd" d="M20.8066 25.1983C20.4458 25.5576 20.4446 26.1413 20.8039 26.502C20.9841 26.683 21.2201 26.7734 21.4571 26.7734C21.6927 26.7734 21.9277 26.6839 22.1076 26.5047L23.9743 24.6457C25.3605 23.2586 25.3601 21.0011 23.9715 19.6121L22.1075 17.7568C21.7465 17.3976 21.1629 17.399 20.8037 17.7598C20.4445 18.1207 20.4459 18.7044 20.8067 19.0635L22.6697 20.9178C23.3382 21.5862 23.3382 22.674 22.6715 23.3411L20.8066 25.1983ZM15.1935 25.1983C15.5543 25.5576 15.5555 26.1413 15.1962 26.5021C15.0161 26.6829 14.78 26.7734 14.543 26.7734C14.3073 26.7734 14.0724 26.6839 13.8924 26.5047L12.0277 24.6477C10.6393 23.2585 10.6401 21.001 12.0266 19.614L13.8926 17.7568C14.2536 17.3976 14.8373 17.399 15.1964 17.7598C15.5556 18.1207 15.5542 18.7044 15.1933 19.0635L13.3285 20.9197C12.6616 21.5866 12.6623 22.6744 13.3305 23.343L15.1935 25.1983ZM19.7579 21.2383C20.267 21.2383 20.6797 21.651 20.6797 22.1601C20.6797 22.6693 20.267 23.082 19.7579 23.082H16.125C15.6159 23.082 15.2032 22.6693 15.2032 22.1601C15.2032 21.651 15.6159 21.2383 16.125 21.2383H19.7579Z" fill="#FF6B01"/>
</svg>
