<svg width="36" height="36" viewBox="0 0 36 36" fill="none" xmlns="http://www.w3.org/2000/svg">
<path fill-rule="evenodd" clip-rule="evenodd" d="M1.1001 6.0001C1.1001 5.50304 1.50304 5.1001 2.0001 5.1001H5.16983C7.03948 5.1001 8.64609 6.42694 8.99951 8.26288L11.6438 21.9995C11.7075 22.3073 11.8806 22.5883 12.139 22.7912C12.399 22.9954 12.7278 23.1062 13.0679 23.0998L13.0847 23.0997H26.8175L26.8343 23.0998C27.1745 23.1062 27.5033 22.9954 27.7633 22.7912C28.0228 22.5874 28.1963 22.3048 28.2593 21.9955C28.2618 21.983 28.2646 21.9705 28.2677 21.9581L30.51 12.9318C30.6824 12.238 30.1574 11.5666 29.4425 11.5666H15.5001C15.003 11.5666 14.6001 11.1637 14.6001 10.6666C14.6001 10.1696 15.003 9.76663 15.5001 9.76663H29.4425C31.3273 9.76663 32.7114 11.5365 32.2569 13.3658L30.0189 22.375C29.866 23.101 29.4596 23.7479 28.875 24.2069C28.2877 24.6681 27.557 24.9116 26.8097 24.8997H13.0925C12.3453 24.9116 11.6145 24.6681 11.0273 24.2069C10.4372 23.7436 10.0287 23.0889 9.87919 22.3546L9.87727 22.3452L9.87732 22.3452L7.23196 8.60313C7.04166 7.61455 6.17656 6.9001 5.16983 6.9001H2.0001C1.50304 6.9001 1.1001 6.49715 1.1001 6.0001Z" fill="#0285CB"/>
<path fill-rule="evenodd" clip-rule="evenodd" d="M13.5 32.2C14.4389 32.2 15.2 31.4389 15.2 30.5C15.2 29.5611 14.4389 28.8 13.5 28.8C12.5611 28.8 11.8 29.5611 11.8 30.5C11.8 31.4389 12.5611 32.2 13.5 32.2ZM13.5 34C15.433 34 17 32.433 17 30.5C17 28.567 15.433 27 13.5 27C11.567 27 10 28.567 10 30.5C10 32.433 11.567 34 13.5 34Z" fill="#FF6B01"/>
<path fill-rule="evenodd" clip-rule="evenodd" d="M25.5 32.2C26.4389 32.2 27.2 31.4389 27.2 30.5C27.2 29.5611 26.4389 28.8 25.5 28.8C24.5611 28.8 23.8 29.5611 23.8 30.5C23.8 31.4389 24.5611 32.2 25.5 32.2ZM25.5 34C27.433 34 29 32.433 29 30.5C29 28.567 27.433 27 25.5 27C23.567 27 22 28.567 22 30.5C22 32.433 23.567 34 25.5 34Z" fill="#FF6B01"/>
<path fill-rule="evenodd" clip-rule="evenodd" d="M19.1001 20.0001C19.1001 19.503 19.503 19.1001 20.0001 19.1001L26.0001 19.1001C26.4972 19.1001 26.9001 19.503 26.9001 20.0001C26.9001 20.4972 26.4972 20.9001 26.0001 20.9001L20.0001 20.9001C19.503 20.9001 19.1001 20.4972 19.1001 20.0001Z" fill="#FF6B01"/>
</svg>
