<svg width="36" height="36" viewBox="0 0 36 36" fill="none" xmlns="http://www.w3.org/2000/svg">
<path d="M9.79576 26.0702V9.92977C9.79576 6.65484 12.5736 4 16.0002 4H12.2224C8.78597 4 4.00024 6.65591 4.00024 9.9322V26.0678C4.00024 29.344 8.78597 32 12.2224 32H16.0002C12.5736 32 9.79576 29.3452 9.79576 26.0702Z" fill="#C3E9FE"/>
<path fill-rule="evenodd" clip-rule="evenodd" d="M25.7346 32.8002H10.2658C6.36378 32.8002 3.2002 29.7294 3.2002 25.9689V10.0314C3.2002 6.271 6.36378 3.2002 10.2658 3.2002H25.7346C29.6366 3.2002 32.8002 6.271 32.8002 10.0314V25.9689C32.8002 29.7294 29.6366 32.8002 25.7346 32.8002ZM10.2658 5.14395C7.49075 5.14395 5.22207 7.33017 5.22207 10.0314V25.9689C5.22207 28.6702 7.49075 30.8564 10.2658 30.8564H25.7346C28.5096 30.8564 30.7783 28.6702 30.7783 25.9689V10.0314C30.7783 7.33017 28.5096 5.14395 25.7346 5.14395H10.2658Z" fill="#0285CB"/>
<path fill-rule="evenodd" clip-rule="evenodd" d="M23.9181 13.6867C24.301 13.3066 24.926 13.3047 25.3114 13.6824C25.6937 14.0572 25.6956 14.6643 25.3158 15.0413L19.8524 20.464C19.1162 21.1964 18.1364 21.6004 17.0908 21.6004C16.0453 21.6004 15.0657 21.1968 14.3284 20.4632L11.6822 17.8306C11.3029 17.4532 11.3055 16.846 11.6882 16.4717C11.973 16.1933 12.388 16.1218 12.7397 16.2564C12.8645 16.3042 12.9813 16.378 13.0815 16.4776L15.7277 19.1102C16.0919 19.4726 16.5772 19.6731 17.0908 19.6731C17.6043 19.6731 18.0896 19.4725 18.4539 19.1103L23.5614 14.0407L23.9181 13.6867Z" fill="#FF6B01"/>
</svg>
