<svg width="50" height="50" viewBox="0 0 50 50" fill="none" xmlns="http://www.w3.org/2000/svg">
<path d="M9.45113 29.0544V14.3916C9.45113 9.45823 13.4406 5.45898 18.362 5.45898H12.9363C8.00086 5.45898 4 9.45984 4 14.3953V29.0507C4 33.9861 8.00086 37.987 12.9363 37.987H18.362C13.4406 37.987 9.45113 33.9878 9.45113 29.0544Z" fill="#C3E9FE"/>
<path fill-rule="evenodd" clip-rule="evenodd" d="M20.1355 4.49542L19.9903 4.49512L12.8472 4.49542C7.38912 4.49542 2.94727 8.93727 2.94727 14.3954V29.0527C2.94727 34.5098 7.38831 38.9508 12.8453 38.9508H37.1539C42.612 38.9508 47.0538 34.509 47.0538 29.0509V26.6381C47.0538 26.608 47.0525 26.5782 47.0498 26.5488L46.9925 14.4339C46.9666 8.96529 42.5322 4.54251 37.0635 4.53101L20.9477 4.49713C20.9286 4.496 20.9093 4.49542 20.8899 4.49542H20.1355ZM21.1103 6.39748L37.0595 6.43101C41.4839 6.44031 45.0716 10.0185 45.0925 14.4429L45.1492 26.4291C45.1343 26.4964 45.1265 26.5663 45.1265 26.6381V29.0509C45.1265 33.4477 41.5507 37.0235 37.1539 37.0235H12.8453C8.44961 37.0235 4.87464 33.4485 4.87464 29.0527V14.3954C4.87464 9.99857 8.45041 6.4228 12.8472 6.4228H20.8899C20.9657 6.4228 21.0395 6.41404 21.1103 6.39748Z" fill="#0285CB"/>
<path d="M34.5431 44.9936C34.5431 44.4613 34.1116 44.0299 33.5794 44.0299H16.4217C15.8895 44.0299 15.458 44.4613 15.458 44.9936C15.458 45.5259 15.8895 45.9573 16.4217 45.9573H33.5794C34.1116 45.9573 34.5431 45.5259 34.5431 44.9936Z" fill="#0285CB"/>
<path d="M10.2422 18.0001L11.6564 19.4143C13.2185 20.9764 13.2185 23.509 11.6564 25.0711L10.2422 26.4854" stroke="#FF6B01" stroke-width="2" stroke-linecap="round" stroke-linejoin="round"/>
<path d="M40.2422 26.4853L38.828 25.0711C37.2659 23.509 37.2659 20.9763 38.828 19.4142L40.2422 18" stroke="#FF6B01" stroke-width="2" stroke-linecap="round" stroke-linejoin="round"/>
<line x1="19" y1="22" x2="31" y2="22" stroke="#FF6B01" stroke-width="2" stroke-linecap="round"/>
</svg>
