<svg width="50" height="50" viewBox="0 0 50 50" fill="none" xmlns="http://www.w3.org/2000/svg">
<path d="M9.45113 29.0544V14.3916C9.45113 9.45823 13.4406 5.45898 18.362 5.45898H12.9363C8.00086 5.45898 4 9.45984 4 14.3953V29.0507C4 33.9861 8.00086 37.987 12.9363 37.987H18.362C13.4406 37.987 9.45113 33.9878 9.45113 29.0544Z" fill="#C3E9FE"/>
<path fill-rule="evenodd" clip-rule="evenodd" d="M20.1355 4.49542L19.9903 4.49512L12.8472 4.49542C7.38912 4.49542 2.94727 8.93727 2.94727 14.3954V29.0527C2.94727 34.5098 7.38831 38.9508 12.8453 38.9508H37.1539C42.612 38.9508 47.0538 34.509 47.0538 29.0509V26.6381C47.0538 26.608 47.0525 26.5782 47.0498 26.5488L46.9925 14.4339C46.9666 8.96529 42.5322 4.54251 37.0635 4.53101L20.9477 4.49713C20.9286 4.496 20.9093 4.49542 20.8899 4.49542H20.1355ZM21.1103 6.39748L37.0595 6.43101C41.4839 6.44031 45.0716 10.0185 45.0925 14.4429L45.1492 26.4291C45.1343 26.4964 45.1265 26.5663 45.1265 26.6381V29.0509C45.1265 33.4477 41.5507 37.0235 37.1539 37.0235H12.8453C8.44961 37.0235 4.87464 33.4485 4.87464 29.0527V14.3954C4.87464 9.99857 8.45041 6.4228 12.8472 6.4228H20.8899C20.9657 6.4228 21.0395 6.41404 21.1103 6.39748Z" fill="#0285CB"/>
<path d="M39.5783 44.9936C39.5783 44.4613 39.1468 44.0299 38.6146 44.0299H13C12.4677 44.0299 12.0363 44.4613 12.0363 44.9936C12.0363 45.5259 12.4677 45.9573 13 45.9573H38.6146C39.1468 45.9573 39.5783 45.5259 39.5783 44.9936Z" fill="#0285CB"/>
<path d="M20.6411 26.055C20.3331 26.055 20.0837 25.967 19.8931 25.791C19.7097 25.6077 19.6181 25.3657 19.6181 25.065V19.884H18.0671C17.7444 19.884 17.5024 19.818 17.3411 19.686C17.1871 19.5467 17.1101 19.3377 17.1101 19.059C17.1101 18.7803 17.1871 18.575 17.3411 18.443C17.5024 18.311 17.7444 18.245 18.0671 18.245H23.2151C23.5377 18.245 23.7761 18.311 23.9301 18.443C24.0914 18.575 24.1721 18.7803 24.1721 19.059C24.1721 19.3377 24.0914 19.5467 23.9301 19.686C23.7761 19.818 23.5377 19.884 23.2151 19.884H21.6641V25.065C21.6641 25.3657 21.5687 25.6077 21.3781 25.791C21.1947 25.967 20.9491 26.055 20.6411 26.055ZM30.9301 18.718C31.0108 18.542 31.1245 18.41 31.2711 18.322C31.4178 18.234 31.5791 18.19 31.7551 18.19C32.0191 18.19 32.2575 18.2743 32.4701 18.443C32.6828 18.6117 32.7891 18.8243 32.7891 19.081C32.7891 19.2057 32.7561 19.334 32.6901 19.466L29.7861 25.461C29.6908 25.659 29.5478 25.813 29.3571 25.923C29.1665 26.0257 28.9611 26.077 28.7411 26.077C28.5211 26.077 28.3158 26.0257 28.1251 25.923C27.9345 25.813 27.7915 25.659 27.6961 25.461L24.7921 19.466C24.7335 19.3487 24.7041 19.2203 24.7041 19.081C24.7041 18.8317 24.8141 18.6227 25.0341 18.454C25.2541 18.278 25.4998 18.19 25.7711 18.19C25.9471 18.19 26.1085 18.234 26.2551 18.322C26.4091 18.41 26.5265 18.542 26.6071 18.718L28.7741 23.404L30.9301 18.718Z" fill="#FF6B01"/>
</svg>
