<svg width="36" height="36" viewBox="0 0 36 36" fill="none" xmlns="http://www.w3.org/2000/svg">
<g opacity="0.8">
<g opacity="0.8">
<path d="M7.70751 25.9555V17.5345C7.70751 14.3047 10.3626 11.6865 13.5923 11.6865H10.2005C6.97073 11.6865 4.35254 14.3047 4.35254 17.5345V25.9555C4.35254 29.1853 6.97073 31.8035 10.2005 31.8035H13.5923C10.3626 31.8035 7.70751 29.1853 7.70751 25.9555Z" fill="#A8E1FF"/>
</g>
</g>
<path d="M19.045 19.2351C19.6165 18.6628 19.617 17.7367 19.0462 17.1666C18.4753 16.5966 17.5492 16.5984 16.9777 17.1707C16.4062 17.7431 16.4056 18.6692 16.9765 19.2392C17.5474 19.8093 18.4735 19.8074 19.045 19.2351Z" fill="#FF6B01"/>
<path fill-rule="evenodd" clip-rule="evenodd" d="M25.9533 32.8409H10.0469C6.3431 32.8409 3.32935 29.8271 3.32935 26.1233V17.8626C3.32935 14.1588 6.3431 11.145 10.0469 11.145H25.9533C29.6571 11.145 32.6709 14.1588 32.6709 17.8626V26.1233C32.6709 29.8271 29.6571 32.8409 25.9533 32.8409ZM10.0469 12.8842C7.30155 12.8842 5.06853 15.1172 5.06853 17.8626V26.1233C5.06853 28.8687 7.30155 31.1017 10.0469 31.1017H25.9533C28.6987 31.1017 30.9317 28.8687 30.9317 26.1233V17.8626C30.9317 15.1172 28.6987 12.8842 25.9533 12.8842H10.0469Z" fill="#0285CB"/>
<path fill-rule="evenodd" clip-rule="evenodd" d="M20.8653 24.8052H15.1343C11.7852 24.8052 9.06006 22.08 9.06006 18.7309C9.06006 18.2506 9.44937 17.8613 9.92965 17.8613C10.4099 17.8613 10.7992 18.2506 10.7992 18.7309C10.7992 21.1216 12.7437 23.066 15.1343 23.066H20.8653C23.256 23.066 25.2004 21.1216 25.2004 18.7309C25.2004 18.2506 25.5897 17.8613 26.07 17.8613C26.5503 17.8613 26.9396 18.2506 26.9396 18.7309C26.9396 22.08 24.2144 24.8052 20.8653 24.8052Z" fill="#0285CB"/>
<path fill-rule="evenodd" clip-rule="evenodd" d="M22.3866 7.90448C21.9064 7.90448 21.517 7.51517 21.517 7.03489C21.517 5.93413 20.622 5.03899 19.5211 5.03899H16.4802C15.3794 5.03899 14.4843 5.93413 14.4843 7.03489C14.4843 7.51517 14.095 7.90448 13.6147 7.90448C13.1344 7.90448 12.7451 7.51517 12.7451 7.03489C12.7451 4.97561 14.4209 3.2998 16.4802 3.2998H19.5211C21.5804 3.2998 23.2562 4.97561 23.2562 7.03489C23.2562 7.51517 22.8669 7.90448 22.3866 7.90448Z" fill="#FF6B01"/>
</svg>
