<svg width="36" height="36" viewBox="0 0 36 36" fill="none" xmlns="http://www.w3.org/2000/svg">
<path d="M9.79552 26.0702V9.92977C9.79552 6.65484 12.5733 4 16 4H12.2222C8.78572 4 4 6.65591 4 9.9322V26.0678C4 29.344 8.78572 32 12.2222 32H16C12.5733 32 9.79552 29.3452 9.79552 26.0702Z" fill="#C3E9FE"/>
<path fill-rule="evenodd" clip-rule="evenodd" d="M25.7336 32.8002H10.2648C6.3628 32.8002 3.19922 29.7294 3.19922 25.9689V10.0314C3.19922 6.271 6.3628 3.2002 10.2648 3.2002H25.7336C29.6356 3.2002 32.7992 6.271 32.7992 10.0314V25.9689C32.7992 29.7294 29.6356 32.8002 25.7336 32.8002ZM10.2648 5.14395C7.48978 5.14395 5.22109 7.33017 5.22109 10.0314V25.9689C5.22109 28.6702 7.48978 30.8564 10.2648 30.8564H25.7336C28.5087 30.8564 30.7773 28.6702 30.7773 25.9689V10.0314C30.7773 7.33017 28.5087 5.14395 25.7336 5.14395H10.2648Z" fill="#0285CB"/>
<path fill-rule="evenodd" clip-rule="evenodd" d="M23.9171 13.6867C24.3 13.3066 24.9251 13.3047 25.3104 13.6824C25.6927 14.0572 25.6946 14.6643 25.3148 15.0413L19.8514 20.464C19.1152 21.1964 18.1354 21.6004 17.0898 21.6004C16.0443 21.6004 15.0647 21.1968 14.3275 20.4632L11.6813 17.8306C11.3019 17.4532 11.3045 16.846 11.6872 16.4717C11.972 16.1933 12.3871 16.1218 12.7387 16.2564C12.8635 16.3042 12.9804 16.378 13.0806 16.4776L15.7267 19.1102C16.0909 19.4726 16.5762 19.6731 17.0898 19.6731C17.6033 19.6731 18.0887 19.4725 18.4529 19.1103L23.5604 14.0407L23.9171 13.6867Z" fill="#FF6B01"/>
</svg>
