<svg width="50" height="50" viewBox="0 0 50 50" fill="none" xmlns="http://www.w3.org/2000/svg">
<path d="M8.94466 40.7641V15.6534C8.94466 14.5243 9.39562 13.4419 10.1974 12.6467L16.9101 5.98945C18.5359 4.37713 20.7329 3.47244 23.0226 3.47244H39.2363C37.7855 2.38242 35.9824 1.73633 34.028 1.73633H17.8143C15.5245 1.73633 13.3275 2.64102 11.7017 4.25343L6.3043 9.60629C4.66081 11.2362 3.73633 13.455 3.73633 15.7697V39.028C3.73633 43.822 7.62244 47.7083 12.4164 47.7086C10.3083 46.1248 8.94466 43.6038 8.94466 40.7641Z" fill="#C3E9FE"/>
<path fill-rule="evenodd" clip-rule="evenodd" d="M34.6502 25.332C34.1332 25.332 33.7141 24.9129 33.7141 24.3959V19.0347C33.7141 15.6731 30.9806 12.9396 27.6189 12.9396H16.1988C15.6818 12.9396 15.2627 12.5205 15.2627 12.0035C15.2627 11.4865 15.6818 11.0674 16.1988 11.0674H27.6189C32.0114 11.0674 35.5863 14.6423 35.5863 19.0347V24.3959C35.5863 24.9129 35.1672 25.332 34.6502 25.332Z" fill="#0285CB"/>
<path d="M37.9366 8.20208C37.582 7.82546 36.9896 7.80768 36.6133 8.16189L35.1376 9.55085C34.7611 9.90511 34.7431 10.4976 35.0974 10.874C35.2817 11.0698 35.5288 11.1686 35.7795 11.1686C36.0105 11.1686 36.2397 11.0845 36.4206 10.9142L37.8964 9.52523C38.2728 9.17098 38.2908 8.57855 37.9366 8.20208Z" fill="#0285CB"/>
<path d="M5.51771 9.19108L10.9153 3.83833C12.7294 2.03911 15.132 1.0498 17.687 1.0498H35.3451C40.647 1.0498 44.9617 5.36455 44.9617 10.6665V30.1105C44.9617 30.6275 44.5426 31.0466 44.0256 31.0466C43.5086 31.0466 43.0895 30.6275 43.0895 30.1105V10.6665C43.0895 6.39548 39.6161 2.92203 35.3451 2.92203H17.687C15.6319 2.92203 13.6928 3.7205 12.2336 5.16762L6.83608 10.5205C5.37908 11.9656 4.54507 13.9673 4.54507 16.0193V39.3382C4.54507 43.6092 8.01852 47.0826 12.2895 47.0826H23.0639C23.5809 47.0826 24 47.5017 24 48.0187C24 48.5357 23.5809 48.9548 23.0639 48.9548H12.2895C6.9876 48.9548 2.67285 44.6401 2.67285 39.3382V16.0193C2.67285 13.4745 3.71085 10.9831 5.51771 9.19108Z" fill="#0285CB"/>
<path d="M21.081 36.2075C21.081 36.8435 20.949 37.4015 20.685 37.8815C20.421 38.3555 20.043 38.7245 19.551 38.9885C19.059 39.2465 18.483 39.3755 17.823 39.3755C17.169 39.3755 16.596 39.2465 16.104 38.9885C15.612 38.7245 15.234 38.3555 14.97 37.8815C14.706 37.4015 14.574 36.8435 14.574 36.2075C14.574 35.4455 14.775 34.7765 15.177 34.2005C15.249 34.0985 15.327 34.0265 15.411 33.9845C15.495 33.9365 15.603 33.9125 15.735 33.9125C15.921 33.9125 16.08 33.9665 16.212 34.0745C16.338 34.1765 16.401 34.3025 16.401 34.4525C16.401 34.5425 16.389 34.6235 16.365 34.6955C16.335 34.7675 16.29 34.8515 16.23 34.9475C16.104 35.1575 16.014 35.3555 15.96 35.5415C15.906 35.7275 15.879 35.9195 15.879 36.1175C15.879 36.6515 16.041 37.0505 16.365 37.3145C16.683 37.5725 17.169 37.7015 17.823 37.7015C18.483 37.7015 18.975 37.5725 19.299 37.3145C19.617 37.0505 19.776 36.6515 19.776 36.1175C19.776 35.9375 19.749 35.7635 19.695 35.5955C19.635 35.4275 19.545 35.2115 19.425 34.9475C19.359 34.8215 19.314 34.7285 19.29 34.6685C19.266 34.6085 19.254 34.5365 19.254 34.4525C19.254 34.3025 19.32 34.1765 19.452 34.0745C19.578 33.9665 19.734 33.9125 19.92 33.9125C20.046 33.9125 20.154 33.9365 20.244 33.9845C20.328 34.0265 20.406 34.0985 20.478 34.2005C20.88 34.7765 21.081 35.4455 21.081 36.2075ZM19.947 27.5069C20.109 27.3989 20.262 27.3449 20.406 27.3449C20.598 27.3449 20.76 27.4259 20.892 27.5879C21.018 27.7439 21.081 27.9269 21.081 28.1369C21.081 28.2809 21.048 28.4159 20.982 28.5419C20.916 28.6679 20.817 28.7759 20.685 28.8659L18.975 30.0359C18.855 30.1199 18.768 30.2099 18.714 30.3059C18.654 30.3959 18.624 30.5039 18.624 30.6299L18.624 31.2149L20.235 31.2149C20.487 31.2149 20.688 31.2869 20.838 31.4309C20.982 31.5749 21.054 31.7729 21.054 32.0249C21.054 32.2769 20.982 32.4779 20.838 32.6279C20.688 32.7719 20.487 32.8439 20.235 32.8439L15.42 32.8439C15.174 32.8439 14.985 32.7779 14.853 32.6459C14.721 32.5139 14.655 32.3249 14.655 32.0789L14.655 29.8199C14.655 29.0519 14.823 28.4759 15.159 28.0919C15.489 27.7019 15.969 27.5069 16.599 27.5069C17.079 27.5069 17.487 27.6389 17.823 27.9029C18.153 28.1669 18.375 28.5389 18.489 29.0189C18.519 28.8209 18.585 28.6499 18.687 28.5059C18.789 28.3559 18.942 28.2089 19.146 28.0649L19.947 27.5069ZM17.382 30.0809C17.382 29.7149 17.325 29.4539 17.211 29.2979C17.097 29.1359 16.911 29.0549 16.653 29.0549C16.389 29.0549 16.2 29.1359 16.086 29.2979C15.966 29.4539 15.906 29.7149 15.906 30.0809L15.906 31.2329L17.382 31.2329L17.382 30.0809ZM14.61 20.5766C14.61 20.3486 14.685 20.1626 14.835 20.0186C14.985 19.8746 15.18 19.8026 15.42 19.8026L20.316 19.8026C20.544 19.8026 20.724 19.8686 20.856 20.0006C20.988 20.1326 21.054 20.3066 21.054 20.5226C21.054 20.7326 20.988 20.9066 20.856 21.0446C20.724 21.1766 20.544 21.2426 20.316 21.2426L17.67 21.2426L19.56 22.2686C19.752 22.3706 19.89 22.4786 19.974 22.5926C20.052 22.7066 20.091 22.8416 20.091 22.9976C20.091 23.1536 20.052 23.2886 19.974 23.4026C19.89 23.5166 19.752 23.6246 19.56 23.7266L17.724 24.7436L20.316 24.7436C20.538 24.7436 20.718 24.8126 20.856 24.9506C20.988 25.0826 21.054 25.2566 21.054 25.4726C21.054 25.6826 20.988 25.8566 20.856 25.9946C20.724 26.1266 20.544 26.1926 20.316 26.1926L15.42 26.1926C15.18 26.1926 14.985 26.1206 14.835 25.9766C14.685 25.8266 14.61 25.6376 14.61 25.4096C14.61 25.2476 14.658 25.1006 14.754 24.9686C14.844 24.8366 14.976 24.7256 15.15 24.6356L18.264 22.9796L15.15 21.3326C14.79 21.1466 14.61 20.8946 14.61 20.5766Z" fill="#FF6B01"/>
<path d="M34.2629 49.8962C32.6885 49.5707 31.2194 48.8445 30.0661 47.8218C27.1052 45.1961 26.1902 41.0714 27.7543 37.4012C28.1384 36.4999 28.7629 35.5853 29.5366 34.7906L30.2188 34.0901L30.2669 38.1905C30.3129 42.1153 30.3233 42.313 30.5092 42.8076C30.8812 43.7971 31.28 44.427 31.9665 45.1097C33.7399 46.8731 36.3412 47.3132 38.5525 46.224C40.6309 45.2001 41.9412 42.9739 41.789 40.7252C41.6867 39.2147 41.1779 38.1071 40.0795 37.0035C39.249 36.169 38.2718 35.6239 37.208 35.4017C36.1256 35.1755 36.1775 35.1425 36.1775 36.0573V36.847L36.7709 36.9562C39.069 37.379 40.5889 39.6322 40.1099 41.9062C39.9569 42.6325 39.6156 43.2738 39.0679 43.8646C38.2354 44.7624 37.0642 45.1916 36.0415 45.1896C34.3505 45.1863 32.9385 44.2269 32.2542 42.808C32.2542 42.808 32.0749 42.4025 32.0173 42.1519C31.6785 40.6781 31.895 37.5756 31.895 37.5756L31.8688 33.0393L32.137 32.9009C32.2845 32.8247 32.426 32.7624 32.4514 32.7624C32.4768 32.7624 32.509 34.8459 32.523 37.3924C32.523 37.3924 32.1973 40.7306 32.5998 42.0098C32.6579 42.1944 32.7681 42.5101 32.7681 42.5101C33.121 43.2278 33.6864 43.8591 34.4212 44.2066C34.9789 44.4704 35.2597 44.5898 36.0848 44.5898C36.6239 44.5898 37.1015 44.4198 37.6511 44.1675C38.2989 43.87 39.042 43.0812 39.3167 42.3611C40.0733 40.3769 39.0197 38.2422 36.9901 37.647C36.1606 37.4037 36.1775 37.3903 36.1775 38.2909V39.0776L36.5757 39.1839C38.0109 39.5672 38.4489 41.488 37.3222 42.475C36.9241 42.8237 36.5654 42.9779 35.9379 42.9779C35.2674 42.9779 34.6238 42.5727 34.293 41.9512C34.0942 41.5778 34.0775 41.2237 34.0775 41.0615C34.0775 39.5634 34.045 36.869 34.045 36.869L34.0181 32.2472L34.2242 32.1961C34.3375 32.168 34.7955 32.0984 35.242 32.0415C36.7564 31.8486 38.9967 32.3434 40.5018 33.2033C42.5538 34.3755 44.1064 36.3893 44.7528 38.7169C44.9752 39.5176 45 39.7504 45 41.0383C45 42.3205 44.9747 42.561 44.757 43.3442C43.8777 46.5077 41.6411 48.7691 38.4431 49.7283C37.7701 49.9301 37.4548 49.9686 36.2671 49.9939C35.3087 50.0143 34.6875 49.984 34.2629 49.8962Z" fill="#FF6B01"/>
</svg>
