<svg width="50" height="50" viewBox="0 0 50 50" fill="none" xmlns="http://www.w3.org/2000/svg">
<path d="M10.5639 36.5259V19.0745C10.5639 16.6843 12.9995 9.50002 16.4995 6C13.9995 5.00002 11.4995 8.50002 10.8951 11.4472C10.6411 12.0764 10.3748 12.6858 10.1312 13.1464C9.83826 13.7004 9.41261 14.3491 8.9041 15.0256C6.76894 17.8661 5.64209 21.3377 5.64209 24.8911V36.5259C5.64209 41.056 9.31425 44.7284 13.8443 44.7289L17.1674 44.7292C13.4027 43.9545 10.5639 40.5088 10.5639 36.5259Z" fill="#C3E9FE"/>
<path d="M44.6265 31.1318L44.2499 31.5084L44.8272 31.9702C45.4107 32.7515 45.6996 33.5283 45.6996 34.5001C45.6996 35.7655 45.0171 37.0364 43.9408 37.8192L43.9396 37.8201L43.4728 38.1702L43.7089 38.6422C44.0054 39.3347 44.1996 40.0197 44.1996 40.7001C44.1996 42.9449 42.3444 44.8001 40.0996 44.8001H14.2996C9.25484 44.8001 5.09961 40.6449 5.09961 35.6001V24.0001C5.09961 20.2201 6.29359 16.4427 8.57806 13.5623L8.58098 13.5582C9.07776 12.8627 9.48364 12.2556 9.68969 11.7441C10.0435 11.1355 10.4446 10.1567 10.7931 9.23549C10.9685 8.77213 11.1312 8.32146 11.2688 7.9369L11.3661 7.66426C11.4593 7.40289 11.5365 7.18664 11.5926 7.0369C12.0849 5.85634 12.8695 4.97698 13.8443 4.48954C14.4274 4.19801 15.0113 4.1001 15.5996 4.1001C15.8951 4.1001 16.1862 4.12483 16.4254 4.18461C16.6688 4.24547 16.8377 4.33755 16.9164 4.45557L16.9327 4.48007L16.9597 4.4918C18.0875 4.98215 18.8934 5.78918 19.3454 6.82751C19.7979 7.86711 19.8985 9.14534 19.6017 10.5798C19.2039 12.4693 18.7073 13.9611 17.2102 16.9554C16.4028 18.5701 15.9996 20.3856 15.9996 22.2001V30.8001C15.9996 34.0553 18.6444 36.7001 21.8996 36.7001H27.1996C30.4548 36.7001 33.0996 34.0553 33.0996 30.8001V12.0001C33.0996 8.74487 30.4548 6.1001 27.1996 6.1001H24.2996C23.7548 6.1001 23.2996 5.64487 23.2996 5.1001C23.2996 4.55533 23.7548 4.1001 24.2996 4.1001H27.1996C31.5444 4.1001 35.0996 7.65533 35.0996 12.0001V30.8001C35.0996 35.1449 31.5444 38.7001 27.1996 38.7001H21.8996C17.5548 38.7001 13.9996 35.1449 13.9996 30.8001V22.2001C13.9996 20.0158 14.4959 17.9307 15.3895 16.0438C16.7908 13.2412 17.2947 11.933 17.6972 10.1218L17.6975 10.1207C17.8998 9.1596 17.8773 8.36328 17.6303 7.72644C17.3822 7.0866 16.9118 6.61866 16.2415 6.3093L16.2345 6.30607L16.2271 6.30395C15.5307 6.10498 14.8917 5.99029 14.3515 6.31236C13.7262 6.62616 13.3131 7.14732 13.0074 7.86057L13.0047 7.86847L12.9763 7.95459C12.782 8.54492 11.8577 11.3536 11.1113 12.753L11.1102 12.7554C10.8145 13.3467 10.32 14.0394 9.81857 14.7415C7.90635 17.3584 6.79961 20.6789 6.79961 24.0001V36.0001C6.79961 39.9553 10.0444 43.2001 13.9996 43.2001H39.7996C40.9548 43.2001 41.8996 42.2553 41.8996 41.1001C41.8996 39.9513 40.961 38.9001 39.7996 38.9001H38.9996C38.7195 38.9001 38.4473 38.8064 38.2703 38.6294C38.0933 38.4524 37.9996 38.1803 37.9996 37.9001C37.9996 37.3553 38.4548 36.9001 38.9996 36.9001H41.2996C42.4548 36.9001 43.3996 35.9553 43.3996 34.8001C43.3996 33.6449 42.4548 32.7001 41.2996 32.7001H40.2996C39.7548 32.7001 39.2996 32.2449 39.2996 31.7001C39.2996 31.1553 39.7548 30.7001 40.2996 30.7001H41.5996C42.7548 30.7001 43.6996 29.7553 43.6996 28.6001C43.6996 27.4449 42.7548 26.5001 41.5996 26.5001H40.1996C39.6548 26.5001 39.1996 26.0449 39.1996 25.5001C39.1996 24.9553 39.6548 24.5001 40.1996 24.5001H40.2996C41.4548 24.5001 42.3996 23.5553 42.3996 22.4001C42.3996 21.2517 41.5615 20.3001 40.3996 20.3001C39.8548 20.3001 39.3996 19.8449 39.3996 19.3001C39.3996 18.7553 39.8548 18.3001 40.3996 18.3001C41.4736 18.3001 42.4478 18.6901 43.2287 19.471L43.2338 19.4754C44.0073 20.1522 44.3996 21.2219 44.3996 22.3001C44.3996 22.984 44.203 23.7634 43.8158 24.3442L43.5728 24.83L44.0396 25.1801L44.0408 25.181C45.1151 25.9623 45.6996 27.1323 45.6996 28.4001C45.6996 29.3725 45.3108 30.3486 44.6265 31.1318Z" fill="#0285CB"/>
<path d="M10.509 7.73852C10.5216 7.70078 10.4939 7.77545 10.509 7.73852V7.73852Z" fill="#0023C4"/>
<path d="M27.101 13.4214C27.101 14.554 26.1829 15.4721 25.0503 15.4721C23.9177 15.4721 22.9995 14.554 22.9995 13.4214C22.9995 12.2888 23.9177 11.3706 25.0503 11.3706C26.1829 11.3706 27.101 12.2888 27.101 13.4214Z" fill="#FF6B01"/>
<line x1="22.9995" y1="33" x2="26.9995" y2="33" stroke="#FF6B01" stroke-width="2" stroke-linecap="round"/>
</svg>
