<svg width="23" height="23" viewBox="0 0 23 23" fill="none" xmlns="http://www.w3.org/2000/svg">
<circle cx="11.5" cy="11.5" r="11" fill="white" stroke="#B7BAC2"/>
<path d="M14.1016 9.15625C14.1016 9.54167 14.0312 9.88021 13.8906 10.1719C13.7552 10.4583 13.5859 10.724 13.3828 10.9688C13.1797 11.2135 12.9557 11.4453 12.7109 11.6641C12.4661 11.8828 12.2422 12.1094 12.0391 12.3438C11.8359 12.5781 11.6641 12.8385 11.5234 13.125C11.388 13.4062 11.3203 13.7266 11.3203 14.0859H9.65625C9.65625 13.6589 9.72396 13.2786 9.85938 12.9453C10 12.6068 10.1771 12.3021 10.3906 12.0312C10.6042 11.7604 10.8307 11.5104 11.0703 11.2812C11.3099 11.0521 11.5365 10.8255 11.75 10.6016C11.9635 10.3776 12.138 10.1484 12.2734 9.91406C12.4141 9.67969 12.4844 9.42188 12.4844 9.14062C12.4844 8.80208 12.3828 8.54167 12.1797 8.35938C11.9818 8.17708 11.7109 8.08594 11.3672 8.08594C10.8568 8.08594 10.4844 8.22917 10.25 8.51562C10.0156 8.79688 9.86979 9.1875 9.8125 9.6875L8.3125 9.46094C8.40625 8.58594 8.70573 7.89583 9.21094 7.39062C9.72135 6.88542 10.4349 6.63281 11.3516 6.63281C12.2161 6.63281 12.8906 6.86198 13.375 7.32031C13.8594 7.77865 14.1016 8.39062 14.1016 9.15625ZM11.625 17H9.65625V15.0312H11.625V17Z" fill="#B7BAC2"/>
</svg>
