<svg width="36" height="36" viewBox="0 0 36 36" fill="none" xmlns="http://www.w3.org/2000/svg">
<path d="M9.11311 26.629L7.71144 15.0989C7.57952 13.9414 7.97153 12.8565 8.68854 12.0653L8.03802 11.2637C5.72944 11.2637 3.93535 13.2738 4.19673 15.5676L5.4574 26.6302C5.79463 29.5896 8.29899 31.8248 11.2776 31.8248H14.9335L14.9333 31.8236C11.9548 31.8236 9.45041 29.5884 9.11311 26.629Z" fill="#A8E1FF"/>
<path d="M4.42853 11.9089C5.34529 10.8817 6.66099 10.2925 8.03778 10.2925C8.57438 10.2925 9.00935 10.7275 9.00935 11.2641C9.00935 11.8007 8.57438 12.2356 8.03778 12.2356C7.20258 12.2356 6.43433 12.5797 5.87825 13.2028C5.32212 13.8259 5.06729 14.6281 5.16184 15.4579L6.42251 26.5205C6.70396 28.9907 8.79121 30.8536 11.2773 30.8536H24.7231C27.2093 30.8536 29.2965 28.9907 29.578 26.5205L30.8386 15.4579C30.9332 14.6281 30.6783 13.8258 30.1222 13.2027C29.566 12.5797 28.7979 12.2356 27.9627 12.2356C27.4261 12.2356 26.9911 11.8007 26.9911 11.2641C26.9911 10.7274 27.4261 10.2925 27.9627 10.2925C29.3396 10.2925 30.6551 10.8817 31.5719 11.9089C32.4887 12.936 32.9252 14.3099 32.7692 15.6779L31.5086 26.7406C31.1153 30.1932 28.1983 32.7967 24.7232 32.7967H11.2774C7.80235 32.7967 4.88535 30.1932 4.49191 26.7406L3.23124 15.6779C3.07531 14.31 3.51176 12.9361 4.42853 11.9089Z" fill="#0285CB"/>
<path fill-rule="evenodd" clip-rule="evenodd" d="M11.5854 9.62398C11.5854 6.08446 14.4653 3.20459 18.0048 3.20459C21.5444 3.20459 24.4242 6.08446 24.4242 9.62398V11.2642C24.4242 11.8008 23.9892 12.2358 23.4526 12.2358H17.2433C16.7067 12.2358 16.2717 11.8008 16.2717 11.2642C16.2717 10.7276 16.7067 10.2926 17.2433 10.2926H22.4811V9.62398C22.4811 7.15561 20.4732 5.14774 18.0048 5.14774C15.5365 5.14774 13.5286 7.15561 13.5286 9.62398V19.6409C13.5286 20.1775 13.0936 20.6125 12.557 20.6125C12.0204 20.6125 11.5854 20.1775 11.5854 19.6409V9.62398Z" fill="#FF6B01"/>
<path d="M21 27.5C22 27.5 27 28.5 26.5 22" stroke="#FF6B01" stroke-width="1.8" stroke-linecap="round"/>
</svg>
