<svg width="50" height="50" viewBox="0 0 50 50" fill="none" xmlns="http://www.w3.org/2000/svg">
<path d="M19.7311 43.7991C18.6756 38.3464 13.9509 32.831 11.8945 27.3047C9.35418 20.4779 10.447 12.1558 11.1232 8.13517C11.2089 6.64138 10.3661 5.27639 8.99967 4.99984L8.97064 4.99399C7.55495 4.70768 6.18654 5.7007 5.90554 7.22342C5.18846 11.1091 4.43603 19.645 6.54467 27.1422C8.05867 32.5252 12.5139 37.4112 13.7782 42.1847C14.1593 43.6235 15.3794 44.6149 16.7676 44.6149C17.8776 44.6149 19.4501 45.4402 20 44.4998C19.8879 44.2812 19.78 44.0515 19.7311 43.7991Z" fill="#C3E9FE"/>
<path d="M35.325 46.1998C35.825 46.1998 36.225 45.7998 36.225 45.2998C36.225 42.1998 38.225 38.9998 40.425 35.5998C42.125 32.8998 43.925 29.9998 44.825 26.9998C47.125 19.3998 46.425 11.8998 45.525 6.8998C45.125 5.0998 43.525 3.7998 41.725 3.7998C41.525 3.7998 41.225 3.7998 41.025 3.8998C39.025 4.2998 37.725 6.0998 37.825 8.1998C37.825 8.5998 37.925 8.9998 37.925 9.3998V9.4998C38.125 12.0998 38.525 15.9998 37.725 20.2998L37.425 21.7998L36.325 20.6998C36.225 20.5998 36.225 20.5998 36.125 20.4998C35.225 19.7998 34.125 19.3998 32.925 19.4998C31.625 19.5998 30.425 20.2998 29.725 21.4998C29.425 21.9998 29.225 22.5998 29.025 23.1998L28.925 23.4998C27.725 27.7998 25.925 30.0998 24.225 32.3998C22.925 34.0998 21.725 35.6998 21.125 37.8998V37.9998C20.825 39.0998 20.725 40.2998 20.725 41.6998C20.725 42.3998 20.425 43.0998 19.925 43.5998C19.425 44.0998 18.725 44.3998 18.025 44.3998C16.825 44.3998 15.825 43.5998 15.525 42.4998C14.825 39.8998 13.225 37.3998 11.525 34.6998C9.825 32.0998 8.125 29.3998 7.325 26.5998C5.125 19.1998 5.825 12.0998 6.725 7.2998C6.925 6.2998 7.725 5.5998 8.725 5.5998C8.825 5.5998 9.025 5.5998 9.125 5.5998C10.425 5.8998 10.925 7.0998 10.825 8.0998V8.1998C10.825 8.5998 10.725 8.9998 10.725 9.3998C9.425 22.2998 13.725 28.7998 14.625 29.9998L14.725 30.0998C15.025 30.4998 15.525 30.6998 16.025 30.3998C16.225 30.2998 16.425 30.0998 16.425 29.7998C16.425 29.4998 16.425 29.2998 16.325 29.0998C14.825 26.5998 14.625 24.8998 14.625 24.0998C14.725 23.1998 15.025 22.3998 15.525 21.8998C16.025 21.4998 16.625 21.2998 17.325 21.3998C18.025 21.4998 18.725 21.8998 19.125 22.4998C19.325 22.7998 19.425 23.1998 19.525 23.6998L19.625 23.9998C19.925 24.9998 20.325 26.0998 20.725 27.1998C20.925 27.6998 21.425 27.8998 21.925 27.6998C22.425 27.4998 22.625 26.9998 22.425 26.4998C22.025 25.4998 21.625 24.4998 21.425 23.5998L21.325 23.2998C21.125 22.6998 21.025 22.0998 20.625 21.5998C19.925 20.4998 18.725 19.7998 17.425 19.5998C16.225 19.4998 15.125 19.7998 14.225 20.5998C14.125 20.6998 14.025 20.6998 14.025 20.7998L13.025 21.7998L12.725 20.2998C12.025 15.9998 12.325 12.0998 12.525 9.4998C12.525 8.9998 12.625 8.5998 12.625 8.1998C12.825 6.0998 11.525 4.2998 9.525 3.8998C9.225 3.8998 9.025 3.7998 8.725 3.7998C6.825 3.7998 5.225 5.0998 4.925 6.8998C3.925 11.7998 3.225 19.2998 5.625 26.9998C6.525 29.9998 8.325 32.7998 10.025 35.4998C11.625 38.0998 13.125 40.4998 13.825 42.7998C14.325 44.6998 16.125 45.9998 18.125 45.9998C19.325 45.9998 20.425 45.4998 21.325 44.6998C22.125 43.7998 22.625 42.6998 22.625 41.4998C22.625 40.2998 22.725 39.2998 22.925 38.2998C23.525 36.3998 24.525 34.9998 25.725 33.3998C27.325 31.1998 29.325 28.3998 30.625 23.8998L30.725 23.5998C30.825 23.0998 30.925 22.6998 31.125 22.3998C31.525 21.6998 32.225 21.2998 32.925 21.2998C33.625 21.1998 34.225 21.3998 34.725 21.7998C35.325 22.2998 35.625 22.9998 35.625 23.9998C35.625 24.7998 35.525 26.4998 33.925 28.9998C33.625 29.3998 33.825 29.9998 34.225 30.2998C34.625 30.5998 35.225 30.3998 35.525 29.9998L35.625 29.8998C36.525 28.6998 41.125 22.1998 39.525 9.3998C39.525 8.9998 39.425 8.5998 39.425 8.2998V8.0998C39.325 7.0998 39.825 5.9998 41.125 5.6998C41.325 5.6998 41.425 5.6998 41.525 5.6998C42.525 5.6998 43.325 6.3998 43.525 7.3998C44.425 12.0998 45.125 19.2998 42.925 26.5998C42.125 29.3998 40.425 32.0998 38.725 34.6998C36.425 38.3998 34.225 41.7998 34.225 45.3998C34.325 45.7998 34.825 46.1998 35.325 46.1998Z" fill="#0285CB"/>
<path d="M8.7248 3C8.6248 3 8.5248 3 8.4248 3C8.5248 3.1 8.6248 3.1 8.7248 3Z" fill="#0285CB" stroke="white" stroke-width="0.3" stroke-miterlimit="10"/>
<path d="M41.925 3.1001C41.825 3.1001 41.725 3.1001 41.625 3.1001C41.725 3.1001 41.825 3.1001 41.925 3.1001Z" fill="#0285CB" stroke="white" stroke-width="0.3" stroke-miterlimit="10"/>
<path d="M26.2258 19.3001C26.7258 19.3001 27.1258 18.9001 27.1258 18.4001V17.5001L27.7258 17.3001C29.0258 16.8001 29.9258 15.5001 29.9258 14.1001C29.9258 12.2001 28.3258 10.7001 26.2258 10.7001C24.9258 10.7001 23.9258 10.0001 23.9258 9.0001C23.9258 8.1001 24.7258 7.3001 25.6258 7.3001C26.3258 7.3001 27.1258 7.4001 28.5258 7.9001C28.9258 8.1001 29.5258 7.8001 29.6258 7.4001C29.7258 7.2001 29.7258 7.0001 29.6258 6.7001C29.5258 6.5001 29.3258 6.3001 29.1258 6.2001C28.6258 6.0001 28.1258 5.9001 27.7258 5.7001L27.1258 5.5001V4.5001C27.1258 4.0001 26.7258 3.6001 26.2258 3.6001C25.7258 3.6001 25.3258 4.0001 25.3258 4.5001V5.3001L24.7258 5.5001C23.2258 5.9001 22.1258 7.3001 22.1258 8.8001C22.1258 10.8001 23.8258 12.2001 26.1258 12.2001C27.2258 12.2001 28.1258 13.0001 28.1258 13.9001C28.1258 14.8001 27.3258 15.6001 26.4258 15.6001C25.9258 15.6001 24.6258 15.5001 23.2258 14.9001C23.1258 14.9001 23.0258 14.8001 22.9258 14.8001C22.5258 14.8001 22.2258 15.0001 22.1258 15.3001C22.0258 15.5001 22.0258 15.7001 22.1258 16.0001C22.2258 16.2001 22.4258 16.4001 22.6258 16.5001C23.3258 16.8001 24.0258 17.0001 24.7258 17.1001L25.4258 17.2001V18.1001C25.4258 18.9001 25.8258 19.3001 26.2258 19.3001Z" fill="#FF6B01"/>
</svg>
