<svg width="50" height="50" viewBox="0 0 50 50" fill="none" xmlns="http://www.w3.org/2000/svg">
<path d="M22.581 47.5002H17.3136C12.5668 47.5002 8.71875 44.4336 8.71875 39.6868V19.133C8.71875 16.8535 9.6243 12.6673 11.2362 11.0555L18.1266 5.95379C21.4241 2.65629 25.1318 2.77215 28.5 5.95371C26.0952 5.77786 24.1669 5.71298 22.3281 7.55176L14.8927 14.9872C14.3125 15.5675 14.0476 18.3545 14.0476 19.1751V39.6867C14.0476 44.4335 17.8344 47.4999 22.581 47.5002Z" fill="#C3E9FE"/>
<path d="M27.5539 3.6759C24.918 1.47262 21.0828 1.47262 18.4469 3.6759L10.0882 10.6628C8.70168 11.8218 7.90039 13.5359 7.90039 15.343V42C7.90039 45.369 10.6315 48.1 14.0004 48.1L25.103 48.1C25.6557 48.1 26.1004 47.6519 26.1004 47.1C26.1004 46.5478 25.6527 46.1 25.1004 46.1H14.0004C11.736 46.1 9.90039 44.2644 9.90039 42V15.343C9.90039 14.1284 10.439 12.9763 11.3709 12.1973L19.7296 5.21042C21.6229 3.62778 24.3778 3.62778 26.2712 5.21042L34.6299 12.1973C35.5618 12.9763 36.1004 14.1284 36.1004 15.343V24.1C36.1004 24.6523 36.5481 25.1 37.1004 25.1C37.6527 25.1 38.1004 24.6523 38.1004 24.1V15.343C38.1004 13.5359 37.2991 11.8218 35.9126 10.6628L27.5539 3.6759Z" fill="#0285CB"/>
<path d="M22.4434 15.4429C21.3388 15.4429 20.4434 16.3383 20.4434 17.4429C20.4434 18.5474 21.3388 19.4429 22.4434 19.4429C23.5479 19.4429 24.4434 18.5474 24.4434 17.4429C24.4434 16.3383 23.5479 15.4429 22.4434 15.4429Z" fill="#0285CB"/>
<path d="M33.444 31.2501C34.6246 30.5417 37.0329 29.0778 37.2218 28.8889L38.4024 28.6528L39.5829 29.8334L38.1663 32.6667L36.5135 35.0278L35.3329 37.1528V38.5695C35.1755 39.3565 34.8607 40.9778 34.8607 41.1667C34.8607 41.3556 33.9163 42.1899 33.444 42.5834H32.4996L30.1385 40.4584L26.8329 37.1528L25.4163 35.5001L25.8885 33.8473L28.4857 32.6667H31.5551L33.444 31.2501Z" fill="#FF6B01"/>
<path d="M33.2393 37.7329C32.7469 38.2102 32.5018 38.4441 32.2585 38.6565C32.0129 38.8709 31.9876 39.2437 32.202 39.4894C32.3187 39.623 32.4824 39.6914 32.647 39.6914C32.7847 39.6914 32.923 39.6435 33.0349 39.5458C33.2982 39.316 33.553 39.073 34.0611 38.5805C34.2952 38.3536 34.3009 37.9799 34.074 37.7458C33.8471 37.5117 33.4734 37.506 33.2393 37.7329Z" fill="white"/>
<path d="M29.4167 34.0291C29.2233 34.2309 29.0712 34.3838 28.9371 34.5186C28.759 34.6977 28.6182 34.8391 28.4833 34.9937C28.2689 35.2393 28.2942 35.6122 28.5397 35.8266C28.6517 35.9243 28.79 35.9723 28.9277 35.9723C29.0923 35.9723 29.2559 35.9038 29.3726 35.7701C29.4823 35.6445 29.6047 35.5215 29.7741 35.3512C29.9051 35.2196 30.0681 35.0557 30.2691 34.8459C30.4947 34.6105 30.4867 34.2368 30.2513 34.0113C30.0159 33.7857 29.6422 33.7937 29.4167 34.0291Z" fill="white"/>
<path fill-rule="evenodd" clip-rule="evenodd" d="M25.6231 36.0532L25.6222 36.0523L25.6214 36.0516C25.2696 35.6974 25.0744 35.2076 25.0862 34.7086C25.098 34.2071 25.3069 33.7465 25.6748 33.4095C26.2947 32.8417 27.1193 32.4109 28.0615 32.1675C28.8831 31.9554 29.7712 31.8939 30.5599 31.9933C31.1305 32.0652 31.7029 31.8918 32.1304 31.516C34.5914 29.3528 36.5598 28.4927 37.7688 28.1513C38.3633 27.9834 38.9778 28.1434 39.4156 28.5801C39.855 29.0184 40.017 29.635 39.8499 30.2326C39.51 31.4481 38.6599 33.4181 36.5365 35.852C36.1621 36.2811 35.9903 36.854 36.0638 37.4234C36.1659 38.2133 36.1061 39.1041 35.8942 39.9293C35.6513 40.8756 35.2196 41.7033 34.6497 42.3255C34.3129 42.6934 33.852 42.9022 33.3505 42.9141C33.3364 42.9144 33.3222 42.9146 33.308 42.9146C32.8238 42.9146 32.3516 42.7204 32.0076 42.3787L25.624 36.0541L25.6231 36.0532ZM26.2573 35.4186L32.6395 41.7418C32.8244 41.9254 33.0702 42.023 33.3294 42.0171C33.583 42.0111 33.8178 41.9055 33.9881 41.7195C35.0388 40.5724 35.336 38.7926 35.174 37.5385C35.0675 36.7137 35.3179 35.8841 35.8604 35.2622C37.8643 32.9652 38.6665 31.1329 38.9858 29.991C39.064 29.7115 38.9874 29.4203 38.7819 29.2153C38.6867 29.1204 38.4132 28.9017 38.0126 29.0148C36.8766 29.3356 35.0462 30.1477 32.7228 32.1899C32.1031 32.7346 31.274 32.9877 30.4476 32.8835C29.1968 32.7259 27.4227 33.0253 26.2808 34.0712C26.0948 34.2416 25.9892 34.4762 25.9832 34.7298C25.9771 34.9887 26.0743 35.2334 26.2563 35.4175L26.2573 35.4186Z" fill="#FF6B01"/>
<path d="M33.503 35.3229C33.9105 35.3229 34.2409 34.9925 34.2409 34.585C34.2409 34.1775 33.9105 33.8472 33.503 33.8472C33.0955 33.8472 32.7651 34.1775 32.7651 34.585C32.7651 34.9925 33.0955 35.3229 33.503 35.3229Z" fill="white"/>
<path d="M26.5126 39.4517C25.9771 40.0217 24.2395 43.8059 28.5252 41.5739" stroke="#FF6B01" stroke-width="0.85" stroke-linecap="round"/>
<path d="M34.5957 32.756C34.596 32.3485 34.9266 32.0179 35.3341 32.0176C35.7416 32.0173 36.0717 32.3474 36.0714 32.7549C36.0711 33.1624 35.7405 33.493 35.333 33.4933C34.9255 33.4936 34.5954 33.1635 34.5957 32.756Z" fill="white"/>
</svg>
