<svg width="50" height="50" viewBox="0 0 50 50" fill="none" xmlns="http://www.w3.org/2000/svg">
<path d="M8.94466 40.7636V15.6529C8.94466 14.5238 9.39562 13.4414 10.1974 12.6463L16.9101 5.98897C18.5359 4.37664 20.7329 3.47195 23.0226 3.47195H39.2363C37.7855 2.38193 35.9824 1.73584 34.028 1.73584H17.8143C15.5245 1.73584 13.3275 2.64053 11.7017 4.25294L6.3043 9.60581C4.66081 11.2357 3.73633 13.4545 3.73633 15.7693V39.0275C3.73633 43.8215 7.62244 47.7078 12.4164 47.7081C10.3083 46.1243 8.94466 43.6033 8.94466 40.7636Z" fill="#C3E9FE"/>
<path fill-rule="evenodd" clip-rule="evenodd" d="M34.6502 25.332C34.1332 25.332 33.7141 24.9129 33.7141 24.3959V19.0347C33.7141 15.6731 30.9806 12.9396 27.6189 12.9396H16.1988C15.6818 12.9396 15.2627 12.5205 15.2627 12.0035C15.2627 11.4865 15.6818 11.0674 16.1988 11.0674H27.6189C32.0114 11.0674 35.5863 14.6423 35.5863 19.0347V24.3959C35.5863 24.9129 35.1672 25.332 34.6502 25.332Z" fill="#0285CB"/>
<path d="M37.9366 8.20208C37.582 7.82546 36.9896 7.80768 36.6133 8.16189L35.1376 9.55085C34.7611 9.90511 34.7431 10.4976 35.0974 10.874C35.2817 11.0698 35.5288 11.1686 35.7795 11.1686C36.0105 11.1686 36.2397 11.0845 36.4206 10.9142L37.8964 9.52523C38.2728 9.17098 38.2908 8.57855 37.9366 8.20208Z" fill="#0285CB"/>
<path d="M5.51771 9.19108L10.9153 3.83833C12.7294 2.03911 15.132 1.0498 17.687 1.0498H35.3451C40.647 1.0498 44.9617 5.36455 44.9617 10.6665V30.1105C44.9617 30.6275 44.5426 31.0466 44.0256 31.0466C43.5086 31.0466 43.0895 30.6275 43.0895 30.1105V10.6665C43.0895 6.39548 39.6161 2.92203 35.3451 2.92203H17.687C15.6319 2.92203 13.6928 3.7205 12.2336 5.16762L6.83608 10.5205C5.37908 11.9656 4.54507 13.9673 4.54507 16.0193V39.3382C4.54507 43.6092 8.01852 47.0826 12.2895 47.0826H23.0639C23.5809 47.0826 24 47.5017 24 48.0187C24 48.5357 23.5809 48.9548 23.0639 48.9548H12.2895C6.9876 48.9548 2.67285 44.6401 2.67285 39.3382V16.0193C2.67285 13.4745 3.71085 10.9831 5.51771 9.19108Z" fill="#0285CB"/>
<path d="M21.081 36.869C21.081 37.661 20.937 38.336 20.649 38.894C20.559 39.05 20.454 39.167 20.334 39.245C20.208 39.323 20.082 39.362 19.956 39.362C19.788 39.362 19.647 39.308 19.533 39.2C19.413 39.086 19.353 38.942 19.353 38.768C19.353 38.642 19.392 38.504 19.47 38.354C19.59 38.102 19.671 37.88 19.713 37.688C19.749 37.49 19.767 37.292 19.767 37.094C19.767 36.698 19.713 36.386 19.605 36.158C19.491 35.924 19.323 35.807 19.101 35.807C18.855 35.807 18.678 35.873 18.57 36.005C18.456 36.131 18.399 36.374 18.399 36.734L18.399 37.319C18.399 37.559 18.336 37.748 18.21 37.886C18.084 38.018 17.937 38.084 17.769 38.084C17.601 38.084 17.457 38.018 17.337 37.886C17.211 37.748 17.148 37.559 17.148 37.319L17.148 36.914C17.148 36.548 17.1 36.293 17.004 36.149C16.902 36.005 16.74 35.933 16.518 35.933C16.302 35.933 16.143 36.02 16.041 36.194C15.939 36.362 15.888 36.593 15.888 36.887C15.888 37.103 15.906 37.286 15.942 37.436C15.972 37.58 16.017 37.745 16.077 37.931C16.083 37.949 16.11 38.027 16.158 38.165C16.212 38.291 16.239 38.42 16.239 38.552C16.239 38.732 16.182 38.882 16.068 39.002C15.948 39.116 15.81 39.173 15.654 39.173C15.522 39.173 15.396 39.134 15.276 39.056C15.156 38.972 15.054 38.849 14.97 38.687C14.706 38.129 14.574 37.43 14.574 36.59C14.574 35.858 14.73 35.285 15.042 34.871C15.354 34.451 15.777 34.241 16.311 34.241C16.647 34.241 16.938 34.331 17.184 34.511C17.424 34.685 17.598 34.934 17.706 35.258C17.82 34.88 17.997 34.598 18.237 34.412C18.471 34.22 18.774 34.124 19.146 34.124C19.524 34.124 19.86 34.238 20.154 34.466C20.442 34.694 20.67 35.015 20.838 35.429C21 35.843 21.081 36.323 21.081 36.869ZM15.051 29.3584C14.901 29.2804 14.79 29.1814 14.718 29.0614C14.64 28.9414 14.601 28.8124 14.601 28.6744C14.601 28.4704 14.673 28.2904 14.817 28.1344C14.955 27.9784 15.129 27.9004 15.339 27.9004C15.477 27.9004 15.609 27.9334 15.735 27.9994L20.586 30.4384C20.742 30.5164 20.859 30.6154 20.937 30.7354C21.015 30.8554 21.054 30.9844 21.054 31.1224C21.054 31.3264 20.979 31.5094 20.829 31.6714C20.679 31.8274 20.499 31.9054 20.289 31.9054C20.169 31.9054 20.049 31.8754 19.929 31.8154L19.074 31.3834L15.771 33.3634C15.633 33.4534 15.483 33.4984 15.321 33.4984C15.117 33.4984 14.946 33.4234 14.808 33.2734C14.664 33.1234 14.592 32.9524 14.592 32.7604C14.592 32.6344 14.625 32.5174 14.691 32.4094C14.757 32.2954 14.859 32.1964 14.997 32.1124L17.535 30.6094L15.051 29.3584ZM21.054 25.8831C21.054 26.1291 20.982 26.3271 20.838 26.4771C20.688 26.6211 20.487 26.6931 20.235 26.6931L15.465 26.6931C15.225 26.6931 15.03 26.6181 14.88 26.4681C14.73 26.3181 14.655 26.1231 14.655 25.8831L14.655 21.8241C14.655 21.5841 14.73 21.3891 14.88 21.2391C15.03 21.0891 15.225 21.0141 15.465 21.0141L20.235 21.0141C20.481 21.0141 20.679 21.0891 20.829 21.2391C20.979 21.3831 21.054 21.5781 21.054 21.8241C21.054 22.0701 20.982 22.2681 20.838 22.4181C20.688 22.5621 20.487 22.6341 20.235 22.6341L15.951 22.6341L15.951 25.0731L20.235 25.0731C20.481 25.0731 20.679 25.1481 20.829 25.2981C20.979 25.4421 21.054 25.6371 21.054 25.8831Z" fill="#FF6B01"/>
<path d="M34.2629 49.8962C32.6885 49.5707 31.2194 48.8445 30.0661 47.8218C27.1052 45.1961 26.1902 41.0714 27.7543 37.4012C28.1384 36.4999 28.7629 35.5853 29.5366 34.7906L30.2188 34.0901L30.2669 38.1905C30.3129 42.1153 30.3233 42.313 30.5092 42.8076C30.8812 43.7971 31.28 44.427 31.9665 45.1097C33.7399 46.8731 36.3412 47.3132 38.5525 46.224C40.6309 45.2001 41.9412 42.9739 41.789 40.7252C41.6867 39.2147 41.1779 38.1071 40.0795 37.0035C39.249 36.169 38.2718 35.6239 37.208 35.4017C36.1256 35.1755 36.1775 35.1425 36.1775 36.0573V36.847L36.7709 36.9562C39.069 37.379 40.5889 39.6322 40.1099 41.9062C39.9569 42.6325 39.6156 43.2738 39.0679 43.8646C38.2354 44.7624 37.0642 45.1916 36.0415 45.1896C34.3505 45.1863 32.9385 44.2269 32.2542 42.808C32.2542 42.808 32.0749 42.4025 32.0173 42.1519C31.6785 40.6781 31.895 37.5756 31.895 37.5756L31.8688 33.0393L32.137 32.9009C32.2845 32.8247 32.426 32.7624 32.4514 32.7624C32.4768 32.7624 32.509 34.8459 32.523 37.3924C32.523 37.3924 32.1973 40.7306 32.5998 42.0098C32.6579 42.1944 32.7681 42.5101 32.7681 42.5101C33.121 43.2278 33.6864 43.8591 34.4212 44.2066C34.9789 44.4704 35.2597 44.5898 36.0848 44.5898C36.6239 44.5898 37.1015 44.4198 37.6511 44.1675C38.2989 43.87 39.042 43.0812 39.3167 42.3611C40.0733 40.3769 39.0197 38.2422 36.9901 37.647C36.1606 37.4037 36.1775 37.3903 36.1775 38.2909V39.0776L36.5757 39.1839C38.0109 39.5672 38.4489 41.488 37.3222 42.475C36.9241 42.8237 36.5654 42.9779 35.9379 42.9779C35.2674 42.9779 34.6238 42.5727 34.293 41.9512C34.0942 41.5778 34.0775 41.2237 34.0775 41.0615C34.0775 39.5634 34.045 36.869 34.045 36.869L34.0181 32.2472L34.2242 32.1961C34.3375 32.168 34.7955 32.0984 35.242 32.0415C36.7564 31.8486 38.9967 32.3434 40.5018 33.2033C42.5538 34.3755 44.1064 36.3893 44.7528 38.7169C44.9752 39.5176 45 39.7504 45 41.0383C45 42.3205 44.9747 42.561 44.757 43.3442C43.8777 46.5077 41.6411 48.7691 38.4431 49.7283C37.7701 49.9301 37.4548 49.9686 36.2671 49.9939C35.3087 50.0143 34.6875 49.984 34.2629 49.8962Z" fill="#FF6B01"/>
</svg>
