<svg width="50" height="50" viewBox="0 0 50 50" fill="none" xmlns="http://www.w3.org/2000/svg">
<path d="M8.94466 40.7636V15.6529C8.94466 14.5238 9.39562 13.4414 10.1974 12.6463L16.9101 5.98897C18.5359 4.37664 20.7329 3.47195 23.0226 3.47195H39.2363C37.7855 2.38193 35.9824 1.73584 34.028 1.73584H17.8143C15.5245 1.73584 13.3275 2.64053 11.7017 4.25294L6.3043 9.60581C4.66081 11.2357 3.73633 13.4545 3.73633 15.7693V39.0275C3.73633 43.8215 7.62244 47.7078 12.4164 47.7081C10.3083 46.1243 8.94466 43.6033 8.94466 40.7636Z" fill="#C3E9FE"/>
<path fill-rule="evenodd" clip-rule="evenodd" d="M34.6502 25.332C34.1332 25.332 33.7141 24.9129 33.7141 24.3959V19.0347C33.7141 15.6731 30.9806 12.9396 27.6189 12.9396H16.1988C15.6818 12.9396 15.2627 12.5205 15.2627 12.0035C15.2627 11.4865 15.6818 11.0674 16.1988 11.0674H27.6189C32.0114 11.0674 35.5863 14.6423 35.5863 19.0347V24.3959C35.5863 24.9129 35.1672 25.332 34.6502 25.332Z" fill="#0285CB"/>
<path d="M37.9366 8.20208C37.582 7.82546 36.9896 7.80768 36.6133 8.16189L35.1376 9.55085C34.7611 9.90511 34.7431 10.4976 35.0974 10.874C35.2817 11.0698 35.5288 11.1686 35.7795 11.1686C36.0105 11.1686 36.2397 11.0845 36.4206 10.9142L37.8964 9.52523C38.2728 9.17098 38.2908 8.57855 37.9366 8.20208Z" fill="#0285CB"/>
<path d="M5.51771 9.19108L10.9153 3.83833C12.7294 2.03911 15.132 1.0498 17.687 1.0498H35.3451C40.647 1.0498 44.9617 5.36455 44.9617 10.6665V28.1105C44.9617 28.6275 44.5426 29.0466 44.0256 29.0466C43.5086 29.0466 43.0895 28.6275 43.0895 28.1105V10.6665C43.0895 6.39548 39.6161 2.92203 35.3451 2.92203H17.687C15.6319 2.92203 13.6928 3.7205 12.2336 5.16762L6.83608 10.5205C5.37908 11.9656 4.54507 13.9673 4.54507 16.0193V39.3382C4.54507 43.6092 8.01852 47.0826 12.2895 47.0826H27.0639C27.5809 47.0826 28 47.5017 28 48.0187C28 48.5357 27.5809 48.9548 27.0639 48.9548H12.2895C6.9876 48.9548 2.67285 44.6401 2.67285 39.3382V16.0193C2.67285 13.4745 3.71085 10.9831 5.51771 9.19108Z" fill="#0285CB"/>
<path d="M24.9999 28.2427L22.4142 30.8284C21.6331 31.6094 20.3668 31.6094 19.5857 30.8284L17 28.2427" stroke="#FF6B01" stroke-width="2" stroke-linecap="round" stroke-linejoin="round"/>
<line x1="21" y1="22" x2="21" y2="28" stroke="#FF6B01" stroke-width="2" stroke-linecap="round"/>
<path fill-rule="evenodd" clip-rule="evenodd" d="M30 35.9995L49 35.9995C48.9997 33.7906 47.209 32 45 32H34C31.791 32 30.0003 33.7906 30 35.9995ZM49 37.5995L30 37.5995V43C30 45.2091 31.7909 47 34 47H45C47.2091 47 49 45.2091 49 43V37.5995Z" fill="#FF6B01"/>
<circle cx="42" cy="43" r="1" fill="white"/>
<circle cx="45" cy="43" r="1" fill="white"/>
<path d="M34 43H38" stroke="white" stroke-width="1.9" stroke-linecap="round"/>
</svg>
