<svg width="36" height="36" viewBox="0 0 36 36" fill="none" xmlns="http://www.w3.org/2000/svg">
<mask id="path-1-inside-1" fill="white">
<path fill-rule="evenodd" clip-rule="evenodd" d="M12 9.22233C11.448 9.22233 11 8.77433 11 8.22233V5.55566C11 5.00366 11.448 4.55566 12 4.55566C12.552 4.55566 13 5.00366 13 5.55566V8.22233C13 8.77433 12.552 9.22233 12 9.22233ZM14.3337 34.0001H9.66699C9.11499 34.0001 8.66699 33.5521 8.66699 33.0001V27.0001C8.66699 26.4481 9.11499 26.0001 9.66699 26.0001H14.3337C14.8857 26.0001 15.3337 26.4481 15.3337 27.0001V32.1011H26.3333C26.8853 32.1011 27.3333 32.5491 27.3333 33.1011C27.3333 33.6531 26.8853 34.1011 26.3333 34.1011H15C14.8285 34.1011 14.667 34.0578 14.5259 33.9816C14.4637 33.9938 14.3994 34.0001 14.3337 34.0001ZM10.667 32.0001H13.3337V28.0001H10.667V32.0001Z"/>
</mask>
<path fill-rule="evenodd" clip-rule="evenodd" d="M12 9.22233C11.448 9.22233 11 8.77433 11 8.22233V5.55566C11 5.00366 11.448 4.55566 12 4.55566C12.552 4.55566 13 5.00366 13 5.55566V8.22233C13 8.77433 12.552 9.22233 12 9.22233ZM14.3337 34.0001H9.66699C9.11499 34.0001 8.66699 33.5521 8.66699 33.0001V27.0001C8.66699 26.4481 9.11499 26.0001 9.66699 26.0001H14.3337C14.8857 26.0001 15.3337 26.4481 15.3337 27.0001V32.1011H26.3333C26.8853 32.1011 27.3333 32.5491 27.3333 33.1011C27.3333 33.6531 26.8853 34.1011 26.3333 34.1011H15C14.8285 34.1011 14.667 34.0578 14.5259 33.9816C14.4637 33.9938 14.3994 34.0001 14.3337 34.0001ZM10.667 32.0001H13.3337V28.0001H10.667V32.0001Z" fill="#0285CB"/>
<path d="M15.3337 32.1011H15.2337V32.2011H15.3337V32.1011ZM14.5259 33.9816L14.5734 33.8936L14.5419 33.8766L14.5068 33.8835L14.5259 33.9816ZM13.3337 32.0001V32.1001H13.4337V32.0001H13.3337ZM10.667 32.0001H10.567V32.1001H10.667V32.0001ZM13.3337 28.0001H13.4337V27.9001H13.3337V28.0001ZM10.667 28.0001V27.9001H10.567V28.0001H10.667ZM10.9 8.22233C10.9 8.82956 11.3928 9.32233 12 9.32233V9.12233C11.5032 9.12233 11.1 8.7191 11.1 8.22233H10.9ZM10.9 5.55566V8.22233H11.1V5.55566H10.9ZM12 4.45566C11.3928 4.45566 10.9 4.94844 10.9 5.55566H11.1C11.1 5.05889 11.5032 4.65566 12 4.65566V4.45566ZM13.1 5.55566C13.1 4.94844 12.6072 4.45566 12 4.45566V4.65566C12.4968 4.65566 12.9 5.05889 12.9 5.55566H13.1ZM13.1 8.22233V5.55566H12.9V8.22233H13.1ZM12 9.32233C12.6072 9.32233 13.1 8.82956 13.1 8.22233H12.9C12.9 8.7191 12.4968 9.12233 12 9.12233V9.32233ZM9.66699 34.1001H14.3337V33.9001H9.66699V34.1001ZM8.56699 33.0001C8.56699 33.6074 9.05976 34.1001 9.66699 34.1001V33.9001C9.17022 33.9001 8.76699 33.4969 8.76699 33.0001H8.56699ZM8.56699 27.0001V33.0001H8.76699V27.0001H8.56699ZM9.66699 25.9001C9.05976 25.9001 8.56699 26.3929 8.56699 27.0001H8.76699C8.76699 26.5034 9.17022 26.1001 9.66699 26.1001V25.9001ZM14.3337 25.9001H9.66699V26.1001H14.3337V25.9001ZM15.4337 27.0001C15.4337 26.3929 14.9409 25.9001 14.3337 25.9001V26.1001C14.8304 26.1001 15.2337 26.5034 15.2337 27.0001H15.4337ZM15.4337 32.1011V27.0001H15.2337V32.1011H15.4337ZM15.3337 32.2011H26.3333V32.0011H15.3337V32.2011ZM26.3333 32.2011C26.8301 32.2011 27.2333 32.6043 27.2333 33.1011H27.4333C27.4333 32.4938 26.9406 32.0011 26.3333 32.0011V32.2011ZM27.2333 33.1011C27.2333 33.5978 26.8301 34.0011 26.3333 34.0011V34.2011C26.9406 34.2011 27.4333 33.7083 27.4333 33.1011H27.2333ZM26.3333 34.0011H15V34.2011H26.3333V34.0011ZM15 34.0011C14.8455 34.0011 14.7003 33.9621 14.5734 33.8936L14.4784 34.0696C14.6338 34.1535 14.8115 34.2011 15 34.2011V34.0011ZM14.3337 34.1001C14.4059 34.1001 14.4766 34.0931 14.5451 34.0798L14.5068 33.8835C14.4508 33.8944 14.393 33.9001 14.3337 33.9001V34.1001ZM13.3337 31.9001H10.667V32.1001H13.3337V31.9001ZM13.2337 28.0001V32.0001H13.4337V28.0001H13.2337ZM10.667 28.1001H13.3337V27.9001H10.667V28.1001ZM10.767 32.0001V28.0001H10.567V32.0001H10.767Z" fill="white" mask="url(#path-1-inside-1)"/>
<path d="M15 8.9C15 8.40294 14.5971 8 14.1 8H8C4.68629 8 2 10.6863 2 14V34H22V19.9C22 19.4029 21.5971 19 21.1 19C20.6029 19 20.2 19.4029 20.2 19.9V32.2H3.8V14C3.8 11.6804 5.6804 9.8 8 9.8H14.1C14.5971 9.8 15 9.39706 15 8.9Z" fill="#0285CB"/>
<path fill-rule="evenodd" clip-rule="evenodd" d="M32.9999 7.64048C32.9858 6.36582 31.9446 5.33331 30.6667 5.33331H29V4.33333C29 3.04667 27.9533 2 26.6667 2H23.3333C22.0467 2 21 3.04667 21 4.33333V5.33331H19.3333C18.0467 5.33331 17 6.37998 17 7.66665V13.6666C17 14.9533 18.0467 16 19.3333 16H30.6667C31.9533 16 33 14.9533 33 13.6666V7.6853C33.0003 7.67039 33.0002 7.65544 32.9999 7.64048ZM28 7.33333L27.9935 7.33331H22.0065L22 7.33333L21.9935 7.33331H19.6236L24.9994 9.89195L30.3741 7.33331H28.0065L28 7.33333ZM31 9.24895L25.4301 11.9013C25.2941 11.9679 25.1461 11.9999 24.9994 11.9999C24.8528 11.9999 24.7048 11.9679 24.5701 11.9026L19 9.25019V13.6666C19 13.8506 19.1493 14 19.3333 14H30.6667C30.8507 14 31 13.8506 31 13.6666V9.24895ZM27 5.33331H23V4.33333C23 4.14933 23.1493 4 23.3333 4H26.6667C26.8507 4 27 4.14933 27 4.33333V5.33331Z" fill="#FF6B01" stroke="white" stroke-width="0.4"/>
</svg>
