<svg width="50" height="50" viewBox="0 0 50 50" fill="none" xmlns="http://www.w3.org/2000/svg">
<path d="M12.1176 37.5087L10.0857 20.7942C9.89446 19.1162 9.3303 17.2934 11.3985 15.5461L10.5591 15.2344C7.21248 15.2344 4.61168 18.1484 4.99059 21.4735L6.81812 37.5104C7.307 41.8006 10.9374 45.0408 15.2554 45.0408H20.5552L20.5549 45.0391C16.237 45.0391 12.6066 41.7988 12.1176 37.5087Z" fill="#C3E9FE"/>
<path d="M5.7784 37.6289L3.95087 21.592C3.73652 19.7115 4.33661 17.8225 5.59687 16.4104C6.85713 14.9983 8.6661 14.1882 10.5588 14.1882C11.1366 14.1882 11.6049 14.6566 11.6049 15.2344C11.6049 15.8122 11.1366 16.2806 10.5588 16.2806C9.24482 16.2806 8.03278 16.8234 7.15791 17.8038C7.10257 17.8658 7.04911 17.9289 6.99757 17.9932C6.23435 18.9443 5.8904 20.1322 6.02974 21.355L7.85727 37.392C8.28612 41.1559 11.4668 43.9946 15.255 43.9946H34.7467C38.5349 43.9946 41.7155 41.1559 42.1444 37.392L43.9719 21.355C44.1207 20.0496 43.7185 18.7839 42.8436 17.8036C41.9687 16.8234 40.7568 16.2806 39.4429 16.2806C38.8651 16.2806 38.3967 15.8122 38.3967 15.2344C38.3967 14.6566 38.8651 14.1882 39.4429 14.1882C41.3356 14.1882 43.1445 14.9983 44.4047 16.4104C45.665 17.8224 46.2651 19.7114 46.0508 21.5919L44.2233 37.6289C43.674 42.451 39.6002 46.087 34.7468 46.087H15.2551C10.4017 46.087 6.3279 42.451 5.7784 37.6289Z" fill="#0285CB"/>
<path d="M24.1238 14.1882H32.0789V12.8567C32.0789 9.07837 29.006 6.00548 25.2277 6.00548C21.4494 6.00548 18.3765 9.07838 18.3765 12.8567V27.3778C18.3765 27.9556 17.9081 28.424 17.3303 28.424C16.7525 28.424 16.2841 27.9556 16.2841 27.3778V12.8567C16.2841 7.9257 20.2967 3.91309 25.2277 3.91309C30.1587 3.91309 34.1713 7.9257 34.1713 12.8567V15.2344C34.1713 15.8122 33.703 16.2806 33.1251 16.2806H24.1238C23.546 16.2806 23.0776 15.8122 23.0776 15.2344C23.0776 14.6566 23.546 14.1882 24.1238 14.1882Z" fill="#0285CB"/>
<path fill-rule="evenodd" clip-rule="evenodd" d="M26.6104 38.6319L26.6104 38.632C26.405 38.8461 26.1315 38.9538 25.8552 38.9538C25.5938 38.9538 25.3342 38.8574 25.1312 38.6627L25.1312 38.6626C24.7143 38.2627 24.7005 37.6005 25.1005 37.1835L25.1005 37.1834L35.1209 26.7385L35.1209 26.7384C35.5207 26.3216 36.1831 26.3077 36.6001 26.7078L36.6001 26.7078C37.017 27.1077 37.0308 27.77 36.6308 28.187L26.6104 38.6319ZM26.1952 26.4165C27.0074 26.4165 27.6659 27.075 27.6659 27.8873C27.6659 28.6996 27.0074 29.3581 26.1952 29.3581C25.3829 29.3581 24.7244 28.6996 24.7244 27.8873C24.7244 27.075 25.3829 26.4165 26.1952 26.4165ZM35.4513 38.9538C34.639 38.9538 33.9805 38.2953 33.9805 37.4831C33.9805 36.6708 34.639 36.0123 35.4513 36.0123C36.2636 36.0123 36.9221 36.6708 36.9221 37.4831C36.9221 38.2953 36.2636 38.9538 35.4513 38.9538Z" fill="#FF6B01"/>
</svg>
