<svg width="50" height="50" viewBox="0 0 50 50" fill="none" xmlns="http://www.w3.org/2000/svg">
<path d="M5.05844 36.5407L5.04288 36.5707C4.28423 38.028 4.83793 39.8259 6.28714 40.6001C7.39834 41.1938 8.6751 41.8495 10.1404 42.4767C10.1339 42.3605 10.1243 41.9811 10.1247 41.9036C9.09513 41.0152 8.77302 39.5063 9.42713 38.2498L9.44269 38.2199C10.1467 36.8674 11.71 36.3529 13.1488 36.8068C13.152 36.7706 13.1551 36.7343 13.1586 36.6984C11.5874 36.194 10.1815 35.8201 8.95715 35.3555C7.46771 34.7901 5.79404 35.1276 5.05844 36.5407ZM21.3957 31.1919C20.7651 31.1061 20.1383 31.1301 19.5633 31.2904C18.5832 31.5638 17.7617 32.2432 17.3479 33.246C16.5532 35.1722 17.5072 37.1024 19.6534 37.8871C20.839 38.3206 22.2444 38.4994 23.6966 38.5314C23.715 38.2309 23.7408 37.931 23.7749 37.6317C22.4402 36.908 21.8971 35.5392 22.4612 34.1722C22.7906 33.3739 23.4444 32.8511 24.2247 32.6334C24.2661 32.6218 24.3082 32.6122 24.3504 32.6024C24.3746 32.2053 24.4011 31.8083 24.4182 31.4109C23.4755 31.4202 22.4715 31.3382 21.3957 31.1919Z" fill="#CEE1F2"/>
<path d="M44.7001 38.5L44.5001 38.4C44.3001 38.4 44.1001 38.3 43.7001 38.3C42.8001 38.3 41.5001 38.5 39.8001 39.4C35.8001 41.6 29.6001 44.1 22.9001 44.1C15.4001 44.1 10.2001 41.9 5.80012 39.6C4.80012 39.1 4.40012 37.8 4.90012 36.8C5.30012 36.1 6.00012 35.7 6.80012 35.7C7.10012 35.7 7.40012 35.8 7.70012 35.9C11.0001 37.2 16.6001 39.3 23.1001 39.3C25.0001 39.3 26.8001 39.1 28.4001 38.7C28.6001 38.6 28.8001 38.5 29.0001 38.3C29.1001 38.1 29.2001 37.8 29.1001 37.6C29.0001 37.2 28.6001 36.9 28.2001 36.9C28.1001 36.9 28.0001 36.9 28.0001 36.9C26.6001 37.3 24.9001 37.5 23.3001 37.5H23.2001C21.5001 37.5 20.1001 37.3 19.1001 36.9C18.2001 36.6 17.6001 36 17.3001 35.4C17.0001 34.8 17.1001 34.2 17.3001 33.5C17.6001 32.8 18.2001 32.3 18.9001 32.1C19.3001 32.1 19.6001 32 19.9001 32C20.1001 32 20.3001 32 20.5001 32C21.5001 32.1 22.5001 32.2 23.4001 32.2C28.5001 32.2 31.9001 30.3 34.6001 28.7C36.5001 27.6 38.0001 26.7 39.6001 26.7C41.8001 26.7 44.1001 27.5 44.2001 27.5C44.3001 27.5 44.4001 27.5 44.4001 27.5C44.8001 27.5 45.2001 27.2 45.3001 26.9C45.4001 26.7 45.4001 26.4 45.2001 26.2C45.2001 26.1 45.0001 26 44.8001 25.9C44.7001 25.9 42.2001 25 39.7001 25C37.6001 25 35.7001 26.1 33.8001 27.2C31.0001 28.7 28.0001 30.4 23.4001 30.4C22.5001 30.4 21.6001 30.3 20.7001 30.2C20.4001 30.2 20.1001 30.1 19.9001 30.1C19.4001 30.1 19.0001 30.2 18.5001 30.3C17.2001 30.7 16.2001 31.6 15.7001 32.8C15.4001 33.6 15.3001 34.5 15.4001 35.3L15.7001 36.6L14.4001 36.3C12.2001 35.7 10.1001 34.9 8.40012 34.3C8.00012 34.1 7.40012 34 6.90012 34C5.40012 34 4.10012 34.8 3.40012 36.1C2.40012 38 3.10012 40.4 5.00012 41.4C7.90012 42.9 13.9001 46.2 22.9001 46.2C30.0001 46.2 36.5001 43.5 40.7001 41.2C42.0001 40.5 43.1001 40.3 43.7001 40.3C43.9001 40.3 44.0001 40.3 44.1001 40.3H44.2001H44.3001C44.4001 40.3 44.5001 40.3 44.6001 40.3C45.1001 40.3 45.5001 39.9 45.5001 39.4C45.4001 39 45.1001 38.6 44.7001 38.5Z" fill="#0285CB"/>
<path fill-rule="evenodd" clip-rule="evenodd" d="M20.0008 2.0498C17.8193 2.0498 16.0508 3.81828 16.0508 5.9998V9.04971L13.0008 9.04971C10.8193 9.04971 9.05078 10.8182 9.05078 12.9997V14.9997C9.05078 17.1812 10.8193 18.9497 13.0008 18.9497H16.0508V21.9997C16.0508 24.1812 17.8193 25.9497 20.0008 25.9497H22.0008C24.1823 25.9497 25.9508 24.1812 25.9508 21.9997V18.9497H28.9992C31.1807 18.9497 32.9492 17.1812 32.9492 14.9997V12.9997C32.9492 10.8182 31.1807 9.04971 28.9992 9.04971L25.9508 9.04971V5.9998C25.9508 3.81828 24.1823 2.0498 22.0008 2.0498H20.0008ZM24.0508 17.0497H23.9992V18.9497H24.0508V21.9997C24.0508 23.1319 23.133 24.0497 22.0008 24.0497H20.0008C18.8686 24.0497 17.9508 23.1319 17.9508 21.9997V18.9497H18.0008V17.0497H17.9508V16.9997H16.0508V17.0497H13.0008C11.8686 17.0497 10.9508 16.1319 10.9508 14.9997L10.9508 12.9997C10.9508 11.8675 11.8686 10.9497 13.0008 10.9497H16.0508V10.9998H17.9508V10.9497H18.0008V9.04971H17.9508V5.9998C17.9508 4.86762 18.8686 3.9498 20.0008 3.9498H22.0008C23.133 3.9498 24.0508 4.86762 24.0508 5.9998V9.04971H23.9992V10.9497H24.0508V10.9998H25.9508V10.9497H28.9992C30.1314 10.9497 31.0492 11.8675 31.0492 12.9997V14.9997C31.0492 16.1319 30.1314 17.0497 28.9992 17.0497H25.9508V16.9997H24.0508V17.0497Z" fill="#FF6B01"/>
</svg>
