<svg width="50" height="50" viewBox="0 0 50 50" fill="none" xmlns="http://www.w3.org/2000/svg">
<path d="M25.1579 17.6914C18.9868 13.7171 22.8732 5.85331 25.3532 4.30297C23.2648 2.94994 17.8288 5.0641 17.406 10.4194C16.9832 15.7748 22.4794 17.9451 23.4096 18.227C24.1537 18.4525 24.8852 17.9639 25.1579 17.6914Z" fill="#C3E9FE"/>
<path fill-rule="evenodd" clip-rule="evenodd" d="M40.3258 27.5276V27.5738L40.6459 27.6391C42.5117 28.0193 43.9196 29.6738 43.9196 31.649C43.9196 33.6242 42.5117 35.2787 40.6458 35.659L40.3257 35.7242V35.7949H38.4304V35.7694L38.1103 35.7042C37.2686 35.5326 36.6335 34.7857 36.6335 33.8952V29.4029C36.6335 28.5124 37.2686 27.7654 38.1103 27.5939L38.4304 27.5286V27.5276H40.3258ZM38.5289 29.4521V33.846H39.8274C41.0392 33.846 42.0243 32.8608 42.0243 31.649C42.0243 30.4373 41.0391 29.4521 39.8274 29.4521H38.5289Z" fill="#0285CB"/>
<path fill-rule="evenodd" clip-rule="evenodd" d="M9.67977 35.7242V35.7949H11.5751V35.7694L11.8953 35.7042C12.737 35.5326 13.3721 34.7857 13.3721 33.8952V29.4029C13.3721 28.5124 12.737 27.7654 11.8953 27.5939L11.5751 27.5286V27.5276H9.67977V27.5738L9.35966 27.6391C7.49388 28.0193 6.08594 29.6737 6.08594 31.649C6.08594 33.6243 7.49388 35.2787 9.35966 35.659L9.67977 35.7242ZM11.4767 33.846V29.4521H10.1782C8.9665 29.4521 7.98131 30.4373 7.98131 31.649C7.98131 32.8608 8.9665 33.846 10.1782 33.846H11.4767Z" fill="#0285CB"/>
<path fill-rule="evenodd" clip-rule="evenodd" d="M33.6734 20.3635C32.5961 19.6233 31.4303 19.0255 30.2048 18.5833L29.5028 18.3299L30.1024 17.8856C32.2163 16.3193 33.5874 13.8088 33.5874 10.9845C33.5874 6.25121 29.7361 2.3999 25.0028 2.3999C20.2695 2.3999 16.4182 6.25121 16.4182 10.9845C16.4182 13.8088 17.7893 16.3193 19.9032 17.8856L20.5028 18.3299L19.8008 18.5833C18.5775 19.0248 17.4139 19.6212 16.3382 20.3595L17.69 21.736C19.8442 20.3354 22.376 19.5691 25.0028 19.5691C27.6321 19.5691 30.1662 20.3369 32.3217 21.74L33.6734 20.3635ZM25.0028 4.29528C21.314 4.29528 18.3136 7.2957 18.3136 10.9845C18.3136 14.6733 21.314 17.6737 25.0028 17.6737C28.6916 17.6737 31.692 14.6733 31.692 10.9845C31.692 7.2957 28.6916 4.29528 25.0028 4.29528Z" fill="#0285CB"/>
<path d="M38.4304 37.9745V40.6059L25.9504 45.2859V28.4425L38.4304 23.7626V25.3483H40.3257V22.395C40.3257 22.0842 40.1734 21.7932 39.9178 21.6161C39.6623 21.439 39.3362 21.3985 39.0454 21.5076L36.4431 22.4835L36.4376 22.4911L34.2854 23.2753L34.2994 23.2874L25.0027 26.7737L15.706 23.2874L15.7229 23.2727L13.5778 22.4911L13.5761 22.4887L10.9601 21.5077C10.6693 21.3985 10.3431 21.439 10.0876 21.6161C9.83209 21.7932 9.67969 22.0842 9.67969 22.395V25.3483H11.5751V23.7626L24.055 28.4425V45.286L11.5751 40.606V37.9745H9.67969V41.2627C9.67969 41.6577 9.92477 42.0114 10.2946 42.15L24.6692 47.5405C24.8819 47.6197 25.1228 47.6199 25.3355 47.5407L39.7107 42.15C40.0806 42.0114 40.3256 41.6577 40.3256 41.2627V37.9745H38.4304Z" fill="#FF6B01"/>
</svg>
