<svg width="38" height="38" viewBox="0 0 38 38" fill="none" xmlns="http://www.w3.org/2000/svg">
<path d="M13.6037 28.6247V19.7185C13.6037 16.4393 16.262 13.021 19.5412 13.021H15.9787C12.6995 13.021 10.0413 16.4393 10.0413 19.7185V28.6247C10.0413 31.9039 12.6995 34.5622 15.9787 34.5622H19.5412C16.2621 34.5622 13.6037 31.9039 13.6037 28.6247Z" fill="#C3E9FE"/>
<path d="M27.3483 7.47951C27.5788 7.81113 27.4969 8.267 27.1651 8.49758C26.8334 8.7281 26.3775 8.6461 26.147 8.31438C25.1727 6.91257 23.5736 6.0753 21.869 6.0753H10.469C7.59804 6.0753 5.26304 8.4103 5.26304 11.2813V23.2126C5.26304 23.6166 4.93556 23.9441 4.53154 23.9441C4.12753 23.9441 3.80005 23.6166 3.80005 23.2126V11.2813C3.80005 7.60441 6.79216 4.6123 10.469 4.6123H21.869C24.0519 4.6123 26.1005 5.68403 27.3483 7.47951Z" fill="#0285CB"/>
<path fill-rule="evenodd" clip-rule="evenodd" d="M27.0574 35.6797L16.1365 35.6797C12.4596 35.6797 9.46754 32.6876 9.46754 29.0107V18.8411C9.46754 15.1642 12.4596 12.1721 16.1365 12.1721L27.0574 12.1721C30.7343 12.1721 33.7264 15.1642 33.7264 18.8411V29.0107C33.7264 32.6876 30.7343 35.6797 27.0574 35.6797ZM16.1365 13.6351C13.2655 13.6351 10.9305 15.9701 10.9305 18.8411V29.0107C10.9305 31.8817 13.2655 34.2167 16.1365 34.2167L27.0574 34.2167C29.9284 34.2167 32.2634 31.8817 32.2634 29.0107V18.8411C32.2634 15.9701 29.9284 13.6351 27.0574 13.6351L16.1365 13.6351Z" fill="#0285CB"/>
<path d="M27.3483 7.47951C27.5788 7.81113 27.4969 8.267 27.1651 8.49758C26.8334 8.7281 26.3775 8.6461 26.147 8.31438C25.1727 6.91257 23.5736 6.0753 21.869 6.0753H10.469C7.59804 6.0753 5.26304 8.4103 5.26304 11.2813V23.2126C5.26304 23.6166 4.93556 23.9441 4.53154 23.9441C4.12753 23.9441 3.80005 23.6166 3.80005 23.2126V11.2813C3.80005 7.60441 6.79216 4.6123 10.469 4.6123H21.869C24.0519 4.6123 26.1005 5.68403 27.3483 7.47951Z" stroke="#0285CB" stroke-width="0.6"/>
<path fill-rule="evenodd" clip-rule="evenodd" d="M27.0574 35.6797L16.1365 35.6797C12.4596 35.6797 9.46754 32.6876 9.46754 29.0107V18.8411C9.46754 15.1642 12.4596 12.1721 16.1365 12.1721L27.0574 12.1721C30.7343 12.1721 33.7264 15.1642 33.7264 18.8411V29.0107C33.7264 32.6876 30.7343 35.6797 27.0574 35.6797ZM16.1365 13.6351C13.2655 13.6351 10.9305 15.9701 10.9305 18.8411V29.0107C10.9305 31.8817 13.2655 34.2167 16.1365 34.2167L27.0574 34.2167C29.9284 34.2167 32.2634 31.8817 32.2634 29.0107V18.8411C32.2634 15.9701 29.9284 13.6351 27.0574 13.6351L16.1365 13.6351Z" stroke="#0285CB" stroke-width="0.6"/>
<path d="M18.0444 20.52C18.0444 21.0833 17.5877 21.54 17.0244 21.54C16.4611 21.54 16.0044 21.0833 16.0044 20.52C16.0044 19.9567 16.4611 19.5 17.0244 19.5C17.5877 19.5 18.0444 19.9567 18.0444 20.52Z" fill="#FF6B01" stroke="#FF6B01"/>
<path d="M20.8242 20.52H26.9042" stroke="#FF6B01" stroke-width="1.8" stroke-linecap="round"/>
<path d="M20.8242 24.3198H26.9042" stroke="#FF6B01" stroke-width="1.8" stroke-linecap="round"/>
<path d="M20.8242 28.1201H23.8642" stroke="#FF6B01" stroke-width="1.8" stroke-linecap="round"/>
</svg>
