<svg width="50" height="50" viewBox="0 0 50 50" fill="none" xmlns="http://www.w3.org/2000/svg">
<path d="M8.94466 40.7636V15.6529C8.94466 14.5238 9.39562 13.4414 10.1974 12.6463L16.9101 5.98897C18.5359 4.37664 20.7329 3.47195 23.0226 3.47195H39.2363C37.7855 2.38193 35.9824 1.73584 34.028 1.73584H17.8143C15.5245 1.73584 13.3275 2.64053 11.7017 4.25294L6.3043 9.60581C4.66081 11.2357 3.73633 13.4545 3.73633 15.7693V39.0275C3.73633 43.8215 7.62244 47.7078 12.4164 47.7081C10.3083 46.1243 8.94466 43.6033 8.94466 40.7636Z" fill="#C3E9FE"/>
<path fill-rule="evenodd" clip-rule="evenodd" d="M34.6502 25.332C34.1332 25.332 33.7141 24.9129 33.7141 24.3959V19.0347C33.7141 15.6731 30.9806 12.9396 27.6189 12.9396H16.1988C15.6818 12.9396 15.2627 12.5205 15.2627 12.0035C15.2627 11.4865 15.6818 11.0674 16.1988 11.0674H27.6189C32.0114 11.0674 35.5863 14.6423 35.5863 19.0347V24.3959C35.5863 24.9129 35.1672 25.332 34.6502 25.332Z" fill="#0285CB"/>
<path d="M37.9366 8.20208C37.582 7.82546 36.9896 7.80768 36.6133 8.16189L35.1376 9.55085C34.7611 9.90511 34.7431 10.4976 35.0974 10.874C35.2817 11.0698 35.5288 11.1686 35.7795 11.1686C36.0105 11.1686 36.2397 11.0845 36.4206 10.9142L37.8964 9.52523C38.2728 9.17098 38.2908 8.57855 37.9366 8.20208Z" fill="#0285CB"/>
<path d="M5.51771 9.19108L10.9153 3.83833C12.7294 2.03911 15.132 1.0498 17.687 1.0498H35.3451C40.647 1.0498 44.9617 5.36455 44.9617 10.6665V30.1105C44.9617 30.6275 44.5426 31.0466 44.0256 31.0466C43.5086 31.0466 43.0895 30.6275 43.0895 30.1105V10.6665C43.0895 6.39548 39.6161 2.92203 35.3451 2.92203H17.687C15.6319 2.92203 13.6928 3.7205 12.2336 5.16762L6.83608 10.5205C5.37908 11.9656 4.54507 13.9673 4.54507 16.0193V39.3382C4.54507 43.6092 8.01852 47.0826 12.2895 47.0826H23.0639C23.5809 47.0826 24 47.5017 24 48.0187C24 48.5357 23.5809 48.9548 23.0639 48.9548H12.2895C6.9876 48.9548 2.67285 44.6401 2.67285 39.3382V16.0193C2.67285 13.4745 3.71085 10.9831 5.51771 9.19108Z" fill="#0285CB"/>
<path d="M39.7439 33C43.2457 33 45.6954 36.1133 45.38 39.1893C47.4424 39.5902 49 41.3956 49 43.5556C49 46.0102 46.9907 48 44.5122 48H30.7683C27.9161 48 26 46.1471 26 43.8333C26 41.8984 27.376 39.9973 29.3659 39.6667C29.3659 36.3333 32.4512 34.9444 34.6951 36.0556C35.5366 34.3889 37.3464 33 39.7439 33Z" fill="#FF6B01"/>
<path d="M33 45H37.6684V43.9252H34.5915C35.0159 42.1614 37.6154 41.7756 37.6154 39.8189C37.6154 38.7717 36.9257 38 35.4668 38C34.565 38 33.7692 38.2756 33.2387 38.5512L33.557 39.5433C34.0345 39.2953 34.5915 39.0748 35.2812 39.0748C35.8117 39.0748 36.3156 39.3228 36.3156 39.9567C36.3156 41.3898 33.2653 41.5 33 45ZM37.8011 43.2913H40.7984V45H41.992V43.2913H43V42.2441H41.992V38H41.1167L37.8011 42.4646V43.2913ZM39.1538 42.2992L40.8515 39.9291C40.8515 40.122 40.7984 40.7283 40.7984 41.2795V42.2717H40.0027C39.7639 42.2717 39.313 42.2992 39.1538 42.2992Z" fill="white"/>
<path d="M21.394 34.3829C21.394 34.0603 21.46 33.8219 21.592 33.6679C21.7167 33.5066 21.9147 33.4259 22.186 33.4259C22.4647 33.4259 22.67 33.5066 22.802 33.6679C22.934 33.8219 23 34.0603 23 34.3829L23 38.3979C23 38.6619 22.923 38.8709 22.769 39.0249C22.6077 39.1789 22.406 39.2559 22.164 39.2559C21.8487 39.2559 21.5627 39.1313 21.306 38.8819L18.875 36.5499C18.369 36.0659 17.9033 35.8239 17.478 35.8239C17.2287 35.8239 17.038 35.8973 16.906 36.0439C16.774 36.1833 16.708 36.3849 16.708 36.6489C16.708 36.8616 16.741 37.0596 16.807 37.2429C16.8657 37.4189 16.9537 37.6243 17.071 37.8589L17.181 38.0789C17.1957 38.1083 17.2287 38.1669 17.28 38.2549C17.324 38.3356 17.357 38.4089 17.379 38.4749C17.401 38.5409 17.412 38.6106 17.412 38.6839C17.412 38.8673 17.3313 39.0213 17.17 39.1459C17.0013 39.2706 16.8033 39.3329 16.576 39.3329C16.4147 39.3329 16.2827 39.3109 16.18 39.2669C16.0773 39.2156 15.982 39.1239 15.894 38.9919C15.6593 38.6473 15.476 38.2623 15.344 37.8369C15.212 37.4043 15.146 36.9789 15.146 36.5609C15.146 36.0183 15.2377 35.5416 15.421 35.1309C15.597 34.7203 15.8537 34.4049 16.191 34.1849C16.521 33.9576 16.9023 33.8439 17.335 33.8439C17.7823 33.8439 18.193 33.9356 18.567 34.1189C18.9337 34.2949 19.3443 34.5993 19.799 35.0319L21.394 36.5939L21.394 34.3829ZM17.929 28.9535C17.929 28.4768 18.0353 28.0551 18.248 27.6885C18.4533 27.3145 18.7467 27.0248 19.128 26.8195C19.502 26.6068 19.9347 26.5005 20.426 26.5005C20.954 26.5005 21.4197 26.6251 21.823 26.8745C22.2263 27.1238 22.538 27.4758 22.758 27.9305C22.978 28.3851 23.088 28.9095 23.088 29.5035C23.088 29.9581 23.022 30.4055 22.89 30.8455C22.758 31.2781 22.5747 31.6521 22.34 31.9675C22.2447 32.0848 22.1457 32.1728 22.043 32.2315C21.933 32.2828 21.8047 32.3085 21.658 32.3085C21.4307 32.3085 21.24 32.2461 21.086 32.1215C20.9247 31.9968 20.844 31.8428 20.844 31.6595C20.844 31.5495 20.8587 31.4578 20.888 31.3845C20.9173 31.3111 20.9723 31.2011 21.053 31.0545L21.163 30.8345C21.273 30.6071 21.361 30.4018 21.427 30.2185C21.493 30.0278 21.526 29.8225 21.526 29.6025C21.526 29.1918 21.4453 28.8875 21.284 28.6895C21.1153 28.4915 20.855 28.3925 20.503 28.3925C20.173 28.3925 19.9163 28.4951 19.733 28.7005C19.5497 28.9058 19.458 29.1918 19.458 29.5585C19.458 29.7785 19.4763 29.9801 19.513 30.1635C19.5497 30.3395 19.6157 30.5485 19.711 30.7905C19.7917 30.9445 19.832 31.1095 19.832 31.2855C19.832 31.4908 19.7733 31.6631 19.656 31.8025C19.5313 31.9418 19.37 32.0115 19.172 32.0115L16.191 32.0115C15.883 32.0115 15.6483 31.9308 15.487 31.7695C15.3257 31.6081 15.245 31.3771 15.245 31.0765L15.245 27.6665C15.245 27.0285 15.498 26.7095 16.004 26.7095C16.5173 26.7095 16.774 27.0285 16.774 27.6665L16.774 30.0425L18.127 30.0425C17.995 29.7345 17.929 29.3715 17.929 28.9535ZM23.099 22.5668C23.099 23.5274 22.758 24.2608 22.076 24.7668C21.394 25.2728 20.4077 25.5258 19.117 25.5258C17.8337 25.5258 16.851 25.2728 16.169 24.7668C15.487 24.2608 15.146 23.5274 15.146 22.5668C15.146 21.6134 15.487 20.8838 16.169 20.3778C16.851 19.8644 17.8337 19.6078 19.117 19.6078C20.4077 19.6078 21.394 19.8608 22.076 20.3668C22.758 20.8728 23.099 21.6061 23.099 22.5668ZM21.57 22.5668C21.57 22.2148 21.3793 21.9618 20.998 21.8078C20.6167 21.6538 19.9897 21.5768 19.117 21.5768C18.2517 21.5768 17.6283 21.6538 17.247 21.8078C16.8657 21.9618 16.675 22.2148 16.675 22.5668C16.675 22.9188 16.8657 23.1718 17.247 23.3258C17.621 23.4798 18.2443 23.5568 19.117 23.5568C19.9897 23.5568 20.6167 23.4798 20.998 23.3258C21.3793 23.1718 21.57 22.9188 21.57 22.5668Z" fill="#FF6B01"/>
</svg>
