<svg width="50" height="50" viewBox="0 0 50 50" fill="none" xmlns="http://www.w3.org/2000/svg">
<path d="M0 22.3594C0 17.9411 3.58172 14.3594 8 14.3594H23.5C27.9183 14.3594 31.5 17.9411 31.5 22.3594V39.4746H8C3.58172 39.4746 0 35.8929 0 31.4746V22.3594Z" fill="white"/>
<path d="M6.5 17.9998C6.5 14.7998 10.1667 12.8332 12 12.4998C2.5 11.9998 1 16.9998 1 18.4998L0.999776 30.9998C0.599776 35.3998 4.16644 37.8331 5.99978 38.4998L7.5 36.9998H12C7.2 36.1998 6.5 33.3331 6.5 31.9998V17.9998Z" fill="#C3E9FE"/>
<path d="M29.4141 20.1196H36.0221C38.4909 20.1196 40.8213 21.2594 42.3369 23.2081L46.59 28.6763C47.5034 29.8507 47.9993 31.2961 47.9993 32.7839C47.9993 36.479 45.0038 39.4745 41.3087 39.4745H29.4141V20.1196Z" fill="white"/>
<path fill-rule="evenodd" clip-rule="evenodd" d="M9.83789 43.1967C11.55 43.1967 12.9379 41.8088 12.9379 40.0967C12.9379 38.3846 11.55 36.9967 9.83789 36.9967C8.12581 36.9967 6.73789 38.3846 6.73789 40.0967C6.73789 41.8088 8.12581 43.1967 9.83789 43.1967ZM9.83789 45.0967C12.5993 45.0967 14.8379 42.8581 14.8379 40.0967C14.8379 37.3353 12.5993 35.0967 9.83789 35.0967C7.07647 35.0967 4.83789 37.3353 4.83789 40.0967C4.83789 42.8581 7.07647 45.0967 9.83789 45.0967Z" fill="#0285CB"/>
<path fill-rule="evenodd" clip-rule="evenodd" d="M38.0234 43.1967C39.7355 43.1967 41.1234 41.8088 41.1234 40.0967C41.1234 38.3846 39.7355 36.9967 38.0234 36.9967C36.3114 36.9967 34.9234 38.3846 34.9234 40.0967C34.9234 41.8088 36.3114 43.1967 38.0234 43.1967ZM38.0234 45.0967C40.7849 45.0967 43.0234 42.8581 43.0234 40.0967C43.0234 37.3353 40.7849 35.0967 38.0234 35.0967C35.262 35.0967 33.0234 37.3353 33.0234 40.0967C33.0234 42.8581 35.262 45.0967 38.0234 45.0967Z" fill="#0285CB"/>
<path d="M12 12.3094C12 11.7847 11.5747 11.3594 11.05 11.3594H8C3.58172 11.3594 0 14.9411 0 19.3594V31.4746C0 34.8263 2.06123 37.6966 4.98523 38.8871C5.14201 38.2561 5.41864 37.6725 5.78955 37.1618C3.5133 36.2764 1.9 34.0639 1.9 31.4746V19.3594C1.9 15.9904 4.63106 13.2594 8 13.2594H11.05C11.5747 13.2594 12 12.834 12 12.3094Z" fill="#0285CB"/>
<path fill-rule="evenodd" clip-rule="evenodd" d="M29.0195 21.9488V37.5746H14.156C14.4902 38.1454 14.7144 38.7884 14.7996 39.4746L33.0618 39.4746C33.1469 38.7884 33.3711 38.1454 33.7053 37.5746H31.049V22.3594C31.049 22.2456 31.103 22.1324 31.0983 22.0198H35.0508V29.4799H44.8079L45.0902 29.8429C45.7442 30.6838 46.0993 31.7187 46.0993 32.784C46.0993 35.0962 44.4612 37.0259 42.2821 37.4756C42.6145 38.0146 42.8475 38.6214 42.9555 39.2704C45.8543 38.5367 47.9993 35.9109 47.9993 32.784C47.9993 31.2962 47.5034 29.8508 46.59 28.6764L42.3369 23.2082C40.8213 21.2595 38.4909 20.1198 36.0221 20.1198H30.7877C30.7877 20.1198 29.1054 20 29.0195 21.9488ZM36.9508 22.0908V27.5799H43.3301L40.8372 24.3747C39.8738 23.1361 38.4788 22.3261 36.9508 22.0908Z" fill="#0285CB"/>
<path d="M29.05 11.6882C29.05 12.5306 28.6601 13.7956 27.9639 15.3213C27.2835 16.8122 26.3682 18.4314 25.4409 19.9385C24.5155 21.4424 23.5886 22.8178 22.8922 23.8181C22.7513 24.0206 22.6199 24.2075 22.5 24.3768C22.3801 24.2075 22.2487 24.0206 22.1078 23.8181C21.4114 22.8178 20.4845 21.4424 19.5591 19.9385C18.6318 18.4314 17.7165 16.8122 17.0361 15.3213C16.3399 13.7956 15.95 12.5306 15.95 11.6882C15.95 7.94445 18.9046 4.95 22.5 4.95C26.0954 4.95 29.05 7.94445 29.05 11.6882Z" fill="white" stroke="#FF6B01" stroke-width="1.9"/>
<circle cx="22.5" cy="11.5" r="1.5" fill="#FF6B01"/>
</svg>
