<svg width="50" height="50" viewBox="0 0 50 50" fill="none" xmlns="http://www.w3.org/2000/svg">
<path d="M9.45113 29.0544V14.3916C9.45113 9.45823 13.4406 5.45898 18.362 5.45898H12.9363C8.00086 5.45898 4 9.45984 4 14.3953V29.0507C4 33.9861 8.00086 37.987 12.9363 37.987H18.362C13.4406 37.987 9.45113 33.9878 9.45113 29.0544Z" fill="#C3E9FE"/>
<path d="M37.1539 38.9515H12.8453C7.38831 38.9515 2.94727 34.5105 2.94727 29.0534V14.3961C2.94727 8.93794 7.38912 4.49609 12.8472 4.49609H20.8899C21.4221 4.49609 21.8536 4.92752 21.8536 5.45978C21.8536 5.99204 21.4221 6.42347 20.8899 6.42347H12.8472C8.45041 6.42347 4.87464 9.99924 4.87464 14.3961V29.0534C4.87464 33.4492 8.44961 37.0241 12.8453 37.0241H37.1539C41.5507 37.0241 45.1265 33.4484 45.1265 29.0515V26.6387C45.1265 26.1065 45.5579 25.6751 46.0902 25.6751C46.6224 25.6751 47.0538 26.1065 47.0538 26.6387V29.0515C47.0538 34.5096 42.612 38.9515 37.1539 38.9515Z" fill="#0285CB"/>
<path d="M33.5794 44.0306C34.1116 44.0306 34.5431 44.462 34.5431 44.9943C34.5431 45.5265 34.1116 45.958 33.5794 45.958H16.4217C15.8895 45.958 15.458 45.5265 15.458 44.9943C15.458 44.462 15.8895 44.0306 16.4217 44.0306H33.5794Z" fill="#0285CB"/>
<path d="M23.2932 26.2928L30.1181 19.4679C28.7961 17.8349 28.0002 15.7599 28.0002 13.4999C28.0002 8.26198 32.2621 4 37.5001 4C42.7381 4 47 8.26194 47 13.4999C47 18.7379 42.738 22.9998 37.5001 22.9998C35.2401 22.9998 33.1651 22.2039 31.5321 20.8819L24.7072 27.7068C24.5122 27.9018 24.2562 27.9998 24.0002 27.9998C23.7441 27.9998 23.4881 27.9018 23.2931 27.7068C22.9022 27.3158 22.9022 26.6838 23.2932 26.2928ZM37.5001 20.9998C41.636 20.9998 45 17.6359 45 13.4999C45 9.36391 41.636 5.99995 37.5001 5.99995C33.3641 5.99995 30.0001 9.36391 30.0001 13.4999C30.0001 17.6359 33.3641 20.9998 37.5001 20.9998Z" fill="#FF6B01"/>
</svg>
