<svg width="50" height="50" viewBox="0 0 50 50" fill="none" xmlns="http://www.w3.org/2000/svg">
<path d="M9.87555 36.6479V22.2964C9.87555 17.5501 13.7773 13.7026 18.5234 13.7026H13.5391C8.79282 13.7026 4.94531 17.5501 4.94531 22.2964V36.6479C4.94531 41.3942 8.79282 45.2417 13.5391 45.2417H18.5234C13.7773 45.2417 9.87555 41.3942 9.87555 36.6479Z" fill="#C3E9FE"/>
<path d="M18.5555 46.1998H13.3133C8.0688 46.1998 3.80078 41.9318 3.80078 36.6873V22.5936C3.80078 17.3491 8.0688 13.0811 13.3133 13.0811H36.6883C41.9328 13.0811 46.2008 17.3491 46.2008 22.5936V27.7498C46.2008 28.2572 45.7895 28.6686 45.282 28.6686C44.7746 28.6686 44.3633 28.2572 44.3633 27.7498V22.5936C44.3633 18.3609 40.921 14.9186 36.6883 14.9186H13.3133C9.08058 14.9186 5.63828 18.3609 5.63828 22.5936V36.6873C5.63828 40.92 9.08058 44.3623 13.3133 44.3623H18.5555C19.0629 44.3623 19.4742 44.7736 19.4742 45.2811C19.4742 45.7885 19.0629 46.1998 18.5555 46.1998Z" fill="#0285CB"/>
<path d="M36.0007 35H41.0007C42.6576 35 44.0007 36.3431 44.0007 38V43" stroke="#FF6B01" stroke-width="1.9" stroke-linecap="round"/>
<path d="M25.6492 45.3679C28.0706 45.0407 33.8242 45.7605 39.9109 39.3486" stroke="#FF6B01" stroke-width="1.9" stroke-linecap="round"/>
<path d="M18.6407 9.0748C18.1332 9.0748 17.7219 8.66349 17.7219 8.15605C17.7219 6.76651 16.5927 5.6373 15.2032 5.6373C13.8136 5.6373 12.6844 6.76651 12.6844 8.15605C12.6844 8.66349 12.2731 9.0748 11.7657 9.0748C11.2582 9.0748 10.8469 8.66349 10.8469 8.15605C10.8469 5.75473 12.8018 3.7998 15.2032 3.7998C17.6045 3.7998 19.5594 5.75473 19.5594 8.15605C19.5594 8.66349 19.1481 9.0748 18.6407 9.0748Z" fill="#FF6B01"/>
<path d="M34.9688 3.7998C37.3701 3.7998 39.3251 5.75473 39.3251 8.15605C39.3251 8.66349 38.9137 9.0748 38.4063 9.0748C37.8989 9.0748 37.4875 8.66349 37.4875 8.15605C37.4875 6.76651 36.3583 5.6373 34.9688 5.6373C33.5793 5.6373 32.4501 6.76651 32.4501 8.15605C32.4501 8.66349 32.0387 9.0748 31.5313 9.0748C31.0239 9.0748 30.6125 8.66349 30.6125 8.15605C30.6125 5.75473 32.5675 3.7998 34.9688 3.7998Z" fill="#FF6B01"/>
<path d="M35.9226 22.5076C35.9226 21.7629 36.5263 21.1592 37.271 21.1592C38.0158 21.1592 38.6195 21.7629 38.6195 22.5076C38.6195 23.2523 38.0158 23.8561 37.271 23.8561C36.5263 23.8561 35.9226 23.2523 35.9226 22.5076Z" fill="#FF6B01"/>
<path d="M35.9226 29.5076C35.9226 28.7629 36.5263 28.1592 37.271 28.1592C38.0158 28.1592 38.6195 28.7629 38.6195 29.5076C38.6195 30.2523 38.0158 30.8561 37.271 30.8561C36.5263 30.8561 35.9226 30.2523 35.9226 29.5076Z" fill="#0285CB"/>
<path d="M28.2273 22.5076C28.2273 21.7629 28.831 21.1592 29.5757 21.1592C30.3204 21.1592 30.9242 21.7629 30.9242 22.5076C30.9242 23.2523 30.3204 23.8561 29.5757 23.8561C28.831 23.8561 28.2273 23.2523 28.2273 22.5076Z" fill="#0285CB"/>
<path d="M28.2273 29.5076C28.2273 28.7629 28.831 28.1592 29.5757 28.1592C30.3204 28.1592 30.9242 28.7629 30.9242 29.5076C30.9242 30.2523 30.3204 30.8561 29.5757 30.8561C28.831 30.8561 28.2273 30.2523 28.2273 29.5076Z" fill="#0285CB"/>
<path d="M20.532 22.5076C20.532 21.7629 21.1357 21.1592 21.8804 21.1592C22.6251 21.1592 23.2289 21.7629 23.2289 22.5076C23.2289 23.2523 22.6251 23.8561 21.8804 23.8561C21.1357 23.8561 20.532 23.2523 20.532 22.5076Z" fill="#0285CB"/>
<path d="M20.532 29.5076C20.532 28.7629 21.1357 28.1592 21.8804 28.1592C22.6251 28.1592 23.2289 28.7629 23.2289 29.5076C23.2289 30.2523 22.6251 30.8561 21.8804 30.8561C21.1357 30.8561 20.532 30.2523 20.532 29.5076Z" fill="#0285CB"/>
<path d="M20.532 36.5076C20.532 35.7629 21.1357 35.1592 21.8804 35.1592C22.6251 35.1592 23.2289 35.7629 23.2289 36.5076C23.2289 37.2523 22.6251 37.8561 21.8804 37.8561C21.1357 37.8561 20.532 37.2523 20.532 36.5076Z" fill="#0285CB"/>
<path d="M12.8367 22.5076C12.8367 21.7629 13.4404 21.1592 14.1851 21.1592C14.9298 21.1592 15.5335 21.7629 15.5335 22.5076C15.5335 23.2523 14.9298 23.8561 14.1851 23.8561C13.4404 23.8561 12.8367 23.2523 12.8367 22.5076Z" fill="#0285CB"/>
<path d="M12.8367 29.5076C12.8367 28.7629 13.4404 28.1592 14.1851 28.1592C14.9298 28.1592 15.5335 28.7629 15.5335 29.5076C15.5335 30.2523 14.9298 30.8561 14.1851 30.8561C13.4404 30.8561 12.8367 30.2523 12.8367 29.5076Z" fill="#0285CB"/>
<path d="M12.8367 36.5076C12.8367 35.7629 13.4404 35.1592 14.1851 35.1592C14.9298 35.1592 15.5335 35.7629 15.5335 36.5076C15.5335 37.2523 14.9298 37.8561 14.1851 37.8561C13.4404 37.8561 12.8367 37.2523 12.8367 36.5076Z" fill="#0285CB"/>
</svg>
