<svg width="36" height="36" viewBox="0 0 36 36" fill="none" xmlns="http://www.w3.org/2000/svg">
<path d="M4.34691 11.0117L4.21416 10.9418L4.34691 11.0117C6.99756 5.97272 12.2278 2.84141 17.9985 2.84141C23.7691 2.84141 28.9994 5.97272 31.65 11.0117L31.7828 10.9418L31.65 11.0117C31.9242 11.5328 31.7239 12.1774 31.2029 12.4514L31.2727 12.5842L31.2028 12.4514C31.0442 12.5349 30.8746 12.5743 30.7075 12.5743C30.3238 12.5743 29.9537 12.3669 29.763 12.0043L29.6302 12.0741L29.763 12.0043C27.4813 7.66674 22.9726 4.97356 17.9985 4.97356C13.0243 4.97356 8.51564 7.66674 6.23386 12.0043C5.95977 12.5253 5.3151 12.7256 4.79408 12.4515L4.79407 12.4514C4.27297 12.1774 4.07276 11.5328 4.34691 11.0117ZM21.289 22.8974L21.289 22.8974C21.8494 22.7165 22.4501 23.0243 22.6309 23.5847C22.8116 24.145 22.5039 24.7458 21.9436 24.9265C20.5826 25.3656 19.234 25.5846 17.907 25.5846C16.5723 25.5846 15.2579 25.3631 13.9723 24.9198L13.9234 25.0616L13.9723 24.9198C13.4157 24.7279 13.1201 24.121 13.312 23.5644L13.1702 23.5155L13.312 23.5644C13.5039 23.0078 14.1106 22.7121 14.6674 22.9042C16.8152 23.6447 18.9834 23.6411 21.289 22.8974ZM17.9985 33.673C14.3497 33.673 10.8099 32.3748 8.03129 30.0178C5.28502 27.6882 3.4324 24.4621 2.81439 20.9341C2.71279 20.3542 3.10056 19.8017 3.68056 19.7001C4.26043 19.5986 4.81303 19.9863 4.91462 20.5663C6.0285 26.9254 11.5314 31.5408 17.9985 31.5408C24.4655 31.5408 29.9684 26.9254 31.0823 20.5662C31.1839 19.9863 31.7362 19.5987 32.3163 19.7C32.8963 19.8016 33.2841 20.3541 33.1825 20.9341C32.5645 24.462 30.7119 27.6882 27.9656 30.0178C25.187 32.3748 21.6473 33.673 17.9985 33.673Z" fill="#0285CB" stroke="white" stroke-width="0.3"/>
<path d="M28.1654 15.0023L28.1363 14.8899C27.9275 14.0836 27.5061 13.3404 26.9034 12.7377C26.068 11.9023 24.9637 11.413 23.7939 11.3592C22.8174 11.3145 21.868 11.5658 21.0481 12.0865C20.2522 12.5919 19.632 13.3142 19.254 14.1755C19.034 14.6768 18.5422 15.0023 17.9994 15.0023H17.918C17.3751 15.0023 16.8851 14.6876 16.6723 14.1963L16.6723 14.1963C15.9246 12.4697 14.2259 11.3541 12.3446 11.3541C11.0433 11.3541 9.83283 11.8721 8.93411 12.8137L8.93411 12.8137C8.36694 13.4079 7.97498 14.1189 7.7777 14.8895L7.74882 15.0023H7.63239H3.64967C3.06087 15.0023 2.58359 15.4796 2.58359 16.0684C2.58359 16.6572 3.06087 17.1345 3.64967 17.1345H7.63567H7.75179L7.78089 17.2469C7.99039 18.0563 8.41406 18.8018 9.02024 19.4056C9.85879 20.2409 10.9662 20.7281 12.1387 20.7783L12.1387 20.7783C12.2087 20.7813 12.2788 20.7828 12.3488 20.7828C13.0135 20.7828 13.6708 20.648 14.2612 20.39L14.3212 20.5274L14.2612 20.39C14.8007 20.1542 15.047 19.5257 14.8112 18.9862L14.9487 18.9261L14.8112 18.9862C14.5755 18.4467 13.9472 18.2005 13.4075 18.4361L28.1654 15.0023ZM28.1654 15.0023H28.2815M28.1654 15.0023H28.2815M28.2815 15.0023H32.3491C32.9379 15.0023 33.4152 15.4796 33.4152 16.0684C33.4152 16.6572 32.9379 17.1345 32.3491 17.1345H28.2847H28.1683L28.1394 17.2473C27.942 18.0184 27.5498 18.7298 26.9822 19.324C26.0835 20.265 24.8733 20.7827 23.5726 20.7827C22.8306 20.7827 22.0933 20.6083 21.4408 20.2789C20.9152 20.0137 20.7042 19.3725 20.9695 18.8468C21.2349 18.3212 21.8761 18.1102 22.4017 18.3756L22.4693 18.2417L22.4017 18.3756C22.7588 18.5559 23.1635 18.6506 23.5726 18.6506C24.2845 18.6506 24.9484 18.3665 25.4403 17.8515L25.3319 17.7479L25.4403 17.8515C25.9319 17.3367 26.1847 16.6589 26.1519 15.9451C26.0913 14.6277 25.0133 13.5497 23.6959 13.4891L23.6958 13.4891C22.6171 13.4399 21.6394 14.0455 21.2064 15.0323C20.6459 16.3097 19.3869 17.1345 17.9994 17.1345H17.918C16.5221 17.1345 15.2655 16.3132 14.7157 15.0435L14.7157 15.0435C14.306 14.0976 13.3753 13.4863 12.3446 13.4863C11.6325 13.4863 10.9683 13.7705 10.4764 14.2859L10.5849 14.3895L10.4764 14.2859C9.98474 14.8011 9.7321 15.4792 9.76537 16.1933C9.82687 17.514 10.9087 18.5915 12.2299 18.6481L12.23 18.6481M28.2815 15.0023L12.23 18.6481M12.23 18.6481C12.6353 18.6651 13.053 18.591 13.4074 18.4362L12.23 18.6481Z" fill="#FF6B01" stroke="white" stroke-width="0.3"/>
</svg>
