<svg width="36" height="36" viewBox="0 0 36 36" fill="none" xmlns="http://www.w3.org/2000/svg">
<path d="M7 18C7 10.489 12.6141 4.28925 19.875 3.36812C19.261 3.29019 18.6352 3.25 18 3.25C9.85381 3.25 3.25 9.85381 3.25 18C3.25 26.1462 9.85381 32.75 18 32.75C18.6352 32.75 19.261 32.7098 19.875 32.6319C12.6141 31.7107 7 25.511 7 18Z" fill="#A8E1FF"/>
<path d="M13 21.5C14.5 23.5 19 27.5 23.5 21.5" stroke="#0285CB" stroke-width="1.9" stroke-linecap="round"/>
<path d="M12.5 12.3125C13.3629 12.3125 14.0625 13.0121 14.0625 13.875C14.0625 14.7379 13.3629 15.4375 12.5 15.4375C11.6371 15.4375 10.9375 14.7379 10.9375 13.875C10.9375 13.0121 11.6371 12.3125 12.5 12.3125ZM21.875 13.875C21.875 14.7379 22.5746 15.4375 23.4375 15.4375C24.3004 15.4375 25 14.7379 25 13.875C25 13.0121 24.3004 12.3125 23.4375 12.3125C22.5746 12.3125 21.875 13.0121 21.875 13.875Z" fill="#FF6B01"/>
<circle cx="18" cy="18" r="14.1" stroke="#0285CB" stroke-width="1.8"/>
</svg>
