<svg width="50" height="50" viewBox="0 0 50 50" fill="none" xmlns="http://www.w3.org/2000/svg">
<path d="M12.9708 43.2694C12.9708 36 9.875 32.2188 9.875 32.2188V24.9694C9.875 22.4255 11.4853 20.2577 13.7422 19.4297C13.1087 19.1973 12.4243 19.0703 11.7103 19.0703H10.6178C7.35987 19.0703 4.71875 21.7114 4.71875 24.9694V32.2188C4.71875 32.2188 7.81456 36 7.81456 43.2694C7.81456 44.4114 8.86412 45.2812 10.0061 45.2812H12.322C12.8457 45.2812 13.3496 45.0979 13.7422 44.7897C13.2788 44.4258 12.9708 43.8877 12.9708 43.2694Z" fill="#C3E9FE"/>
<path fill-rule="evenodd" clip-rule="evenodd" d="M36.1454 41.8436V44.3623H43.0469C43.5544 44.3623 43.9657 44.7736 43.9657 45.2811C43.9657 45.7885 43.5544 46.1998 43.0469 46.1998H27.6641C27.1567 46.1998 26.7454 45.7885 26.7454 45.2811C26.7454 44.7736 27.1567 44.3623 27.6641 44.3623H34.3079V41.8436C34.3079 41.3361 34.7192 40.9248 35.2266 40.9248C35.734 40.9248 36.1454 41.3361 36.1454 41.8436ZM30.8704 15.6326C30.8704 15.1252 31.2817 14.7139 31.7891 14.7139H38.836C39.3434 14.7139 39.7547 15.1252 39.7547 15.6326C39.7547 16.1401 39.3434 16.5514 38.836 16.5514H31.7891C31.2817 16.5514 30.8704 16.1401 30.8704 15.6326ZM35.3985 23.4264H31.7891C31.2817 23.4264 30.8704 23.0151 30.8704 22.5076C30.8704 22.0002 31.2817 21.5889 31.7891 21.5889H35.3985C35.9059 21.5889 36.3172 22.0002 36.3172 22.5076C36.3172 23.0151 35.9059 23.4264 35.3985 23.4264Z" fill="#FF6B01"/>
<path fill-rule="evenodd" clip-rule="evenodd" d="M34 4.9H37C41.4735 4.9 45.1 8.52649 45.1 13V28C45.1 32.4735 41.4735 36.1 37 36.1H34C29.5265 36.1 25.9 32.4735 25.9 28H24C24 33.5228 28.4772 38 34 38H37C42.5228 38 47 33.5228 47 28V13C47 7.47715 42.5228 3 37 3H34C28.8147 3 24.5511 6.94668 24.0494 12H25.9611C26.4538 7.99831 29.8651 4.9 34 4.9Z" fill="#0285CB"/>
<circle cx="11" cy="9" r="5.05" stroke="#0285CB" stroke-width="1.9"/>
<path d="M25.5 19C21.1667 19 11.9 19 9.5 19C6.5 19 4.5 21 4.5 24C4.5 26.2362 4.5 29.9482 4.5 31.6579C4.5 31.8803 4.57479 32.0929 4.70275 32.2748C5.76956 33.7912 7.50816 37.3198 7.91359 42.0015C8.00889 43.1019 8.89543 44 10 44H12.5C13.6046 44 14.4988 43.1047 14.5766 42.0029C14.7915 38.9595 15.5041 34.6283 17.2685 32.2882C17.4122 32.0976 17.5 31.8688 17.5 31.6301V24.5" stroke="#0285CB" stroke-width="1.9" stroke-linecap="round"/>
</svg>
