<svg width="50" height="50" viewBox="0 0 50 50" fill="none" xmlns="http://www.w3.org/2000/svg">
<path d="M22.581 47.5002H17.3136C12.5668 47.5002 8.71875 44.4336 8.71875 39.6868V19.133C8.71875 16.8535 9.6243 12.6673 11.2362 11.0555L18.1266 5.95379C21.4241 2.65629 25.1318 2.77215 28.5 5.95371C26.0952 5.77786 24.1669 5.71298 22.3281 7.55176L14.8927 14.9872C14.3125 15.5675 14.0476 18.3545 14.0476 19.1751V39.6867C14.0476 44.4335 17.8344 47.4999 22.581 47.5002Z" fill="#C3E9FE"/>
<path d="M27.5539 3.6759C24.918 1.47262 21.0828 1.47262 18.4469 3.6759L10.0882 10.6628C8.70168 11.8218 7.90039 13.5359 7.90039 15.343V42C7.90039 45.369 10.6315 48.1 14.0004 48.1L25.103 48.1C25.6557 48.1 26.1004 47.6519 26.1004 47.1C26.1004 46.5478 25.6527 46.1 25.1004 46.1H14.0004C11.736 46.1 9.90039 44.2644 9.90039 42V15.343C9.90039 14.1284 10.439 12.9763 11.3709 12.1973L19.7296 5.21042C21.6229 3.62778 24.3778 3.62778 26.2712 5.21042L34.6299 12.1973C35.5618 12.9763 36.1004 14.1284 36.1004 15.343V24.1C36.1004 24.6523 36.5481 25.1 37.1004 25.1C37.6527 25.1 38.1004 24.6523 38.1004 24.1V15.343C38.1004 13.5359 37.2991 11.8218 35.9126 10.6628L27.5539 3.6759Z" fill="#0285CB"/>
<path d="M22.4434 15.4429C21.3388 15.4429 20.4434 16.3383 20.4434 17.4429C20.4434 18.5474 21.3388 19.4429 22.4434 19.4429C23.5479 19.4429 24.4434 18.5474 24.4434 17.4429C24.4434 16.3383 23.5479 15.4429 22.4434 15.4429Z" fill="#0285CB"/>
<path d="M30.632 33.2279C31.7373 33.07 33.2847 33.2279 33.4741 33.2279H37.5005L38.9215 34.1753L39.3952 35.5963V40.8068L38.9215 42.2279L37.9741 43.1753L36.7899 43.6489H33.9478H31.8163L30.3952 43.4121L29.211 42.4647L28.7373 40.57V37.9647V34.8858L30.632 33.2279Z" fill="#FF6B01"/>
<path d="M36.9542 30.5427C37.0634 30.6998 37.0246 30.9157 36.8675 31.025C36.7104 31.1342 36.4944 31.0953 36.3852 30.9382C35.9237 30.2742 35.1662 29.8776 34.3588 29.8776H28.9588C27.5989 29.8776 26.4928 30.9836 26.4928 32.3436V37.9952C26.4928 38.1866 26.3377 38.3417 26.1463 38.3417C25.9549 38.3417 25.7998 38.1866 25.7998 37.9952V32.3436C25.7998 30.6019 27.2171 29.1846 28.9588 29.1846H34.3588C35.3928 29.1846 36.3632 29.6922 36.9542 30.5427Z" fill="#FF6B01"/>
<path fill-rule="evenodd" clip-rule="evenodd" d="M36.8164 43.9007L31.6434 43.9007C29.9017 43.9007 28.4844 42.4834 28.4844 40.7417V35.9245C28.4844 34.1829 29.9017 32.7655 31.6434 32.7655L36.8164 32.7655C38.5581 32.7655 39.9754 34.1829 39.9754 35.9245V40.7417C39.9754 42.4834 38.5581 43.9007 36.8164 43.9007ZM31.6434 33.4585C30.2835 33.4585 29.1774 34.5646 29.1774 35.9245V40.7417C29.1774 42.1017 30.2835 43.2077 31.6434 43.2077L36.8164 43.2077C38.1764 43.2077 39.2824 42.1017 39.2824 40.7417V35.9245C39.2824 34.5646 38.1764 33.4585 36.8164 33.4585L31.6434 33.4585Z" fill="#FF6B01"/>
<ellipse cx="32.0647" cy="36.72" rx="0.72" ry="0.72" fill="white"/>
<path d="M33.8643 36.7197H36.7443" stroke="white" stroke-width="0.852632" stroke-linecap="round"/>
<path d="M33.8643 38.52H36.7443" stroke="white" stroke-width="0.852632" stroke-linecap="round"/>
<path d="M33.8643 40.3198H35.3043" stroke="white" stroke-width="0.852632" stroke-linecap="round"/>
</svg>
