<svg width="50" height="50" viewBox="0 0 50 50" fill="none" xmlns="http://www.w3.org/2000/svg">
<path d="M10.875 36.691V13.309C10.875 8.56471 14.7116 4.71875 19.4443 4.71875H14.2266C9.48032 4.71875 5.63281 8.56626 5.63281 13.3125V36.6875C5.63281 41.4337 9.48032 45.2812 14.2266 45.2812H19.4443C14.7116 45.2812 10.875 41.4353 10.875 36.691Z" fill="#C3E9FE"/>
<path d="M22.219 44.3623C22.7265 44.3623 23.1378 44.7736 23.1378 45.2811C23.1378 45.7885 22.7265 46.1998 22.219 46.1998H14.311C9.06754 46.1998 4.80029 41.9326 4.80029 36.689V13.3105C4.80029 8.06705 9.06753 3.7998 14.311 3.7998H30.1271C35.3724 3.7998 39.6396 8.06714 39.6395 13.3105C39.6395 13.8179 39.2282 14.2292 38.7208 14.2292C38.2133 14.2292 37.802 13.8179 37.802 13.3105C37.802 9.07883 34.3606 5.6373 30.1288 5.6373H14.311C10.0793 5.6373 6.63779 9.07883 6.63779 13.3105V36.6891C6.63779 40.9208 10.0793 44.3623 14.311 44.3623H22.219Z" fill="#0285CB"/>
<path d="M28.055 21.0251C28.5624 21.0251 28.9737 21.4364 28.9737 21.9439C28.9737 22.4513 28.5624 22.8626 28.055 22.8626H16.6331C16.1257 22.8626 15.7144 22.4513 15.7144 21.9439C15.7144 21.4364 16.1257 21.0251 16.6331 21.0251H28.055Z" fill="#0285CB"/>
<path d="M25.055 35.0192C25.5624 35.0192 25.9737 35.4305 25.9737 35.9379C25.9737 36.4454 25.5624 36.8567 25.055 36.8567H16.6331C16.1257 36.8567 15.7144 36.4454 15.7144 35.9379C15.7144 35.4305 16.1257 35.0192 16.6331 35.0192H25.055Z" fill="#0285CB"/>
<path d="M28.055 28.1201C28.5624 28.1201 28.9737 28.5314 28.9737 29.0389C28.9737 29.5463 28.5624 29.9576 28.055 29.9576H16.6331C16.1257 29.9576 15.7144 29.5463 15.7144 29.0389C15.7144 28.5314 16.1257 28.1201 16.6331 28.1201H28.055Z" fill="#0285CB"/>
<path d="M28.4925 14.0186C28.9999 14.0186 29.4112 14.4299 29.4112 14.9373C29.4112 15.4447 28.9999 15.8561 28.4925 15.8561H16.6331C16.1257 15.8561 15.7144 15.4447 15.7144 14.9373C15.7144 14.4299 16.1257 14.0186 16.6331 14.0186H28.4925Z" fill="#FF6B01"/>
<path fill-rule="evenodd" clip-rule="evenodd" d="M41.6536 21.6011C41.409 21.6666 41.1797 21.7797 40.9788 21.9339C40.7779 22.088 40.6093 22.2802 40.4827 22.4996L31.0562 38.8266L31.0389 42.7135L34.3964 40.7551L43.8228 24.428C43.9494 24.2087 44.0316 23.9666 44.0647 23.7155C44.0977 23.4644 44.081 23.2093 44.0155 22.9647C43.9499 22.72 43.8368 22.4907 43.6827 22.2898C43.5285 22.0889 43.3363 21.9203 43.117 21.7937C42.8976 21.6671 42.6555 21.5849 42.4045 21.5518C42.1534 21.5188 41.8983 21.5355 41.6536 21.6011ZM39.883 20.5058C40.2715 20.2078 40.7148 19.9891 41.1878 19.8624C41.6607 19.7357 42.154 19.7033 42.6394 19.7672C43.1248 19.8312 43.5929 19.9901 44.017 20.2349C44.441 20.4797 44.8126 20.8056 45.1107 21.1941C45.4088 21.5825 45.6274 22.0259 45.7541 22.4988C45.8809 22.9717 45.9132 23.465 45.8493 23.9504C45.7854 24.4359 45.6265 24.904 45.3817 25.328L35.8357 41.862C35.7574 41.9977 35.6451 42.1105 35.5098 42.1895L30.5854 45.0619C30.3064 45.2246 29.9616 45.2253 29.6819 45.0639C29.4022 44.9024 29.2305 44.6034 29.2319 44.2804L29.2573 38.5796C29.258 38.423 29.2996 38.2693 29.3779 38.1336L38.9238 21.5996C39.1686 21.1755 39.4946 20.8039 39.883 20.5058Z" fill="#FF6B01"/>
<path fill-rule="evenodd" clip-rule="evenodd" d="M36.3741 39.1296L31.4751 36.3012L32.3751 34.7423L37.2741 37.5708L36.3741 39.1296Z" fill="#FF6B01"/>
</svg>
