<svg width="50" height="50" viewBox="0 0 50 50" fill="none" xmlns="http://www.w3.org/2000/svg">
<path d="M8.94466 40.7636V15.6529C8.94466 14.5238 9.39562 13.4414 10.1974 12.6463L16.9101 5.98897C18.5359 4.37664 20.7329 3.47195 23.0226 3.47195H39.2363C37.7855 2.38193 35.9824 1.73584 34.028 1.73584H17.8143C15.5245 1.73584 13.3275 2.64053 11.7017 4.25294L6.3043 9.60581C4.66081 11.2357 3.73633 13.4545 3.73633 15.7693V39.0275C3.73633 43.8215 7.62244 47.7078 12.4164 47.7081C10.3083 46.1243 8.94466 43.6033 8.94466 40.7636Z" fill="#C3E9FE"/>
<path fill-rule="evenodd" clip-rule="evenodd" d="M34.6502 25.332C34.1332 25.332 33.7141 24.9129 33.7141 24.3959V19.0347C33.7141 15.6731 30.9806 12.9396 27.6189 12.9396H16.1988C15.6818 12.9396 15.2627 12.5205 15.2627 12.0035C15.2627 11.4865 15.6818 11.0674 16.1988 11.0674H27.6189C32.0114 11.0674 35.5863 14.6423 35.5863 19.0347V24.3959C35.5863 24.9129 35.1672 25.332 34.6502 25.332Z" fill="#0285CB"/>
<path d="M37.9366 8.20208C37.582 7.82546 36.9896 7.80768 36.6133 8.16189L35.1376 9.55085C34.7611 9.90511 34.7431 10.4976 35.0974 10.874C35.2817 11.0698 35.5288 11.1686 35.7795 11.1686C36.0105 11.1686 36.2397 11.0845 36.4206 10.9142L37.8964 9.52523C38.2728 9.17098 38.2908 8.57855 37.9366 8.20208Z" fill="#0285CB"/>
<path d="M5.51771 9.19108L10.9153 3.83833C12.7294 2.03911 15.132 1.0498 17.687 1.0498H35.3451C40.647 1.0498 44.9617 5.36455 44.9617 10.6665V30.1105C44.9617 30.6275 44.5426 31.0466 44.0256 31.0466C43.5086 31.0466 43.0895 30.6275 43.0895 30.1105V10.6665C43.0895 6.39548 39.6161 2.92203 35.3451 2.92203H17.687C15.6319 2.92203 13.6928 3.7205 12.2336 5.16762L6.83608 10.5205C5.37908 11.9656 4.54507 13.9673 4.54507 16.0193V39.3382C4.54507 43.6092 8.01852 47.0826 12.2895 47.0826H23.0639C23.5809 47.0826 24 47.5017 24 48.0187C24 48.5357 23.5809 48.9548 23.0639 48.9548H12.2895C6.9876 48.9548 2.67285 44.6401 2.67285 39.3382V16.0193C2.67285 13.4745 3.71085 10.9831 5.51771 9.19108Z" fill="#0285CB"/>
<path d="M39.7439 33C43.2457 33 45.6954 36.1133 45.38 39.1893C47.4424 39.5902 49 41.3956 49 43.5556C49 46.0102 46.9907 48 44.5122 48H30.7683C27.9161 48 26 46.1471 26 43.8333C26 41.8984 27.376 39.9973 29.3659 39.6667C29.3659 36.3333 32.4512 34.9444 34.6951 36.0556C35.5366 34.3889 37.3464 33 39.7439 33Z" fill="#FF6B01"/>
<path d="M33 45H37.6684V43.9252H34.5915C35.0159 42.1614 37.6154 41.7756 37.6154 39.8189C37.6154 38.7717 36.9257 38 35.4668 38C34.565 38 33.7692 38.2756 33.2387 38.5512L33.557 39.5433C34.0345 39.2953 34.5915 39.0748 35.2812 39.0748C35.8117 39.0748 36.3156 39.3228 36.3156 39.9567C36.3156 41.3898 33.2653 41.5 33 45ZM37.8011 43.2913H40.7984V45H41.992V43.2913H43V42.2441H41.992V38H41.1167L37.8011 42.4646V43.2913ZM39.1538 42.2992L40.8515 39.9291C40.8515 40.122 40.7984 40.7283 40.7984 41.2795V42.2717H40.0027C39.7639 42.2717 39.313 42.2992 39.1538 42.2992Z" fill="white"/>
<path d="M21.394 34.0916C21.394 33.7616 21.46 33.5196 21.592 33.3656C21.724 33.2116 21.922 33.1346 22.186 33.1346C22.7287 33.1346 23 33.4536 23 34.0916L23 37.9086C23 38.5466 22.7287 38.8656 22.186 38.8656C21.922 38.8656 21.724 38.7886 21.592 38.6346C21.46 38.4806 21.394 38.2386 21.394 37.9086L21.394 37.0176L17.423 37.0176L17.94 37.8976C18.0133 38.0222 18.05 38.1506 18.05 38.2826C18.05 38.4879 17.962 38.6639 17.786 38.8106C17.6027 38.9572 17.401 39.0306 17.181 39.0306C16.8803 39.0306 16.653 38.9022 16.499 38.6456L15.476 36.8856C15.2927 36.5629 15.201 36.2586 15.201 35.9726C15.201 35.6792 15.289 35.4446 15.465 35.2686C15.641 35.0852 15.8793 34.9936 16.18 34.9936L21.394 34.9936L21.394 34.0916ZM23.099 29.4979C23.099 30.4585 22.758 31.1919 22.076 31.6979C21.394 32.2039 20.4077 32.4569 19.117 32.4569C17.8337 32.4569 16.851 32.2039 16.169 31.6979C15.487 31.1919 15.146 30.4585 15.146 29.4979C15.146 28.5445 15.487 27.8149 16.169 27.3089C16.851 26.7955 17.8337 26.5389 19.117 26.5389C20.4077 26.5389 21.394 26.7919 22.076 27.2979C22.758 27.8039 23.099 28.5372 23.099 29.4979ZM21.57 29.4979C21.57 29.1459 21.3793 28.8929 20.998 28.7389C20.6167 28.5849 19.9897 28.5079 19.117 28.5079C18.2517 28.5079 17.6283 28.5849 17.247 28.7389C16.8657 28.8929 16.675 29.1459 16.675 29.4979C16.675 29.8499 16.8657 30.1029 17.247 30.2569C17.621 30.4109 18.2443 30.4879 19.117 30.4879C19.9897 30.4879 20.6167 30.4109 20.998 30.2569C21.3793 30.1029 21.57 29.8499 21.57 29.4979ZM23.099 22.5721C23.099 23.5328 22.758 24.2661 22.076 24.7721C21.394 25.2781 20.4077 25.5311 19.117 25.5311C17.8337 25.5311 16.851 25.2781 16.169 24.7721C15.487 24.2661 15.146 23.5328 15.146 22.5721C15.146 21.6188 15.487 20.8891 16.169 20.3831C16.851 19.8698 17.8337 19.6131 19.117 19.6131C20.4077 19.6131 21.394 19.8661 22.076 20.3721C22.758 20.8781 23.099 21.6115 23.099 22.5721ZM21.57 22.5721C21.57 22.2201 21.3793 21.9671 20.998 21.8131C20.6167 21.6591 19.9897 21.5821 19.117 21.5821C18.2517 21.5821 17.6283 21.6591 17.247 21.8131C16.8657 21.9671 16.675 22.2201 16.675 22.5721C16.675 22.9241 16.8657 23.1771 17.247 23.3311C17.621 23.4851 18.2443 23.5621 19.117 23.5621C19.9897 23.5621 20.6167 23.4851 20.998 23.3311C21.3793 23.1771 21.57 22.9241 21.57 22.5721Z" fill="#FF6B01"/>
</svg>
