<svg width="36" height="36" viewBox="0 0 36 36" fill="none" xmlns="http://www.w3.org/2000/svg">
<g clip-path="url(#clip0)">
<path d="M9.79828 30.4564C9.79828 25.5 7.6875 22.9219 7.6875 22.9219V17.9791C7.6875 16.2446 8.78543 14.7666 10.3242 14.2021C9.89232 14.0436 9.42568 13.957 8.93883 13.957H8.19398C5.97264 13.957 4.17188 15.7578 4.17188 17.9791V22.9219C4.17188 22.9219 6.28266 25.5 6.28266 30.4564C6.28266 31.235 6.99826 31.8281 7.77691 31.8281H9.3559C9.71297 31.8281 10.0566 31.7031 10.3242 31.493C10.0083 31.2449 9.79828 30.878 9.79828 30.4564Z" fill="#C3E9FE"/>
<path fill-rule="evenodd" clip-rule="evenodd" d="M5.36078 30.4564C5.36078 25.9713 3.50442 23.5619 3.45863 23.5059C3.32375 23.3412 3.25 23.1348 3.25 22.9219V17.9791C3.25 15.2533 5.46811 13.0352 8.19398 13.0352H8.93883C10.3476 13.0352 11.6936 13.6388 12.6313 14.6914C12.97 15.0715 12.9364 15.6543 12.5562 15.9929C12.1761 16.3316 11.5933 16.298 11.2547 15.9179C10.6664 15.2576 9.82244 14.8789 8.93883 14.8789H8.19398C6.48431 14.8789 5.09375 16.2695 5.09375 17.9791V22.6225L5.13575 22.6854C5.73741 23.5878 7.20447 26.222 7.20447 30.4564C7.20447 30.5507 7.24662 30.6248 7.2794 30.669C7.31541 30.7176 7.36092 30.7586 7.4086 30.7913C7.50343 30.8564 7.63257 30.9062 7.77686 30.9062H9.35584C9.50012 30.9062 9.62926 30.8564 9.72409 30.7913C9.77178 30.7586 9.81728 30.7176 9.8533 30.669C9.88607 30.6248 9.92822 30.5507 9.92822 30.4564C9.92822 29.6431 9.98303 28.8394 10.0909 28.0677C10.1614 27.5636 10.6272 27.212 11.1317 27.2824C11.6359 27.3529 11.9874 27.8188 11.9169 28.323C11.8207 29.0115 11.772 29.7292 11.772 30.4564C11.772 31.7099 10.6992 32.75 9.3559 32.75H7.77691C6.43366 32.75 5.36078 31.7099 5.36078 30.4564ZM8.50781 3.25C10.5667 3.25 12.2422 4.92547 12.2422 6.98438C12.2422 9.04328 10.5667 10.7188 8.50781 10.7188C6.44891 10.7188 4.77344 9.04328 4.77344 6.98438C4.77344 4.92547 6.44891 3.25 8.50781 3.25ZM8.50781 8.875C9.55051 8.875 10.3984 8.02708 10.3984 6.98438C10.3984 5.94167 9.55051 5.09375 8.50781 5.09375C7.46511 5.09375 6.61719 5.94167 6.61719 6.98438C6.61719 8.02708 7.46511 8.875 8.50781 8.875Z" fill="#0285CB"/>
<path fill-rule="evenodd" clip-rule="evenodd" d="M20.8064 25.1983C20.4456 25.5576 20.4444 26.1413 20.8036 26.502C20.9838 26.683 21.2199 26.7734 21.4568 26.7734C21.6925 26.7734 21.9274 26.6839 22.1074 26.5047L23.9741 24.6457C25.3603 23.2586 25.3599 21.0011 23.9713 19.6121L22.1072 17.7568C21.7463 17.3976 21.1626 17.399 20.8035 17.7598C20.4443 18.1207 20.4457 18.7044 20.8065 19.0635L22.6694 20.9178C23.3379 21.5862 23.338 22.674 22.6713 23.3411L20.8064 25.1983ZM15.1932 25.1983C15.554 25.5576 15.5552 26.1413 15.196 26.5021C15.0158 26.6829 14.7797 26.7734 14.5428 26.7734C14.3071 26.7734 14.0722 26.6839 13.8922 26.5047L12.0275 24.6477C10.6391 23.2585 10.6398 21.001 12.0264 19.614L13.8924 17.7568C14.2533 17.3976 14.837 17.399 15.1962 17.7598C15.5553 18.1207 15.554 18.7044 15.1931 19.0635L13.3282 20.9197C12.6613 21.5866 12.662 22.6744 13.3302 23.343L15.1932 25.1983ZM19.7576 21.2383C20.2668 21.2383 20.6795 21.651 20.6795 22.1601C20.6795 22.6693 20.2668 23.082 19.7576 23.082H16.1248C15.6156 23.082 15.2029 22.6693 15.2029 22.1601C15.2029 21.651 15.6156 21.2383 16.1248 21.2383H19.7576Z" fill="#FF6B01"/>
<path fill-rule="evenodd" clip-rule="evenodd" d="M35.9999 5.64048C35.9858 4.36582 34.9446 3.33331 33.6667 3.33331H32V2.33333C32 1.04667 30.9533 0 29.6667 0H26.3333C25.0467 0 24 1.04667 24 2.33333V3.33331H22.3333C21.0467 3.33331 20 4.37998 20 5.66665V11.6666C20 12.9533 21.0467 14 22.3333 14H33.6667C34.9533 14 36 12.9533 36 11.6666V5.6853C36.0003 5.67039 36.0002 5.65544 35.9999 5.64048ZM31 5.33333L30.9935 5.33331H25.0065L25 5.33333L24.9935 5.33331H22.6236L27.9994 7.89195L33.3741 5.33331H31.0065L31 5.33333ZM34 7.24895L28.4301 9.90128C28.2941 9.96795 28.1461 9.99994 27.9994 9.99994C27.8528 9.99994 27.7048 9.96794 27.5701 9.90261L22 7.25019V11.6666C22 11.8506 22.1493 12 22.3333 12H33.6667C33.8507 12 34 11.8506 34 11.6666V7.24895ZM30 3.33331H26V2.33333C26 2.14933 26.1493 2 26.3333 2H29.6667C29.8507 2 30 2.14933 30 2.33333V3.33331Z" fill="#FF6B01" stroke="white" stroke-width="0.4"/>
</g>
<defs>
<clipPath id="clip0">
<rect width="36" height="36" fill="white"/>
</clipPath>
</defs>
</svg>
