<svg width="50" height="50" viewBox="0 0 50 50" fill="none" xmlns="http://www.w3.org/2000/svg">
<path d="M22.581 47.5002H17.3136C12.5668 47.5002 8.71875 44.4336 8.71875 39.6868V19.133C8.71875 16.8535 9.6243 12.6673 11.2362 11.0555L18.1266 5.95379C21.4241 2.65629 25.1318 2.77215 28.5 5.95371C26.0952 5.77786 24.1669 5.71298 22.3281 7.55176L14.8927 14.9872C14.3125 15.5675 14.0476 18.3545 14.0476 19.1751V39.6867C14.0476 44.4335 17.8344 47.4999 22.581 47.5002Z" fill="#C3E9FE"/>
<path d="M27.5539 3.6759C24.918 1.47262 21.0828 1.47262 18.4469 3.6759L10.0882 10.6628C8.70168 11.8218 7.90039 13.5359 7.90039 15.343V42C7.90039 45.369 10.6315 48.1 14.0004 48.1L25.103 48.1C25.6557 48.1 26.1004 47.6519 26.1004 47.1C26.1004 46.5478 25.6527 46.1 25.1004 46.1H14.0004C11.736 46.1 9.90039 44.2644 9.90039 42V15.343C9.90039 14.1284 10.439 12.9763 11.3709 12.1973L19.7296 5.21042C21.6229 3.62778 24.3778 3.62778 26.2712 5.21042L34.6299 12.1973C35.5618 12.9763 36.1004 14.1284 36.1004 15.343V24.1C36.1004 24.6523 36.5481 25.1 37.1004 25.1C37.6527 25.1 38.1004 24.6523 38.1004 24.1V15.343C38.1004 13.5359 37.2991 11.8218 35.9126 10.6628L27.5539 3.6759Z" fill="#0285CB"/>
<path d="M22.4434 15.4429C21.3388 15.4429 20.4434 16.3383 20.4434 17.4429C20.4434 18.5474 21.3388 19.4429 22.4434 19.4429C23.5479 19.4429 24.4434 18.5474 24.4434 17.4429C24.4434 16.3383 23.5479 15.4429 22.4434 15.4429Z" fill="#0285CB"/>
<path d="M34.9688 30C39.3628 30 43 33.5747 43 37.9688C43 42.3628 39.3628 46 34.9688 46C30.5747 46 27 42.3628 27 37.9688C27 33.5747 30.5747 30 34.9688 30ZM35.9062 32.8125C35.9062 32.2956 35.4856 31.875 34.9688 31.875C34.4522 31.875 34.0312 32.2956 34.0312 32.8125V38.4375C34.0312 38.9544 34.4522 39.375 34.9688 39.375C35.4856 39.375 35.9062 38.9544 35.9062 38.4375V32.8125ZM30.9909 41.9462C32.0544 43.0087 33.4669 43.6562 34.9688 43.6562C36.4709 43.6562 37.9459 43.0087 39.0087 41.9469C40.0712 40.8834 40.6562 39.4706 40.6562 37.9688C40.6562 36.4669 40.0712 35.0541 39.0094 33.9913C38.8325 33.8147 38.5972 33.7175 38.3466 33.7175C38.0956 33.7175 37.86 33.8147 37.6831 33.9909C37.3178 34.3562 37.3175 34.9513 37.6828 35.3175C38.3909 36.025 38.7812 36.9669 38.7812 37.9688C38.7812 38.9703 38.3913 39.9119 37.6828 40.6206C37.0063 41.2969 35.9772 41.6844 34.9688 41.6844C33.9603 41.6844 32.9937 41.2969 32.3172 40.62C31.6087 39.9119 31.2188 38.9703 31.2188 37.9688C31.2188 36.9672 31.6088 36.0256 32.3175 35.3169C32.6828 34.9513 32.6828 34.3562 32.3172 33.9909C32.1403 33.8147 31.905 33.7175 31.6538 33.7175C31.4028 33.7175 31.1675 33.8147 30.9909 33.9913C29.9288 35.0541 29.3438 36.4669 29.3438 37.9688C29.3438 39.4706 29.9288 40.8834 30.9909 41.9462Z" fill="#FF6B01"/>
</svg>
