<svg width="50" height="50" viewBox="0 0 50 50" fill="none" xmlns="http://www.w3.org/2000/svg">
<path d="M10.2718 40.7641V15.6534C10.2718 14.5243 10.7228 13.4419 11.5245 12.6467L18.2373 5.98945C19.863 4.37713 22.0601 3.47244 24.3498 3.47244H40.5635C39.1126 2.38242 37.3096 1.73633 35.3551 1.73633H19.1414C16.8517 1.73633 14.6546 2.64102 13.0288 4.25343L7.63145 9.60629C5.98796 11.2362 5.06348 13.455 5.06348 15.7697V39.028C5.06348 43.822 8.94959 47.7083 13.7435 47.7086C11.6354 46.1248 10.2718 43.6038 10.2718 40.7641Z" fill="#C3E9FE"/>
<path fill-rule="evenodd" clip-rule="evenodd" d="M35.9773 25.332C35.4603 25.332 35.0412 24.9129 35.0412 24.3959V19.0347C35.0412 15.6731 32.3077 12.9396 28.9461 12.9396H17.526C17.0089 12.9396 16.5898 12.5205 16.5898 12.0035C16.5898 11.4865 17.0089 11.0674 17.526 11.0674H28.9461C33.3386 11.0674 36.9135 14.6423 36.9135 19.0347V24.3959C36.9135 24.9129 36.4944 25.332 35.9773 25.332Z" fill="#0285CB"/>
<path d="M39.2637 8.20208C38.9091 7.82546 38.3167 7.80768 37.9405 8.16189L36.4647 9.55085C36.0883 9.90511 36.0703 10.4976 36.4245 10.874C36.6088 11.0698 36.856 11.1686 37.1066 11.1686C37.3377 11.1686 37.5668 11.0845 37.7477 10.9142L39.2235 9.52523C39.5999 9.17098 39.6179 8.57855 39.2637 8.20208Z" fill="#0285CB"/>
<path d="M6.84486 9.19108L12.2424 3.83833C14.0565 2.03911 16.4591 1.0498 19.0142 1.0498H36.6722C41.9741 1.0498 46.2889 5.36455 46.2889 10.6665V30.1105C46.2889 30.6275 45.8698 31.0466 45.3528 31.0466C44.8358 31.0466 44.4167 30.6275 44.4167 30.1105V10.6665C44.4167 6.39548 40.9432 2.92203 36.6722 2.92203H19.0142C16.959 2.92203 15.0199 3.7205 13.5607 5.16762L8.16323 10.5205C6.70623 11.9656 5.87222 13.9673 5.87222 16.0193V39.3382C5.87222 43.6092 9.34567 47.0826 13.6167 47.0826H24.391C24.908 47.0826 25.3271 47.5017 25.3271 48.0187C25.3271 48.5357 24.908 48.9548 24.391 48.9548H13.6167C8.31474 48.9548 4 44.6401 4 39.3382V16.0193C4 13.4745 5.038 10.9831 6.84486 9.19108Z" fill="#0285CB"/>
<path d="M35.5901 49.8962C34.0156 49.5707 32.5465 48.8445 31.3932 47.8218C28.4324 45.1961 27.5173 41.0714 29.0815 37.4012C29.4656 36.4999 30.0901 35.5853 30.8638 34.7906L31.5459 34.0901L31.594 38.1905C31.6401 42.1153 31.6505 42.313 31.8364 42.8076C32.2084 43.7971 32.6072 44.427 33.2937 45.1097C35.0671 46.8731 37.6683 47.3132 39.8796 46.224C41.958 45.2001 43.2684 42.9739 43.1161 40.7252C43.0138 39.2147 42.5051 38.1071 41.4067 37.0035C40.5761 36.169 39.599 35.6239 38.5351 35.4017C37.4527 35.1755 37.5047 35.1425 37.5047 36.0573V36.847L38.0981 36.9562C40.3962 37.379 41.916 39.6322 41.437 41.9062C41.284 42.6325 40.9428 43.2738 40.395 43.8646C39.5625 44.7624 38.3913 45.1916 37.3687 45.1896C35.6777 45.1863 34.2657 44.2269 33.5813 42.808C33.5813 42.808 33.402 42.4025 33.3444 42.1519C33.0056 40.6781 33.2222 37.5756 33.2222 37.5756L33.1959 33.0393L33.4641 32.9009C33.6117 32.8247 33.7531 32.7624 33.7785 32.7624C33.8039 32.7624 33.8362 34.8459 33.8502 37.3924C33.8502 37.3924 33.5245 40.7306 33.927 42.0098C33.985 42.1944 34.0953 42.5101 34.0953 42.5101C34.4481 43.2278 35.0136 43.8591 35.7483 44.2066C36.306 44.4704 36.5868 44.5898 37.412 44.5898C37.9511 44.5898 38.4287 44.4198 38.9782 44.1675C39.626 43.87 40.3692 43.0812 40.6438 42.3611C41.4004 40.3769 40.3469 38.2422 38.3173 37.647C37.4878 37.4037 37.5047 37.3903 37.5047 38.2909V39.0776L37.9028 39.1839C39.3381 39.5672 39.776 41.488 38.6493 42.475C38.2512 42.8237 37.8925 42.9779 37.2651 42.9779C36.5946 42.9779 35.951 42.5727 35.6201 41.9512C35.4214 41.5778 35.4046 41.2237 35.4046 41.0615C35.4046 39.5634 35.3721 36.869 35.3721 36.869L35.3453 32.2472L35.5513 32.1961C35.6646 32.168 36.1227 32.0984 36.5692 32.0415C38.0835 31.8486 40.3238 32.3434 41.8289 33.2033C43.8809 34.3755 45.4335 36.3893 46.08 38.7169C46.3024 39.5176 46.3271 39.7504 46.3271 41.0383C46.3271 42.3205 46.3018 42.561 46.0841 43.3442C45.2049 46.5077 42.9683 48.7691 39.7703 49.7283C39.0972 49.9301 38.7819 49.9686 37.5943 49.9939C36.6359 50.0143 36.0147 49.984 35.5901 49.8962Z" fill="#FF6B01"/>
<path d="M26.327 27.2422L23.7413 29.8279C22.9603 30.609 21.6939 30.609 20.9129 29.8279L18.3271 27.2422" stroke="#FF6B01" stroke-width="2" stroke-linecap="round" stroke-linejoin="round"/>
<line x1="22.3271" y1="21" x2="22.3271" y2="27" stroke="#FF6B01" stroke-width="2" stroke-linecap="round"/>
</svg>
