<svg width="50" height="50" viewBox="0 0 50 50" fill="none" xmlns="http://www.w3.org/2000/svg">
<path d="M22.581 47.5002H17.3136C12.5668 47.5002 8.71875 44.4336 8.71875 39.6868V19.133C8.71875 16.8535 9.6243 12.6673 11.2362 11.0555L18.1266 5.95379C21.4241 2.65629 25.1318 2.77215 28.5 5.95371C26.0952 5.77786 24.1669 5.71298 22.3281 7.55176L14.8927 14.9872C14.3125 15.5675 14.0476 18.3545 14.0476 19.1751V39.6867C14.0476 44.4335 17.8344 47.4999 22.581 47.5002Z" fill="#C3E9FE"/>
<path d="M27.5539 3.6759C24.918 1.47262 21.0828 1.47262 18.4469 3.6759L10.0882 10.6628C8.70168 11.8218 7.90039 13.5359 7.90039 15.343V42C7.90039 45.369 10.6315 48.1 14.0004 48.1L25.103 48.1C25.6557 48.1 26.1004 47.6519 26.1004 47.1C26.1004 46.5478 25.6527 46.1 25.1004 46.1H14.0004C11.736 46.1 9.90039 44.2644 9.90039 42V15.343C9.90039 14.1284 10.439 12.9763 11.3709 12.1973L19.7296 5.21042C21.6229 3.62778 24.3778 3.62778 26.2712 5.21042L34.6299 12.1973C35.5618 12.9763 36.1004 14.1284 36.1004 15.343V24.1C36.1004 24.6523 36.5481 25.1 37.1004 25.1C37.6527 25.1 38.1004 24.6523 38.1004 24.1V15.343C38.1004 13.5359 37.2991 11.8218 35.9126 10.6628L27.5539 3.6759Z" fill="#0285CB"/>
<path d="M22.4434 15.4429C21.3388 15.4429 20.4434 16.3383 20.4434 17.4429C20.4434 18.5474 21.3388 19.4429 22.4434 19.4429C23.5479 19.4429 24.4434 18.5474 24.4434 17.4429C24.4434 16.3383 23.5479 15.4429 22.4434 15.4429Z" fill="#0285CB"/>
<path d="M27.3835 32.7539C28.2005 32.7539 28.8628 32.0916 28.8628 31.2746C28.8628 30.4577 28.2005 29.7954 27.3835 29.7954C26.5666 29.7954 25.9043 30.4577 25.9043 31.2746C25.9043 32.0916 26.5666 32.7539 27.3835 32.7539Z" fill="#FF6B01"/>
<path d="M25.7335 38.1537H25.8802V41.0877C25.8802 41.4912 26.2103 41.8212 26.6137 41.8212H28.1541C28.5575 41.8212 28.8876 41.4912 28.8876 41.0877V40.9167C28.7531 40.6598 28.6675 40.3665 28.6675 40.0609V36.2222C28.6675 35.4765 29.1198 34.8286 29.7678 34.5474V34.254C29.7678 33.8506 29.4377 33.5205 29.0343 33.5205H25.7335C25.3301 33.5205 25 33.8506 25 34.254V37.4203C25 37.8237 25.3179 38.1537 25.7335 38.1537Z" fill="#FF6B01"/>
<path d="M39.6296 32.7539C40.4466 32.7539 41.1088 32.0916 41.1088 31.2746C41.1088 30.4577 40.4466 29.7954 39.6296 29.7954C38.8127 29.7954 38.1504 30.4577 38.1504 31.2746C38.1504 32.0916 38.8127 32.7539 39.6296 32.7539Z" fill="#FF6B01"/>
<path d="M37.2324 34.2423V34.5357C37.8805 34.8169 38.3327 35.4648 38.3327 36.2105V40.037C38.3327 40.3426 38.2593 40.636 38.1127 40.8927V41.0639C38.1127 41.4673 38.4427 41.7974 38.8462 41.7974H40.3866C40.79 41.7974 41.1201 41.4673 41.1201 41.0639V38.1299H41.2667C41.6702 38.1299 42.0002 37.7998 42.0002 37.3964V34.2423C42.0002 33.8389 41.6702 33.5088 41.2667 33.5088H37.9659C37.5626 33.5088 37.2324 33.8387 37.2324 34.2423Z" fill="#FF6B01"/>
<path d="M30.7803 36.2221V37.4202V40.0608C30.7803 40.4642 31.1103 40.7943 31.5138 40.7943H31.795V44.254C31.795 44.6574 32.125 44.9875 32.5285 44.9875H34.4967C34.9001 44.9875 35.2302 44.6574 35.2302 44.254V40.7821H35.5114C35.9148 40.7821 36.2449 40.4521 36.2449 40.0486V37.4203V36.2223C36.2449 35.8188 35.9148 35.4888 35.5114 35.4888H31.5138C31.0981 35.4886 30.7803 35.8188 30.7803 36.2221Z" fill="#FF6B01"/>
<path d="M33.5059 34.6613C34.4444 34.6613 35.2052 33.9005 35.2052 32.962C35.2052 32.0235 34.4444 31.2627 33.5059 31.2627C32.5674 31.2627 31.8066 32.0235 31.8066 32.962C31.8066 33.9005 32.5674 34.6613 33.5059 34.6613Z" fill="#FF6B01"/>
</svg>
