<svg width="50" height="50" viewBox="0 0 50 50" fill="none" xmlns="http://www.w3.org/2000/svg">
<path d="M13 9.22412C8.39852 9.38859 4.71875 13.1707 4.71875 17.8123V38.1873C4.71875 42.9335 8.56626 46.781 13.3125 46.781L17.7862 46.7541C13.3592 46.4062 9.875 42.7037 9.875 38.1873V17.8123C9.875 14.2729 10.6417 11.2332 13 9.91632V9.22412Z" fill="#C3E9FE"/>
<path d="M16.3975 24.1549L13.8784 26.674C13.0973 27.455 13.0973 28.7213 13.8784 29.5024L16.3975 32.0215" stroke="#0285CB" stroke-width="2" stroke-linecap="round" stroke-linejoin="round"/>
<path d="M33.3184 31.0001L35.8375 33.5192C36.6185 34.3002 36.6185 35.5665 35.8375 36.3476L33.3184 38.8667" stroke="#FF6B01" stroke-width="2" stroke-linecap="round" stroke-linejoin="round"/>
<path d="M24.7159 27.9998C24.7159 27.4924 24.3046 27.0811 23.7972 27.0811H18.3831C17.8757 27.0811 17.4644 27.4924 17.4644 27.9998C17.4644 28.5072 17.8757 28.9186 18.3831 28.9186H23.7972C24.3046 28.9186 24.7159 28.5072 24.7159 27.9998Z" fill="#0285CB"/>
<path d="M24.9999 34.8455C24.9999 34.3381 25.4112 33.9268 25.9187 33.9268H31.3327C31.8402 33.9268 32.2515 34.3381 32.2515 34.8455C32.2515 35.3529 31.8402 35.7643 31.3327 35.7643H25.9187C25.4112 35.7643 24.9999 35.3529 24.9999 34.8455Z" fill="#FF6B01"/>
<path d="M13.3128 9.21855C13.3128 8.71114 12.9002 8.29514 12.3951 8.34373C7.57939 8.80699 3.80029 12.8773 3.80029 17.8123V38.1873C3.80029 43.4318 8.06831 47.6998 13.3128 47.6998H36.6878C41.9323 47.6998 46.2003 43.4318 46.2003 38.1873V17.8123C46.2003 12.8773 42.4212 8.80699 37.6055 8.34373C37.1004 8.29514 36.6878 8.71114 36.6878 9.21855C36.6878 9.72597 37.101 10.1315 37.6049 10.1918C41.4067 10.6462 44.3628 13.8899 44.3628 17.8123V38.1873C44.3628 42.42 40.9205 45.8623 36.6878 45.8623H13.3128C9.08009 45.8623 5.63779 42.42 5.63779 38.1873V17.8123C5.63779 13.8899 8.5939 10.6462 12.3957 10.1918C12.8995 10.1315 13.3128 9.72597 13.3128 9.21855Z" fill="#0285CB"/>
<path d="M32.3062 12.3977L31.3545 11.8315C31.5411 11.2536 31.6427 10.6384 31.6427 10C31.6427 9.36151 31.541 8.74639 31.3545 8.16853L32.3062 7.60222C32.9828 7.19968 33.2021 6.32949 32.7961 5.65863C32.3901 4.98776 31.5125 4.77002 30.8363 5.17278L29.8671 5.7495C29.0902 4.97728 28.1032 4.41408 27 4.1491V2.91667C27 2.13424 26.3604 1.5 25.5714 1.5C24.7825 1.5 24.1429 2.13424 24.1429 2.91667V4.1491C23.0145 4.4201 22.0086 5.00413 21.2238 5.80348L20.1637 5.17271C19.4873 4.77009 18.6098 4.98769 18.2039 5.65855C17.798 6.32942 18.0173 7.19968 18.6938 7.60215L19.7655 8.23979C19.5934 8.79697 19.5002 9.38779 19.5002 10C19.5002 10.6121 19.5934 11.203 19.7655 11.7601L18.6938 12.3977C18.0172 12.8003 17.7979 13.6705 18.2038 14.3414C18.4717 14.7841 18.9448 15.0294 19.4301 15.0294C19.6803 15.0294 19.9337 14.9642 20.1637 14.8273L21.2238 14.1965C22.0086 14.9959 23.0145 15.5799 24.1429 15.8509V17.0833C24.1429 17.8658 24.7825 18.5 25.5714 18.5C26.3604 18.5 27 17.8658 27 17.0833V15.8509C28.1031 15.5859 29.0901 15.0227 29.867 14.2506L30.8363 14.8274C31.0664 14.9643 31.3197 15.0294 31.5699 15.0294C32.0552 15.0294 32.5284 14.7842 32.7962 14.3414C33.2021 13.6704 32.9828 12.8003 32.3062 12.3977ZM25.5714 13.1875C23.7991 13.1875 22.3572 11.7576 22.3572 10C22.3572 8.24241 23.7991 6.8125 25.5714 6.8125C27.3437 6.8125 28.7856 8.24241 28.7856 10C28.7856 11.7576 27.3437 13.1875 25.5714 13.1875Z" fill="#FF6B01"/>
</svg>
