<svg width="50" height="50" viewBox="0 0 50 50" fill="none" xmlns="http://www.w3.org/2000/svg">
<path d="M8.94466 40.7641V15.6534C8.94466 14.5243 9.39562 13.4419 10.1974 12.6467L16.9101 5.98945C18.5359 4.37713 20.7329 3.47244 23.0226 3.47244H39.2363C37.7855 2.38242 35.9824 1.73633 34.028 1.73633H17.8143C15.5245 1.73633 13.3275 2.64102 11.7017 4.25343L6.3043 9.60629C4.66081 11.2362 3.73633 13.455 3.73633 15.7697V39.028C3.73633 43.822 7.62244 47.7083 12.4164 47.7086C10.3083 46.1248 8.94466 43.6038 8.94466 40.7641Z" fill="#C3E9FE"/>
<path fill-rule="evenodd" clip-rule="evenodd" d="M34.6502 25.332C34.1332 25.332 33.7141 24.9129 33.7141 24.3959V19.0347C33.7141 15.6731 30.9806 12.9396 27.6189 12.9396H16.1988C15.6818 12.9396 15.2627 12.5205 15.2627 12.0035C15.2627 11.4865 15.6818 11.0674 16.1988 11.0674H27.6189C32.0114 11.0674 35.5863 14.6423 35.5863 19.0347V24.3959C35.5863 24.9129 35.1672 25.332 34.6502 25.332Z" fill="#0285CB"/>
<path d="M37.9366 8.20208C37.582 7.82546 36.9896 7.80768 36.6133 8.16189L35.1376 9.55085C34.7611 9.90511 34.7431 10.4976 35.0974 10.874C35.2817 11.0698 35.5288 11.1686 35.7795 11.1686C36.0105 11.1686 36.2397 11.0845 36.4206 10.9142L37.8964 9.52523C38.2728 9.17098 38.2908 8.57855 37.9366 8.20208Z" fill="#0285CB"/>
<path d="M5.51771 9.19108L10.9153 3.83833C12.7294 2.03911 15.132 1.0498 17.687 1.0498H35.3451C40.647 1.0498 44.9617 5.36455 44.9617 10.6665V30.1105C44.9617 30.6275 44.5426 31.0466 44.0256 31.0466C43.5086 31.0466 43.0895 30.6275 43.0895 30.1105V10.6665C43.0895 6.39548 39.6161 2.92203 35.3451 2.92203H17.687C15.6319 2.92203 13.6928 3.7205 12.2336 5.16762L6.83608 10.5205C5.37908 11.9656 4.54507 13.9673 4.54507 16.0193V39.3382C4.54507 43.6092 8.01852 47.0826 12.2895 47.0826H23.0639C23.5809 47.0826 24 47.5017 24 48.0187C24 48.5357 23.5809 48.9548 23.0639 48.9548H12.2895C6.9876 48.9548 2.67285 44.6401 2.67285 39.3382V16.0193C2.67285 13.4745 3.71085 10.9831 5.51771 9.19108Z" fill="#0285CB"/>
<path d="M24.9999 28.2422L22.4142 30.8279C21.6331 31.609 20.3668 31.609 19.5857 30.8279L17 28.2422" stroke="#FF6B01" stroke-width="2" stroke-linecap="round" stroke-linejoin="round"/>
<line x1="21" y1="22" x2="21" y2="28" stroke="#FF6B01" stroke-width="2" stroke-linecap="round"/>
<path d="M39.7439 33C43.2457 33 45.6954 36.1133 45.38 39.1893C47.4424 39.5902 49 41.3956 49 43.5556C49 46.0102 46.9907 48 44.5122 48H30.7683C27.9161 48 26 46.1471 26 43.8333C26 41.8984 27.376 39.9973 29.3659 39.6667C29.3659 36.3333 32.4512 34.9444 34.6951 36.0556C35.5366 34.3889 37.3464 33 39.7439 33Z" fill="#FF6B01"/>
<path d="M33 45H37.6684V43.9252H34.5915C35.0159 42.1614 37.6154 41.7756 37.6154 39.8189C37.6154 38.7717 36.9257 38 35.4668 38C34.565 38 33.7692 38.2756 33.2387 38.5512L33.557 39.5433C34.0345 39.2953 34.5915 39.0748 35.2812 39.0748C35.8117 39.0748 36.3156 39.3228 36.3156 39.9567C36.3156 41.3898 33.2653 41.5 33 45ZM37.8011 43.2913H40.7984V45H41.992V43.2913H43V42.2441H41.992V38H41.1167L37.8011 42.4646V43.2913ZM39.1538 42.2992L40.8515 39.9291C40.8515 40.122 40.7984 40.7283 40.7984 41.2795V42.2717H40.0027C39.7639 42.2717 39.313 42.2992 39.1538 42.2992Z" fill="white"/>
</svg>
