<svg width="380" height="380" viewBox="0 0 380 380" fill="none" xmlns="http://www.w3.org/2000/svg">
<circle cx="190" cy="190" r="190" fill="#F5F6F8"/>
<g clip-path="url(#clip0)">
<path d="M85 130.874L190 75.9895L293.75 130.874L190 184.511L85 130.874Z" fill="#1F2D42"/>
<path d="M86.25 133.368L188.75 184.51L188.75 301.763L86.25 244.384L86.25 133.368Z" fill="#1F2D42"/>
<path d="M192.5 183.263L295 132.121L297.5 243.137L192.5 303.011V183.263Z" fill="#1F2D42"/>
<path d="M300 128.783C300 128.616 300 128.616 299.832 128.448C299.832 128.281 299.665 128.113 299.665 127.946C299.665 127.778 299.497 127.778 299.497 127.611C299.33 127.443 299.33 127.276 299.162 127.276C298.995 127.108 298.995 127.108 298.827 127.108C298.66 127.108 298.66 126.941 298.492 126.773C298.492 126.773 298.492 126.773 298.324 126.773C298.324 126.773 298.324 126.773 298.157 126.773L191.592 71.3336C190.586 70.8312 189.414 70.8312 188.576 71.3336L81.8431 126.773C81.8431 126.773 81.8431 126.773 81.6756 126.773C81.6756 126.773 81.6756 126.773 81.508 126.773C81.3404 126.773 81.3404 126.941 81.1729 127.108C81.0053 127.108 81.0053 127.276 80.8378 127.276C80.6702 127.443 80.6702 127.611 80.5027 127.611C80.5027 127.778 80.3351 127.778 80.3351 127.946C80.1676 128.113 80.1676 128.281 80.1676 128.448C80.1676 128.616 80 128.616 80 128.783C80 129.118 80 129.453 80 129.788V242.845C80 244.017 80.6702 245.189 81.6756 245.692L188.408 307.496C188.576 307.664 188.743 307.664 188.911 307.664C189.078 307.664 189.078 307.831 189.246 307.831C189.581 307.831 189.749 307.999 190.084 307.999C190.419 307.999 190.586 307.999 190.922 307.831C191.089 307.831 191.089 307.664 191.257 307.664C191.424 307.664 191.592 307.496 191.759 307.496L298.492 245.692C299.497 245.022 300.168 244.017 300.168 242.845V129.788C300 129.453 300 129.118 300 128.783ZM253.922 196.115L248.728 198.962L247.723 199.464L237.837 204.824C237.837 204.992 237.669 204.992 237.502 204.992C237.167 204.992 236.664 204.657 236.664 204.154V191.76V165.966C236.664 165.464 236.664 165.129 236.497 164.626L256.771 154.074V191.257C256.938 193.267 255.765 195.277 253.922 196.115ZM125.91 111.364L225.605 162.784L190.084 181.208L90.556 129.788L125.91 111.364ZM232.81 159.099C232.643 158.932 232.475 158.932 232.308 158.764L133.283 107.679L153.557 97.1273L252.917 148.715L232.81 159.099ZM190.084 78.2008L289.444 129.788L260.122 145.03C259.787 144.862 259.452 144.527 259.117 144.36L160.762 93.275L190.084 78.2008ZM86.7022 135.315L186.733 187.238V298.787L86.7022 240.835V135.315ZM293.298 240.835L193.435 298.787V187.07L229.962 168.144V196.282V204.154C229.962 208.341 233.313 211.691 237.502 211.691C238.675 211.691 240.015 211.356 241.188 210.686L251.912 204.824L257.106 201.977L258.279 201.307C261.462 199.632 263.473 196.282 263.473 192.597V191.257V151.729C263.473 151.394 263.473 151.059 263.473 150.724L272.688 146.035L293.298 135.315V240.835Z" fill="#FF6B01"/>
</g>
<defs>
<clipPath id="clip0">
<rect width="220" height="237" fill="white" transform="translate(80 71)"/>
</clipPath>
</defs>
</svg>
