<svg width="191" height="61" viewBox="0 0 191 61" fill="none" xmlns="http://www.w3.org/2000/svg">
<path d="M61.4537 22.5247C58.1636 22.5247 56.2449 25.5414 55.4336 28.8427H64.686C64.9435 27.5549 65.8063 22.5247 61.4537 22.5247Z" fill="#009FC3"/>
<path d="M133.03 22.6963C127.57 22.6963 126.154 29.6831 125.697 32.2516C124.435 38.5625 125.851 41.3018 129.54 41.3018C132.824 41.3018 135.458 39.1246 136.926 31.6326C137.634 27.8902 137.988 22.6963 133.03 22.6963Z" fill="#009FC3"/>
<path d="M163.065 0C163.059 0 163.053 0 163.053 0C163.046 0 163.046 0 163.04 0H34.8331L30.706 21.6863C31.8199 20.3415 34.2472 17.4386 38.8959 17.4386C42.6883 17.4386 44.71 19.5091 45.5728 21.238C46.2296 22.6325 46.4807 25.2081 45.7724 28.8937L42.4823 46.0477H35.0521L38.2907 29.1783C38.5933 27.5561 39.5076 23.031 35.3096 23.031C33.1848 23.031 30.2037 24.3757 29.3925 28.7869L26.1088 46.0548H18.5755L27.4029 0H27.3901C27.3836 0 27.3836 0 27.3772 0C27.3707 0 27.3707 0 27.3643 0C12.2528 0.00711491 0 13.5468 0 30.2526C0 46.9584 12.2592 60.5052 27.3772 60.5052H157.258L163.439 28.5095C163.639 27.3355 163.845 26.3323 163.593 25.4358C163.291 24.2049 162.377 23.031 160.458 23.031C158.842 23.031 157.168 23.8705 156.112 25.2081C155.558 25.9339 154.798 27.3284 154.393 29.5127L151.205 46.0548H143.672L148.121 22.8673C148.173 22.7535 148.727 19.6798 148.984 17.7232H156.163L155.558 21.9708C156.466 20.6831 159.196 17.0544 164.759 17.0544C169.762 17.0544 171.281 20.4056 171.532 22.3622C171.783 24.0982 171.635 25.5496 170.624 30.8005L164.913 60.4269C179.169 59.3811 190.443 46.2754 190.443 30.2526C190.43 13.5468 178.183 0.00711491 163.065 0ZM89.2205 7.84063H97.2109L95.8459 15.048H87.8555L89.2205 7.84063ZM66.4148 43.8207C64.0904 45.9979 60.5491 47.1149 56.8083 47.1149C54.632 47.1149 50.5885 46.6667 48.4638 43.5931C46.6932 40.9107 46.442 37.1114 47.2984 32.5863C48.2062 28.0043 50.2344 22.5258 55.1857 19.2316C57.4586 17.7802 60.0405 16.8837 62.822 16.8837C66.4598 16.8837 70.5098 18.449 71.8232 23.6998C72.7826 27.5561 71.9262 31.6898 71.3661 34.0377H54.2264C53.8723 35.8805 52.7584 41.5795 57.9672 41.5795C59.8409 41.5795 61.8626 40.7969 63.1761 37.6663H70.0011C69.6534 39.0111 68.9452 41.4159 66.4148 43.8207ZM71.115 46.0548L78.4744 7.86198H85.9561L78.5967 46.0548H71.115ZM82.138 46.0548L87.5979 17.7802H95.0797L89.6197 46.0548H82.138ZM107.88 22.6396C104.338 22.6396 102.825 28.5664 102.214 31.6329C101.911 33.1982 101.1 38.2284 102.413 40.2917C102.967 41.1313 103.675 41.238 104.235 41.238C105.047 41.238 107.474 40.8467 108.736 35.8165H116.121C115.613 37.9936 114.705 41.4017 111.215 44.1409C109.09 45.8698 106.611 46.7663 103.431 46.7663C100.044 46.7663 97.2109 45.9268 95.4402 43.0239C93.7726 40.1708 93.5215 36.4284 94.3779 31.9033C96.8567 19.0537 105.703 17.2608 109.097 17.2608C113.848 17.2608 118.909 20.1637 117.493 27.8193H110.159C110.256 26.8303 110.764 22.6396 107.88 22.6396ZM144.509 31.9673C142.945 39.9004 137.433 47.058 128.174 47.058C120.892 47.058 116.089 42.0847 118.008 32.195C119.321 25.3789 124.028 17.1612 134.091 17.1612C143.35 17.1612 146.029 24.0911 144.509 31.9673Z" fill="#009FC3"/>
</svg>
