<svg width="63" height="26" viewBox="0 0 63 26" fill="none" xmlns="http://www.w3.org/2000/svg">
<g clip-path="url(#clip0_2395_7470)">
<path d="M5.68094 3.22721C5.68094 3.93541 5.39485 4.50197 4.96571 5.06853C4.53657 5.63509 3.96439 5.77673 3.24916 5.77673C2.53393 5.77673 1.96175 5.49345 1.53261 5.06853C1.10347 4.64361 0.817383 3.93541 0.817383 3.22721C0.817383 2.51901 1.10347 1.95245 1.53261 1.52753C1.96175 1.10262 2.53393 0.819336 3.24916 0.819336C3.96439 0.819336 4.53657 1.10262 4.96571 1.52753C5.39485 1.95245 5.68094 2.51901 5.68094 3.22721Z" fill="#FF6B01"/>
<path d="M3.24861 6.05963C2.39034 6.05963 1.81815 5.77635 1.24597 5.20979C0.673787 4.64323 0.387695 4.07668 0.387695 3.22684C0.387695 2.377 0.673787 1.81044 1.24597 1.24388C1.81815 0.677322 2.39034 0.394043 3.24861 0.394043C3.96384 0.394043 4.67907 0.677322 5.25125 1.24388C5.82343 1.81044 6.10952 2.377 6.10952 3.22684C6.10952 3.93504 5.82343 4.64323 5.25125 5.20979C4.67907 5.77635 3.96384 6.05963 3.24861 6.05963ZM3.24861 1.10224C2.67643 1.10224 2.10424 1.24388 1.81815 1.6688C1.24597 2.09372 1.10292 2.66028 1.10292 3.22684C1.10292 3.93504 1.24597 4.35996 1.67511 4.78487C2.10424 5.20979 2.53338 5.35143 3.10556 5.35143C3.67775 5.35143 4.24993 5.20979 4.53602 4.78487C4.96516 4.35996 5.1082 3.93504 5.1082 3.36848C5.1082 2.80192 4.96516 2.23536 4.53602 1.95208C4.24993 1.24388 3.82079 1.10224 3.24861 1.10224Z" fill="#FF6B01"/>
<path d="M5.68094 10.4509V22.9152C5.68094 23.6234 5.39485 24.1899 4.96571 24.6149C4.53657 25.0398 3.96439 25.3231 3.24916 25.3231C2.53393 25.3231 1.96175 25.0398 1.53261 24.6149C1.10347 24.1899 0.817383 23.6234 0.817383 22.9152V10.4509C0.817383 9.74268 1.10347 9.17612 1.53261 8.75121C1.96175 8.18465 2.53393 7.90137 3.24916 7.90137C3.96439 7.90137 4.53657 8.18465 4.96571 8.60957C5.39485 9.17612 5.68094 9.74268 5.68094 10.4509Z" fill="#0285CB"/>
<path d="M3.24861 25.6059C2.53338 25.6059 1.81815 25.3226 1.24597 24.7561C0.673787 24.3312 0.387695 23.623 0.387695 22.9148V10.4505C0.387695 9.74227 0.673787 9.03407 1.24597 8.46751C1.81815 7.90096 2.39034 7.61768 3.24861 7.61768C3.96384 7.61768 4.67907 7.90096 5.25125 8.46751C5.82343 8.89243 6.10952 9.60063 6.10952 10.4505V22.9148C6.10952 23.623 5.82343 24.3312 5.25125 24.8977C4.67907 25.3226 3.96384 25.6059 3.24861 25.6059ZM3.24861 8.32587C2.67643 8.32587 2.10424 8.46751 1.81815 8.89243C1.38902 9.31735 1.24597 9.74227 1.24597 10.3088V22.7731C1.24597 23.3397 1.38902 23.9062 1.81815 24.1895C2.24729 24.6144 2.67643 24.7561 3.24861 24.7561C3.82079 24.7561 4.39298 24.6144 4.67907 24.1895C5.1082 23.7646 5.25125 23.3397 5.25125 22.7731V10.4505C5.25125 9.88391 5.1082 9.31735 4.67907 9.03407C4.24993 8.46751 3.82079 8.32587 3.24861 8.32587Z" fill="#0285CB"/>
<path d="M17.982 25.1812H16.6946C14.6919 25.1812 13.1184 24.7563 12.2602 23.7649C11.4019 22.7734 10.8297 21.357 10.8297 19.5157V12.1504H10.2575C9.68534 12.1504 9.2562 12.0088 8.82707 11.5838C8.39793 11.1589 8.25488 10.734 8.25488 10.1674C8.25488 9.60088 8.39793 9.17596 8.82707 8.75104C9.2562 8.32612 9.68534 8.18448 10.2575 8.18448H10.8297V5.63496C10.8297 4.92677 11.1158 4.36021 11.5449 3.93529C11.9741 3.36873 12.6893 3.08545 13.2615 3.08545C13.9767 3.08545 14.5489 3.36873 14.978 3.79365C15.4072 4.21857 15.6933 4.78513 15.6933 5.49332V8.04284H17.6959C18.2681 8.04284 18.6972 8.18448 19.1264 8.6094C19.5555 9.03432 19.6985 9.45924 19.6985 10.0258C19.6985 10.5924 19.5555 11.0173 19.1264 11.4422C18.6972 11.8671 18.2681 12.0088 17.6959 12.0088H15.6933V18.8075C15.6933 19.5157 15.8363 20.0822 16.1224 20.3655C16.4085 20.6488 16.8376 20.9321 17.5529 20.9321H17.982C18.5542 20.9321 18.9833 21.0737 19.4125 21.4986C19.8416 21.9235 19.9846 22.3485 19.9846 22.915C19.9846 23.4816 19.8416 23.9065 19.4125 24.3314C19.1264 24.898 18.5542 25.1812 17.982 25.1812Z" fill="#0285CB"/>
<path d="M17.9829 25.4641H16.6955C14.5498 25.4641 12.9763 25.0392 11.975 24.0477C10.9737 23.0562 10.4015 21.4982 10.4015 19.5152V12.5749H10.2585C9.54323 12.5749 8.97105 12.2916 8.54191 11.8667C8.11277 11.3001 7.96973 10.7336 7.96973 10.167C7.96973 9.45883 8.25582 8.89227 8.68496 8.46735C9.11409 8.04243 9.68628 7.75915 10.4015 7.75915H10.5445V5.63455C10.5445 4.92635 10.8306 4.21816 11.4028 3.6516C11.832 3.08504 12.5472 2.80176 13.2624 2.80176C13.9776 2.80176 14.6929 3.08504 15.2651 3.6516C15.8372 4.21816 16.1233 4.78471 16.1233 5.63455V7.75915H17.8399C18.5551 7.75915 19.1273 8.04243 19.5564 8.46735C19.9856 8.89227 20.2717 9.45883 20.2717 10.167C20.2717 10.8752 19.9856 11.4418 19.5564 11.8667C19.1273 12.2916 18.5551 12.5749 17.8399 12.5749H16.1233V19.0903C16.1233 19.6569 16.2664 20.2234 16.4094 20.3651C16.6955 20.6484 16.9816 20.79 17.5538 20.79H17.9829C18.6982 20.79 19.2703 21.0733 19.6995 21.4982C20.1286 21.9231 20.4147 22.4897 20.4147 23.1979C20.4147 23.9061 20.1286 24.4726 19.6995 24.8976C19.2703 25.1808 18.6982 25.4641 17.9829 25.4641ZM10.2585 8.46735C9.82932 8.46735 9.40018 8.60899 9.11409 8.89227C8.828 9.31719 8.68496 9.60047 8.68496 10.167C8.68496 10.5919 8.828 11.0169 9.11409 11.3001C9.54323 11.7251 9.82932 11.8667 10.2585 11.8667H11.1167V19.5152C11.1167 21.3566 11.5459 22.773 12.4041 23.6228C13.2624 24.4726 14.6929 24.8976 16.5525 24.8976H17.8399C18.269 24.8976 18.6982 24.7559 18.9842 24.4726C19.2703 24.1894 19.4134 23.7644 19.4134 23.3395C19.4134 22.9146 19.2703 22.4897 18.9842 22.2064C18.6982 21.9231 18.269 21.7815 17.8399 21.7815H17.4107C16.6955 21.7815 16.1233 21.6398 15.6942 21.2149C15.4081 20.79 15.122 20.2234 15.122 19.3736V11.8667H17.5538C17.9829 11.8667 18.4121 11.7251 18.6982 11.4418C18.9842 11.1585 19.1273 10.7336 19.1273 10.3087C19.1273 9.88374 18.9842 9.45883 18.6982 9.17555C18.4121 8.89227 17.9829 8.75063 17.5538 8.75063H15.122V5.91783C15.122 5.35127 14.979 4.78471 14.5498 4.50143C14.4068 3.6516 13.8346 3.50996 13.2624 3.50996C12.6902 3.50996 12.1181 3.6516 11.832 4.07652C11.4028 4.50143 11.2598 4.92635 11.2598 5.49291V8.32571H10.2585V8.46735Z" fill="#0285CB"/>
<path d="M42.8724 3.22721C42.8724 3.93541 42.5863 4.50197 42.1571 5.06853C41.728 5.63509 41.1558 5.77673 40.4406 5.77673C39.7253 5.77673 39.1532 5.49345 38.724 5.06853C38.2949 4.64361 38.0088 3.93541 38.0088 3.22721C38.0088 2.51901 38.2949 1.95245 38.724 1.52753C39.1532 1.10262 39.7253 0.819336 40.4406 0.819336C41.1558 0.819336 41.728 1.10262 42.1571 1.52753C42.5863 1.95245 42.8724 2.51901 42.8724 3.22721Z" fill="#FF6B01"/>
<path d="M40.44 6.05963C39.7248 6.05963 39.0096 5.77635 38.4374 5.20979C37.8652 4.64323 37.5791 4.07668 37.5791 3.22684C37.5791 2.377 37.8652 1.6688 38.4374 1.24388C39.0096 0.818962 39.5817 0.394043 40.44 0.394043C41.1552 0.394043 41.8705 0.677322 42.4427 1.24388C43.0148 1.81044 43.3009 2.377 43.3009 3.22684C43.3009 3.93504 43.0148 4.64323 42.4427 5.20979C41.8705 5.77635 41.1552 6.05963 40.44 6.05963ZM40.44 1.10224C39.8678 1.10224 39.2957 1.24388 39.0096 1.6688C38.5804 2.09372 38.4374 2.51864 38.4374 3.0852C38.4374 3.7934 38.5804 4.21832 39.0096 4.64323C39.4387 5.06815 39.8678 5.20979 40.44 5.20979C41.0122 5.20979 41.5844 5.06815 41.8705 4.64323C42.2996 4.21832 42.4427 3.7934 42.4427 3.22684C42.4427 2.66028 42.2996 2.09372 41.8705 1.81044C41.4413 1.24388 41.0122 1.10224 40.44 1.10224Z" fill="#FF6B01"/>
<path d="M42.8724 10.4508V22.9151C42.8724 23.6233 42.5863 24.1899 42.1571 24.6148C41.728 25.0397 41.1558 25.323 40.4406 25.323C39.7253 25.323 39.1532 25.0397 38.724 24.6148C38.2949 24.1899 38.0088 23.6233 38.0088 22.9151V10.4508C38.0088 9.74265 38.2949 9.17609 38.724 8.75117C39.1532 8.32625 39.7253 8.04297 40.4406 8.04297C41.1558 8.04297 41.728 8.32625 42.1571 8.75117C42.5863 9.17609 42.8724 9.74265 42.8724 10.4508Z" fill="#0285CB"/>
<path d="M40.44 25.6059C39.7248 25.6059 39.0096 25.3226 38.4374 24.7561C37.8652 24.1895 37.5791 23.4813 37.5791 22.7731V10.4505C37.5791 9.74227 37.8652 9.03407 38.4374 8.46751C39.0096 7.90096 39.5817 7.61768 40.44 7.61768C41.1552 7.61768 41.8705 7.90096 42.4427 8.46751C43.0148 8.89243 43.3009 9.60063 43.3009 10.4505V22.9148C43.3009 23.623 43.0148 24.3312 42.4427 24.8977C41.8705 25.3226 41.1552 25.6059 40.44 25.6059ZM40.44 8.32587C39.8678 8.32587 39.2957 8.46751 39.0096 8.89243C38.5804 9.31735 38.4374 9.74227 38.4374 10.3088V22.7731C38.4374 23.3397 38.5804 23.9062 39.0096 24.1895C39.4387 24.6144 39.8678 24.7561 40.44 24.7561C41.0122 24.7561 41.5844 24.6144 41.8705 24.1895C42.2996 23.7646 42.4427 23.3397 42.4427 22.7731V10.4505C42.4427 9.88391 42.2996 9.31735 41.8705 9.03407C41.4413 8.46751 41.0122 8.32587 40.44 8.32587Z" fill="#0285CB"/>
<path d="M57.3213 22.9152V15.125C57.3213 12.8588 56.463 11.7257 54.7465 11.7257C54.1743 11.7257 53.6021 11.8673 53.173 12.2922C52.7438 12.7172 52.3147 13.1421 52.0286 13.7086V22.9152C52.0286 23.6234 51.7425 24.19 51.3134 24.6149C50.8842 25.0398 50.312 25.3231 49.5968 25.3231C48.8816 25.3231 48.3094 25.0398 47.8803 24.6149C47.4511 24.19 47.165 23.6234 47.165 22.9152V10.4509C47.165 9.74272 47.4511 9.17616 47.8803 8.75124C48.3094 8.32632 48.8816 8.04305 49.5968 8.04305C50.169 8.04305 50.7412 8.18469 51.1703 8.6096C51.5995 9.03452 51.8855 9.45944 52.0286 10.026C52.4577 9.3178 53.0299 8.75124 53.7451 8.32632C54.4604 7.90141 55.3186 7.75977 56.32 7.75977C58.1796 7.75977 59.61 8.32632 60.7544 9.60108C61.7557 10.8758 62.3279 12.4339 62.3279 14.5585V22.9152C62.3279 23.6234 62.0418 24.19 61.6127 24.6149C61.1835 25.0398 60.6113 25.3231 59.8961 25.3231C59.1809 25.3231 58.6087 25.0398 58.1796 24.6149C57.6074 24.0483 57.3213 23.4818 57.3213 22.9152Z" fill="#0285CB"/>
<path d="M59.8941 25.606C59.1788 25.606 58.4636 25.3227 57.8914 24.7562C57.3192 24.1896 57.0332 23.4814 57.0332 22.7732V14.983C57.0332 12.2919 55.7457 12.0086 54.7444 12.0086C54.1722 12.0086 53.7431 12.1502 53.314 12.4335C52.8848 12.7168 52.5987 13.1417 52.3126 13.5666V22.6316C52.3126 23.3398 52.0266 24.048 51.4544 24.6145C50.8822 25.1811 50.167 25.4644 49.4517 25.4644C48.7365 25.4644 48.0213 25.1811 47.4491 24.6145C46.8769 24.048 46.5908 23.3398 46.5908 22.6316V10.4505C46.5908 9.74235 46.8769 9.03415 47.4491 8.46759C48.0213 7.90103 48.7365 7.61775 49.4517 7.61775C50.167 7.61775 50.7391 7.90103 51.3113 8.32595C51.7405 8.46759 51.8835 8.89251 52.0266 9.17579C52.4557 8.75087 52.8848 8.32595 53.457 8.04267C54.3153 7.61775 55.1736 7.33447 56.1749 7.33447C58.1775 7.33447 59.751 8.04267 60.7523 9.31743C61.8967 10.5922 62.4689 12.2919 62.4689 14.5581V22.9148C62.4689 23.623 62.1828 24.3312 61.6106 24.8978C61.3245 25.3227 60.6093 25.606 59.8941 25.606ZM54.7444 11.442C56.0318 11.442 57.7484 12.0086 57.7484 15.1247V22.9148C57.7484 23.4814 57.8914 24.048 58.3206 24.3312C58.7497 24.7562 59.1788 24.8978 59.751 24.8978C60.3232 24.8978 60.8954 24.7562 61.1815 24.3312C61.6106 23.9063 61.7537 23.4814 61.7537 22.9148V14.5581C61.7537 12.5751 61.1815 10.8755 60.1802 9.74235C59.1788 8.60923 57.8914 8.04267 56.0318 8.04267C55.1736 8.04267 54.3153 8.18431 53.6001 8.60923C52.8848 9.03415 52.3126 9.45907 52.0266 10.1673L51.5974 11.0171L51.4544 10.0256C51.3113 9.45907 51.1683 9.17579 50.7391 8.75087C50.31 8.46759 49.8809 8.32595 49.3087 8.32595C48.7365 8.32595 48.1643 8.46759 47.8782 8.89251C47.4491 9.31743 47.306 9.74235 47.306 10.3089V22.7732C47.306 23.3398 47.4491 23.9063 47.8782 24.1896C48.3074 24.6145 48.7365 24.7562 49.3087 24.7562C49.8809 24.7562 50.4531 24.6145 50.7391 24.1896C51.1683 23.7647 51.3113 23.3398 51.3113 22.7732V13.425C51.5974 12.8584 52.0266 12.2919 52.5987 11.8669C53.457 11.5837 54.1722 11.442 54.7444 11.442Z" fill="#0285CB"/>
<path d="M31.4309 15.9752C31.4309 16.6834 31.1448 17.25 30.7157 17.8165C30.2866 18.3831 29.7144 18.5247 28.9992 18.5247C28.2839 18.5247 27.7117 18.2415 27.2826 17.8165C26.8535 17.3916 26.5674 16.8251 26.5674 16.1169C26.5674 15.4087 26.8535 14.8421 27.2826 14.4172C27.7117 13.9923 28.2839 13.709 28.9992 13.709C29.7144 13.709 30.2866 13.9923 30.7157 14.4172C31.1448 14.8421 31.4309 15.267 31.4309 15.9752Z" fill="#0285CB"/>
<path d="M28.9986 18.8072C28.2834 18.8072 27.5682 18.5239 26.996 17.9573C26.4238 17.3908 26.1377 16.8242 26.1377 15.9744C26.1377 15.1246 26.4238 14.4164 26.996 13.9914C27.5682 13.5665 28.1403 13.1416 28.9986 13.1416C29.7138 13.1416 30.4291 13.4249 31.0012 13.9914C31.5734 14.558 31.8595 15.1246 31.8595 15.9744C31.8595 16.6826 31.5734 17.3908 31.0012 17.9573C30.4291 18.5239 29.7138 18.8072 28.9986 18.8072ZM28.9986 13.8498C28.4264 13.8498 27.8542 13.9914 27.5682 14.4164C27.139 14.8413 26.996 15.2662 26.996 15.8328C26.996 16.541 27.139 16.9659 27.5682 17.3908C27.9973 17.8157 28.4264 17.9573 28.9986 17.9573C29.5708 17.9573 30.143 17.8157 30.4291 17.3908C30.8582 16.9659 31.0012 16.541 31.0012 15.9744C31.0012 15.4078 30.8582 14.8413 30.4291 14.558C29.9999 13.9914 29.5708 13.8498 28.9986 13.8498Z" fill="#0285CB"/>
</g>
<defs>
<clipPath id="clip0_2395_7470">
<rect width="62.2249" height="25.2119" fill="white" transform="translate(0.387695 0.394043)"/>
</clipPath>
</defs>
</svg>
