<svg width="180" height="33" viewBox="0 0 180 33" fill="none" xmlns="http://www.w3.org/2000/svg">
<path d="M101.357 13.4502C101.357 14.3024 101.082 14.9404 100.53 15.3643C99.9788 15.7881 99.195 16 98.1787 16H95.335V7.0791H98.0215C98.3952 7.0791 98.762 7.111 99.1221 7.1748C99.4821 7.23405 99.8034 7.34798 100.086 7.5166C100.373 7.68522 100.605 7.91992 100.783 8.2207C100.961 8.51693 101.05 8.90658 101.05 9.38965C101.05 10.3148 100.587 10.946 99.6621 11.2832C100.792 11.6296 101.357 12.3519 101.357 13.4502ZM100.113 9.38965C100.113 9.0752 100.047 8.81771 99.915 8.61719C99.7829 8.41667 99.6143 8.264 99.4092 8.15918C99.2041 8.0498 98.9785 7.97689 98.7324 7.94043C98.4863 7.89941 98.2493 7.87891 98.0215 7.87891H96.2715V10.9072H98.0215C98.2767 10.9072 98.5273 10.889 98.7734 10.8525C99.0195 10.8115 99.2406 10.7363 99.4365 10.627C99.6325 10.513 99.7943 10.3581 99.9219 10.1621C100.049 9.96615 100.113 9.70866 100.113 9.38965ZM100.421 13.4502C100.421 12.835 100.22 12.3883 99.8193 12.1104C99.4229 11.8278 98.876 11.6865 98.1787 11.6865H96.2715V15.2002H98.1787C98.876 15.2002 99.4229 15.0544 99.8193 14.7627C100.22 14.4665 100.421 14.029 100.421 13.4502ZM110.271 14.2773C110.271 13.8763 110.372 13.5413 110.572 13.2725C110.773 12.999 111.035 12.7848 111.358 12.6299C111.687 12.4704 112.06 12.3564 112.479 12.2881C112.903 12.2152 113.334 12.1787 113.771 12.1787C113.94 12.1787 114.09 12.181 114.223 12.1855C114.359 12.1901 114.487 12.1969 114.605 12.2061C114.729 12.2152 114.852 12.2266 114.975 12.2402C115.098 12.2539 115.232 12.2699 115.378 12.2881V11.8301C115.378 11.5202 115.31 11.265 115.173 11.0645C115.041 10.8639 114.877 10.7067 114.681 10.5928C114.485 10.4743 114.28 10.3923 114.065 10.3467C113.851 10.2965 113.669 10.2715 113.519 10.2715C113.045 10.2715 112.607 10.3353 112.206 10.4629C111.805 10.5905 111.431 10.7614 111.085 10.9756L110.661 10.2715C111.044 10.0391 111.472 9.84993 111.946 9.7041C112.425 9.55371 112.949 9.47852 113.519 9.47852C113.865 9.47852 114.204 9.52409 114.537 9.61523C114.874 9.70182 115.175 9.83854 115.439 10.0254C115.708 10.2077 115.923 10.4492 116.082 10.75C116.242 11.0508 116.321 11.4108 116.321 11.8301V16H115.378V14.9336C115.214 15.1387 115.027 15.3187 114.817 15.4736C114.612 15.6286 114.396 15.7562 114.168 15.8564C113.94 15.9521 113.712 16.0251 113.484 16.0752C113.257 16.1299 113.04 16.1572 112.835 16.1572C111.992 16.1572 111.354 15.9954 110.921 15.6719C110.488 15.3483 110.271 14.8835 110.271 14.2773ZM112.835 15.3574C113.227 15.3574 113.578 15.3005 113.888 15.1865C114.202 15.068 114.469 14.9222 114.688 14.749C114.906 14.5758 115.075 14.3913 115.193 14.1953C115.316 13.9993 115.378 13.8216 115.378 13.6621V13.0605C115.073 13.015 114.779 12.9899 114.496 12.9854C114.218 12.9808 113.977 12.9785 113.771 12.9785C113.434 12.9785 113.108 13.0013 112.794 13.0469C112.484 13.0924 112.213 13.1676 111.98 13.2725C111.748 13.3727 111.561 13.5049 111.42 13.6689C111.279 13.833 111.208 14.0358 111.208 14.2773C111.208 14.5462 111.338 14.7946 111.598 15.0225C111.862 15.2458 112.274 15.3574 112.835 15.3574ZM123.964 9.62891V16H123.021V10.4287H120.143V14.585C120.143 14.8356 120.099 15.0589 120.013 15.2549C119.931 15.4508 119.819 15.6149 119.678 15.7471C119.536 15.8792 119.372 15.9795 119.186 16.0479C118.999 16.1208 118.803 16.1572 118.598 16.1572C118.215 16.1572 117.935 16.1003 117.757 15.9863L117.941 15.2412C118.005 15.2822 118.076 15.3118 118.153 15.3301C118.235 15.3483 118.342 15.3574 118.475 15.3574C118.958 15.3574 119.199 15.0999 119.199 14.585V9.62891H123.964ZM126.842 12.1787H129.282C130.13 12.1787 130.782 12.3314 131.237 12.6367C131.698 12.9375 131.928 13.4183 131.928 14.0791C131.928 14.7445 131.7 15.2321 131.244 15.542C130.793 15.8473 130.144 16 129.296 16H125.905V9.62891H126.842V12.1787ZM130.991 14.0791C130.991 13.7282 130.839 13.457 130.533 13.2656C130.228 13.0742 129.811 12.9785 129.282 12.9785H126.842V15.2002H129.282C129.811 15.2002 130.228 15.1022 130.533 14.9062C130.839 14.7103 130.991 14.4346 130.991 14.0791ZM135.578 13.4502C134.822 13.4137 134.241 13.2451 133.835 12.9443C133.429 12.639 133.227 12.1742 133.227 11.5498C133.227 10.8844 133.452 10.3991 133.903 10.0938C134.359 9.78385 135.011 9.62891 135.858 9.62891H139.249V16H138.306V13.4502H136.781L134.457 16H133.131L135.578 13.4502ZM134.163 11.5498C134.163 11.9053 134.313 12.1787 134.614 12.3701C134.92 12.5615 135.339 12.6572 135.872 12.6572H138.306V10.4287H135.872C135.339 10.4287 134.92 10.5267 134.614 10.7227C134.313 10.9186 134.163 11.1943 134.163 11.5498ZM146.892 16H145.948V13.1426H142.127V16H141.19V9.62891H142.127V12.3428H145.948V9.62891H146.892V16ZM154.63 14.7969C154.361 15.2161 153.992 15.5488 153.522 15.7949C153.058 16.0365 152.504 16.1572 151.861 16.1572C151.365 16.1572 150.909 16.0752 150.494 15.9111C150.079 15.7471 149.724 15.5192 149.428 15.2275C149.136 14.9313 148.908 14.5804 148.744 14.1748C148.58 13.7692 148.498 13.318 148.498 12.8213C148.498 12.3382 148.573 11.8916 148.724 11.4814C148.874 11.0667 149.088 10.7135 149.366 10.4219C149.644 10.1257 149.984 9.89551 150.385 9.73145C150.79 9.56283 151.239 9.47852 151.731 9.47852C151.927 9.47852 152.128 9.5013 152.333 9.54688C152.538 9.59245 152.732 9.66309 152.914 9.75879C153.096 9.84993 153.26 9.96159 153.406 10.0938C153.552 10.2214 153.661 10.374 153.734 10.5518V9.62891H154.575V12.1787H153.734C153.734 11.8962 153.682 11.6387 153.577 11.4062C153.477 11.1738 153.338 10.9733 153.16 10.8047C152.982 10.6361 152.771 10.5062 152.524 10.415C152.278 10.3193 152.014 10.2715 151.731 10.2715C151.349 10.2715 151.014 10.3376 150.727 10.4697C150.444 10.6019 150.207 10.7819 150.016 11.0098C149.824 11.2376 149.678 11.5065 149.578 11.8164C149.482 12.1217 149.435 12.4567 149.435 12.8213C149.435 13.1859 149.489 13.5231 149.599 13.833C149.713 14.1383 149.874 14.4027 150.084 14.626C150.298 14.8493 150.553 15.027 150.85 15.1592C151.15 15.2913 151.488 15.3574 151.861 15.3574C152.335 15.3574 152.757 15.2663 153.126 15.084C153.495 14.9017 153.778 14.6556 153.974 14.3457L154.63 14.7969ZM157.077 13.1426C157.146 13.8171 157.392 14.3548 157.815 14.7559C158.239 15.1569 158.791 15.3574 159.47 15.3574C159.948 15.3574 160.374 15.2594 160.748 15.0635C161.122 14.8675 161.402 14.6237 161.589 14.332L162.245 14.7832C161.926 15.2298 161.546 15.5716 161.104 15.8086C160.661 16.041 160.117 16.1572 159.47 16.1572C158.978 16.1572 158.526 16.0752 158.116 15.9111C157.706 15.7471 157.351 15.5192 157.05 15.2275C156.754 14.9313 156.523 14.5804 156.359 14.1748C156.195 13.7692 156.113 13.318 156.113 12.8213C156.113 12.3382 156.186 11.8939 156.332 11.4883C156.482 11.0781 156.697 10.7249 156.975 10.4287C157.257 10.1279 157.599 9.89551 158 9.73145C158.401 9.56283 158.85 9.47852 159.347 9.47852C159.889 9.47852 160.363 9.56966 160.769 9.75195C161.174 9.93424 161.511 10.1872 161.78 10.5107C162.054 10.8298 162.254 11.2126 162.382 11.6592C162.514 12.1058 162.58 12.6003 162.58 13.1426H157.077ZM161.589 12.3428C161.484 11.6455 161.231 11.126 160.83 10.7842C160.429 10.4424 159.935 10.2715 159.347 10.2715C159.046 10.2715 158.768 10.3216 158.513 10.4219C158.257 10.5176 158.032 10.6566 157.836 10.8389C157.64 11.0212 157.476 11.2422 157.344 11.502C157.212 11.7572 157.127 12.0374 157.091 12.3428H161.589ZM177.558 14.7969C177.289 15.2161 176.92 15.5488 176.45 15.7949C175.985 16.0365 175.432 16.1572 174.789 16.1572C174.292 16.1572 173.837 16.0752 173.422 15.9111C173.007 15.7471 172.652 15.5192 172.355 15.2275C172.064 14.9313 171.836 14.5804 171.672 14.1748C171.508 13.7692 171.426 13.318 171.426 12.8213C171.426 12.3382 171.501 11.8916 171.651 11.4814C171.802 11.0667 172.016 10.7135 172.294 10.4219C172.572 10.1257 172.911 9.89551 173.312 9.73145C173.718 9.56283 174.167 9.47852 174.659 9.47852C174.855 9.47852 175.056 9.5013 175.261 9.54688C175.466 9.59245 175.66 9.66309 175.842 9.75879C176.024 9.84993 176.188 9.96159 176.334 10.0938C176.48 10.2214 176.589 10.374 176.662 10.5518V9.62891H177.503V12.1787H176.662C176.662 11.8962 176.61 11.6387 176.505 11.4062C176.405 11.1738 176.266 10.9733 176.088 10.8047C175.91 10.6361 175.698 10.5062 175.452 10.415C175.206 10.3193 174.942 10.2715 174.659 10.2715C174.276 10.2715 173.941 10.3376 173.654 10.4697C173.372 10.6019 173.135 10.7819 172.943 11.0098C172.752 11.2376 172.606 11.5065 172.506 11.8164C172.41 12.1217 172.362 12.4567 172.362 12.8213C172.362 13.1859 172.417 13.5231 172.526 13.833C172.64 14.1383 172.802 14.4027 173.012 14.626C173.226 14.8493 173.481 15.027 173.777 15.1592C174.078 15.2913 174.415 15.3574 174.789 15.3574C175.263 15.3574 175.685 15.2663 176.054 15.084C176.423 14.9017 176.705 14.6556 176.901 14.3457L177.558 14.7969Z" fill="#828282"/>
<g clip-path="url(#clip0)">
<path d="M101.962 32.5292C102.042 32.8027 102.301 32.9947 102.602 33.0021L103.657 32.9877C104.033 32.9686 104.15 32.754 104.006 32.3432L100.334 23.6176C100.116 23.2072 99.6728 23.0019 99.0037 23.0017C98.3246 23.0017 97.8738 23.1927 97.6509 23.5746L94.0684 32.3001C93.9101 32.744 94.0265 32.9782 94.4174 33.0019H95.474C95.7693 32.9908 96.0224 32.799 96.0984 32.529L98.6551 26.0816C98.8979 25.3987 99.1331 25.3987 99.3613 26.0816L101.962 32.5292ZM112.063 28.9903C112.792 29.0096 113.156 28.6824 113.156 28.0088C113.156 27.3643 112.807 27.0325 112.108 27.013H108.726V25.6734C108.726 25.2246 108.929 25.0002 109.335 25H116.099C116.679 24.9903 116.969 24.6512 116.969 23.9829C116.969 23.3192 116.674 22.992 116.084 23.0015H107.715C107.007 23.0015 106.653 23.3932 106.653 24.1762V31.9846C106.653 32.6531 107.002 32.9875 107.7 32.9873C108.414 32.9972 108.756 32.6628 108.726 31.9846V28.9903H112.063ZM124.803 28.9903C125.531 29.0096 125.896 28.6824 125.896 28.0088C125.896 27.3643 125.546 27.0325 124.848 27.013H121.465V25.6734C121.465 25.2246 121.669 25.0002 122.075 25H128.839C129.418 24.9903 129.709 24.6512 129.708 23.9829C129.708 23.3192 129.413 22.992 128.824 23.0015H120.455C119.746 23.0015 119.391 23.3932 119.392 24.1762V31.9846C119.392 32.6531 119.741 32.9875 120.439 32.9873C121.153 32.9972 121.495 32.6628 121.465 31.9846V28.9903H124.803ZM137.542 28.9903C138.271 29.0096 138.635 28.6824 138.635 28.0088C138.635 27.3643 138.286 27.0325 137.588 27.013H134.205V25.6734C134.205 25.2339 134.408 25 134.815 24.9714H141.578C142.158 24.9763 142.448 24.6467 142.448 23.9829C142.448 23.319 142.153 22.9916 141.564 23.0009H133.194C132.486 23.0009 132.131 23.3926 132.131 24.1756V31.8266C132.131 32.6003 132.503 32.9871 133.246 32.9871H141.503C142.133 32.9871 142.448 32.6527 142.448 31.9842C142.448 31.3205 142.153 30.9886 141.563 30.9884H134.815C134.408 30.9884 134.205 30.745 134.205 30.2577V28.9899L137.542 28.9903ZM149.033 32.0213C148.989 32.6659 149.335 32.9885 150.07 32.9885C150.772 32.9885 151.117 32.6611 151.107 32.0069V25.7167C151.107 25.2391 151.328 25.0002 151.769 25.0002H153.382C154.1 25.0194 154.459 24.6899 154.46 24.0116C154.46 23.3574 154.1 23.0205 153.382 23.0013H145.771C145.171 22.9821 144.871 23.3094 144.871 23.9827C144.871 24.6607 145.161 24.9904 145.741 24.9712H148.313C148.758 24.9996 148.999 25.2527 149.033 25.7305V32.0213ZM161.037 32.0213C160.993 32.6659 161.338 32.9885 162.074 32.9885C162.775 32.9885 163.121 32.6611 163.111 32.0069V25.7167C163.111 25.2391 163.331 25.0002 163.772 25.0002H165.386C166.104 25.0194 166.463 24.6899 166.463 24.0116C166.463 23.3574 166.104 23.0205 165.386 23.0013H157.774C157.175 22.9821 156.875 23.3094 156.875 23.9827C156.875 24.6607 157.165 24.9904 157.744 24.9712H160.317C160.763 24.9996 161.003 25.2527 161.038 25.7305V32.0203L161.037 32.0213ZM175.902 32.5297C175.981 32.8033 176.241 32.9953 176.541 33.0026L177.596 32.9885C177.973 32.9692 178.089 32.7545 177.945 32.3438L174.274 23.6182C174.056 23.2078 173.612 23.0025 172.943 23.0023C172.264 23.0023 171.813 23.1932 171.591 23.5752L168.008 32.3007C167.85 32.7446 167.966 32.9787 168.357 33.0025H169.413C169.708 32.9914 169.961 32.7998 170.037 32.5295L172.594 26.0824C172.836 25.3992 173.072 25.3992 173.3 26.0824L175.902 32.5297ZM96.8125 27.9569H97.9592C98.4534 27.9561 98.8548 28.3346 98.8556 28.8023C98.8562 29.2697 98.4563 29.6492 97.9619 29.65C97.9609 29.65 97.9601 29.65 97.959 29.65H96.8117C96.3175 29.6498 95.917 29.2707 95.9172 28.8032C95.9174 28.3358 96.3183 27.9567 96.8125 27.9569ZM171.039 27.9569H172.187C172.681 27.9577 173.081 28.3371 173.08 28.8048C173.08 29.2711 172.68 29.6492 172.187 29.65H171.039C170.544 29.6492 170.144 29.2697 170.145 28.8023C170.146 28.3358 170.546 27.9577 171.039 27.9569Z" fill="#4F4F4F"/>
<path d="M96.5775 27.563L97.9105 27.957L97.4634 29.5665L97.2391 29.6501L95.8522 29.9734L95.7109 28.6802L96.5775 27.563Z" fill="#4F4F4F"/>
<path d="M171.909 27.6439L171.848 27.9571L171.176 29.6502L170.248 30.0485C170.248 30.0485 169.769 29.328 169.777 29.2713C169.786 29.2146 170.026 27.8709 170.094 27.8302C170.163 27.7896 171.113 27.0449 171.113 27.0449L171.609 27.1906L171.909 27.6439Z" fill="#4F4F4F"/>
</g>
<g clip-path="url(#clip1)">
<path d="M6.63562 3.59573C6.63562 4.49461 6.277 5.21371 5.73906 5.93281C5.20113 6.65191 4.48389 6.83169 3.58734 6.83169C2.69079 6.83169 1.97355 6.47213 1.43561 5.93281C0.897683 5.39348 0.539062 4.49461 0.539062 3.59573C0.539062 2.69685 0.897683 1.97775 1.43561 1.43843C1.97355 0.899101 2.69079 0.539551 3.58734 0.539551C4.48389 0.539551 5.20113 0.899101 5.73906 1.43843C6.277 1.97775 6.63562 2.69685 6.63562 3.59573Z" fill="#FF6B01"/>
<path d="M3.58621 7.19101C2.51034 7.19101 1.7931 6.83146 1.07586 6.11236C0.358621 5.39326 0 4.67416 0 3.59551C0 2.51685 0.358621 1.79775 1.07586 1.07865C1.7931 0.359551 2.51034 0 3.58621 0C4.48276 0 5.37931 0.359551 6.09655 1.07865C6.81379 1.79775 7.17241 2.51685 7.17241 3.59551C7.17241 4.49438 6.81379 5.39326 6.09655 6.11236C5.37931 6.83146 4.48276 7.19101 3.58621 7.19101ZM3.58621 0.898876C2.86897 0.898876 2.15172 1.07865 1.7931 1.61798C1.07586 2.1573 0.896552 2.8764 0.896552 3.59551C0.896552 4.49438 1.07586 5.03371 1.61379 5.57303C2.15172 6.11236 2.68966 6.29213 3.4069 6.29213C4.12414 6.29213 4.84138 6.11236 5.2 5.57303C5.73793 5.03371 5.91724 4.49438 5.91724 3.77528C5.91724 3.05618 5.73793 2.33708 5.2 1.97753C4.84138 1.07865 4.30345 0.898876 3.58621 0.898876Z" fill="#FF6B01"/>
<path d="M6.63562 12.7638V28.584C6.63562 29.4829 6.277 30.202 5.73906 30.7413C5.20113 31.2806 4.48389 31.6402 3.58734 31.6402C2.69079 31.6402 1.97355 31.2806 1.43561 30.7413C0.897683 30.202 0.539062 29.4829 0.539062 28.584V12.7638C0.539062 11.8649 0.897683 11.1458 1.43561 10.6065C1.97355 9.88738 2.69079 9.52783 3.58734 9.52783C4.48389 9.52783 5.20113 9.88738 5.73906 10.4267C6.277 11.1458 6.63562 11.8649 6.63562 12.7638Z" fill="#0285CB"/>
<path d="M3.58621 31.9999C2.68966 31.9999 1.7931 31.6404 1.07586 30.9213C0.358621 30.3819 0 29.4831 0 28.5842V12.764C0 11.8651 0.358621 10.9662 1.07586 10.2471C1.7931 9.52801 2.51034 9.16846 3.58621 9.16846C4.48276 9.16846 5.37931 9.52801 6.09655 10.2471C6.81379 10.7864 7.17241 11.6853 7.17241 12.764V28.5842C7.17241 29.4831 6.81379 30.3819 6.09655 31.101C5.37931 31.6404 4.48276 31.9999 3.58621 31.9999ZM3.58621 10.0673C2.86897 10.0673 2.15172 10.2471 1.7931 10.7864C1.25517 11.3258 1.07586 11.8651 1.07586 12.5842V28.4044C1.07586 29.1235 1.25517 29.8426 1.7931 30.2022C2.33103 30.7415 2.86897 30.9213 3.58621 30.9213C4.30345 30.9213 5.02069 30.7415 5.37931 30.2022C5.91724 29.6628 6.09655 29.1235 6.09655 28.4044V12.764C6.09655 12.0449 5.91724 11.3258 5.37931 10.9662C4.84138 10.2471 4.30345 10.0673 3.58621 10.0673Z" fill="#0285CB"/>
<path d="M22.0564 31.4605H20.4426C17.9322 31.4605 15.9598 30.9211 14.884 29.6627C13.8081 28.4043 13.0909 26.6065 13.0909 24.2695V14.9211H12.3736C11.6564 14.9211 11.1185 14.7414 10.5805 14.202C10.0426 13.6627 9.86328 13.1234 9.86328 12.4043C9.86328 11.6852 10.0426 11.1459 10.5805 10.6065C11.1185 10.0672 11.6564 9.88744 12.3736 9.88744H13.0909V6.65148C13.0909 5.75261 13.4495 5.0335 13.9874 4.49418C14.5254 3.77508 15.4219 3.41553 16.1391 3.41553C17.0357 3.41553 17.7529 3.77508 18.2909 4.3144C18.8288 4.85373 19.1874 5.57283 19.1874 6.47171V9.70766H21.6978C22.415 9.70766 22.9529 9.88744 23.4909 10.4268C24.0288 10.9661 24.2081 11.5054 24.2081 12.2245C24.2081 12.9436 24.0288 13.4829 23.4909 14.0223C22.9529 14.5616 22.415 14.7414 21.6978 14.7414H19.1874V23.3706C19.1874 24.2695 19.3667 24.9886 19.7254 25.3481C20.084 25.7077 20.6219 26.0672 21.5185 26.0672H22.0564C22.7736 26.0672 23.3116 26.247 23.8495 26.7863C24.3874 27.3256 24.5667 27.865 24.5667 28.5841C24.5667 29.3032 24.3874 29.8425 23.8495 30.3818C23.4909 31.1009 22.7736 31.4605 22.0564 31.4605Z" fill="#0285CB"/>
<path d="M22.0556 31.8202H20.4418C17.7522 31.8202 15.7798 31.2809 14.5246 30.0224C13.2694 28.764 12.5522 26.7865 12.5522 24.2696V15.4606H12.3729C11.4763 15.4606 10.7591 15.1011 10.2211 14.5618C9.68322 13.8427 9.50391 13.1236 9.50391 12.4045C9.50391 11.5056 9.86253 10.7865 10.4005 10.2472C10.9384 9.70784 11.6556 9.34829 12.5522 9.34829H12.7315V6.65166C12.7315 5.75278 13.0901 4.8539 13.8074 4.1348C14.3453 3.4157 15.2418 3.05615 16.1384 3.05615C17.0349 3.05615 17.9315 3.4157 18.6487 4.1348C19.366 4.8539 19.7246 5.57301 19.7246 6.65166V9.34829H21.8763C22.7729 9.34829 23.4901 9.70784 24.028 10.2472C24.566 10.7865 24.9246 11.5056 24.9246 12.4045C24.9246 13.3033 24.566 14.0224 24.028 14.5618C23.4901 15.1011 22.7729 15.4606 21.8763 15.4606H19.7246V23.7303C19.7246 24.4494 19.9039 25.1685 20.0832 25.3483C20.4418 25.7078 20.8005 25.8876 21.5177 25.8876H22.0556C22.9522 25.8876 23.6694 26.2472 24.2074 26.7865C24.7453 27.3258 25.1039 28.0449 25.1039 28.9438C25.1039 29.8427 24.7453 30.5618 24.2074 31.1011C23.6694 31.4606 22.9522 31.8202 22.0556 31.8202ZM12.3729 10.2472C11.8349 10.2472 11.297 10.4269 10.9384 10.7865C10.5798 11.3258 10.4005 11.6854 10.4005 12.4045C10.4005 12.9438 10.5798 13.4831 10.9384 13.8427C11.4763 14.382 11.8349 14.5618 12.3729 14.5618H13.4487V24.2696C13.4487 26.6067 13.9867 28.4045 15.0625 29.4831C16.1384 30.5618 17.9315 31.1011 20.2625 31.1011H21.8763C22.4143 31.1011 22.9522 30.9213 23.3108 30.5618C23.6694 30.2022 23.8487 29.6629 23.8487 29.1236C23.8487 28.5842 23.6694 28.0449 23.3108 27.6854C22.9522 27.3258 22.4143 27.146 21.8763 27.146H21.3384C20.4418 27.146 19.7246 26.9663 19.1867 26.4269C18.828 25.8876 18.4694 25.1685 18.4694 24.0899V14.5618H21.5177C22.0556 14.5618 22.5936 14.382 22.9522 14.0224C23.3108 13.6629 23.4901 13.1236 23.4901 12.5842C23.4901 12.0449 23.3108 11.5056 22.9522 11.146C22.5936 10.7865 22.0556 10.6067 21.5177 10.6067H18.4694V7.01121C18.4694 6.29211 18.2901 5.57301 17.7522 5.21346C17.5729 4.1348 16.8556 3.95503 16.1384 3.95503C15.4211 3.95503 14.7039 4.1348 14.3453 4.67413C13.8074 5.21346 13.628 5.75278 13.628 6.47188V10.0674H12.3729V10.2472Z" fill="#0285CB"/>
<path d="M53.2567 3.59573C53.2567 4.49461 52.8981 5.21371 52.3602 5.93281C51.8222 6.65191 51.105 6.83169 50.2084 6.83169C49.3119 6.83169 48.5946 6.47213 48.0567 5.93281C47.5188 5.39348 47.1602 4.49461 47.1602 3.59573C47.1602 2.69685 47.5188 1.97775 48.0567 1.43843C48.5946 0.899101 49.3119 0.539551 50.2084 0.539551C51.105 0.539551 51.8222 0.899101 52.3602 1.43843C52.8981 1.97775 53.2567 2.69685 53.2567 3.59573Z" fill="#FF6B01"/>
<path d="M50.2073 7.19101C49.3107 7.19101 48.4142 6.83146 47.697 6.11236C46.9797 5.39326 46.6211 4.67416 46.6211 3.59551C46.6211 2.51685 46.9797 1.61798 47.697 1.07865C48.4142 0.539326 49.1314 0 50.2073 0C51.1039 0 52.0004 0.359551 52.7176 1.07865C53.4349 1.79775 53.7935 2.51685 53.7935 3.59551C53.7935 4.49438 53.4349 5.39326 52.7176 6.11236C52.0004 6.83146 51.1039 7.19101 50.2073 7.19101ZM50.2073 0.898876C49.4901 0.898876 48.7728 1.07865 48.4142 1.61798C47.8763 2.1573 47.697 2.69663 47.697 3.41573C47.697 4.31461 47.8763 4.85393 48.4142 5.39326C48.9521 5.93258 49.4901 6.11236 50.2073 6.11236C50.9245 6.11236 51.6418 5.93258 52.0004 5.39326C52.5383 4.85393 52.7176 4.31461 52.7176 3.59551C52.7176 2.8764 52.5383 2.1573 52.0004 1.79775C51.4625 1.07865 50.9245 0.898876 50.2073 0.898876Z" fill="#FF6B01"/>
<path d="M53.2567 12.7642V28.5844C53.2567 29.4833 52.8981 30.2024 52.3602 30.7417C51.8222 31.281 51.105 31.6406 50.2084 31.6406C49.3119 31.6406 48.5946 31.281 48.0567 30.7417C47.5188 30.2024 47.1602 29.4833 47.1602 28.5844V12.7642C47.1602 11.8653 47.5188 11.1462 48.0567 10.6069C48.5946 10.0676 49.3119 9.70801 50.2084 9.70801C51.105 9.70801 51.8222 10.0676 52.3602 10.6069C52.8981 11.1462 53.2567 11.8653 53.2567 12.7642Z" fill="#0285CB"/>
<path d="M50.2073 31.9999C49.3107 31.9999 48.4142 31.6404 47.697 30.9213C46.9797 30.2022 46.6211 29.3033 46.6211 28.4044V12.764C46.6211 11.8651 46.9797 10.9662 47.697 10.2471C48.4142 9.52801 49.1314 9.16846 50.2073 9.16846C51.1039 9.16846 52.0004 9.52801 52.7176 10.2471C53.4349 10.7864 53.7935 11.6853 53.7935 12.764V28.5842C53.7935 29.4831 53.4349 30.3819 52.7176 31.101C52.0004 31.6404 51.1039 31.9999 50.2073 31.9999ZM50.2073 10.0673C49.4901 10.0673 48.7728 10.2471 48.4142 10.7864C47.8763 11.3258 47.697 11.8651 47.697 12.5842V28.4044C47.697 29.1235 47.8763 29.8426 48.4142 30.2022C48.9521 30.7415 49.4901 30.9213 50.2073 30.9213C50.9245 30.9213 51.6418 30.7415 52.0004 30.2022C52.5383 29.6628 52.7176 29.1235 52.7176 28.4044V12.764C52.7176 12.0449 52.5383 11.3258 52.0004 10.9662C51.4625 10.2471 50.9245 10.0673 50.2073 10.0673Z" fill="#0285CB"/>
<path d="M71.3678 28.5846V18.6969C71.3678 15.8205 70.2919 14.3823 68.1402 14.3823C67.4229 14.3823 66.7057 14.5621 66.1678 15.1014C65.6298 15.6408 65.0919 16.1801 64.7333 16.8992V28.5846C64.7333 29.4835 64.3746 30.2026 63.8367 30.7419C63.2988 31.2812 62.5815 31.6408 61.685 31.6408C60.7884 31.6408 60.0712 31.2812 59.5333 30.7419C58.9953 30.2026 58.6367 29.4835 58.6367 28.5846V12.7644C58.6367 11.8655 58.9953 11.1464 59.5333 10.6071C60.0712 10.0677 60.7884 9.70818 61.685 9.70818C62.4022 9.70818 63.1195 9.88796 63.6574 10.4273C64.1953 10.9666 64.554 11.5059 64.7333 12.225C65.2712 11.3262 65.9884 10.6071 66.885 10.0677C67.7815 9.52841 68.8574 9.34863 70.1126 9.34863C72.4436 9.34863 74.2367 10.0677 75.6712 11.6857C76.9264 13.3037 77.6436 15.2812 77.6436 17.9778V28.5846C77.6436 29.4835 77.285 30.2026 76.7471 30.7419C76.2091 31.2812 75.4919 31.6408 74.5953 31.6408C73.6988 31.6408 72.9815 31.2812 72.4436 30.7419C71.7264 30.0228 71.3678 29.3037 71.3678 28.5846Z" fill="#0285CB"/>
<path d="M74.5938 32.0001C73.6973 32.0001 72.8007 31.6405 72.0835 30.9214C71.3662 30.2023 71.0076 29.3035 71.0076 28.4046V18.5169C71.0076 15.1012 69.3938 14.7417 68.1387 14.7417C67.4214 14.7417 66.8835 14.9214 66.3456 15.281C65.8076 15.6405 65.449 16.1799 65.0904 16.7192V28.2248C65.0904 29.1237 64.7318 30.0226 64.0145 30.7417C63.2973 31.4608 62.4007 31.8203 61.5042 31.8203C60.6076 31.8203 59.7111 31.4608 58.9938 30.7417C58.2766 30.0226 57.918 29.1237 57.918 28.2248V12.7641C57.918 11.8653 58.2766 10.9664 58.9938 10.2473C59.7111 9.52818 60.6076 9.16863 61.5042 9.16863C62.4007 9.16863 63.118 9.52818 63.8352 10.0675C64.3731 10.2473 64.5524 10.7866 64.7318 11.1462C65.2697 10.6068 65.8076 10.0675 66.5249 9.70796C67.6007 9.16863 68.6766 8.80908 69.9318 8.80908C72.4421 8.80908 74.4145 9.70796 75.6697 11.3259C77.1042 12.9439 77.8214 15.1012 77.8214 17.9776V28.5844C77.8214 29.4832 77.4628 30.3821 76.7455 31.1012C76.3869 31.6405 75.4904 32.0001 74.5938 32.0001ZM68.1387 14.0226C69.7524 14.0226 71.9042 14.7417 71.9042 18.6967V28.5844C71.9042 29.3035 72.0835 30.0226 72.6214 30.3821C73.1593 30.9214 73.6973 31.1012 74.4145 31.1012C75.1318 31.1012 75.849 30.9214 76.2076 30.3821C76.7455 29.8428 76.9249 29.3035 76.9249 28.5844V17.9776C76.9249 15.4608 76.2076 13.3035 74.9524 11.8653C73.6973 10.4271 72.0835 9.70796 69.7524 9.70796C68.6766 9.70796 67.6007 9.88773 66.7042 10.4271C65.8076 10.9664 65.0904 11.5057 64.7318 12.4046L64.1938 13.4832L64.0145 12.2248C63.8352 11.5057 63.6559 11.1462 63.118 10.6068C62.58 10.2473 62.0421 10.0675 61.3249 10.0675C60.6076 10.0675 59.8904 10.2473 59.5318 10.7866C58.9938 11.3259 58.8145 11.8653 58.8145 12.5844V28.4046C58.8145 29.1237 58.9938 29.8428 59.5318 30.2023C60.0697 30.7417 60.6076 30.9214 61.3249 30.9214C62.0421 30.9214 62.7593 30.7417 63.118 30.2023C63.6559 29.663 63.8352 29.1237 63.8352 28.4046V16.5394C64.1938 15.8203 64.7318 15.1012 65.449 14.5619C66.5249 14.2023 67.4214 14.0226 68.1387 14.0226Z" fill="#0285CB"/>
<path d="M38.913 19.7753C38.913 20.6742 38.5543 21.3933 38.0164 22.1124C37.4785 22.8315 36.7612 23.0113 35.8647 23.0113C34.9681 23.0113 34.2509 22.6517 33.713 22.1124C33.175 21.5731 32.8164 20.854 32.8164 19.9551C32.8164 19.0562 33.175 18.3371 33.713 17.7978C34.2509 17.2585 34.9681 16.8989 35.8647 16.8989C36.7612 16.8989 37.4785 17.2585 38.0164 17.7978C38.5543 18.3371 38.913 18.8765 38.913 19.7753Z" fill="#0285CB"/>
<path d="M35.8635 23.3707C34.967 23.3707 34.0704 23.0111 33.3532 22.292C32.636 21.5729 32.2773 20.8538 32.2773 19.7752C32.2773 18.6965 32.636 17.7977 33.3532 17.2583C34.0704 16.719 34.7877 16.1797 35.8635 16.1797C36.7601 16.1797 37.6566 16.5392 38.3739 17.2583C39.0911 17.9774 39.4497 18.6965 39.4497 19.7752C39.4497 20.6741 39.0911 21.5729 38.3739 22.292C37.6566 23.0111 36.7601 23.3707 35.8635 23.3707ZM35.8635 17.0786C35.1463 17.0786 34.4291 17.2583 34.0704 17.7977C33.5325 18.337 33.3532 18.8763 33.3532 19.5954C33.3532 20.4943 33.5325 21.0336 34.0704 21.5729C34.6084 22.1123 35.1463 22.292 35.8635 22.292C36.5808 22.292 37.298 22.1123 37.6566 21.5729C38.1946 21.0336 38.3739 20.4943 38.3739 19.7752C38.3739 19.0561 38.1946 18.337 37.6566 17.9774C37.1187 17.2583 36.5808 17.0786 35.8635 17.0786Z" fill="#0285CB"/>
</g>
<defs>
<clipPath id="clip0">
<rect width="84" height="10" fill="white" transform="translate(94 23)"/>
</clipPath>
<clipPath id="clip1">
<rect width="78" height="32" fill="white"/>
</clipPath>
</defs>
</svg>
