<svg width="36" height="36" viewBox="0 0 36 36" fill="none" xmlns="http://www.w3.org/2000/svg">
<path d="M9.79552 26.0702V9.92977C9.79552 6.65484 12.5733 4 16 4H12.2222C8.78572 4 4 6.65591 4 9.9322V26.0678C4 29.344 8.78572 32 12.2222 32H16C12.5733 32 9.79552 29.3452 9.79552 26.0702Z" fill="#C3E9FE"/>
<path fill-rule="evenodd" clip-rule="evenodd" d="M25.7346 32.8002H10.2658C6.36378 32.8002 3.2002 29.7294 3.2002 25.9689V10.0314C3.2002 6.271 6.36378 3.2002 10.2658 3.2002H25.7346C29.6366 3.2002 32.8002 6.271 32.8002 10.0314V25.9689C32.8002 29.7294 29.6366 32.8002 25.7346 32.8002ZM10.2658 5.14395C7.49075 5.14395 5.22207 7.33017 5.22207 10.0314V25.9689C5.22207 28.6702 7.49075 30.8564 10.2658 30.8564H25.7346C28.5096 30.8564 30.7783 28.6702 30.7783 25.9689V10.0314C30.7783 7.33017 28.5096 5.14395 25.7346 5.14395H10.2658Z" fill="#0285CB"/>
</svg>
