<svg width="326" height="576" viewBox="0 0 326 576" fill="none" xmlns="http://www.w3.org/2000/svg">
<mask id="mask0" mask-type="alpha" maskUnits="userSpaceOnUse" x="0" y="0" width="326" height="576">
<rect width="326" height="576" fill="#0285CB"/>
</mask>
<g mask="url(#mask0)">
<path fill-rule="evenodd" clip-rule="evenodd" d="M8.75178 96.5318C13.4652 100.844 18.1786 102.999 25.2488 102.999C31.1406 102.999 37.0323 100.844 41.7458 96.5318C46.4592 92.2201 48.8159 86.8305 48.8159 81.4409C48.8159 74.9733 46.4592 70.6616 41.7458 66.3499C37.0323 62.0382 31.1406 59.8823 25.2488 59.8823C18.1786 59.8823 13.4652 62.0382 8.75178 66.3499C4.03835 70.6616 1.68164 74.9733 1.68164 81.4409C1.68164 87.9084 4.03835 92.2201 8.75178 96.5318ZM8.75239 245.514C13.4658 249.83 19.3576 251.988 25.2494 251.988C31.1412 251.988 37.033 249.83 41.7464 246.593C46.4598 242.277 48.8165 236.881 48.8165 231.486V136.533C48.8165 130.059 46.4598 124.663 41.7464 121.426C37.033 117.11 31.1412 114.952 25.2494 114.952C18.1792 114.952 13.4658 117.11 8.75239 121.426C4.03896 125.742 1.68225 131.138 1.68225 136.533V231.486C1.68225 236.881 4.03896 242.277 8.75239 245.514Z" fill="#F5F6F8"/>
<path fill-rule="evenodd" clip-rule="evenodd" d="M156.992 108.346C161.705 112.658 166.419 114.813 173.489 114.813C179.381 114.813 185.273 112.658 189.986 108.346C194.699 104.034 197.056 98.6445 197.056 93.2548C197.056 86.7873 194.699 82.4756 189.986 78.1638C185.273 73.8521 179.381 71.6963 173.489 71.6963C166.419 71.6963 161.705 73.8521 156.992 78.1638C152.279 82.4756 149.922 86.7873 149.922 93.2548C149.922 99.7224 152.279 104.034 156.992 108.346ZM156.992 257.328C161.706 261.644 167.598 263.802 173.489 263.802C179.381 263.802 185.273 261.644 189.986 258.407C194.7 254.091 197.057 248.696 197.057 243.301V148.347C197.057 141.873 194.7 136.478 189.986 133.241C185.273 128.925 179.381 126.767 173.489 126.767C166.419 126.767 161.706 128.925 156.992 133.241C152.279 137.557 149.922 142.952 149.922 148.347V243.301C149.922 248.696 152.279 254.091 156.992 257.328Z" fill="#F5F6F8"/>
<path fill-rule="evenodd" clip-rule="evenodd" d="M78.9412 -8.25284C83.6547 -3.94113 88.3681 -1.78528 95.4382 -1.78528C101.33 -1.78528 107.222 -3.94113 111.935 -8.25284C116.649 -12.5645 119.005 -17.9542 119.005 -23.3438C119.005 -29.8114 116.649 -34.1231 111.935 -38.4348C107.222 -42.7465 101.33 -44.9023 95.4382 -44.9023C88.3681 -44.9023 83.6547 -42.7465 78.9412 -38.4348C74.2278 -34.1231 71.8711 -29.8114 71.8711 -23.3438C71.8711 -16.8763 74.2278 -12.5645 78.9412 -8.25284ZM78.9415 140.729C83.6549 145.045 89.5467 147.203 95.4385 147.203C101.33 147.203 107.222 145.045 111.935 141.808C116.649 137.492 119.006 132.097 119.006 126.702V31.7482C119.006 25.2741 116.649 19.879 111.935 16.6419C107.222 12.3259 101.33 10.1678 95.4385 10.1678C88.3683 10.1678 83.6549 12.3259 78.9415 16.6419C74.2281 20.958 71.8713 26.3531 71.8713 31.7482V126.702C71.8713 132.097 74.2281 137.492 78.9415 140.729Z" fill="#F5F6F8"/>
<path fill-rule="evenodd" clip-rule="evenodd" d="M227.181 -8.25284C231.895 -3.94113 236.608 -1.78528 243.678 -1.78528C249.57 -1.78528 255.462 -3.94113 260.175 -8.25284C264.889 -12.5645 267.246 -17.9542 267.246 -23.3438C267.246 -29.8114 264.889 -34.1231 260.175 -38.4348C255.462 -42.7465 249.57 -44.9023 243.678 -44.9023C236.608 -44.9023 231.895 -42.7465 227.181 -38.4348C222.468 -34.1231 220.111 -29.8114 220.111 -23.3438C220.111 -16.8763 222.468 -12.5645 227.181 -8.25284ZM227.182 140.729C231.896 145.045 237.787 147.203 243.679 147.203C249.571 147.203 255.463 145.045 260.176 141.808C264.89 137.492 267.246 132.097 267.246 126.702V31.7482C267.246 25.2741 264.89 19.879 260.176 16.6419C255.463 12.3259 249.571 10.1678 243.679 10.1678C236.609 10.1678 231.896 12.3259 227.182 16.6419C222.469 20.958 220.112 26.3531 220.112 31.7482V126.702C220.112 132.097 222.469 137.492 227.182 140.729Z" fill="#F5F6F8"/>
<path fill-rule="evenodd" clip-rule="evenodd" d="M78.9412 207.994C83.6547 212.306 88.3681 214.462 95.4382 214.462C101.33 214.462 107.222 212.306 111.935 207.994C116.649 203.682 119.005 198.293 119.005 192.903C119.005 186.436 116.649 182.124 111.935 177.812C107.222 173.501 101.33 171.345 95.4382 171.345C88.3681 171.345 83.6547 173.501 78.9412 177.812C74.2278 182.124 71.8711 186.436 71.8711 192.903C71.8711 199.371 74.2278 203.682 78.9412 207.994ZM78.9415 356.976C83.6549 361.292 89.5467 363.45 95.4385 363.45C101.33 363.45 107.222 361.292 111.935 358.055C116.649 353.739 119.006 348.344 119.006 342.949V247.996C119.006 241.522 116.649 236.126 111.935 232.889C107.222 228.573 101.33 226.415 95.4385 226.415C88.3683 226.415 83.6549 228.573 78.9415 232.889C74.2281 237.205 71.8713 242.601 71.8713 247.996V342.949C71.8713 348.344 74.2281 353.739 78.9415 356.976Z" fill="#F5F6F8"/>
<path fill-rule="evenodd" clip-rule="evenodd" d="M227.181 207.994C231.895 212.306 236.608 214.462 243.678 214.462C249.57 214.462 255.462 212.306 260.175 207.994C264.889 203.682 267.246 198.293 267.246 192.903C267.246 186.436 264.889 182.124 260.175 177.812C255.462 173.501 249.57 171.345 243.678 171.345C236.608 171.345 231.895 173.501 227.181 177.812C222.468 182.124 220.111 186.436 220.111 192.903C220.111 199.371 222.468 203.682 227.181 207.994ZM227.182 356.976C231.896 361.292 237.787 363.45 243.679 363.45C249.571 363.45 255.463 361.292 260.176 358.055C264.89 353.739 267.246 348.344 267.246 342.949V247.995C267.246 241.521 264.89 236.126 260.176 232.889C255.463 228.573 249.571 226.415 243.679 226.415C236.609 226.415 231.896 228.573 227.182 232.889C222.469 237.205 220.112 242.6 220.112 247.995V342.949C220.112 348.344 222.469 353.739 227.182 356.976Z" fill="#F5F6F8"/>
</g>
</svg>
