<svg width="26" height="16" viewBox="0 0 26 16" fill="none" xmlns="http://www.w3.org/2000/svg">
<path d="M25.3945 15.9014H16.332V9.72754C16.332 8.4248 16.5208 7.19759 16.8984 6.0459C17.2949 4.87533 17.8708 3.85579 18.626 2.9873C19.3812 2.11882 20.3158 1.42025 21.4297 0.891602C22.5625 0.362956 23.8841 0.0986328 25.3945 0.0986328V3.41211C21.5618 3.41211 19.6455 5.51725 19.6455 9.72754V10.6055H25.3945V15.9014ZM9.56348 15.9014H0.557617V9.72754C0.557617 8.4248 0.736979 7.19759 1.0957 6.0459C1.47331 4.87533 2.03971 3.85579 2.79492 2.9873C3.55013 2.11882 4.4847 1.42025 5.59863 0.891602C6.73145 0.362956 8.05306 0.0986328 9.56348 0.0986328V3.41211C5.76855 3.41211 3.87109 5.51725 3.87109 9.72754V10.6055H9.56348V15.9014Z" fill="#0E0E0E"/>
</svg>
