<svg width="36" height="36" viewBox="0 0 36 36" fill="none" xmlns="http://www.w3.org/2000/svg">
<path d="M21.5635 30.4803L8.04412 17.0859C6.87347 15.9074 6.89972 13.983 8.12475 12.8611C8.62907 12.3991 9.18733 11.9993 9.78066 11.6562C7.75911 12.0283 5.72463 12.867 4.18716 14.2751C2.9622 15.3971 2.93589 17.3214 4.10654 18.4999L17.626 31.8943C18.8044 33.065 20.7288 33.0386 21.8507 31.8137C22.063 31.5819 22.2619 31.3382 22.4487 31.0855C22.128 30.9435 21.827 30.742 21.5635 30.4803Z" fill="#A8E1FF"/>
<path d="M19.5665 22.7275C18.5237 23.7384 18.0047 24.2336 17.4895 24.6833C16.9694 25.1374 16.9159 25.927 17.3699 26.4471C17.6171 26.7302 17.9637 26.8751 18.3121 26.8751C18.6037 26.8751 18.8967 26.7735 19.1337 26.5667C19.6912 26.0799 20.2309 25.5654 21.3067 24.5225C21.8024 24.042 21.8147 23.2506 21.3342 22.7549C20.8535 22.2592 20.0622 22.247 19.5665 22.7275Z" fill="#0285CB"/>
<path d="M11.4715 14.8852C11.062 15.3127 10.74 15.6363 10.456 15.9218C10.0787 16.3011 9.78069 16.6006 9.49487 16.928C9.04086 17.4481 9.09443 18.2378 9.6145 18.6918C9.85151 18.8987 10.1444 19.0002 10.4361 19.0002C10.7845 19.0002 11.1312 18.8553 11.3783 18.5722C11.6105 18.3062 11.8697 18.0457 12.2284 17.6851C12.5058 17.4063 12.8509 17.0593 13.2767 16.6149C13.7543 16.1164 13.7374 15.3251 13.2389 14.8475C12.7405 14.3698 11.9492 14.3867 11.4715 14.8852Z" fill="#0285CB"/>
<path fill-rule="evenodd" clip-rule="evenodd" d="M3.43783 19.172L3.4359 19.1701L3.43432 19.1685C2.68935 18.4185 2.27592 17.3812 2.30087 16.3246C2.32595 15.2626 2.76832 14.287 3.5473 13.5736C4.86014 12.3711 6.60617 11.4587 8.60148 10.9434C10.3413 10.4941 12.222 10.3639 13.8923 10.5745C15.1005 10.7268 16.3128 10.3594 17.2181 9.56371C22.4295 4.98286 26.5979 3.16133 29.158 2.43845C30.4172 2.08295 31.7183 2.42172 32.6455 3.34653C33.576 4.27469 33.9191 5.58038 33.5652 6.84598C32.8454 9.41984 31.0451 13.5916 26.5486 18.7458C25.7558 19.6546 25.3918 20.8677 25.5476 22.0736C25.7638 23.7463 25.637 25.6326 25.1884 27.3801C24.6741 29.3839 23.7598 31.1369 22.5531 32.4544C21.8397 33.2334 20.8637 33.6757 19.8017 33.7008C19.7719 33.7016 19.7419 33.7019 19.7117 33.7019C18.6863 33.7019 17.6864 33.2908 16.9579 32.5671L3.4397 19.1738L3.43783 19.172ZM4.78088 17.828L18.2961 31.2183C18.6877 31.6072 19.2082 31.8139 19.7571 31.8013C20.2941 31.7887 20.7913 31.565 21.152 31.1711C23.3769 28.7419 24.0064 24.973 23.6633 22.3172C23.4377 20.5706 23.968 18.8137 25.1169 17.4968C29.3604 12.6326 31.0592 8.75236 31.7354 6.3343C31.9009 5.74234 31.7387 5.12581 31.3036 4.69172C31.102 4.49073 30.5228 4.02746 29.6743 4.26707C27.2687 4.94634 23.3926 6.66607 18.4724 10.9908C17.1602 12.1442 15.4044 12.6803 13.6545 12.4596C11.0057 12.1258 7.24881 12.7599 4.83058 14.9748C4.43671 15.3355 4.21305 15.8324 4.2004 16.3694C4.18749 16.9176 4.39329 17.4358 4.77865 17.8258L4.78088 17.828Z" fill="#0285CB"/>
<path d="M20.1241 17.6251C20.987 17.6251 21.6866 16.9255 21.6866 16.0625C21.6866 15.1996 20.987 14.5 20.1241 14.5C19.2611 14.5 18.5615 15.1996 18.5615 16.0625C18.5615 16.9255 19.2611 17.6251 20.1241 17.6251Z" fill="#0285CB"/>
<path d="M5.3219 26.3711C4.18791 27.5783 0.50821 35.5919 9.58374 30.8652" stroke="#FF6B01" stroke-width="1.8" stroke-linecap="round"/>
<path d="M22.4375 12.1887C22.4382 11.3258 23.1383 10.6256 24.0012 10.625C24.8642 10.6243 25.5632 11.3234 25.5626 12.1863C25.5619 13.0493 24.8618 13.7494 23.9988 13.7501C23.1359 13.7508 22.4369 13.0517 22.4375 12.1887Z" fill="#FF6B01"/>
</svg>
