<svg width="472" height="472" viewBox="0 0 472 472" fill="none" xmlns="http://www.w3.org/2000/svg">
<g clip-path="url(#clip0)">
<path d="M412.923 62.8788C360.928 62.8788 310.523 44.964 270.19 12.1517C250.276 -4.04992 221.725 -4.04992 201.811 12.1517C161.479 44.965 111.072 62.8788 59.0789 62.8788C42.843 62.8788 29.6816 76.0402 29.6816 92.276V171.065C29.6816 272.139 75.1945 367.84 153.599 431.627L177.798 451.314C211.7 478.896 260.305 478.896 294.206 451.314L318.405 431.627C396.809 367.841 442.323 272.135 442.323 171.061C442.323 140.812 442.323 112.386 442.323 92.2695C442.32 76.0337 429.158 62.8788 412.923 62.8788Z" fill="url(#paint0_linear)"/>
<path d="M236 446.061C230.332 446.061 224.789 444.091 220.392 440.514L174.109 402.859C140.303 375.356 112.541 340.015 93.8235 300.658C75.1064 261.302 65.2129 217.463 65.2129 173.883V111.359C65.2129 103.795 71.397 97.3624 78.9509 96.9635C130.461 94.2398 180.259 75.1386 220.392 42.4873C224.79 38.9094 230.332 36.9399 236 36.9399C241.669 36.9399 247.211 38.9094 251.608 42.4864C291.743 75.1386 341.542 94.2398 393.052 96.9635C400.604 97.3624 406.787 103.794 406.787 111.357V173.879C406.787 217.461 396.894 261.299 378.177 300.657C359.46 340.015 331.698 375.356 297.892 402.859L251.608 440.514C247.211 444.092 241.669 446.061 236 446.061Z" fill="url(#paint1_linear)"/>
<path d="M236 428.8C230.809 428.8 225.734 426.996 221.708 423.721L179.331 389.244C148.378 364.062 122.958 331.703 105.821 295.668C88.6837 259.633 79.625 219.494 79.625 179.59V122.342C79.625 115.417 85.2871 109.528 92.2033 109.161C139.366 106.667 184.962 89.1783 221.708 59.2822C225.735 56.0069 230.81 54.2021 236 54.2021C241.19 54.2021 246.265 56.0059 250.29 59.2812C287.038 89.1783 332.635 106.667 379.798 109.161C386.713 109.527 392.374 115.415 392.374 122.34V179.586C392.374 219.489 383.315 259.629 366.178 295.665C349.041 331.702 323.621 364.061 292.668 389.243L250.29 423.72C246.265 426.996 241.19 428.8 236 428.8Z" fill="url(#paint2_linear)"/>
<path d="M442.32 92.2695C442.32 76.0336 429.158 62.8787 412.922 62.8787C360.928 62.8787 310.522 44.964 270.189 12.1517C260.232 4.05087 248.117 0 236 0V472C256.626 472 277.253 465.105 294.204 451.314L318.403 431.627C396.807 367.841 442.32 272.135 442.32 171.061C442.32 140.811 442.32 112.385 442.32 92.2695Z" fill="url(#paint3_linear)"/>
<path d="M390.026 137.352C380.779 128.106 365.788 130.002 356.542 139.247L241.18 254.608C240.056 255.732 236.878 257.864 236 257.864C235.123 257.864 233.84 257.628 232.715 256.502L188.495 212.282C179.248 203.037 165.205 203.037 155.958 212.282C146.712 221.529 145.764 234.625 155.011 243.871L331.516 420.377C397.346 360.948 437.006 277.853 441.82 189.325L390.026 137.352Z" fill="url(#paint4_linear)"/>
<path opacity="0.7" d="M318.403 431.626C374.365 386.098 413.564 324.305 431.423 255.909L324.728 149.215C302.461 125.696 270.946 112.917 236.001 112.917C169.422 112.916 115.724 166.616 115.725 233.195C115.725 268.139 128.504 299.653 152.023 321.92L280.257 450.155C284.175 454.072 290.422 454.392 294.72 450.896L318.403 431.626Z" fill="url(#paint5_linear)"/>
<path d="M235.999 355.363C303.473 355.363 358.171 300.665 358.171 233.192C358.171 165.719 303.473 111.021 235.999 111.021C168.526 111.021 113.828 165.719 113.828 233.192C113.828 300.665 168.526 355.363 235.999 355.363Z" fill="url(#paint6_linear)"/>
<path opacity="0.8" d="M334.657 161.132L241.18 254.608C240.056 255.732 236.878 257.864 236 257.864C235.123 257.864 233.84 257.628 232.715 256.502L188.495 212.282C179.248 203.037 165.205 203.037 155.958 212.282C146.712 221.529 145.764 234.625 155.011 243.871L263.413 352.274C317.687 339.831 358.171 291.241 358.171 233.192C358.171 206.242 349.438 181.335 334.657 161.132Z" fill="url(#paint7_linear)"/>
<path d="M236.001 303.322C222.111 303.322 209.052 297.913 199.231 288.091L155.011 243.872C145.765 234.626 145.765 219.635 155.011 210.388C164.257 201.143 179.248 201.143 188.495 210.388L232.715 254.608C233.841 255.733 235.123 255.969 236.001 255.969C236.878 255.969 238.161 255.733 239.286 254.608L356.542 137.352C365.789 128.107 380.78 128.107 390.026 137.352C399.273 146.599 399.273 161.59 390.026 170.836L272.771 288.091C262.949 297.913 249.891 303.322 236.001 303.322Z" fill="url(#paint8_linear)"/>
</g>
<defs>
<linearGradient id="paint0_linear" x1="63.1344" y1="22.283" x2="418.954" y2="378.103" gradientUnits="userSpaceOnUse">
<stop stop-color="#B5DBFF"/>
<stop offset="1" stop-color="#76E2F8"/>
</linearGradient>
<linearGradient id="paint1_linear" x1="468.178" y1="432.991" x2="153.352" y2="118.164" gradientUnits="userSpaceOnUse">
<stop stop-color="#B5DBFF" stop-opacity="0"/>
<stop offset="0.2428" stop-color="#93CEF6" stop-opacity="0.243"/>
<stop offset="0.5763" stop-color="#6ABFEC" stop-opacity="0.576"/>
<stop offset="0.8403" stop-color="#51B5E5" stop-opacity="0.84"/>
<stop offset="1" stop-color="#48B2E3"/>
</linearGradient>
<linearGradient id="paint2_linear" x1="175.129" y1="143.376" x2="313.425" y2="281.672" gradientUnits="userSpaceOnUse">
<stop stop-color="#EDF5FF"/>
<stop offset="1" stop-color="#D5E8FE"/>
</linearGradient>
<linearGradient id="paint3_linear" x1="278.882" y1="243.951" x2="-5.23738" y2="107.574" gradientUnits="userSpaceOnUse">
<stop stop-color="#B5DBFF" stop-opacity="0"/>
<stop offset="0.1734" stop-color="#8FC5E9" stop-opacity="0.173"/>
<stop offset="0.4541" stop-color="#56A4C8" stop-opacity="0.454"/>
<stop offset="0.6955" stop-color="#2D8DB1" stop-opacity="0.696"/>
<stop offset="0.8853" stop-color="#147EA2" stop-opacity="0.885"/>
<stop offset="1" stop-color="#0B799D"/>
</linearGradient>
<linearGradient id="paint4_linear" x1="387.57" y1="299.103" x2="290.338" y2="225.231" gradientUnits="userSpaceOnUse">
<stop stop-color="#B5DBFF" stop-opacity="0"/>
<stop offset="0.1734" stop-color="#8FC5E9" stop-opacity="0.173"/>
<stop offset="0.4541" stop-color="#56A4C8" stop-opacity="0.454"/>
<stop offset="0.6955" stop-color="#2D8DB1" stop-opacity="0.696"/>
<stop offset="0.8853" stop-color="#147EA2" stop-opacity="0.885"/>
<stop offset="1" stop-color="#0B799D"/>
</linearGradient>
<linearGradient id="paint5_linear" x1="371.202" y1="368.394" x2="209.149" y2="206.342" gradientUnits="userSpaceOnUse">
<stop stop-color="#B5DBFF" stop-opacity="0"/>
<stop offset="0.1734" stop-color="#8FC5E9" stop-opacity="0.173"/>
<stop offset="0.4541" stop-color="#56A4C8" stop-opacity="0.454"/>
<stop offset="0.6955" stop-color="#2D8DB1" stop-opacity="0.696"/>
<stop offset="0.8853" stop-color="#147EA2" stop-opacity="0.885"/>
<stop offset="1" stop-color="#0B799D"/>
</linearGradient>
<linearGradient id="paint6_linear" x1="235.872" y1="132.21" x2="235.872" y2="353.048" gradientUnits="userSpaceOnUse">
<stop stop-color="#63C7FF"/>
<stop offset="1" stop-color="#39E693"/>
</linearGradient>
<linearGradient id="paint7_linear" x1="265" y1="202" x2="424" y2="368" gradientUnits="userSpaceOnUse">
<stop stop-color="#74C5F2"/>
<stop offset="1" stop-color="#27CD7D"/>
</linearGradient>
<linearGradient id="paint8_linear" x1="178" y1="139" x2="315" y2="289" gradientUnits="userSpaceOnUse">
<stop stop-color="#0285CB"/>
<stop offset="1" stop-color="#14A8F8"/>
</linearGradient>
<clipPath id="clip0">
<rect width="472" height="472" fill="white"/>
</clipPath>
</defs>
</svg>
