<svg width="472" height="472" viewBox="0 0 472 472" fill="none" xmlns="http://www.w3.org/2000/svg">
<g clip-path="url(#clip0)">
<path d="M45.8335 49.1901L43.0857 50.8958C42.2334 51.4641 41.3801 51.6538 40.7174 51.6538C37.9696 51.6538 36.0742 48.7163 36.0742 45.7797C36.0742 43.7899 36.9275 41.8945 38.822 40.758L51.3291 33.1782C52.087 32.7044 53.0347 32.5146 54.0769 32.5146C57.1088 32.5146 60.6145 34.3147 60.6145 37.1578V97.4184C60.6145 100.45 56.919 101.966 53.2245 101.966C49.5299 101.966 45.8344 100.45 45.8344 97.4184V49.1901H45.8335Z" fill="#1B91D0"/>
<path d="M79.2812 80.1739V55.0654C79.2812 38.7684 89.4191 32.7046 102.495 32.7046C115.572 32.7046 125.804 38.7684 125.804 55.0654V80.1739C125.804 96.4709 115.571 102.535 102.495 102.535C89.42 102.535 79.2812 96.4709 79.2812 80.1739ZM111.022 55.0654C111.022 48.5277 107.8 45.5902 102.494 45.5902C97.1886 45.5902 94.0613 48.5277 94.0613 55.0654V80.1739C94.0613 86.7116 97.1876 89.6491 102.494 89.6491C107.8 89.6491 111.022 86.7116 111.022 80.1739V55.0654Z" fill="#1B91D0"/>
<path d="M149.212 49.1901L146.465 50.8958C145.612 51.4641 144.759 51.6538 144.096 51.6538C141.349 51.6538 139.453 48.7163 139.453 45.7797C139.453 43.7899 140.306 41.8945 142.201 40.758L154.708 33.1782C155.466 32.7044 156.414 32.5146 157.456 32.5146C160.488 32.5146 163.993 34.3147 163.993 37.1578V97.4184C163.993 100.45 160.298 101.966 156.603 101.966C152.908 101.966 149.213 100.45 149.213 97.4184V49.1901H149.212Z" fill="#1B91D0"/>
<path d="M182.658 80.1739V55.0654C182.658 38.7684 192.796 32.7046 205.872 32.7046C218.949 32.7046 229.181 38.7684 229.181 55.0654V80.1739C229.181 96.4709 218.948 102.535 205.872 102.535C192.797 102.535 182.658 96.4709 182.658 80.1739ZM214.4 55.0654C214.4 48.5277 211.178 45.5902 205.872 45.5902C200.566 45.5902 197.439 48.5277 197.439 55.0654V80.1739C197.439 86.7116 200.566 89.6491 205.872 89.6491C211.179 89.6491 214.4 86.7116 214.4 80.1739V55.0654Z" fill="#1B91D0"/>
<path d="M252.584 49.1901L249.836 50.8958C248.983 51.4641 248.13 51.6538 247.467 51.6538C244.72 51.6538 242.824 48.7163 242.824 45.7797C242.824 43.7899 243.678 41.8945 245.572 40.758L258.079 33.1782C258.837 32.7044 259.785 32.5146 260.827 32.5146C263.859 32.5146 267.365 34.3147 267.365 37.1578V97.4184C267.365 100.45 263.669 101.966 259.975 101.966C256.279 101.966 252.584 100.45 252.584 97.4184V49.1901H252.584Z" fill="#1B91D0"/>
<path d="M286.031 80.1739V55.0654C286.031 38.7684 296.169 32.7046 309.245 32.7046C322.322 32.7046 332.554 38.7684 332.554 55.0654V80.1739C332.554 96.4709 322.321 102.535 309.245 102.535C296.17 102.535 286.031 96.4709 286.031 80.1739ZM317.773 55.0654C317.773 48.5277 314.551 45.5902 309.245 45.5902C303.939 45.5902 300.812 48.5277 300.812 55.0654V80.1739C300.812 86.7116 303.939 89.6491 309.245 89.6491C314.552 89.6491 317.773 86.7116 317.773 80.1739V55.0654Z" fill="#1B91D0"/>
<path d="M355.957 49.1901L353.209 50.8958C352.356 51.4641 351.503 51.6538 350.84 51.6538C348.093 51.6538 346.197 48.7163 346.197 45.7797C346.197 43.7899 347.051 41.8945 348.945 40.758L361.452 33.1782C362.21 32.7044 363.158 32.5146 364.2 32.5146C367.232 32.5146 370.738 34.3147 370.738 37.1578V97.4184C370.738 100.45 367.042 101.966 363.348 101.966C359.652 101.966 355.957 100.45 355.957 97.4184V49.1901H355.957Z" fill="#1B91D0"/>
<path d="M40.623 160.764V135.656C40.623 119.359 50.7609 113.295 63.8371 113.295C76.9134 113.295 87.1456 119.359 87.1456 135.656V160.764C87.1456 177.061 76.9124 183.125 63.8371 183.125C50.7618 183.125 40.623 177.061 40.623 160.764ZM72.3646 135.656C72.3646 129.118 69.143 126.181 63.8371 126.181C58.5313 126.181 55.4041 129.118 55.4041 135.656V160.764C55.4041 167.302 58.5304 170.239 63.8371 170.239C69.1439 170.239 72.3646 167.302 72.3646 160.764V135.656Z" fill="#1B91D0"/>
<path d="M110.548 129.78L107.801 131.486C106.948 132.054 106.095 132.244 105.432 132.244C102.684 132.244 100.789 129.307 100.789 126.37C100.789 124.38 101.642 122.485 103.537 121.348L116.044 113.769C116.802 113.295 117.75 113.105 118.792 113.105C121.824 113.105 125.329 114.905 125.329 117.748V178.009C125.329 181.041 121.634 182.557 117.939 182.557C114.244 182.557 110.549 181.041 110.549 178.009V129.78H110.548Z" fill="#1B91D0"/>
<path d="M143.994 160.764V135.656C143.994 119.359 154.132 113.295 167.208 113.295C180.284 113.295 190.517 119.359 190.517 135.656V160.764C190.517 177.061 180.284 183.125 167.208 183.125C154.133 183.125 143.994 177.061 143.994 160.764ZM175.736 135.656C175.736 129.118 172.514 126.181 167.208 126.181C161.902 126.181 158.775 129.118 158.775 135.656V160.764C158.775 167.302 161.901 170.239 167.208 170.239C172.515 170.239 175.736 167.302 175.736 160.764V135.656Z" fill="#1B91D0"/>
<path d="M213.925 129.78L211.178 131.486C210.325 132.054 209.472 132.244 208.809 132.244C206.061 132.244 204.166 129.307 204.166 126.37C204.166 124.38 205.019 122.485 206.914 121.348L219.421 113.769C220.179 113.295 221.127 113.105 222.169 113.105C225.201 113.105 228.706 114.905 228.706 117.748V178.009C228.706 181.041 225.011 182.557 221.316 182.557C217.621 182.557 213.926 181.041 213.926 178.009V129.78H213.925Z" fill="#1B91D0"/>
<path d="M247.373 160.764V135.656C247.373 119.359 257.511 113.295 270.587 113.295C283.662 113.295 293.896 119.359 293.896 135.656V160.764C293.896 177.061 283.662 183.125 270.587 183.125C257.512 183.125 247.373 177.061 247.373 160.764ZM279.115 135.656C279.115 129.118 275.893 126.181 270.587 126.181C265.281 126.181 262.154 129.118 262.154 135.656V160.764C262.154 167.302 265.28 170.239 270.587 170.239C275.894 170.239 279.115 167.302 279.115 160.764V135.656Z" fill="#1B91D0"/>
<path d="M317.298 129.78L314.551 131.486C313.698 132.054 312.845 132.244 312.182 132.244C309.434 132.244 307.539 129.307 307.539 126.37C307.539 124.38 308.392 122.485 310.287 121.348L322.794 113.769C323.552 113.295 324.5 113.105 325.542 113.105C328.574 113.105 332.079 114.905 332.079 117.748V178.009C332.079 181.041 328.384 182.557 324.689 182.557C320.994 182.557 317.299 181.041 317.299 178.009V129.78H317.298Z" fill="#1B91D0"/>
<path d="M350.746 160.764V135.656C350.746 119.359 360.884 113.295 373.96 113.295C387.036 113.295 397.269 119.359 397.269 135.656V160.764C397.269 177.061 387.036 183.125 373.96 183.125C360.884 183.125 350.746 177.061 350.746 160.764ZM382.488 135.656C382.488 129.118 379.266 126.181 373.96 126.181C368.654 126.181 365.527 129.118 365.527 135.656V160.764C365.527 167.302 368.653 170.239 373.96 170.239C379.267 170.239 382.488 167.302 382.488 160.764V135.656Z" fill="#1B91D0"/>
<path d="M420.671 129.78L417.924 131.486C417.071 132.054 416.218 132.244 415.555 132.244C412.808 132.244 410.912 129.307 410.912 126.37C410.912 124.38 411.765 122.485 413.66 121.348L426.167 113.769C426.925 113.295 427.873 113.105 428.915 113.105C431.947 113.105 435.452 114.905 435.452 117.748V178.009C435.452 181.041 431.757 182.557 428.062 182.557C424.367 182.557 420.672 181.041 420.672 178.009V129.78H420.671Z" fill="#1B91D0"/>
<path d="M45.8335 210.372L43.0857 212.077C42.2334 212.646 41.3801 212.835 40.7174 212.835C37.9696 212.835 36.0742 209.898 36.0742 206.96C36.0742 204.971 36.9275 203.076 38.822 201.939L51.3291 194.359C52.087 193.885 53.0348 193.695 54.0769 193.695C57.1088 193.695 60.6145 195.495 60.6145 198.338V258.599C60.6145 261.631 56.919 263.147 53.2245 263.147C49.5299 263.147 45.8344 261.631 45.8344 258.599V210.372H45.8335Z" fill="#1B91D0"/>
<path d="M79.2812 241.355V216.247C79.2812 199.95 89.4191 193.886 102.495 193.886C115.572 193.886 125.804 199.95 125.804 216.247V241.355C125.804 257.652 115.571 263.716 102.495 263.716C89.42 263.716 79.2812 257.652 79.2812 241.355ZM111.022 216.247C111.022 209.709 107.8 206.772 102.494 206.772C97.1886 206.772 94.0613 209.71 94.0613 216.247V241.355C94.0613 247.893 97.1876 250.829 102.494 250.829C107.8 250.829 111.022 247.892 111.022 241.355V216.247Z" fill="#1B91D0"/>
<path d="M149.212 210.372L146.465 212.077C145.612 212.646 144.759 212.835 144.096 212.835C141.349 212.835 139.453 209.898 139.453 206.96C139.453 204.971 140.306 203.076 142.201 201.939L154.708 194.359C155.466 193.885 156.414 193.695 157.456 193.695C160.488 193.695 163.993 195.495 163.993 198.338V258.599C163.993 261.631 160.298 263.147 156.603 263.147C152.908 263.147 149.213 261.631 149.213 258.599V210.372H149.212Z" fill="#1B91D0"/>
<path d="M182.658 241.355V216.247C182.658 199.95 192.796 193.886 205.872 193.886C218.949 193.886 229.181 199.95 229.181 216.247V241.355C229.181 257.652 218.948 263.716 205.872 263.716C192.797 263.716 182.658 257.652 182.658 241.355ZM214.4 216.247C214.4 209.709 211.178 206.772 205.872 206.772C200.566 206.772 197.439 209.71 197.439 216.247V241.355C197.439 247.893 200.566 250.829 205.872 250.829C211.179 250.829 214.4 247.892 214.4 241.355V216.247Z" fill="#1B91D0"/>
<path d="M252.584 210.372L249.836 212.077C248.983 212.646 248.13 212.835 247.467 212.835C244.72 212.835 242.824 209.898 242.824 206.96C242.824 204.971 243.678 203.076 245.572 201.939L258.079 194.359C258.837 193.885 259.785 193.695 260.827 193.695C263.859 193.695 267.365 195.495 267.365 198.338V258.599C267.365 261.631 263.669 263.147 259.975 263.147C256.279 263.147 252.584 261.631 252.584 258.599V210.372H252.584Z" fill="#1B91D0"/>
<path d="M286.031 241.355V216.247C286.031 199.95 296.169 193.886 309.245 193.886C322.322 193.886 332.554 199.95 332.554 216.247V241.355C332.554 257.652 322.321 263.716 309.245 263.716C296.17 263.716 286.031 257.652 286.031 241.355ZM317.773 216.247C317.773 209.709 314.551 206.772 309.245 206.772C303.939 206.772 300.812 209.71 300.812 216.247V241.355C300.812 247.893 303.939 250.829 309.245 250.829C314.552 250.829 317.773 247.892 317.773 241.355V216.247Z" fill="#1B91D0"/>
<path d="M355.957 210.372L353.209 212.077C352.356 212.646 351.503 212.835 350.84 212.835C348.093 212.835 346.197 209.898 346.197 206.96C346.197 204.971 347.051 203.076 348.945 201.939L361.452 194.359C362.21 193.885 363.158 193.695 364.2 193.695C367.232 193.695 370.738 195.495 370.738 198.338V258.599C370.738 261.631 367.042 263.147 363.348 263.147C359.652 263.147 355.957 261.631 355.957 258.599V210.372H355.957Z" fill="#1B91D0"/>
<path d="M389.402 241.355V216.247C389.402 199.95 399.54 193.886 412.616 193.886C425.692 193.886 435.925 199.95 435.925 216.247V241.355C435.925 257.652 425.692 263.716 412.616 263.716C399.54 263.716 389.402 257.652 389.402 241.355ZM421.143 216.247C421.143 209.709 417.921 206.772 412.615 206.772C407.31 206.772 404.182 209.71 404.182 216.247V241.355C404.182 247.893 407.309 250.829 412.615 250.829C417.922 250.829 421.143 247.892 421.143 241.355V216.247Z" fill="#1B91D0"/>
<path d="M40.623 321.946V296.837C40.623 280.54 50.7609 274.477 63.8371 274.477C76.9134 274.477 87.1456 280.54 87.1456 296.837V321.946C87.1456 338.243 76.9124 344.307 63.8371 344.307C50.7618 344.307 40.623 338.243 40.623 321.946ZM72.3646 296.836C72.3646 290.299 69.143 287.362 63.8371 287.362C58.5313 287.362 55.4041 290.3 55.4041 296.836V321.945C55.4041 328.483 58.5304 331.419 63.8371 331.419C69.1439 331.419 72.3646 328.482 72.3646 321.945V296.836Z" fill="#1B91D0"/>
<path d="M110.548 290.963L107.801 292.669C106.948 293.237 106.095 293.427 105.432 293.427C102.684 293.427 100.789 290.489 100.789 287.552C100.789 285.562 101.642 283.667 103.537 282.53L116.044 274.95C116.802 274.476 117.75 274.287 118.792 274.287C121.824 274.287 125.329 276.087 125.329 278.929V339.19C125.329 342.222 121.634 343.738 117.939 343.738C114.244 343.738 110.549 342.222 110.549 339.19V290.963H110.548Z" fill="#1B91D0"/>
<path d="M143.994 321.946V296.837C143.994 280.54 154.132 274.477 167.208 274.477C180.284 274.477 190.517 280.54 190.517 296.837V321.946C190.517 338.243 180.284 344.307 167.208 344.307C154.133 344.307 143.994 338.243 143.994 321.946ZM175.736 296.836C175.736 290.299 172.514 287.362 167.208 287.362C161.902 287.362 158.775 290.3 158.775 296.836V321.945C158.775 328.483 161.901 331.419 167.208 331.419C172.515 331.419 175.736 328.482 175.736 321.945V296.836Z" fill="#1B91D0"/>
<path d="M213.925 290.963L211.178 292.669C210.325 293.237 209.472 293.427 208.809 293.427C206.061 293.427 204.166 290.489 204.166 287.552C204.166 285.562 205.019 283.667 206.914 282.53L219.421 274.95C220.179 274.476 221.127 274.287 222.169 274.287C225.201 274.287 228.706 276.087 228.706 278.929V339.19C228.706 342.222 225.011 343.738 221.316 343.738C217.621 343.738 213.926 342.222 213.926 339.19V290.963H213.925Z" fill="#1B91D0"/>
<path d="M247.373 321.946V296.837C247.373 280.54 257.511 274.477 270.587 274.477C283.662 274.477 293.896 280.54 293.896 296.837V321.946C293.896 338.243 283.662 344.307 270.587 344.307C257.512 344.307 247.373 338.243 247.373 321.946ZM279.115 296.836C279.115 290.299 275.893 287.362 270.587 287.362C265.281 287.362 262.154 290.3 262.154 296.836V321.945C262.154 328.483 265.28 331.419 270.587 331.419C275.894 331.419 279.115 328.482 279.115 321.945V296.836Z" fill="#1B91D0"/>
<path d="M317.298 290.963L314.551 292.669C313.698 293.237 312.845 293.427 312.182 293.427C309.434 293.427 307.539 290.489 307.539 287.552C307.539 285.562 308.392 283.667 310.287 282.53L322.794 274.95C323.552 274.476 324.5 274.287 325.542 274.287C328.574 274.287 332.079 276.087 332.079 278.929V339.19C332.079 342.222 328.384 343.738 324.689 343.738C320.994 343.738 317.299 342.222 317.299 339.19V290.963H317.298Z" fill="#1B91D0"/>
<path d="M350.746 321.946V296.837C350.746 280.54 360.884 274.477 373.96 274.477C387.036 274.477 397.269 280.54 397.269 296.837V321.946C397.269 338.243 387.036 344.307 373.96 344.307C360.884 344.307 350.746 338.243 350.746 321.946ZM382.488 296.836C382.488 290.299 379.266 287.362 373.96 287.362C368.654 287.362 365.527 290.3 365.527 296.836V321.945C365.527 328.483 368.653 331.419 373.96 331.419C379.267 331.419 382.488 328.482 382.488 321.945V296.836Z" fill="#1B91D0"/>
<path d="M70.4959 460.892L11.1035 401.5L120.509 292.095L179.901 351.486L70.4959 460.892Z" fill="url(#paint0_linear)"/>
<path d="M70.5032 460.892L11.1108 401.5C-1.60726 414.218 -1.60726 434.838 11.1108 447.556L24.4471 460.892C37.1652 473.61 57.7852 473.61 70.5032 460.892Z" fill="url(#paint1_linear)"/>
<path d="M102.25 313.01V429.142L179.905 351.486L120.514 292.095L100.924 311.684L102.25 313.01Z" fill="url(#paint2_linear)"/>
<path d="M158.99 369.75L102.25 313.01C94.5652 305.326 94.5652 292.868 102.25 285.183L117.728 269.705L202.295 354.271L186.816 369.75C179.132 377.434 166.673 377.434 158.99 369.75Z" fill="url(#paint3_linear)"/>
<path d="M117.732 269.705L114.936 272.501V325.692L158.994 369.75C166.678 377.434 179.136 377.434 186.82 369.75L202.299 354.271L117.732 269.705Z" fill="url(#paint4_linear)"/>
<path d="M283.594 376.821C387.65 376.821 472.004 292.467 472.004 188.41C472.004 84.3542 387.65 0 283.594 0C179.538 0 95.1836 84.3542 95.1836 188.41C95.1836 292.467 179.538 376.821 283.594 376.821Z" fill="url(#paint5_linear)"/>
<path d="M283.592 347.013C371.186 347.013 442.195 276.004 442.195 188.411C442.195 100.817 371.186 29.8086 283.592 29.8086C195.999 29.8086 124.99 100.817 124.99 188.411C124.99 276.004 195.999 347.013 283.592 347.013Z" fill="url(#paint6_linear)"/>
<path d="M283.594 324.172C358.573 324.172 419.356 263.39 419.356 188.41C419.356 113.431 358.573 52.6484 283.594 52.6484C208.615 52.6484 147.832 113.431 147.832 188.41C147.832 263.39 208.615 324.172 283.594 324.172Z" fill="url(#paint7_linear)"/>
<path d="M58.7763 468.583L3.41714 413.224C-1.13905 408.668 -1.13905 401.281 3.41714 396.726C7.97333 392.17 15.3597 392.17 19.9149 396.726L75.2741 452.085C79.8302 456.641 79.8302 464.028 75.2741 468.583C70.7188 473.139 63.3325 473.139 58.7763 468.583Z" fill="url(#paint8_linear)"/>
<path d="M214.399 71.5588V80.1751C214.399 86.7091 211.179 89.6521 205.866 89.6521C201.479 89.6521 198.583 87.6438 197.713 83.2477C194.224 86.0982 190.846 89.1524 187.588 92.4101C187.116 92.8821 186.644 93.3633 186.172 93.8446C190.216 100.008 197.426 102.535 205.866 102.535C218.944 102.535 229.179 96.473 229.179 80.1751V63.9883C224.136 66.1817 219.203 68.7083 214.399 71.5588Z" fill="#0285CB"/>
<path d="M252.588 56.2144V97.4172C252.588 100.453 256.281 101.961 259.973 101.961C263.675 101.961 267.368 100.453 267.368 97.4172V53.6138C262.407 54.2061 257.465 55.0668 252.588 56.2144Z" fill="#0285CB"/>
<path d="M317.766 57.0012V80.1755C317.766 86.7095 314.546 89.6525 309.243 89.6525C303.939 89.6525 300.811 86.7095 300.811 80.1755V55.0669C300.811 54.6042 300.83 54.1692 300.858 53.7435C295.962 53.1142 291.038 52.7532 286.115 52.6699C286.059 53.4473 286.031 54.2433 286.031 55.0669V80.1755C286.031 96.4734 296.165 102.535 309.243 102.535C322.32 102.535 332.546 96.4734 332.546 80.1755V61.7397C327.697 59.8702 322.764 58.2876 317.766 57.0012Z" fill="#0285CB"/>
<path d="M355.953 73.5122V97.4176C355.953 100.453 359.655 101.962 363.348 101.962C367.041 101.962 370.733 100.453 370.733 97.4176V84.2942C366.004 80.3238 361.062 76.7237 355.953 73.5122Z" fill="#0285CB"/>
<path d="M170.384 113.428C167.367 117.963 164.664 122.646 162.258 127.431C163.572 126.579 165.238 126.181 167.209 126.181C172.512 126.181 175.742 129.115 175.742 135.659V160.767C175.742 167.301 172.512 170.235 167.209 170.235C161.906 170.235 158.778 167.301 158.778 160.767V135.659C158.778 135.381 158.787 135.122 158.797 134.863C153.188 147.949 149.727 161.739 148.422 175.695C152.596 180.952 159.37 183.127 167.209 183.127C180.287 183.127 190.522 177.065 190.522 160.767V135.659C190.522 120.703 181.906 114.372 170.384 113.428Z" fill="#0285CB"/>
<path d="M222.169 113.104C221.132 113.104 220.179 113.299 219.42 113.771L206.917 121.351C205.019 122.489 204.168 124.377 204.168 126.367C204.168 129.31 206.065 132.244 208.814 132.244C209.471 132.244 210.332 132.059 211.183 131.485L213.932 129.782V178.009C213.932 181.045 217.625 182.553 221.317 182.553C225.01 182.553 228.712 181.045 228.712 178.009V117.75C228.712 114.909 225.204 113.104 222.169 113.104Z" fill="#0285CB"/>
<path d="M270.592 113.298C257.515 113.298 247.381 119.36 247.381 135.658V160.767C247.381 177.065 257.515 183.127 270.592 183.127C283.669 183.127 293.896 177.065 293.896 160.767V135.658C293.896 119.36 283.669 113.298 270.592 113.298ZM279.116 160.767C279.116 167.301 275.895 170.234 270.592 170.234C265.289 170.234 262.161 167.301 262.161 160.767V135.658C262.161 129.115 265.289 126.181 270.592 126.181C275.895 126.181 279.116 129.115 279.116 135.658V160.767Z" fill="#0285CB"/>
<path d="M325.542 113.104C324.496 113.104 323.552 113.299 322.793 113.771L310.29 121.351C308.392 122.489 307.541 124.377 307.541 126.367C307.541 129.31 309.438 132.244 312.178 132.244C312.844 132.244 313.696 132.059 314.547 131.485L317.296 129.782V178.009C317.296 181.045 320.998 182.553 324.69 182.553C328.383 182.553 332.076 181.045 332.076 178.009V117.75C332.076 114.909 328.577 113.104 325.542 113.104Z" fill="#0285CB"/>
<path d="M373.961 113.298C360.884 113.298 350.74 119.36 350.74 135.658V160.767C350.74 177.065 360.884 183.127 373.961 183.127C387.029 183.127 397.265 177.065 397.265 160.767V135.658C397.265 119.36 387.029 113.298 373.961 113.298ZM382.485 160.767C382.485 167.301 379.264 170.234 373.961 170.234C368.648 170.234 365.52 167.301 365.52 160.767V135.658C365.52 129.115 368.648 126.181 373.961 126.181C379.264 126.181 382.485 129.115 382.485 135.658V160.767Z" fill="#0285CB"/>
<path d="M157.456 193.696C156.41 193.696 155.466 193.881 154.707 194.363L148.191 198.305C149.552 217.111 154.818 235.686 163.99 252.724V198.342C163.99 195.501 160.482 193.696 157.456 193.696Z" fill="#0285CB"/>
<path d="M205.871 193.881C192.794 193.881 182.66 199.953 182.66 216.25V241.359C182.66 257.648 192.794 263.719 205.871 263.719C218.949 263.719 229.185 257.648 229.185 241.359V216.25C229.185 199.953 218.949 193.881 205.871 193.881ZM214.404 241.359C214.404 247.893 211.184 250.827 205.871 250.827C200.568 250.827 197.44 247.893 197.44 241.359V216.25C197.44 209.707 200.568 206.773 205.871 206.773C211.184 206.773 214.404 209.707 214.404 216.25V241.359Z" fill="#0285CB"/>
<path d="M260.825 193.696C259.788 193.696 258.835 193.881 258.086 194.363L245.573 201.942C243.676 203.081 242.824 204.969 242.824 206.959C242.824 209.902 244.721 212.835 247.47 212.835C248.137 212.835 248.988 212.65 249.839 212.077L252.588 210.374V258.601C252.588 261.627 256.281 263.145 259.974 263.145C263.676 263.145 267.368 261.627 267.368 258.601V198.342C267.368 195.501 263.861 193.696 260.825 193.696Z" fill="#0285CB"/>
<path d="M309.243 193.881C296.165 193.881 286.031 199.953 286.031 216.25V241.359C286.031 257.648 296.165 263.719 309.243 263.719C322.32 263.719 332.546 257.648 332.546 241.359V216.25C332.546 199.953 322.32 193.881 309.243 193.881ZM317.766 241.359C317.766 247.893 314.546 250.827 309.243 250.827C303.939 250.827 300.811 247.893 300.811 241.359V216.25C300.811 209.707 303.939 206.773 309.243 206.773C314.546 206.773 317.766 209.707 317.766 216.25V241.359Z" fill="#0285CB"/>
<path d="M364.2 193.696C363.154 193.696 362.21 193.881 361.451 194.363L348.948 201.942C347.051 203.081 346.199 204.969 346.199 206.959C346.199 209.902 348.096 212.835 350.845 212.835C351.502 212.835 352.354 212.65 353.205 212.077L355.954 210.374V258.601C355.954 261.627 359.656 263.145 363.349 263.145C367.041 263.145 370.734 261.627 370.734 258.601V198.342C370.734 195.501 367.236 193.696 364.2 193.696Z" fill="#0285CB"/>
<path d="M412.619 193.881C399.542 193.881 389.398 199.953 389.398 216.25V241.359C389.398 251.067 392.999 257.148 398.681 260.47C401.291 256.324 403.651 252.067 405.761 247.717C404.734 246.199 404.188 244.089 404.188 241.359V216.25C404.188 209.707 407.307 206.773 412.619 206.773C414.738 206.773 416.534 207.245 417.913 208.226C418.579 203.664 419.014 199.073 419.218 194.474C417.135 194.066 414.923 193.881 412.619 193.881Z" fill="#0285CB"/>
<path d="M181.508 277.925C183.451 280.137 185.478 282.303 187.588 284.413L187.884 284.709C186.348 281.766 184.164 279.536 181.508 277.925Z" fill="#0285CB"/>
<path d="M222.169 274.288C221.132 274.288 220.179 274.473 219.42 274.954L206.917 282.534C205.019 283.663 204.168 285.56 204.168 287.55C204.168 290.493 206.065 293.427 208.814 293.427C209.471 293.427 210.332 293.232 211.183 292.668L213.932 290.965V304.968C218.735 307.846 223.668 310.4 228.712 312.621V278.924C228.712 276.083 225.204 274.288 222.169 274.288Z" fill="#0285CB"/>
<path d="M270.592 274.473C257.515 274.473 247.381 280.544 247.381 296.833V319.276C252.258 320.618 257.191 321.692 262.17 322.478C262.161 322.303 262.161 322.127 262.161 321.942V296.833C262.161 290.299 265.289 287.365 270.592 287.365C275.895 287.365 279.116 290.299 279.116 296.833V321.942C279.116 322.71 279.07 323.432 278.986 324.098C283.938 324.265 288.908 324.163 293.85 323.783C293.877 323.191 293.896 322.571 293.896 321.942V296.833C293.896 280.544 283.669 274.473 270.592 274.473Z" fill="#0285CB"/>
<path d="M325.542 274.288C324.496 274.288 323.552 274.473 322.793 274.954L310.29 282.534C308.392 283.663 307.541 285.56 307.541 287.55C307.541 290.493 309.438 293.427 312.178 293.427C312.844 293.427 313.696 293.232 314.547 292.668L317.296 290.965V319.942C322.293 318.665 327.226 317.101 332.076 315.25V278.924C332.076 276.083 328.577 274.288 325.542 274.288Z" fill="#0285CB"/>
<path d="M373.961 274.473C360.884 274.473 350.74 280.544 350.74 296.833V306.44C355.83 303.543 360.763 300.294 365.52 296.676C365.576 290.253 368.695 287.365 373.961 287.365C374.794 287.365 375.58 287.439 376.302 287.578C377.413 286.551 378.505 285.496 379.588 284.413C382.003 281.997 384.308 279.517 386.501 276.972C382.901 275.241 378.607 274.473 373.961 274.473Z" fill="#0285CB"/>
</g>
<defs>
<linearGradient id="paint0_linear" x1="85.8579" y1="367.081" x2="126.346" y2="407.569" gradientUnits="userSpaceOnUse">
<stop stop-color="#0B799D"/>
<stop offset="1" stop-color="#07485E"/>
</linearGradient>
<linearGradient id="paint1_linear" x1="19.2658" y1="452.742" x2="29.1696" y2="442.839" gradientUnits="userSpaceOnUse">
<stop stop-color="#76E2F8"/>
<stop offset="1" stop-color="#48B2E3"/>
</linearGradient>
<linearGradient id="paint2_linear" x1="106.797" y1="384.635" x2="180.11" y2="268.801" gradientUnits="userSpaceOnUse">
<stop stop-color="#07485E" stop-opacity="0"/>
<stop offset="1" stop-color="#03232E"/>
</linearGradient>
<linearGradient id="paint3_linear" x1="149.268" y1="278.949" x2="149.268" y2="374.58" gradientUnits="userSpaceOnUse">
<stop stop-color="#B5DBFF"/>
<stop offset="1" stop-color="#48B2E3"/>
</linearGradient>
<linearGradient id="paint4_linear" x1="129.846" y1="342.163" x2="166.849" y2="305.159" gradientUnits="userSpaceOnUse">
<stop stop-color="#B5DBFF" stop-opacity="0"/>
<stop offset="0.1734" stop-color="#8FC5E9" stop-opacity="0.173"/>
<stop offset="0.4541" stop-color="#56A4C8" stop-opacity="0.454"/>
<stop offset="0.6955" stop-color="#2D8DB1" stop-opacity="0.696"/>
<stop offset="0.8853" stop-color="#147EA2" stop-opacity="0.885"/>
<stop offset="1" stop-color="#0B799D"/>
</linearGradient>
<linearGradient id="paint5_linear" x1="283.452" y1="32.6207" x2="283.451" y2="373.192" gradientUnits="userSpaceOnUse">
<stop stop-color="#EDF5FF"/>
<stop offset="1" stop-color="#D5E8FE"/>
</linearGradient>
<linearGradient id="paint6_linear" x1="283.131" y1="319.404" x2="283.131" y2="32.7145" gradientUnits="userSpaceOnUse">
<stop stop-color="#EDF5FF"/>
<stop offset="1" stop-color="#D5E8FE"/>
</linearGradient>
<linearGradient id="paint7_linear" x1="283.452" y1="76.1947" x2="283.452" y2="321.599" gradientUnits="userSpaceOnUse">
<stop stop-color="#63C7FF"/>
<stop offset="1" stop-color="#39E693"/>
</linearGradient>
<linearGradient id="paint8_linear" x1="48.9541" y1="423.051" x2="26.6391" y2="445.366" gradientUnits="userSpaceOnUse">
<stop stop-color="#B5DBFF"/>
<stop offset="1" stop-color="#48B2E3"/>
</linearGradient>
<clipPath id="clip0">
<rect width="472" height="472" fill="white"/>
</clipPath>
</defs>
</svg>
