<svg width="70" height="150" viewBox="0 0 70 150" fill="none" xmlns="http://www.w3.org/2000/svg">
<path d="M29.1136 143.233C24.553 138.829 22.2727 132.277 22.2727 123.577V107.787C22.2727 103.169 21.5303 99.1944 20.0455 95.8647C18.4545 92.4275 16.5455 89.5811 14.3182 87.3255C11.9848 85.0698 9.54545 83.4049 7 82.3308C4.34848 81.2567 2.01515 80.7197 0 80.7197V69.4415C2.01515 69.4415 4.34848 69.0118 7 68.1525C9.54545 67.1858 11.9848 65.6821 14.3182 63.6412C16.5455 61.493 18.4545 58.754 20.0455 55.4243C21.5303 52.0945 22.2727 47.9592 22.2727 43.0183V26.5843C22.2727 22.7175 22.9091 19.1729 24.1818 15.9506C25.3485 12.7282 27.0455 9.93555 29.2727 7.5725C31.3939 5.20945 33.9924 3.38346 37.0682 2.09452C40.0379 0.698175 43.3258 0 46.9318 0H70V11.2782V138.722V150H46.9318C39.5076 150 33.5682 147.744 29.1136 143.233Z" fill="#E22319"/>
</svg>
