<svg width="40" height="40" viewBox="0 0 40 40" fill="none" xmlns="http://www.w3.org/2000/svg">
<path d="M39 20L18 20" stroke="#0E0E0E" stroke-width="2" stroke-linejoin="round"/>
<path d="M22 15L17 20L22 25" stroke="#0E0E0E" stroke-width="2" stroke-linejoin="round"/>
<mask id="path-3-inside-1" fill="white">
<path d="M34.1421 5.85786C31.3451 3.06081 27.7814 1.156 23.9018 0.384294C20.0222 -0.38741 16.0009 0.00865727 12.3463 1.52241C8.69181 3.03616 5.56823 5.59961 3.37061 8.8886C1.17298 12.1776 -5.97283e-07 16.0444 0 20C5.97283e-07 23.9556 1.17298 27.8224 3.37061 31.1114C5.56824 34.4004 8.69181 36.9638 12.3463 38.4776C16.0009 39.9913 20.0222 40.3874 23.9018 39.6157C27.7814 38.844 31.3451 36.9392 34.1421 34.1421L32.7279 32.7279C30.2106 35.2453 27.0033 36.9596 23.5116 37.6541C20.02 38.3487 16.4008 37.9922 13.1117 36.6298C9.82263 35.2675 7.01141 32.9604 5.03355 30.0003C3.05568 27.0402 2 23.5601 2 20C2 16.4399 3.05568 12.9598 5.03355 9.99974C7.01141 7.03965 9.82263 4.73255 13.1117 3.37017C16.4008 2.00779 20.02 1.65133 23.5116 2.34586C27.0033 3.0404 30.2106 4.75473 32.7279 7.27208L34.1421 5.85786Z"/>
</mask>
<path d="M34.1421 5.85786C31.3451 3.06081 27.7814 1.156 23.9018 0.384294C20.0222 -0.38741 16.0009 0.00865727 12.3463 1.52241C8.69181 3.03616 5.56823 5.59961 3.37061 8.8886C1.17298 12.1776 -5.97283e-07 16.0444 0 20C5.97283e-07 23.9556 1.17298 27.8224 3.37061 31.1114C5.56824 34.4004 8.69181 36.9638 12.3463 38.4776C16.0009 39.9913 20.0222 40.3874 23.9018 39.6157C27.7814 38.844 31.3451 36.9392 34.1421 34.1421L32.7279 32.7279C30.2106 35.2453 27.0033 36.9596 23.5116 37.6541C20.02 38.3487 16.4008 37.9922 13.1117 36.6298C9.82263 35.2675 7.01141 32.9604 5.03355 30.0003C3.05568 27.0402 2 23.5601 2 20C2 16.4399 3.05568 12.9598 5.03355 9.99974C7.01141 7.03965 9.82263 4.73255 13.1117 3.37017C16.4008 2.00779 20.02 1.65133 23.5116 2.34586C27.0033 3.0404 30.2106 4.75473 32.7279 7.27208L34.1421 5.85786Z" stroke="#0E0E0E" stroke-width="4" mask="url(#path-3-inside-1)"/>
</svg>
