<svg width="53" height="52" viewBox="0 0 53 52" fill="none" xmlns="http://www.w3.org/2000/svg">
<ellipse cx="26.5" cy="26" rx="26" ry="26.5" transform="rotate(-90 26.5 26)" fill="#F0F1F3"/>
<path d="M29.7071 26C29.7071 27.4927 28.4927 28.7071 27 28.7071C25.5073 28.7071 24.2929 27.4927 24.2929 26C24.2929 24.5073 25.5073 23.2929 27 23.2929C28.4927 23.2929 29.7071 24.5073 29.7071 26ZM27 17C22.0371 17 18 21.0371 18 26C18 30.9629 22.0371 35 27 35C28.818 35 30.5711 34.4587 32.0696 33.4346L32.0953 33.4166L30.8829 32.0075L30.8623 32.0204C29.709 32.7629 28.3731 33.155 27 33.155C23.0548 33.155 19.845 29.9452 19.845 26C19.845 22.0548 23.0548 18.845 27 18.845C30.9452 18.845 34.155 22.0548 34.155 26C34.155 26.5111 34.0978 27.0286 33.9866 27.5377C33.7603 28.4666 33.1097 28.7508 32.6218 28.7135C32.1306 28.6736 31.5559 28.3239 31.5521 27.4676V26.8151V26C31.5521 23.4896 29.5104 21.4479 27 21.4479C24.4896 21.4479 22.4479 23.4896 22.4479 26C22.4479 28.5104 24.4896 30.5521 27 30.5521C28.2195 30.5521 29.3631 30.0757 30.2252 29.2085C30.7266 29.9889 31.5437 30.4781 32.4739 30.5527C32.5536 30.5591 32.6353 30.5624 32.7156 30.5624C33.3707 30.5624 34.0194 30.3431 34.5426 29.9465C35.082 29.5364 35.4851 28.9443 35.7075 28.2326C35.7429 28.1176 35.8084 27.8546 35.8084 27.8527L35.8104 27.8431C35.9415 27.2722 36 26.7033 36 26C36 21.0371 31.9629 17 27 17Z" fill="#005FF9"/>
</svg>
