<svg width="53" height="52" viewBox="0 0 53 52" fill="none" xmlns="http://www.w3.org/2000/svg">
<ellipse cx="26.5" cy="26" rx="26" ry="26.5" transform="rotate(-90 26.5 26)" fill="#F0F1F3"/>
<path d="M34.1859 22.744C34.1859 22.913 34.1859 23.0821 34.1859 23.2271C34.1859 28.2271 30.4634 34 23.678 34C21.5812 34 19.6492 33.372 18 32.3092C18.2827 32.3333 18.589 32.3575 18.8717 32.3575C20.5916 32.3575 22.1937 31.7536 23.466 30.7391C21.8403 30.715 20.4738 29.6039 20.0262 28.1063C20.2618 28.1546 20.4738 28.1787 20.733 28.1787C21.0628 28.1787 21.3927 28.1304 21.699 28.0338C20.0026 27.6957 18.7304 26.1739 18.7304 24.3382C18.7304 24.314 18.7304 24.314 18.7304 24.2899C19.2251 24.5797 19.7906 24.7488 20.4031 24.7729C19.4136 24.0966 18.7539 22.9372 18.7539 21.6087C18.7539 20.9082 18.9424 20.256 19.2487 19.7005C21.0628 21.9952 23.7958 23.4928 26.8586 23.6618C26.788 23.3961 26.7644 23.0821 26.7644 22.7923C26.7644 20.6908 28.4136 19 30.4634 19C31.5236 19 32.4895 19.4589 33.1492 20.1836C33.9974 20.0145 34.7749 19.7005 35.5052 19.2657C35.2225 20.1594 34.6335 20.8841 33.8796 21.3671C34.6335 21.2705 35.3403 21.0773 36 20.7633C35.5288 21.5362 34.9162 22.2126 34.1859 22.744Z" fill="#44A5EF"/>
</svg>
