<svg width="53" height="52" viewBox="0 0 53 52" fill="none" xmlns="http://www.w3.org/2000/svg">
<ellipse cx="26.5" cy="26" rx="26" ry="26.5" transform="rotate(-90 26.5 26)" fill="#F0F1F3"/>
<path fill-rule="evenodd" clip-rule="evenodd" d="M35.587 21.7448C35.7122 21.3155 35.587 21 34.9915 21H33.0223C32.5215 21 32.2908 21.2725 32.1657 21.5732C32.1657 21.5732 31.1642 24.0848 29.7455 25.7162C29.2865 26.1885 29.0779 26.3386 28.8276 26.3386C28.7024 26.3386 28.5212 26.1885 28.5212 25.7592V21.7448C28.5212 21.2296 28.3759 21 27.9586 21H24.8641C24.5513 21 24.3631 21.2391 24.3631 21.4658C24.3631 21.9543 25.0723 22.0669 25.1454 23.4407V26.4247C25.1454 27.0789 25.0306 27.1976 24.7803 27.1976C24.1127 27.1976 22.489 24.6746 21.5257 21.7878C21.337 21.2267 21.1476 21 20.6444 21H18.6752C18.1125 21 18 21.2725 18 21.5732C18 22.1098 18.6677 24.7718 21.1085 28.2924C22.7359 30.6965 25.0284 32 27.1146 32C28.3665 32 28.5212 31.7105 28.5212 31.2119V29.3947C28.5212 28.8158 28.6398 28.7003 29.036 28.7003C29.3283 28.7003 29.8289 28.8505 30.9973 30.0097C32.3325 31.3834 32.5525 32 33.3036 32H35.2728C35.8354 32 36.1167 31.7105 35.9544 31.1392C35.7769 30.5699 35.1394 29.744 34.2935 28.7647C33.8346 28.2064 33.146 27.6054 32.9376 27.3049C32.6454 26.9184 32.7288 26.7468 32.9376 26.4035C32.9376 26.4035 35.3366 22.9257 35.587 21.745V21.7448Z" fill="#5281B7"/>
</svg>
