<svg width="53" height="52" viewBox="0 0 53 52" fill="none" xmlns="http://www.w3.org/2000/svg">
<ellipse cx="26.5" cy="26" rx="26" ry="26.5" transform="rotate(-90 26.5 26)" fill="#F0F1F3"/>
<path d="M26.9999 19.7226C28.0172 19.7226 28.8448 20.5854 28.8448 21.646C28.8448 22.7058 28.017 23.5686 26.9999 23.5686C25.9832 23.5686 25.1554 22.7058 25.1554 21.646C25.1552 20.5851 25.9834 19.7226 26.9999 19.7226ZM26.9999 26.2898C29.4573 26.2898 31.4557 24.207 31.4557 21.646C31.4557 19.0837 29.4575 17 26.9999 17C24.5427 17 22.544 19.084 22.544 21.646C22.544 24.207 24.5427 26.2898 26.9999 26.2898ZM28.8025 30.0791C29.7192 29.8614 30.5939 29.4838 31.3898 28.9621C31.6828 28.77 31.8906 28.4643 31.9674 28.1124C32.0443 27.7605 31.9839 27.3911 31.7995 27.0856C31.7084 26.9342 31.5895 26.803 31.4496 26.6996C31.3098 26.5961 31.1517 26.5224 30.9846 26.4827C30.8174 26.4429 30.6443 26.438 30.4753 26.468C30.3062 26.4981 30.1446 26.5626 29.9995 26.6578C28.174 27.8543 25.8245 27.8535 24.0005 26.6578C23.8554 26.5625 23.6938 26.498 23.5247 26.468C23.3557 26.4379 23.1827 26.4429 23.0155 26.4826C22.8483 26.5223 22.6903 26.5961 22.5505 26.6995C22.4107 26.803 22.2918 26.9342 22.2006 27.0856C22.0162 27.391 21.9558 27.7603 22.0325 28.1122C22.1092 28.4641 22.3168 28.7698 22.6097 28.9621C23.4056 29.4836 24.2801 29.8612 25.1966 30.0791L22.7057 32.6765C22.4609 32.9318 22.3234 33.278 22.3235 33.639C22.3235 34 22.4611 34.3461 22.706 34.6013C22.9509 34.8566 23.283 34.9999 23.6292 34.9998C23.9755 34.9998 24.3075 34.8563 24.5523 34.601L26.9995 32.0492L29.4481 34.6012C29.5692 34.7276 29.713 34.8279 29.8713 34.8964C30.0295 34.9648 30.1992 35 30.3706 35C30.5419 35 30.7116 34.9648 30.8699 34.8964C31.0281 34.8279 31.1719 34.7276 31.293 34.6012C31.4144 34.475 31.5108 34.3251 31.5765 34.16C31.6422 33.9949 31.6761 33.8178 31.6761 33.6391C31.6761 33.4603 31.6422 33.2833 31.5765 33.1182C31.5108 32.9531 31.4144 32.8031 31.293 32.6769L28.8025 30.0791Z" fill="#EE830D"/>
</svg>
