<?xml version="1.0" encoding="utf-8"?><svg xmlns="http://www.w3.org/2000/svg" xmlns:xlink="http://www.w3.org/1999/xlink"><symbol viewBox="0 0 24 24" id="arrow" xmlns="http://www.w3.org/2000/svg"><path d="M3 12h16m-5-5l5 5-5 5" stroke="#8D8F92" stroke-width="2" stroke-linejoin="round"/></symbol><symbol viewBox="0 0 48 48" id="arrow-big" xmlns="http://www.w3.org/2000/svg"><path fill-rule="evenodd" clip-rule="evenodd" d="M33.004 24.878H11.94v-2h21.065l-8.242-8.242 1.414-1.414 9.95 9.949a1 1 0 010 1.414l-9.95 9.949-1.414-1.414 8.242-8.242z"/></symbol><symbol viewBox="0 0 24 24" id="calc" xmlns="http://www.w3.org/2000/svg"><path fill-rule="evenodd" clip-rule="evenodd" d="M5.223.978a1.61 1.61 0 00-1.15.484c-.302.31-.471.727-.471 1.161v18.274c0 .434.169.852.472 1.16.303.31.716.486 1.15.486h13.844a1.61 1.61 0 001.15-.485c.302-.31.471-.727.471-1.161V2.623c0-.434-.169-.851-.472-1.16a1.61 1.61 0 00-1.15-.485H5.224zM5.221 2.61a.006.006 0 01.002-.002h13.845l.002.002a.02.02 0 01.005.013v18.274a.02.02 0 01-.005.013l-.002.002H5.223l-.002-.002a.02.02 0 01-.005-.013V2.623a.02.02 0 01.005-.013zm2.974 1.356a1.56 1.56 0 00-1.129.489c-.295.31-.458.726-.458 1.156v3.32c0 .43.163.846.458 1.155.296.31.702.489 1.129.489h7.911a1.56 1.56 0 001.129-.489c.295-.31.458-.726.458-1.156V5.61c0-.43-.163-.846-.458-1.155a1.56 1.56 0 00-1.129-.489H8.195zm.007 1.633l.001-.003h7.895l.001.003a.034.034 0 01.003.012v3.32a.02.02 0 01-.003.011l-.001.003H8.203l-.001-.003a.032.032 0 01-.003-.012V5.61a.02.02 0 01.003-.011z"/><path fill-rule="evenodd" clip-rule="evenodd" d="M14.327 12.027a.63.63 0 00-.63.631v1.684a.63.63 0 00.63.63h1.684a.63.63 0 00.63-.63v-1.684a.63.63 0 00-.63-.63h-1.684zm-6.071 0a.63.63 0 00-.631.631v1.684a.63.63 0 00.63.63H9.94a.631.631 0 00.63-.63v-1.684a.63.63 0 00-.63-.63H8.256zm0 4.978a.63.63 0 00-.631.63v1.685a.63.63 0 00.63.63H9.94a.63.63 0 00.63-.63v-1.684a.63.63 0 00-.63-.631H8.256zm6.071 0a.63.63 0 00-.63.63v1.685a.63.63 0 00.63.63h1.684a.63.63 0 00.63-.63v-1.684a.63.63 0 00-.63-.631h-1.684z"/></symbol><symbol viewBox="0 0 24 24" id="call" xmlns="http://www.w3.org/2000/svg"><path d="M8.8 2.8c0-.2-.1-.4-.3-.6-.2-.1-.4-.2-.6-.2h-5c-.2 0-.4.1-.5.2-.1.1-.3.4-.3.6C2 3.3 2 3.9 2 4.5c0 9.4 7.6 17 17 17 .6 0 1.2 0 1.8-.1.2 0 .4-.1.6-.3.1-.2.2-.4.2-.6v-5c0-.2-.1-.4-.2-.6-.1-.2-.3-.3-.6-.3-1.8-.1-3.6-.7-5.2-1.5-.2-.1-.4-.1-.6-.1-.2 0-.4.2-.5.3L13.3 15l-.2-.1c-1.9-1.1-3.4-2.6-4.5-4.5l-.1-.2 1.6-1.1c.1-.1.2-.3.3-.5.1-.2 0-.4-.1-.6-.9-1.6-1.4-3.4-1.5-5.2zm3.4 13.6c.6.3 1.1.6 1.6.8l1.5-2.1.2.1c1.3.6 2.6 1 4 1.2h.2v3.4h-.8c-4.1 0-7.9-1.6-10.8-4.5-2.8-2.9-4.4-6.7-4.4-10.8v-.8h3.4v.2c.2 1.4.6 2.7 1.2 4l.1.2-2.1 1.5c.2.5.5 1.1.7 1.6v.1c1.3 2.1 3.1 3.9 5.2 5.1z"/></symbol><symbol viewBox="0 0 24 24" id="clock" xmlns="http://www.w3.org/2000/svg"><path fill-rule="evenodd" clip-rule="evenodd" d="M2.848 12a9.15 9.15 0 1118.3 0 9.15 9.15 0 01-18.3 0zm9.15-10.85C6.006 1.15 1.148 6.008 1.148 12s4.858 10.85 10.85 10.85c5.993 0 10.85-4.858 10.85-10.85S17.991 1.15 11.998 1.15zm.85 4.85a.85.85 0 10-1.7 0v6a.85.85 0 00.47.76l4 2a.85.85 0 00.76-1.52l-3.53-1.765V6z"/></symbol><symbol viewBox="0 0 24 24" id="consult" xmlns="http://www.w3.org/2000/svg"><path d="M20 15v1.667H8.333L5 20V5h15v10z" stroke="#828282" stroke-width="1.7" stroke-linejoin="round"/></symbol><symbol viewBox="0 0 24 24" id="delete" xmlns="http://www.w3.org/2000/svg"><path fill-rule="evenodd" clip-rule="evenodd" d="M11.707 13.121L17 18.413 18.413 17l-5.292-5.292 5.293-5.293L17 5l-5.293 5.293L6.414 5 5 6.414l5.293 5.293L5 17l1.414 1.414 5.292-5.292z"/></symbol><symbol viewBox="0 0 24 24" id="doc" xmlns="http://www.w3.org/2000/svg"><g clip-path="url(#hclip0)"><path d="M14.514 4.405c.316 0 .572.256.572.572V6.74c0 .962.782 1.743 1.743 1.743h1.48a.572.572 0 010 1.143h-1.48a2.89 2.89 0 01-2.886-2.886V4.977c0-.316.255-.572.571-.572z"/><path d="M15.086 4.977h-.05.05zm0 1.764h.05-.05zm3.222 2.886v.05-.05zm-1.48 0v-.05.05zm-2.885-2.886h.05-.05zm0-1.764h-.05.05zm.571-.522c.288 0 .522.234.522.522h.1a.621.621 0 00-.622-.622v.1zm.522.522V6.74h.1V4.977h-.1zm0 1.764c0 .99.804 1.793 1.793 1.793v-.1a1.694 1.694 0 01-1.693-1.693h-.1zm1.793 1.793h1.48v-.1h-1.48v.1zm1.48 0c.287 0 .52.234.52.522h.1a.622.622 0 00-.62-.622v.1zm.52.522a.521.521 0 01-.52.521v.1a.622.622 0 00.62-.621h-.1zm-.52.521h-1.48v.1h1.48v-.1zm-1.48 0a2.84 2.84 0 01-2.836-2.836h-.1a2.94 2.94 0 002.936 2.936v-.1zm-2.836-2.836V4.977h-.1V6.74h.1zm0-1.764c0-.288.233-.522.521-.522v-.1a.621.621 0 00-.621.622h.1z"/><path d="M4.27 5.254h0a4.218 4.218 0 00-1.238 2.974v9.794a4.194 4.194 0 004.189 4.189h4.525a.543.543 0 100-1.086H7.22a3.106 3.106 0 01-3.103-3.103V8.228c0-.822.334-1.624.918-2.203 0 0 0 0 0 0l2.267-2.248c.585-.58 1.361-.9 2.185-.9h7.416a3.106 3.106 0 013.103 3.103v8.166a.543.543 0 001.086 0V5.98c0-2.31-1.88-4.19-4.189-4.19H9.488c-1.113 0-2.16.432-2.95 1.216 0 0 0 0 0 0L4.27 5.254z" stroke="#FF6B01" stroke-width=".3"/><path d="M20.204 19.06l-2.508 2.507a.84.84 0 01-1.188 0l-2.507-2.508" stroke="#FF6B01" stroke-width="1.5" stroke-linecap="round" stroke-linejoin="round"/><path stroke="#FF6B01" stroke-width="1.5" stroke-linecap="round" d="M17.071 14.75v4.704m-3.82-8.704H6.75m6.501 3H6.75m6.501 3H6.75"/></g><defs><clipPath id="hclip0"><path transform="translate(1.5 1.5)" d="M0 0h21v21H0z"/></clipPath></defs></symbol><symbol viewBox="0 0 24 24" id="eye" xmlns="http://www.w3.org/2000/svg"><path fill-rule="evenodd" clip-rule="evenodd" d="M2.447 12.789a16.967 16.967 0 01-.48-.79A18.83 18.83 0 014.493 8.58c1.803-1.923 4.344-3.73 7.504-3.73 3.16 0 5.702 1.807 7.505 3.731A18.823 18.823 0 0122.031 12a18.826 18.826 0 01-2.527 3.419c-1.804 1.923-4.345 3.73-7.506 3.73-3.16 0-5.7-1.807-7.504-3.73a18.832 18.832 0 01-2.047-2.63zm21.311-1.17l-.76.38.76.382-.001.003-.003.006-.011.021a8.183 8.183 0 01-.19.35 20.52 20.52 0 01-2.81 3.82c-1.946 2.076-4.905 4.269-8.745 4.269-3.84 0-6.798-2.193-8.745-4.269a20.524 20.524 0 01-2.81-3.82 12.212 12.212 0 01-.189-.35l-.01-.021-.004-.006-.001-.003.76-.381-.76-.38v-.002l.001-.002.003-.006.011-.022.04-.075a18.324 18.324 0 01.725-1.224 20.523 20.523 0 012.234-2.87c1.947-2.077 4.906-4.27 8.745-4.27 3.84 0 6.8 2.193 8.746 4.27a20.518 20.518 0 012.81 3.82 12.091 12.091 0 01.189.35l.01.02.004.007.001.002v.001zm-.76.38l.76-.38a.85.85 0 010 .761l-.76-.38zm-22.76-.38l.76.38-.76.381a.85.85 0 010-.76zm9.61.38a2.15 2.15 0 114.3 0 2.15 2.15 0 01-4.3 0zm2.15-3.85a3.85 3.85 0 100 7.7 3.85 3.85 0 000-7.7z"/></symbol><symbol viewBox="0 0 24 24" id="geo" xmlns="http://www.w3.org/2000/svg"><path d="M18.256 2.59A8.788 8.788 0 0012.002 0a8.79 8.79 0 00-6.255 2.59 8.788 8.788 0 00-2.59 6.255 8.849 8.849 0 006.962 8.644L12.002 24l1.883-6.51a8.849 8.849 0 006.962-8.645c0-2.362-.92-4.584-2.59-6.254zm-6.254-.28a6.504 6.504 0 016.497 6.496 6.504 6.504 0 01-6.497 6.497 6.504 6.504 0 01-6.497-6.497 6.504 6.504 0 016.497-6.497z"/></symbol><symbol viewBox="0 0 24 24" id="link" xmlns="http://www.w3.org/2000/svg"><path fill-rule="evenodd" clip-rule="evenodd" d="M15.689 4a4.284 4.284 0 00-3.073 1.27l-.01.01-1.152 1.19a1 1 0 101.436 1.391l1.147-1.183A2.284 2.284 0 0115.671 6c.604.006 1.19.257 1.628.712.44.457.695 1.083.7 1.744a2.551 2.551 0 01-.666 1.751l-2.003 2.08c-.24.25-.527.44-.839.561a2.236 2.236 0 01-1.921-.144 2.388 2.388 0 01-.759-.683 1 1 0 00-1.622 1.169c.37.514.845.943 1.394 1.254a4.234 4.234 0 003.631.27 4.337 4.337 0 001.557-1.04l2.01-2.086.011-.013A4.55 4.55 0 0020 8.44a4.546 4.546 0 00-1.26-3.114A4.288 4.288 0 0015.688 4zm-5.057 5.012a4.235 4.235 0 00-1.846.275 4.338 4.338 0 00-1.557 1.038l-2.01 2.087-.011.013A4.55 4.55 0 004 15.56a4.546 4.546 0 001.26 3.114A4.288 4.288 0 008.312 20a4.284 4.284 0 003.073-1.27l.012-.013 1.145-1.19a1 1 0 10-1.44-1.386l-1.14 1.182A2.284 2.284 0 018.33 18a2.288 2.288 0 01-1.628-.712 2.546 2.546 0 01-.7-1.744 2.551 2.551 0 01.666-1.751l2.003-2.08c.24-.25.527-.44.839-.561a2.236 2.236 0 011.921.144c.295.167.554.399.759.683a1 1 0 001.622-1.169 4.39 4.39 0 00-1.394-1.254 4.258 4.258 0 00-1.785-.544z"/></symbol><symbol viewBox="0 0 24 24" id="message" xmlns="http://www.w3.org/2000/svg"><path fill-rule="evenodd" clip-rule="evenodd" d="M4.15 5c0-.47.38-.85.85-.85h15c.47 0 .85.38.85.85v11.667c0 .47-.38.85-.85.85H8.685L5.601 20.6A.85.85 0 014.15 20V5zm1.7.85v12.098l1.882-1.882a.85.85 0 01.601-.25H19.15V5.85H5.85z"/></symbol><symbol viewBox="0 0 24 24" id="more" xmlns="http://www.w3.org/2000/svg"><path fill-rule="evenodd" clip-rule="evenodd" d="M16.586 11l-3.293-3.293 1.414-1.414 5 5a1 1 0 010 1.414l-5 5-1.414-1.414L16.586 13H3v-2h13.586z"/></symbol><symbol viewBox="0 0 18 18" id="people" xmlns="http://www.w3.org/2000/svg"><path fill-rule="evenodd" clip-rule="evenodd" d="M11.219 8.375a2.5 2.5 0 100-4.75C11.709 4.289 12 5.11 12 6c0 .89-.29 1.711-.781 2.375zM10 2.535a4 4 0 014.653 6.458A5.493 5.493 0 0117 13.5V16H2v-2.5a5.5 5.5 0 012.972-4.886A4 4 0 0110 2.535zM11.5 13.5a4 4 0 00-2.38-3.659 4.002 4.002 0 01-2.74-.182A4.002 4.002 0 003.5 13.5v1h8v-1zm.236-3.509A5.478 5.478 0 0113 13.5v1h2.5v-1a4 4 0 00-2.38-3.659 4.001 4.001 0 01-1.384.15zM10.5 6a2.5 2.5 0 11-5 0 2.5 2.5 0 015 0z"/></symbol><symbol viewBox="0 0 18 18" id="plus" xmlns="http://www.w3.org/2000/svg"><path stroke="#FF6B01" stroke-width="2" d="M4 9h10M9 4v10"/></symbol><symbol viewBox="0 0 24 24" id="print" xmlns="http://www.w3.org/2000/svg"><path fill-rule="evenodd" clip-rule="evenodd" d="M5.148 2c0-.47.381-.85.85-.85h12c.47 0 .85.38.85.85v7a.85.85 0 11-1.7 0V2.85h-10.3V9a.85.85 0 01-1.7 0V2z"/><path fill-rule="evenodd" clip-rule="evenodd" d="M3.998 9.85A1.15 1.15 0 002.848 11v5a1.15 1.15 0 001.15 1.15h2a.85.85 0 010 1.7h-2A2.85 2.85 0 011.148 16v-5a2.85 2.85 0 012.85-2.85h16a2.85 2.85 0 012.85 2.85v5a2.85 2.85 0 01-2.85 2.85h-2a.85.85 0 010-1.7h2a1.15 1.15 0 001.15-1.15v-5a1.15 1.15 0 00-1.15-1.15h-16z"/><path fill-rule="evenodd" clip-rule="evenodd" d="M5.148 14c0-.47.381-.85.85-.85h12c.47 0 .85.38.85.85v8c0 .47-.38.85-.85.85h-12a.85.85 0 01-.85-.85v-8zm1.7.85v6.3h10.3v-6.3h-10.3z"/></symbol><symbol viewBox="0 0 24 24" id="profile" xmlns="http://www.w3.org/2000/svg"><path d="M12 17c3.662 0 6.866 1.575 8.608 3.925l-1.843.871C17.348 20.116 14.848 19 12.002 19c-2.847 0-5.347 1.116-6.765 2.796l-1.841-.872C5.137 18.574 8.339 17 12 17zm0-15a5 5 0 015 5v3a5 5 0 01-4.783 4.995l-.216.005a5 5 0 01-5-5V7a5 5 0 014.782-4.995L12.002 2zm0 2a3 3 0 00-2.994 2.824L9 7v3a3 3 0 005.995.176L15 10V7a3 3 0 00-3-3z"/></symbol><symbol viewBox="0 0 23 23" id="quest" xmlns="http://www.w3.org/2000/svg"><circle cx="11.5" cy="11.5" r="11" stroke="#B7BAC2"/><path d="M14.102 9.156c0 .386-.07.724-.211 1.016a3.761 3.761 0 01-.508.797 6.503 6.503 0 01-.672.695 7.487 7.487 0 00-.672.68 3.624 3.624 0 00-.516.781 2.188 2.188 0 00-.203.96H9.656c0-.426.068-.806.203-1.14a3.86 3.86 0 01.532-.914c.213-.27.44-.52.68-.75.239-.229.466-.456.679-.68.213-.223.388-.453.523-.687a1.47 1.47 0 00.211-.773c0-.339-.101-.6-.304-.782-.198-.182-.47-.273-.813-.273-.51 0-.883.143-1.117.43-.234.28-.38.671-.438 1.171l-1.5-.226c.094-.875.394-1.565.899-2.07.51-.506 1.224-.758 2.14-.758.865 0 1.54.229 2.024.687.484.459.727 1.07.727 1.836zM11.625 17H9.656v-1.969h1.969V17z"/></symbol><symbol viewBox="0 0 24 24" id="reset" xmlns="http://www.w3.org/2000/svg"><path fill-rule="evenodd" clip-rule="evenodd" d="M12 2.85a9.15 9.15 0 100 18.3 9.15 9.15 0 000-18.3zM1.15 12C1.15 6.008 6.008 1.15 12 1.15c5.993 0 10.85 4.858 10.85 10.85S17.993 22.85 12 22.85C6.008 22.85 1.15 17.992 1.15 12zm14.451-3.601a.85.85 0 010 1.202L13.202 12l2.4 2.399a.85.85 0 11-1.203 1.202L12 13.202l-2.399 2.399A.85.85 0 118.4 14.399l2.4-2.4-2.4-2.398a.85.85 0 111.202-1.202l2.4 2.399 2.398-2.4a.85.85 0 011.202 0z"/></symbol><symbol viewBox="0 0 24 24" id="schedule" xmlns="http://www.w3.org/2000/svg"><path fill-rule="evenodd" clip-rule="evenodd" d="M18.028 3.905h2.53c.43 0 .777.35.777.78v15.871c0 .43-.347.777-.777.777H3.445a.776.776 0 01-.777-.777V4.686a.78.78 0 01.777-.781h2.53v-.461c0-.43.346-.777.777-.777.43 0 .777.346.777.777v.46h8.945v-.46c0-.43.346-.777.777-.777.43 0 .777.346.777.777v.46zM4.222 19.779h15.55V5.463h-1.748v.46a.776.776 0 01-.777.778.775.775 0 01-.777-.777v-.461H7.525v.46a.776.776 0 01-.777.778.776.776 0 01-.777-.777v-.461H4.222v14.316zM6 9.25a.75.75 0 000 1.5h12a.75.75 0 000-1.5H6zM5.25 13a.75.75 0 01.75-.75h12a.75.75 0 010 1.5H6a.75.75 0 01-.75-.75zM6 15.25a.75.75 0 000 1.5h12a.75.75 0 000-1.5H6z"/></symbol></svg>